<svg width="1627" height="1080" viewBox="0 0 1627 1080" fill="none" xmlns="http://www.w3.org/2000/svg">
<mask id="mask0" mask-type="alpha" maskUnits="userSpaceOnUse" x="0" y="0" width="1627" height="1080">
<rect width="1627" height="1080" fill="#C4C4C4"/>
</mask>
<g mask="url(#mask0)">
<path d="M-24.8417 -290.23C-115.342 -252.705 -182.113 -163.859 -190.942 -66.1842C-200.875 52.4609 -112.583 103.782 -68.9881 200.905C-24.2899 300.236 -76.7137 396.256 -155.625 458.061C-196.461 490.068 -241.159 520.971 -265.439 566.773C-295.238 621.957 -289.72 692.592 -257.162 745.569C-218.534 807.926 -150.107 840.485 -95.476 886.839C-11.598 958.026 4.95692 1068.95 -59.0552 1160C-116.997 1242.22 -218.534 1302.37 -314 1330.52" stroke="#131A40" stroke-opacity="0.1" stroke-width="0.75" stroke-miterlimit="10"/>
<path d="M-278.682 1312.86C-249.435 1303.48 -219.636 1290.78 -189.838 1274.78C-161.143 1259.33 -132.999 1241.12 -107.064 1220.7C-76.1611 1196.42 -47.466 1168.83 -25.3929 1137.92C28.6863 1062.32 25.9272 972.373 -25.3928 903.393C-35.3257 890.149 -46.9142 878.009 -59.6063 866.42C-100.442 831.102 -149.554 804.062 -187.63 765.434C-199.77 753.293 -210.807 740.049 -220.188 725.15C-248.883 679.347 -257.161 620.3 -239.502 569.531C-236.743 562.357 -233.984 555.184 -230.121 548.01C-206.392 502.759 -162.798 471.856 -123.066 439.85C-67.3318 394.599 -24.841 331.689 -22.6337 262.158C-22.0818 236.773 -26.4964 210.285 -38.6367 183.245C-44.7068 168.897 -51.8806 155.653 -59.6062 142.961C-104.304 70.1184 -165.005 17.6939 -157.28 -82.7405C-153.969 -122.473 -142.932 -160.55 -123.618 -194.212C-95.4751 -243.877 -52.4324 -284.713 1.09489 -308.442" stroke="#131A40" stroke-opacity="0.1" stroke-width="0.7869" stroke-miterlimit="10"/>
<path d="M-245.572 1298.51C-217.981 1289.13 -189.286 1275.33 -160.59 1258.78C-132.999 1242.22 -104.856 1223.46 -78.3679 1202.49C-46.9136 1177.66 -17.6666 1150.06 4.95835 1119.16C59.5894 1044.66 57.3821 955.266 7.16564 886.286C-2.21545 873.042 -13.8039 860.901 -26.496 849.313C-66.7795 813.995 -115.34 786.403 -153.417 748.326C-165.557 736.186 -176.593 722.942 -185.975 708.042C-214.67 662.24 -223.499 603.745 -206.392 553.528C-204.185 546.354 -200.874 539.18 -197.563 532.558C-174.938 487.859 -132.447 456.956 -93.819 424.95C-39.7397 379.699 1.64734 317.341 3.85466 247.81C4.40649 222.425 -0.00807484 195.937 -11.5965 169.449C-17.6666 155.101 -24.8405 141.857 -32.0142 129.165C-75.6087 56.3222 -134.103 4.44951 -126.929 -95.9849C-124.17 -136.269 -114.237 -174.346 -96.0264 -207.456C-69.5386 -257.121 -29.255 -297.957 23.7206 -322.79" stroke="#131A40" stroke-opacity="0.1" stroke-width="0.8238" stroke-miterlimit="10"/>
<path d="M-213.015 1288.58C-187.079 1278.64 -159.488 1264.3 -131.345 1246.64C-104.305 1229.53 -76.1618 1209.66 -49.6741 1188.14C-18.2199 1162.21 11.5788 1135.17 35.3074 1104.26C89.9384 1030.87 88.8346 942.023 39.1701 873.043C29.789 859.799 18.7525 847.658 6.06041 836.07C-33.6712 800.752 -81.6802 773.16 -119.756 735.083C-131.897 722.943 -142.933 709.699 -152.314 695.351C-181.009 650.1 -190.39 592.158 -174.387 542.492C-172.18 535.318 -169.421 528.144 -166.11 521.522C-144.037 476.824 -103.202 446.472 -65.6772 414.466C-12.7017 369.215 27.5818 306.858 29.7891 237.878C30.341 212.493 25.9263 186.557 14.8897 160.069C8.81962 145.721 2.19765 132.477 -4.97611 120.337C-46.915 48.0458 -103.753 -4.37876 -97.6831 -103.71C-94.924 -143.994 -86.6466 -182.07 -70.0917 -215.181C-44.7076 -264.846 -7.18334 -306.234 45.7921 -332.17" stroke="#131A40" stroke-opacity="0.1" stroke-width="0.8607" stroke-miterlimit="10"/>
<path d="M-181.56 1283.06C-156.728 1273.12 -130.792 1258.22 -103.201 1239.46C-76.7129 1221.8 -48.5696 1200.83 -22.0819 1178.76C9.92416 1152.27 40.2746 1125.23 64.5551 1093.78C119.738 1021.49 118.634 933.193 70.6252 863.661C61.2441 850.417 50.2076 838.277 38.0674 826.688C-1.11242 791.371 -48.5697 763.227 -86.6458 725.702C-98.7861 713.561 -109.823 700.869 -119.204 685.97C-147.899 641.271 -157.832 583.88 -142.381 534.766C-140.173 527.592 -137.414 520.97 -134.103 513.796C-113.134 469.649 -73.4019 439.298 -36.9813 407.292C14.3388 362.593 53.5185 300.235 55.7258 231.256C56.8295 205.871 52.4148 179.935 41.9301 153.446C36.4118 139.099 29.7899 126.406 22.6161 113.714C-18.2192 41.9753 -72.8501 -10.4493 -67.3318 -109.228C-65.1245 -150.064 -57.9507 -187.589 -42.4995 -220.699C-19.3227 -269.813 15.4424 -311.201 67.8661 -338.241" stroke="#131A40" stroke-opacity="0.1" stroke-width="0.8975" stroke-miterlimit="10"/>
<path d="M-150.658 1280.3C-127.481 1270.37 -102.649 1254.36 -75.6096 1235.05C-49.6737 1216.29 -22.0822 1194.76 4.95735 1172.14C36.9634 1145.1 68.4176 1118.06 93.2498 1086.6C148.984 1014.86 148.433 927.674 100.975 858.143C92.1462 844.899 81.1097 832.758 68.9695 821.17C30.3415 785.852 -16.564 757.708 -54.0883 720.183C-66.2285 708.043 -77.2651 695.351 -86.6461 681.003C-115.341 636.304 -125.274 580.017 -111.478 530.903C-109.271 523.729 -107.064 517.107 -103.753 510.485C-83.887 466.89 -45.259 436.539 -9.94205 404.532C39.7225 359.834 77.7986 298.028 80.5577 229.048C81.6614 203.664 77.2468 177.727 67.3139 151.791C61.7956 137.995 55.7255 124.751 48.5518 112.059C9.37198 40.3197 -43.0516 -11.553 -38.637 -110.332C-36.9815 -151.72 -30.9114 -189.245 -16.5639 -221.803C4.40562 -270.365 36.9633 -312.304 88.8352 -341" stroke="#131A40" stroke-opacity="0.1" stroke-width="0.9344" stroke-miterlimit="10"/>
<path d="M-120.859 1280.85C-99.3381 1270.37 -75.0577 1253.81 -49.1217 1233.94C-23.7376 1214.63 3.85387 1192 30.8935 1169.38C63.4514 1141.79 95.4576 1114.75 120.842 1082.74C176.576 1012.11 177.128 925.468 130.775 855.936C121.945 842.692 111.461 830.551 98.7685 818.963C60.6924 783.645 13.7869 755.502 -23.1857 717.977C-35.3259 705.836 -45.8106 693.144 -55.1917 678.796C-84.4386 634.649 -94.3716 578.914 -81.1277 530.352C-79.4722 523.178 -76.7131 516.556 -73.954 509.934C-54.64 466.339 -17.6673 436.54 16.5461 404.533C65.107 359.834 102.08 298.028 104.287 229.601C105.391 204.216 101.528 178.832 91.5947 152.895C86.0764 139.099 80.0064 125.855 73.3844 113.715C35.3082 42.5278 -14.9082 -9.89678 -11.5972 -107.572C-9.94169 -148.96 -5.52706 -186.485 7.71684 -219.595C27.0308 -268.157 56.8295 -310.096 108.701 -339.896" stroke="#131A40" stroke-opacity="0.1" stroke-width="0.9713" stroke-miterlimit="10"/>
<path d="M-91.6124 1284.16C-71.7466 1273.68 -48.5699 1256.02 -23.7376 1235.05C1.09469 1214.63 28.6861 1191.45 55.7256 1168.27C88.8353 1140.13 121.393 1113.09 147.329 1081.08C203.616 1011.55 204.168 925.466 158.918 855.935C150.088 842.691 139.604 830.55 127.463 818.962C89.939 783.644 43.5855 754.948 6.61299 717.975C-4.9754 706.387 -16.0119 693.143 -25.393 679.347C-54.6399 635.752 -65.1246 580.016 -52.9844 532.558C-51.3289 525.936 -49.1217 518.762 -46.3625 512.14C-28.1522 469.097 7.71673 439.297 40.8264 407.291C87.7318 362.592 123.601 301.338 126.36 232.91C127.463 208.077 123.601 182.141 114.22 156.205C109.253 142.409 103.183 129.165 96.5611 117.024C60.1405 46.3891 11.5794 -6.03552 14.3386 -103.159C15.4422 -145.099 18.7532 -182.624 30.8934 -215.182C48.5519 -263.192 75.5917 -305.683 126.912 -336.586" stroke="#131A40" stroke-opacity="0.1" stroke-width="1.0082" stroke-miterlimit="10"/>
<path d="M-62.9171 1289.68C-44.1549 1278.64 -22.6336 1260.98 1.64684 1238.91C25.3754 1217.94 52.9667 1194.21 80.5581 1169.93C113.668 1141.24 147.329 1114.2 173.817 1081.64C230.104 1012.66 231.759 927.123 187.613 858.143C179.335 844.899 168.851 832.759 156.71 821.17C119.738 785.301 73.9362 757.157 36.9638 720.184C25.3754 708.595 14.3389 695.903 4.95786 681.555C-24.289 637.96 -35.3256 583.328 -23.7372 535.87C-22.0817 529.248 -19.8744 522.626 -17.1152 516.004C-0.00857748 473.513 34.7564 443.162 66.7624 411.707C112.012 367.008 147.329 305.754 149.537 237.878C150.64 213.045 146.778 187.109 137.948 161.724C132.982 147.928 127.464 134.684 121.394 122.544C86.0766 51.9087 39.7229 -0.515846 41.9302 -97.0874C43.0339 -139.027 44.6895 -176.552 55.1742 -209.11C71.1772 -257.12 95.4576 -299.612 146.226 -332.17" stroke="#131A40" stroke-opacity="0.1" stroke-width="1.0451" stroke-miterlimit="10"/>
<path d="M-34.223 1297.4C-17.1162 1286.37 3.30149 1267.61 27.0302 1244.98C50.207 1222.91 77.7985 1198.63 105.942 1173.79C139.603 1144.55 173.817 1117.51 200.857 1084.95C257.143 1017.07 259.902 932.089 216.308 863.109C208.03 849.865 198.097 837.724 185.957 826.136C149.536 790.266 104.286 761.571 67.3137 725.149C55.7253 713.561 44.6888 700.869 35.3076 687.073C6.06067 644.029 -5.52775 589.949 4.95701 543.043C6.6125 536.421 8.26803 529.799 11.0272 523.177C27.5821 481.237 60.6917 450.886 91.5942 419.431C135.189 374.733 169.402 314.03 172.161 246.154C173.265 221.322 169.954 195.937 161.125 170.553C156.158 156.757 150.64 144.064 145.122 131.924C111.46 61.8407 66.762 9.41607 68.4175 -86.6037C68.9693 -129.095 68.9693 -166.068 78.9022 -198.627C93.2498 -246.085 114.771 -289.128 165.54 -322.79" stroke="#131A40" stroke-opacity="0.1" stroke-width="1.082" stroke-miterlimit="10"/>
<path d="M-6.07892 1306.79C9.37231 1295.2 28.6864 1275.88 51.8632 1252.71C74.4882 1230.08 102.08 1204.7 130.223 1179.86C163.885 1150.06 199.202 1123.02 226.793 1090.47C283.632 1023.69 286.391 939.263 243.9 870.283C235.623 857.039 225.69 844.899 214.101 833.31C178.232 797.441 133.534 768.745 96.5615 731.772C84.9731 720.184 73.9364 707.491 64.5553 693.695C35.3083 650.652 23.1681 597.676 33.1011 551.321C34.7566 544.699 36.412 538.077 38.6194 531.455C54.0706 489.515 86.0766 459.716 116.427 428.262C158.918 384.115 191.476 323.412 194.235 255.536C195.339 230.704 192.028 205.319 183.751 179.935C179.336 166.139 173.818 153.446 168.299 141.306C135.741 71.7745 93.2505 18.7981 93.8024 -76.118C94.3542 -118.609 92.6987 -156.134 101.528 -188.141C114.22 -235.599 132.982 -278.642 183.199 -313.408" stroke="#131A40" stroke-opacity="0.1" stroke-width="1.1189" stroke-miterlimit="10"/>
<path d="M22.0639 1317.27C36.4115 1305.68 54.07 1285.26 76.695 1261.54C98.7681 1237.81 125.808 1211.87 154.503 1186.49C188.716 1156.13 224.585 1129.09 252.728 1095.98C309.567 1029.76 313.43 946.436 272.042 877.456C264.317 864.212 254.384 852.072 242.796 840.483C207.479 804.614 162.78 775.918 126.36 738.945C114.771 727.357 103.735 714.664 94.3534 700.868C65.1065 658.377 52.4144 605.952 61.2437 559.598C62.3473 552.976 64.5548 546.354 66.2103 540.284C80.5578 498.896 111.46 469.097 140.707 437.642C181.543 393.495 213.549 332.793 216.308 265.469C217.411 240.636 214.652 215.803 206.375 190.419C201.96 176.623 196.994 163.931 191.475 151.79C160.021 82.2586 119.738 29.8341 119.738 -65.082C119.738 -108.125 116.978 -145.098 124.704 -177.105C135.741 -224.011 151.744 -267.606 201.408 -303.476" stroke="#131A40" stroke-opacity="0.1" stroke-width="1.1557" stroke-miterlimit="10"/>
<path d="M50.2075 1329.41C62.8995 1317.27 79.4545 1296.85 100.976 1271.47C122.497 1247.19 149.537 1220.15 178.232 1194.21C212.445 1163.31 248.866 1136.27 278.113 1103.16C334.952 1038.04 339.918 955.266 299.083 886.287C291.357 873.043 281.976 860.902 270.388 849.314C235.622 813.444 191.476 784.197 155.055 747.775C143.467 736.187 132.43 724.046 123.049 710.25C93.8021 668.311 80.5581 615.886 88.8356 570.635C89.9392 564.013 91.5948 557.943 93.8022 551.321C107.598 510.485 136.845 480.686 164.988 449.231C204.168 405.084 235.07 344.934 238.381 277.61C239.485 252.777 236.726 227.944 229 202.56C224.586 188.764 220.171 176.072 214.653 163.931C184.854 94.9514 146.226 41.975 145.674 -51.8374C145.674 -95.4326 141.259 -131.854 147.33 -163.86C156.711 -210.767 169.955 -254.362 219.619 -291.887" stroke="#131A40" stroke-opacity="0.1" stroke-width="1.1926" stroke-miterlimit="10"/>
<path d="M78.3512 1341.55C89.3878 1329.41 104.839 1307.89 125.808 1281.96C146.226 1256.57 173.266 1228.98 202.513 1202.49C237.278 1171.04 274.25 1144 304.049 1110.33C361.439 1046.32 366.957 964.097 327.226 894.565C319.5 881.321 310.119 869.181 299.082 857.592C264.869 821.723 221.275 792.475 184.854 756.054C173.266 744.465 162.781 732.325 152.848 718.529C123.601 676.589 109.805 625.268 116.979 580.57C118.083 573.947 119.738 567.877 121.394 561.807C134.086 521.523 162.229 491.724 189.269 460.269C227.345 416.122 256.592 355.972 259.903 289.199C261.006 264.919 258.247 239.534 251.074 214.701C247.211 201.457 242.244 188.765 237.278 176.624C208.583 108.197 172.162 55.2202 170.507 -38.0403C169.955 -81.6355 164.436 -118.609 169.403 -150.063C177.129 -196.418 187.613 -240.565 236.726 -279.193" stroke="#131A40" stroke-opacity="0.1" stroke-width="1.2295" stroke-miterlimit="10"/>
<path d="M107.046 1354.24C116.979 1341.55 130.775 1319.48 151.192 1292.99C171.058 1267.05 198.098 1238.36 227.345 1211.32C262.11 1179.31 300.186 1151.72 330.537 1118.61C387.927 1055.15 393.997 974.029 355.369 904.497C348.195 891.253 338.814 879.113 327.777 867.524C294.116 831.655 251.073 801.856 214.653 765.986C203.064 754.398 192.579 742.257 182.647 729.013C153.4 687.625 139.052 636.856 145.674 592.157C146.778 585.535 147.881 579.465 149.537 573.395C161.125 533.111 188.165 503.863 214.101 472.409C250.521 428.262 279.217 368.663 282.528 301.891C283.631 277.61 281.424 252.777 274.25 227.945C270.387 214.7 265.973 202.008 261.558 189.868C234.519 121.44 199.201 68.4635 197.546 -24.2452C196.442 -68.3922 189.82 -104.813 193.683 -136.268C199.201 -182.623 207.479 -226.77 256.04 -266.502" stroke="#131A40" stroke-opacity="0.1" stroke-width="1.2664" stroke-miterlimit="10"/>
<path d="M136.293 1366.94C144.57 1354.24 157.262 1331.07 177.128 1304.03C196.442 1276.99 223.482 1248.29 252.729 1220.7C288.046 1187.59 326.674 1160.55 357.576 1127.44C414.967 1065.08 422.14 983.961 384.616 914.982C377.442 901.737 368.613 889.597 357.577 878.008C324.467 842.139 281.976 812.34 245.555 776.47C233.967 764.882 223.482 752.741 214.101 739.497C184.854 698.661 169.955 648.444 175.473 604.297C176.025 598.227 177.68 591.605 179.336 585.534C190.372 545.802 215.756 516.555 240.589 485.1C275.354 440.953 302.945 381.906 306.256 315.134C307.36 290.853 305.153 266.02 298.531 241.188C294.668 227.944 290.805 215.251 286.391 203.111C260.455 135.235 227.345 82.2586 225.138 -9.89831C224.034 -54.0453 215.756 -90.4666 218.515 -122.473C222.378 -168.276 227.897 -212.975 276.458 -253.811" stroke="#131A40" stroke-opacity="0.1" stroke-width="1.3033" stroke-miterlimit="10"/>
<path d="M166.091 1379.63C172.713 1366.94 184.302 1342.66 203.616 1314.51C222.378 1286.92 248.866 1257.12 278.664 1228.98C313.981 1195.32 353.713 1168.28 385.167 1134.61C442.557 1072.81 450.835 992.793 413.862 923.813C406.689 910.569 397.859 898.428 387.375 886.84C354.817 850.418 312.326 821.171 277.009 785.302C265.42 773.713 254.936 762.124 245.555 748.88C216.308 708.044 201.408 658.931 205.823 615.336C206.375 609.265 207.479 603.195 209.134 597.125C219.067 557.944 243.899 528.697 267.076 497.242C300.186 453.095 326.674 394.049 330.536 327.828C331.64 303.547 329.984 279.267 323.362 254.434C320.051 241.19 316.189 228.497 311.774 216.909C286.942 149.585 256.039 96.0564 252.728 5.00314C251.073 -39.6957 241.692 -76.117 242.796 -107.572C245.003 -153.374 247.762 -198.073 295.771 -240.565" stroke="#131A40" stroke-opacity="0.1" stroke-width="1.3402" stroke-miterlimit="10"/>
<path d="M196.442 1391.22C201.408 1377.97 211.893 1353.69 230.655 1324.45C248.866 1295.75 275.354 1265.4 305.152 1236.7C341.021 1202.49 381.305 1175.45 413.311 1141.79C471.253 1081.09 480.083 1001.62 444.214 932.642C437.592 919.397 428.762 907.257 418.278 895.669C386.271 859.247 344.332 829.448 309.015 794.13C297.427 782.542 286.942 770.953 277.561 757.709C248.314 717.425 232.863 668.312 236.726 625.268C237.277 619.198 238.381 613.128 239.485 607.058C248.314 567.877 272.043 539.182 294.116 507.727C326.122 464.132 351.506 405.085 354.817 338.865C355.921 314.584 354.265 290.303 348.195 266.022C344.884 252.778 341.021 240.086 337.158 228.497C313.982 161.725 284.735 107.645 280.872 17.1435C278.665 -28.1072 267.628 -63.9766 268.18 -95.4313C268.732 -140.682 268.732 -185.933 316.189 -229.528" stroke="#131A40" stroke-opacity="0.1" stroke-width="1.377" stroke-miterlimit="10"/>
<path d="M227.345 1401.7C231.207 1388.46 240.037 1363.07 257.695 1333.28C274.802 1304.03 301.841 1272.57 331.64 1243.33C367.509 1208.56 408.344 1181.52 441.454 1147.31C499.396 1087.16 508.777 1008.79 474.012 939.815C467.39 926.571 459.112 914.431 448.628 902.842C417.174 866.421 375.786 836.622 340.469 801.304C329.433 790.267 318.396 778.127 309.015 765.435C279.217 725.702 263.765 677.141 266.525 634.649C267.076 628.579 267.628 622.509 268.732 616.438C276.457 577.81 299.082 549.114 320.604 517.66C350.954 474.064 375.235 415.018 379.097 349.349C380.201 325.62 378.546 300.787 373.027 276.507C369.716 263.263 366.405 251.122 362.543 238.982C340.469 172.209 313.43 118.681 309.015 28.7316C306.808 -16.5191 294.116 -52.3885 293.564 -83.8433C292.46 -128.542 289.701 -174.345 337.158 -219.043" stroke="#131A40" stroke-opacity="0.1" stroke-width="1.4139" stroke-miterlimit="10"/>
<path d="M259.35 1411.08C261.557 1397.29 269.835 1371.35 286.39 1341C302.944 1310.65 329.432 1278.64 359.783 1249.4C396.203 1214.08 437.59 1187.04 471.252 1152.82C529.194 1093.78 539.678 1015.97 505.465 946.989C498.843 933.745 490.566 921.604 480.633 910.016C449.73 873.594 408.895 843.243 373.578 807.926C362.542 796.889 351.505 784.749 342.124 772.056C312.326 732.324 296.322 684.866 298.53 642.926C299.082 636.856 299.633 630.786 300.737 625.267C307.911 587.191 328.88 557.943 349.298 527.04C377.993 483.445 401.17 424.95 405.033 359.282C406.136 335.553 405.033 311.272 399.514 286.991C396.755 273.747 393.444 261.607 389.581 250.018C369.164 183.797 343.78 129.717 338.261 40.3197C335.502 -5.48282 321.707 -41.3523 320.051 -72.2552C317.292 -116.954 311.774 -162.756 358.679 -208.559" stroke="#131A40" stroke-opacity="0.1" stroke-width="1.4508" stroke-miterlimit="10"/>
<path d="M292.46 1418.26C293.012 1404.46 300.186 1377.42 316.189 1346.52C332.192 1315.62 358.68 1282.5 389.03 1252.71C425.451 1216.84 467.942 1189.8 502.155 1155.58C560.097 1097.09 571.685 1020.38 538.576 951.402C532.505 938.158 524.228 926.018 514.295 914.429C483.945 878.008 443.661 847.657 408.344 812.339C397.308 801.303 386.271 789.162 376.89 776.47C347.091 737.289 330.536 690.383 331.64 648.995C331.64 642.925 332.192 636.855 333.295 631.337C339.366 593.812 359.231 564.564 378.545 533.661C405.585 490.066 428.21 432.123 432.073 366.455C433.728 342.726 432.073 318.445 427.106 294.716C424.347 281.472 421.588 269.331 417.725 257.743C398.411 192.074 374.683 137.994 369.164 49.1482C366.405 2.79386 350.954 -32.5237 348.195 -63.4266C343.78 -107.574 335.503 -153.928 381.856 -201.386" stroke="#131A40" stroke-opacity="0.1" stroke-width="1.4877" stroke-miterlimit="10"/>
<path d="M326.673 1423.22C326.122 1408.88 331.64 1381.84 347.091 1349.28C362.542 1317.27 389.03 1283.61 419.381 1253.26C456.353 1216.84 499.396 1189.8 534.161 1155.03C592.103 1097.64 604.243 1021.49 572.237 951.955C566.167 938.711 558.442 926.57 548.509 914.982C518.71 878.561 478.426 848.21 443.661 812.892C432.625 801.855 422.14 790.267 412.207 777.574C382.408 738.394 365.301 692.591 365.853 651.204C365.853 645.133 366.405 639.615 366.957 633.545C371.924 596.02 390.686 567.324 408.896 536.421C434.832 492.826 455.801 434.883 459.664 369.766C461.32 346.037 459.664 321.757 455.25 298.028C452.491 285.335 449.731 272.643 446.972 261.054C428.762 195.386 407.24 141.306 401.17 53.5635C397.859 7.20917 381.305 -28.1084 376.89 -59.0113C370.82 -103.158 359.783 -149.513 406.137 -198.074" stroke="#131A40" stroke-opacity="0.1" stroke-width="1.5246" stroke-miterlimit="10"/>
<path d="M362.542 1425.98C360.335 1411.64 364.749 1383.49 379.649 1350.38C394.548 1317.82 420.484 1283.06 451.387 1252.15C488.359 1215.18 531.954 1188.14 567.823 1153.38C625.765 1096.54 639.009 1021.49 608.106 951.955C602.036 938.711 594.311 926.571 584.93 914.43C556.234 878.009 515.951 847.106 481.186 812.34C470.149 801.304 459.664 789.715 449.731 777.023C419.933 738.394 402.274 692.592 401.722 652.307C401.722 646.237 401.722 640.719 402.826 635.201C407.24 598.227 424.347 569.532 441.454 538.629C465.734 495.034 485.6 437.643 490.015 372.526C491.67 348.797 490.567 325.068 486.152 301.339C483.945 288.647 481.186 276.506 478.426 264.918C461.872 199.801 442.006 145.721 434.832 57.9785C430.969 11.0723 413.311 -24.2453 407.792 -54.5964C400.067 -98.1915 386.271 -145.098 432.073 -194.763" stroke="#131A40" stroke-opacity="0.1" stroke-width="1.5615" stroke-miterlimit="10"/>
<path d="M400.066 1425.98C396.204 1411.08 399.514 1382.39 413.31 1348.73C427.106 1315.06 453.594 1280.3 485.048 1248.84C522.572 1211.32 566.719 1184.28 603.139 1148.96C661.081 1092.67 675.429 1018.18 645.078 949.196C639.56 935.952 631.834 923.812 622.453 911.671C594.31 875.25 554.578 844.347 519.813 809.581C508.777 798.545 498.292 786.956 488.359 774.816C458.56 736.739 440.35 691.488 439.246 651.756C439.246 646.238 439.246 640.167 439.798 634.649C443.109 598.228 459.112 569.532 475.115 538.629C497.74 495.034 517.054 438.195 521.469 373.078C523.124 349.349 522.021 325.62 518.158 301.891C515.95 289.199 513.743 277.058 510.984 265.47C495.533 200.905 477.874 146.273 470.149 59.6345C466.286 12.7283 446.972 -22.5893 440.35 -52.9403C430.969 -95.9837 414.414 -143.442 459.664 -194.211" stroke="#131A40" stroke-opacity="0.1" stroke-width="1.5984" stroke-miterlimit="10"/>
<path d="M439.245 1422.67C433.727 1407.77 435.935 1377.97 449.178 1343.76C462.422 1309.55 488.91 1273.68 520.364 1241.67C557.889 1203.59 603.139 1176.55 640.111 1141.24C698.053 1086.05 712.953 1012.11 684.258 943.126C678.739 929.882 671.566 917.741 662.184 905.601C634.593 869.18 595.413 837.725 560.648 803.511C549.611 792.474 539.127 780.886 529.746 768.745C499.947 730.668 481.185 686.521 478.977 646.789C478.425 641.271 478.425 635.201 478.977 630.234C481.185 594.365 496.084 565.669 510.983 534.766C531.953 491.723 550.163 434.332 554.578 369.767C556.233 346.59 555.682 322.861 551.819 299.132C549.611 286.439 547.956 274.299 545.197 262.71C530.849 198.697 514.846 144.065 507.121 57.9785C502.706 10.5205 482.288 -24.2452 474.563 -54.5963C463.526 -97.6396 444.212 -145.098 489.462 -197.522" stroke="#131A40" stroke-opacity="0.1" stroke-width="1.6352" stroke-miterlimit="10"/>
<path d="M480.634 1416.05C474.012 1401.15 474.564 1370.25 487.256 1334.93C499.948 1299.61 525.884 1263.19 557.89 1230.63C595.966 1192 641.768 1164.96 679.292 1129.65C737.234 1075.01 753.237 1002.17 725.094 933.192C719.575 919.948 712.402 907.808 703.572 895.667C676.533 858.694 637.905 827.791 603.14 793.577C592.103 782.541 581.618 771.504 572.237 759.363C542.438 721.838 523.124 678.243 520.365 639.063C519.814 633.544 519.813 628.026 519.813 622.508C521.469 586.638 534.713 558.494 548.509 527.592C568.374 484.548 585.481 427.709 589.896 363.144C591.551 339.967 590.999 316.238 587.688 293.061C586.033 280.368 583.826 268.228 581.618 257.191C568.926 193.178 554.579 138.546 546.301 53.0112C541.335 5.00134 519.814 -29.2126 510.433 -60.1155C497.74 -102.607 475.667 -150.617 520.365 -204.145" stroke="#131A40" stroke-opacity="0.1" stroke-width="1.6721" stroke-miterlimit="10"/>
<path d="M523.677 1405.56C515.399 1390.11 514.848 1359.21 526.988 1322.79C539.128 1286.92 565.064 1249.39 597.07 1216.28C635.146 1176.55 681.5 1149.51 720.128 1114.19C778.07 1060.67 795.177 988.376 768.137 919.396C763.171 906.152 755.997 894.012 747.168 881.871C720.68 844.898 682.052 813.995 647.838 779.781C636.802 768.744 626.317 757.708 616.936 745.567C587.137 708.594 567.271 665.551 563.408 626.922C562.857 621.404 562.857 615.885 562.857 610.367C563.409 575.049 575.549 546.906 588.793 516.003C607.003 472.959 623.006 416.12 627.421 352.107C629.076 328.93 628.524 305.201 625.765 282.024C624.11 269.331 622.454 257.191 620.247 246.154C608.659 182.693 596.518 128.061 587.137 43.078C582.171 -4.93186 558.994 -39.6976 548.509 -70.0487C534.162 -112.54 509.329 -160.55 553.476 -215.182" stroke="#131A40" stroke-opacity="0.1" stroke-width="1.709" stroke-miterlimit="10"/>
<path d="M568.375 1390.67C558.442 1375.22 556.787 1343.21 568.375 1306.24C579.963 1269.26 605.899 1231.19 637.905 1197.52C676.533 1157.24 723.439 1130.2 762.619 1094.88C820.561 1041.91 838.771 970.718 812.284 901.739C807.317 888.495 800.695 876.354 791.866 864.214C765.93 827.241 727.854 795.786 693.64 762.124C682.604 751.087 672.119 740.05 662.738 728.462C632.939 691.489 613.073 648.997 608.107 610.92C607.555 605.402 607.003 599.884 607.003 594.917C606.451 560.151 617.488 532.008 629.628 501.105C646.183 458.062 661.082 401.774 666.049 337.761C667.704 314.584 667.704 291.407 664.945 268.23C663.29 255.537 662.186 243.949 660.531 232.36C650.598 169.451 639.561 114.267 630.18 30.3876C624.662 -18.1741 600.381 -52.388 588.793 -82.739C572.79 -124.679 545.198 -173.24 589.345 -229.528" stroke="#131A40" stroke-opacity="0.1" stroke-width="1.7459" stroke-miterlimit="10"/>
<path d="M616.936 1371.35C605.9 1355.35 602.589 1322.79 613.073 1285.26C623.558 1247.74 649.494 1208.56 682.052 1174.9C720.68 1134.06 768.689 1107.02 808.421 1071.15C866.363 1018.73 885.125 948.644 859.741 879.664C854.774 866.972 848.152 854.279 839.875 842.139C814.491 805.166 776.966 773.711 743.305 740.049C732.268 729.012 722.335 717.975 712.403 706.387C682.604 669.966 662.186 628.026 656.116 590.501C655.564 584.983 655.012 579.464 654.461 574.498C653.357 539.732 662.738 512.14 673.775 481.237C688.674 438.194 703.021 382.458 707.436 318.445C709.092 295.268 709.092 272.091 706.884 249.465C705.781 236.773 704.677 225.185 703.022 214.148C694.192 151.238 685.363 96.6064 675.43 12.7271C669.36 -35.8346 643.976 -70.0485 631.284 -100.4C613.625 -141.787 583.275 -190.901 626.869 -248.292" stroke="#131A40" stroke-opacity="0.1" stroke-width="1.7828" stroke-miterlimit="10"/>
<path d="M665.496 1353.14C652.804 1337.14 648.389 1303.48 658.322 1265.4C668.255 1226.77 694.191 1187.04 726.749 1152.82C765.929 1111.44 813.938 1084.4 854.773 1048.53C912.715 997.206 932.581 927.674 908.301 858.695C903.886 846.003 897.264 833.31 888.987 821.17C864.154 784.197 827.182 752.19 793.52 718.528C783.036 708.043 772.551 697.006 762.618 684.866C732.819 648.445 711.85 607.609 705.228 570.636C704.124 565.117 703.572 560.151 703.572 554.632C701.365 520.418 709.642 492.826 719.575 461.923C733.371 418.88 746.063 363.145 751.03 299.683C752.685 276.506 753.237 253.881 751.03 230.703C749.926 218.011 748.822 206.423 747.719 195.386C739.993 133.028 733.371 77.8445 722.334 -4.9312C716.264 -54.0447 689.225 -88.2587 675.429 -118.058C656.115 -159.446 623.005 -208.559 666.048 -267.054" stroke="#131A40" stroke-opacity="0.1" stroke-width="1.8197" stroke-miterlimit="10"/>
<path d="M711.85 1338.79C697.503 1322.24 691.985 1288.02 701.366 1248.84C710.747 1209.66 736.131 1168.83 769.241 1134.06C808.42 1092.12 857.533 1065.08 898.92 1029.21C956.862 978.443 977.832 910.015 954.103 840.483C949.688 827.791 943.618 815.099 935.341 802.958C911.06 765.985 874.64 733.979 840.978 700.317C830.494 689.832 820.009 678.795 810.076 667.206C779.725 631.337 758.756 591.053 751.03 554.08C749.927 548.561 749.375 543.595 748.823 538.628C745.512 504.966 752.686 476.822 761.515 446.471C773.655 403.98 785.244 348.244 790.21 284.783C791.866 262.158 792.417 238.98 790.762 216.355C789.658 204.215 789.106 192.074 788.003 181.037C781.933 119.232 776.414 64.0479 765.378 -18.1759C758.756 -67.8413 730.613 -101.503 715.161 -131.303C694.192 -172.139 658.323 -221.804 701.366 -281.402" stroke="#131A40" stroke-opacity="0.1" stroke-width="1.8566" stroke-miterlimit="10"/>
<path d="M756.548 1328.86C740.545 1312.3 733.923 1277.54 742.753 1237.25C751.582 1196.97 776.966 1156.13 810.076 1120.27C849.807 1077.77 899.472 1050.73 941.411 1014.31C999.353 964.095 1020.87 896.219 998.801 827.24C994.387 814.547 988.316 801.855 980.591 789.715C956.862 752.742 920.442 720.735 887.332 687.073C876.847 676.588 866.362 665.551 856.429 653.963C826.079 618.645 804.557 578.913 796.28 542.491C795.176 537.525 794.073 532.007 793.521 527.04C789.658 493.93 795.176 465.786 802.902 435.435C813.387 392.944 824.423 337.208 829.39 274.298C831.045 251.673 831.597 228.496 830.493 206.422C829.942 194.282 829.39 182.693 828.286 171.657C823.32 110.403 820.009 54.6671 808.42 -27.0048C801.247 -76.6702 772 -110.332 755.445 -140.131C732.82 -180.967 694.192 -230.633 736.683 -291.887" stroke="#131A40" stroke-opacity="0.1" stroke-width="1.8934" stroke-miterlimit="10"/>
<path d="M799.591 1322.79C782.484 1305.68 774.206 1270.37 782.484 1229.53C790.209 1188.69 816.145 1146.75 849.255 1110.88C888.987 1067.84 939.755 1040.8 982.246 1004.38C1040.19 955.266 1062.81 887.942 1041.29 818.963C1037.43 806.27 1031.36 793.578 1023.63 781.438C1000.46 744.465 964.587 711.906 931.478 678.796C920.993 668.311 910.508 657.274 900.575 646.238C870.225 610.92 848.151 571.739 838.77 536.422C837.667 531.455 836.563 525.937 835.459 520.97C830.493 487.86 834.908 460.268 841.529 429.917C850.911 387.426 860.292 332.242 865.258 269.332C866.914 246.707 868.017 224.082 866.914 201.456C866.362 189.316 865.81 177.727 865.258 166.691C861.395 105.437 859.74 50.253 847.6 -30.8672C839.874 -81.0844 809.523 -114.746 791.865 -143.994C768.136 -184.278 726.197 -234.495 768.136 -296.853" stroke="#131A40" stroke-opacity="0.1" stroke-width="1.9303" stroke-miterlimit="10"/>
<path d="M840.979 1320.03C822.216 1302.92 812.835 1266.5 820.009 1225.11C827.183 1183.18 852.567 1140.68 886.229 1104.26C926.512 1060.67 977.28 1033.08 1020.87 996.654C1078.82 948.092 1102.55 881.872 1082.13 812.892C1078.26 800.2 1072.75 787.508 1065.02 775.367C1042.4 738.394 1007.08 705.836 973.969 672.726C963.484 662.241 953 651.756 943.619 640.167C913.268 605.401 890.643 566.773 880.71 531.455C879.055 526.489 877.951 521.522 877.399 516.556C871.329 483.997 874.64 456.405 880.158 426.054C887.884 383.563 896.161 328.931 901.68 266.021C903.335 243.396 904.439 220.771 903.887 198.697C903.335 186.557 903.335 174.968 902.783 163.931C900.576 103.229 900.576 47.4937 887.884 -32.5228C880.158 -82.74 848.152 -116.402 829.39 -145.649C804.006 -185.934 759.308 -236.151 801.247 -299.612" stroke="#131A40" stroke-opacity="0.1" stroke-width="1.9672" stroke-miterlimit="10"/>
<path d="M880.71 1320.03C860.292 1302.37 849.807 1265.4 856.429 1222.91C863.051 1180.42 888.435 1136.82 922.097 1099.85C962.38 1055.7 1014.25 1028.11 1058.4 991.687C1116.34 943.678 1140.62 878.561 1121.31 809.581C1117.44 796.889 1111.93 784.197 1104.75 772.056C1082.68 734.531 1047.91 702.525 1014.8 669.414C1004.32 658.93 993.835 648.445 984.453 637.408C954.103 603.194 930.926 565.117 920.441 530.351C918.786 525.385 917.682 520.418 916.579 515.452C909.957 483.445 912.164 455.853 916.579 425.502C922.649 383.011 930.374 328.379 935.341 266.021C936.996 243.396 938.652 220.771 938.1 199.249C938.1 187.109 938.1 175.52 938.1 165.035C936.996 104.885 938.652 49.1492 925.96 -30.8673C917.682 -81.6363 884.573 -114.747 864.155 -144.546C837.115 -184.278 789.658 -235.047 831.045 -299.612" stroke="#131A40" stroke-opacity="0.1" stroke-width="2.0041" stroke-miterlimit="10"/>
<path d="M919.337 1322.79C897.816 1305.13 885.676 1267.05 891.746 1224.01C897.816 1180.42 923.2 1136.27 956.862 1098.74C997.697 1054.04 1050.12 1026.45 1094.82 990.032C1152.76 942.574 1178.15 878.56 1159.38 809.581C1156.07 796.888 1150.55 784.196 1143.38 772.056C1121.86 734.531 1087.65 701.972 1054.54 669.414C1044.05 658.929 1033.57 648.444 1024.18 637.407C993.834 603.194 970.106 566.22 958.517 532.007C956.862 527.04 955.206 522.073 954.103 517.107C946.377 485.652 947.481 458.06 950.792 427.709C955.206 385.218 961.828 331.138 967.346 268.78C969.554 246.155 970.657 224.081 970.657 202.008C970.657 189.867 971.209 178.831 971.209 167.794C971.209 108.195 975.072 51.9079 961.276 -27.0048C952.447 -78.3257 918.234 -111.436 896.712 -140.683C868.017 -180.416 817.801 -231.185 858.636 -297.405" stroke="#131A40" stroke-opacity="0.1" stroke-width="2.041" stroke-miterlimit="10"/>
<path d="M956.31 1328.31C933.134 1310.65 919.89 1272.02 925.408 1227.87C930.374 1183.73 955.759 1138.48 989.972 1100.4C1030.81 1055.15 1083.78 1027.56 1129.58 990.584C1187.53 944.229 1214.01 880.768 1196.36 811.788C1193.05 799.096 1188.08 786.404 1180.9 774.263C1159.94 736.738 1125.72 704.18 1093.16 671.622C1082.68 661.137 1072.75 650.652 1062.81 640.167C1032.46 606.505 1008.18 570.084 996.042 535.87C994.387 530.903 992.731 525.936 991.076 521.522C982.246 490.067 982.246 463.027 984.454 432.676C987.765 390.736 992.731 336.656 998.801 274.299C1001.01 252.225 1002.11 229.6 1002.66 208.078C1002.66 195.938 1003.22 184.901 1003.77 173.864C1005.42 114.266 1010.94 57.9782 996.594 -20.3827C987.213 -71.7036 951.896 -104.814 929.271 -134.061C898.92 -173.242 845.945 -224.563 886.78 -291.887" stroke="#131A40" stroke-opacity="0.1" stroke-width="2.0779" stroke-miterlimit="10"/>
<path d="M992.178 1336.03C967.346 1317.82 953.55 1278.64 957.964 1233.94C962.379 1188.69 987.763 1142.89 1021.98 1104.81C1063.36 1059.01 1116.89 1030.87 1163.24 994.446C1221.19 948.092 1248.78 885.734 1232.22 816.755C1228.91 804.062 1223.95 791.37 1217.32 779.23C1196.91 741.705 1163.24 708.594 1130.69 676.588C1120.2 666.103 1110.27 655.618 1100.34 645.133C1069.99 611.471 1045.71 575.602 1031.91 542.491C1030.25 537.525 1028.05 533.11 1026.94 528.144C1017.56 497.241 1015.91 470.201 1017.01 439.85C1018.67 397.91 1023.08 343.83 1028.6 282.024C1030.81 259.951 1032.46 237.877 1033.01 215.804C1033.56 203.663 1034.12 192.626 1034.67 182.141C1037.43 123.095 1044.6 66.8075 1030.25 -11.0016C1020.87 -62.8743 983.9 -95.4327 960.172 -124.68C928.166 -163.861 872.431 -215.181 912.715 -283.609" stroke="#131A40" stroke-opacity="0.1" stroke-width="2.1148" stroke-miterlimit="10"/>
<path d="M1026.94 1345.42C1000.46 1327.21 985.557 1286.92 988.868 1241.67C992.731 1195.87 1018.11 1148.96 1052.88 1110.33C1094.27 1063.43 1148.35 1035.84 1195.8 998.862C1253.75 953.611 1281.89 892.357 1266.44 823.378C1263.68 810.686 1258.71 797.993 1252.09 785.853C1232.22 748.328 1199.11 715.218 1166.56 682.659C1156.07 672.174 1146.14 662.241 1136.21 651.205C1105.86 618.094 1081.02 582.777 1066.68 550.218C1064.47 545.252 1062.81 540.837 1061.16 536.422C1050.67 506.071 1047.91 479.031 1047.91 448.68C1047.91 406.741 1051.22 353.212 1057.29 291.407C1059.5 269.333 1061.16 247.26 1062.26 225.738C1062.81 214.149 1063.92 202.561 1064.47 192.076C1068.33 133.581 1077.16 76.7418 1062.26 0.0363938C1052.33 -51.8363 1014.25 -84.9466 989.42 -113.642C955.758 -152.271 897.264 -204.143 936.996 -273.675" stroke="#131A40" stroke-opacity="0.1" stroke-width="2.1516" stroke-miterlimit="10"/>
<path d="M1061.16 1357C1033.57 1338.24 1017.01 1297.41 1019.77 1251.05C1023.08 1204.14 1047.91 1157.24 1083.23 1117.51C1125.17 1070.05 1179.8 1042.46 1227.81 1005.48C1285.75 960.785 1315 900.083 1300.1 831.103C1297.34 818.411 1292.93 805.718 1286.3 793.578C1266.99 756.053 1234.43 722.943 1202.43 690.384C1191.94 679.899 1182.01 669.966 1172.08 659.481C1141.73 626.923 1116.34 592.157 1100.89 559.599C1098.68 555.184 1097.03 550.218 1094.82 545.803C1083.23 516.004 1079.37 488.964 1078.26 458.613C1077.16 416.673 1078.82 363.145 1084.89 301.891C1087.09 279.817 1089.3 257.744 1090.41 236.774C1090.96 225.185 1092.61 214.149 1093.16 203.112C1098.68 145.169 1109.17 88.3296 1093.72 11.6242C1083.23 -40.8003 1044.05 -73.3587 1017.56 -102.054C982.247 -140.683 920.994 -192.004 960.725 -263.743" stroke="#131A40" stroke-opacity="0.1" stroke-width="2.1885" stroke-miterlimit="10"/>
<path d="M1094.27 1369.15C1065.02 1350.38 1047.36 1308.99 1049.57 1261.54C1052.33 1214.08 1077.16 1166.07 1112.48 1125.78C1154.42 1077.78 1210.15 1050.18 1258.71 1012.66C1316.65 969.063 1347 908.913 1333.21 839.933C1330.45 827.241 1326.04 814.549 1319.97 802.408C1301.2 764.883 1269.2 731.221 1237.19 699.215C1227.26 689.281 1216.77 678.797 1206.84 668.312C1176.49 635.753 1150.55 602.091 1134.55 570.085C1132.34 565.67 1130.14 560.703 1128.48 556.289C1116.34 526.489 1110.82 500.001 1108.61 469.65C1105.86 427.711 1106.96 374.734 1113.03 313.48C1115.24 291.407 1117.44 269.885 1119.1 248.363C1120.2 236.775 1121.31 225.738 1122.41 215.253C1129.03 157.31 1141.17 100.471 1125.72 24.8691C1114.68 -28.1073 1074.4 -60.6657 1046.81 -88.8094C1009.84 -126.886 945.825 -178.759 985.005 -251.601" stroke="#131A40" stroke-opacity="0.1" stroke-width="2.2254" stroke-miterlimit="10"/>
<path d="M1126.83 1382.39C1095.92 1363.07 1077.16 1321.13 1078.82 1273.12C1080.47 1224.56 1105.86 1176 1141.17 1135.72C1183.66 1087.16 1239.4 1059.01 1289.06 1022.04C1346.45 978.995 1377.91 919.949 1365.22 850.969C1363.01 838.277 1358.59 825.585 1352.52 813.444C1334.31 775.919 1302.31 742.257 1270.85 710.25C1260.92 700.317 1250.43 689.832 1240.5 679.899C1209.6 647.893 1183.66 614.783 1166.56 583.328C1164.35 578.913 1162.14 574.498 1159.94 570.084C1146.69 540.836 1140.07 514.348 1136.76 483.997C1132.34 442.057 1132.34 389.633 1138.41 328.379C1140.62 306.305 1143.38 284.784 1145.04 263.814C1146.14 252.225 1147.79 241.189 1149.45 230.704C1157.18 173.313 1171.52 116.473 1154.97 41.4234C1143.38 -11.553 1101.99 -44.1114 1073.3 -72.2551C1034.67 -110.332 967.899 -162.205 1006.53 -236.151" stroke="#131A40" stroke-opacity="0.1" stroke-width="2.2623" stroke-miterlimit="10"/>
<path d="M1158.83 1396.18C1126.83 1376.87 1106.41 1333.83 1107.51 1285.26C1108.62 1236.15 1133.45 1186.49 1169.32 1145.65C1211.81 1096.54 1268.65 1068.39 1318.86 1031.42C1376.25 988.928 1408.81 930.985 1397.22 862.005C1395.01 849.313 1391.15 836.621 1385.08 824.48C1367.42 786.955 1335.97 752.741 1304.51 721.286C1294.58 711.353 1284.1 701.42 1274.72 690.935C1243.81 659.481 1217.33 626.371 1199.67 595.468C1196.91 591.053 1194.7 586.638 1192.49 582.223C1178.15 553.528 1170.42 526.488 1166.01 496.689C1159.94 455.301 1159.38 402.325 1165.45 341.622C1167.66 320.101 1170.42 298.027 1172.63 277.609C1173.73 266.021 1175.94 254.984 1177.59 244.499C1186.98 187.66 1202.43 130.821 1185.87 55.7707C1173.73 2.2425 1131.24 -29.7641 1101.44 -57.9078C1061.71 -95.4327 991.628 -147.857 1030.26 -222.907" stroke="#131A40" stroke-opacity="0.1" stroke-width="2.2992" stroke-miterlimit="10"/>
<path d="M1189.73 1409.98C1156.07 1390.11 1134.55 1346.52 1135.1 1296.85C1135.65 1246.64 1160.49 1196.42 1196.36 1155.03C1239.4 1105.37 1296.24 1077.22 1347.56 1039.7C1404.95 997.757 1438.61 940.918 1427.57 871.938C1425.36 859.246 1421.5 846.554 1415.98 834.413C1398.88 796.336 1367.97 762.674 1336.52 731.22C1326.59 721.287 1316.65 711.353 1306.72 701.42C1275.82 669.966 1248.78 637.959 1230.02 607.608C1227.26 603.193 1225.05 598.779 1222.29 594.364C1207.39 565.668 1198.01 539.18 1193.04 509.381C1185.87 467.993 1183.66 415.569 1189.73 354.866C1191.94 333.345 1194.7 311.823 1197.46 290.853C1199.12 279.265 1200.77 268.228 1202.98 258.295C1213.46 202.008 1231.12 144.616 1214.01 70.6702C1201.87 17.1419 1157.73 -15.4165 1126.27 -43.0083C1084.89 -80.5333 1012.05 -132.958 1050.12 -209.663" stroke="#131A40" stroke-opacity="0.1" stroke-width="2.3361" stroke-miterlimit="10"/>
<path d="M1221.19 1423.78C1185.87 1403.91 1163.25 1359.21 1162.69 1308.99C1162.69 1258.22 1186.97 1206.9 1223.4 1164.96C1266.44 1114.75 1324.38 1086.05 1376.25 1049.08C1433.64 1007.69 1467.86 951.955 1457.92 882.975C1456.27 870.283 1452.4 857.591 1446.89 845.45C1430.33 807.374 1399.98 773.712 1368.53 742.257C1358.59 732.324 1348.66 722.391 1338.73 712.458C1307.83 681.555 1280.23 650.1 1260.92 620.301C1258.16 615.886 1255.4 611.471 1253.19 607.608C1237.19 579.465 1226.71 552.977 1220.64 523.177C1211.81 481.789 1208.5 429.365 1215.12 369.215C1217.33 347.693 1220.64 326.171 1223.4 305.753C1225.05 294.165 1227.26 283.68 1229.47 273.195C1241.05 216.907 1260.37 160.068 1243.26 86.6738C1230.57 32.5937 1185.32 0.587099 1152.76 -27.5566C1109.72 -64.5297 1034.12 -117.506 1071.64 -195.315" stroke="#131A40" stroke-opacity="0.1" stroke-width="2.373" stroke-miterlimit="10"/>
<path d="M1252.09 1437.57C1215.67 1417.15 1191.39 1372.46 1190.29 1321.13C1189.18 1269.26 1214.01 1217.39 1250.43 1174.9C1294.03 1124.13 1352.52 1095.43 1404.95 1057.91C1462.34 1017.07 1497.65 962.44 1488.82 893.46C1487.17 880.768 1483.31 868.076 1478.34 855.935C1462.34 817.858 1432.54 783.645 1401.08 752.742C1391.15 742.809 1381.22 732.876 1371.29 723.494C1340.38 693.143 1312.24 662.24 1291.82 632.993C1289.06 628.578 1286.3 624.715 1283.54 620.301C1266.44 592.709 1254.85 566.221 1247.68 536.421C1237.19 495.033 1233.33 443.161 1239.4 383.011C1241.61 361.489 1244.92 340.519 1248.23 320.101C1249.88 308.512 1252.64 298.028 1254.85 287.543C1267.54 231.807 1289.06 174.416 1270.85 101.573C1257.61 47.4933 1211.25 14.9349 1177.59 -12.6569C1132.9 -49.6301 1054.54 -102.606 1092.06 -181.519" stroke="#131A40" stroke-opacity="0.1" stroke-width="2.4098" stroke-miterlimit="10"/>
<path d="M1282.44 1450.82C1244.36 1430.4 1218.98 1384.6 1217.33 1332.72C1215.67 1280.3 1240.5 1227.87 1276.92 1184.83C1320.52 1133.51 1379.56 1104.81 1433.09 1067.29C1490.48 1027.56 1526.9 973.476 1518.62 904.497C1516.97 891.805 1513.66 879.112 1508.69 866.972C1493.24 828.895 1463.44 794.681 1432.54 763.778C1422.61 753.845 1412.67 744.464 1402.74 734.531C1371.84 704.18 1343.14 674.381 1322.17 645.133C1319.41 640.718 1316.1 636.856 1313.34 632.441C1295.68 605.401 1282.44 578.913 1274.16 549.113C1262.58 507.725 1257.06 456.405 1263.68 396.254C1265.89 374.733 1269.75 353.763 1273.06 333.345C1275.27 322.308 1278.03 311.271 1280.23 301.338C1294.58 246.155 1317.21 188.763 1299 116.473C1285.2 61.8407 1237.74 29.8341 1202.98 2.24225C1156.62 -34.179 1075.51 -87.7073 1112.48 -168.276" stroke="#131A40" stroke-opacity="0.1" stroke-width="2.4467" stroke-miterlimit="10"/>
<path d="M1313.34 1462.96C1273.61 1442.54 1247.12 1395.63 1244.92 1343.21C1242.71 1290.23 1266.99 1236.7 1303.96 1193.11C1348.11 1141.24 1407.71 1111.99 1461.79 1075.02C1519.18 1035.84 1556.15 982.859 1549.53 913.879C1548.42 901.187 1545.11 888.495 1540.15 876.354C1525.25 838.277 1496 803.512 1465.1 772.609C1455.16 762.676 1445.23 753.294 1435.3 743.361C1404.4 713.562 1375.15 683.763 1353.08 655.619C1349.76 651.756 1347 647.342 1344.25 643.479C1325.48 616.439 1311.14 590.502 1301.75 560.703C1288.51 519.315 1281.89 467.994 1288.51 408.396C1290.72 386.874 1294.58 365.904 1298.44 346.038C1300.65 335.002 1303.41 323.965 1306.72 314.032C1322.17 258.848 1346.45 201.457 1328.24 130.27C1313.9 75.0861 1265.33 43.6313 1229.47 16.0394C1181.46 -20.3819 1097.58 -73.9101 1134 -155.582" stroke="#131A40" stroke-opacity="0.1" stroke-width="2.4836" stroke-miterlimit="10"/>
<path d="M1344.25 1473.44C1302.86 1452.47 1275.27 1405.01 1272.51 1351.48C1269.75 1297.4 1294.03 1243.32 1331 1199.18C1375.7 1146.75 1435.3 1117.51 1490.48 1079.98C1547.32 1041.35 1585.95 988.928 1579.88 919.948C1578.77 907.256 1575.46 894.563 1571.05 882.423C1556.7 844.346 1528 809.58 1497.1 778.678C1487.17 768.744 1477.24 759.363 1467.3 749.982C1436.4 720.183 1407.15 691.487 1383.98 663.895C1380.67 660.032 1377.36 655.618 1374.6 651.755C1354.73 625.267 1339.83 599.33 1328.79 569.531C1313.89 528.695 1306.72 477.374 1313.34 417.776C1315.55 396.806 1319.41 375.836 1323.83 355.97C1326.04 344.933 1329.35 334.448 1332.66 323.963C1349.21 269.332 1375.7 211.94 1356.39 140.753C1341.49 85.5696 1291.82 53.5631 1254.3 26.5231C1204.63 -9.34638 1118 -63.4265 1154.42 -146.202" stroke="#131A40" stroke-opacity="0.1" stroke-width="2.5205" stroke-miterlimit="10"/>
<path d="M1375.7 1482.82C1333.21 1461.85 1303.96 1413.84 1300.1 1359.21C1296.24 1304.58 1321.07 1249.4 1358.04 1204.7C1402.74 1151.17 1463.44 1122.47 1519.17 1084.95C1576.01 1046.87 1615.74 995.55 1610.78 926.57C1609.67 913.878 1606.92 901.186 1602.5 889.045C1588.71 850.969 1560.56 816.203 1529.66 785.3C1519.73 775.367 1509.79 765.986 1499.86 756.604C1468.96 727.357 1439.16 699.213 1414.88 671.621C1411.57 667.758 1408.26 663.896 1404.95 659.481C1383.98 633.545 1367.97 607.608 1355.83 577.809C1339.83 536.973 1331 486.204 1338.18 426.606C1340.38 405.636 1344.8 384.666 1349.21 364.8C1351.97 353.763 1355.28 343.278 1358.59 332.793C1376.8 278.713 1404.39 220.77 1385.08 150.687C1369.63 94.9512 1318.86 63.4965 1280.23 36.4565C1228.91 0.587036 1139.52 -53.4931 1175.39 -137.372" stroke="#131A40" stroke-opacity="0.1" stroke-width="2.5574" stroke-miterlimit="10"/>
<path d="M1407.15 1490C1363.01 1468.47 1332.66 1419.91 1328.24 1364.73C1323.83 1308.99 1348.11 1253.26 1385.63 1208.56C1430.88 1154.48 1491.58 1125.23 1548.42 1087.71C1605.26 1050.18 1645.54 999.965 1641.68 930.985C1641.13 918.293 1638.37 905.601 1633.96 893.46C1620.71 855.383 1593.12 820.066 1562.77 789.715C1552.84 779.782 1542.9 770.952 1532.97 761.571C1502.07 732.875 1471.72 705.284 1446.89 678.244C1443.58 674.381 1439.71 670.518 1436.4 666.655C1414.88 641.27 1397.22 615.334 1383.98 585.535C1366.32 544.699 1356.39 493.93 1363.56 434.883C1365.77 413.913 1370.18 392.944 1375.15 373.629C1377.91 362.592 1381.22 352.108 1385.08 342.174C1404.4 288.646 1434.19 230.703 1414.33 160.62C1398.33 104.884 1346.45 72.8778 1306.72 46.3896C1253.75 10.5202 1161.59 -43.5599 1196.91 -129.095" stroke="#131A40" stroke-opacity="0.1" stroke-width="2.5943" stroke-miterlimit="10"/>
<path d="M1439.16 1494.96C1393.36 1473.44 1361.9 1423.78 1356.94 1368.04C1351.97 1311.75 1376.25 1254.91 1413.78 1209.66C1459.03 1155.03 1520.83 1125.78 1578.22 1088.26C1635.06 1051.29 1676.45 1002.17 1673.69 933.192C1673.14 920.5 1670.38 907.807 1666.51 895.667C1653.82 857.038 1626.23 822.273 1596.43 791.921C1587.05 782.54 1577.12 773.159 1567.19 763.778C1536.28 735.082 1505.38 708.594 1480 682.106C1476.13 678.243 1472.82 674.38 1469.51 670.517C1446.89 645.133 1428.12 619.748 1414.33 589.949C1395.01 549.113 1384.53 498.896 1391.7 439.849C1394.46 418.879 1398.88 398.461 1403.84 378.595C1407.15 367.558 1410.47 357.073 1414.33 347.14C1434.75 293.612 1466.2 235.669 1445.78 166.69C1429.23 110.402 1376.25 78.9474 1335.42 52.4592C1280.79 17.1416 1185.87 -37.4903 1221.19 -124.129" stroke="#131A40" stroke-opacity="0.1" stroke-width="2.6311" stroke-miterlimit="10"/>
<path d="M1472.27 1497.17C1425.36 1475.1 1392.25 1424.88 1386.74 1368.59C1380.67 1311.2 1405.5 1253.81 1443.58 1208.01C1489.38 1152.82 1551.18 1123.03 1609.68 1086.05C1666.51 1049.63 1708.45 1001.62 1706.8 932.642C1706.25 919.949 1704.04 907.257 1700.18 895.117C1688.04 856.488 1661 821.171 1631.2 791.371C1621.82 781.99 1611.88 772.609 1601.95 763.779C1571.05 735.636 1539.59 709.147 1513.11 683.211C1509.24 679.348 1505.38 675.485 1502.07 672.174C1478.34 647.342 1458.47 621.957 1443.58 592.158C1422.61 551.322 1411.02 501.105 1418.19 442.61C1420.95 421.64 1425.36 401.222 1430.88 381.908C1434.19 370.871 1438.06 360.386 1441.92 350.453C1463.44 297.477 1496.55 239.534 1476.13 171.106C1459.03 114.819 1404.95 83.3639 1362.46 56.8757C1306.17 21.0063 1207.94 -34.1775 1243.26 -121.92" stroke="#131A40" stroke-opacity="0.1" stroke-width="2.668" stroke-miterlimit="10"/>
<path d="M1505.38 1496.62C1456.82 1474.55 1422.61 1423.23 1416.54 1365.83C1409.91 1307.89 1434.19 1249.4 1472.82 1203.04C1518.07 1147.86 1580.98 1117.51 1640.58 1080.53C1697.42 1044.66 1740.46 997.758 1739.36 928.779C1739.36 916.086 1737.15 903.394 1733.29 891.254C1721.7 852.625 1695.21 817.307 1665.41 787.508C1656.03 778.127 1646.1 768.746 1636.16 759.916C1604.71 732.324 1573.25 706.388 1546.22 681.004C1542.35 677.141 1538.49 673.83 1534.63 669.967C1510.35 645.686 1488.82 619.75 1472.82 590.502C1450.75 549.666 1437.5 500.001 1445.23 441.506C1447.99 420.536 1452.4 400.67 1458.47 381.356C1461.79 370.319 1466.2 360.386 1470.06 350.453C1493.24 298.028 1528 240.085 1507.04 171.658C1489.38 114.818 1434.19 83.3636 1390.6 56.8754C1332.66 21.5578 1232.22 -33.626 1266.44 -122.472" stroke="#131A40" stroke-opacity="0.1" stroke-width="2.7049" stroke-miterlimit="10"/>
<path d="M1539.59 1492.76C1489.38 1470.13 1454.06 1418.81 1446.89 1360.32C1439.71 1301.27 1463.99 1242.77 1502.62 1195.87C1548.97 1139.58 1611.88 1109.23 1672.03 1072.26C1728.87 1036.94 1773.02 991.136 1773.02 922.156C1773.02 909.464 1770.81 896.772 1767.5 884.631C1756.46 846.003 1730.53 810.685 1700.73 780.886C1691.35 771.504 1681.41 762.675 1671.48 753.846C1640.03 726.254 1608.02 701.421 1579.88 676.588C1576.01 673.277 1572.15 669.415 1568.29 665.552C1542.9 641.271 1520.28 615.886 1503.17 586.639C1479.44 545.803 1465.65 496.69 1472.82 438.195C1475.58 417.777 1480.55 397.359 1487.17 378.044C1491.03 367.559 1494.9 357.075 1499.86 347.142C1524.14 294.717 1560.56 236.774 1539.04 169.45C1520.83 112.611 1464.54 81.1559 1419.85 54.6677C1360.8 19.9019 1257.06 -35.2818 1291.27 -125.783" stroke="#131A40" stroke-opacity="0.1" stroke-width="2.7418" stroke-miterlimit="10"/>
<path d="M1574.91 1485.58C1523.04 1462.96 1486.62 1410.53 1478.89 1351.49C1471.17 1291.89 1495.45 1232.29 1534.08 1184.83C1580.43 1127.99 1644.44 1097.64 1705.14 1060.12C1761.98 1025.35 1807.23 980.651 1807.78 911.672C1807.78 898.979 1806.13 886.287 1802.82 874.147C1792.33 835.518 1766.95 799.649 1737.15 770.401C1727.77 761.02 1717.83 752.191 1707.9 743.361C1676.45 716.321 1643.89 692.041 1615.19 667.208C1611.33 663.897 1606.92 660.034 1603.05 656.723C1576.57 632.994 1552.84 607.609 1534.63 578.362C1509.24 538.078 1494.34 488.412 1502.07 430.47C1504.83 410.052 1509.79 389.634 1516.97 370.871C1520.83 360.386 1525.25 349.901 1530.21 339.968C1555.6 288.096 1593.67 230.153 1572.15 163.38C1553.39 105.989 1496 74.5345 1450.2 48.5981C1389.5 14.3842 1282.99 -41.3514 1316.65 -132.956" stroke="#131A40" stroke-opacity="0.1" stroke-width="2.7787" stroke-miterlimit="10"/>
<path d="M1611.33 1474.55C1558.36 1451.92 1520.28 1398.39 1512 1338.79C1503.72 1278.09 1527.45 1217.94 1566.63 1169.93C1613.54 1112.54 1677.55 1081.64 1739.36 1044.67C1795.64 1010.45 1842 966.304 1844.2 897.325C1844.75 884.632 1843.1 871.94 1839.79 859.8C1829.86 821.171 1804.47 785.302 1775.22 755.502C1765.84 746.121 1755.91 737.292 1745.98 728.462C1714.52 701.422 1681.41 678.245 1651.61 653.964C1647.2 650.653 1643.34 646.79 1638.92 643.479C1611.88 620.302 1586.5 594.918 1567.18 565.67C1540.7 525.386 1524.14 476.272 1531.87 418.33C1534.63 397.912 1540.15 378.045 1547.32 359.283C1551.18 348.798 1556.15 338.313 1561.11 328.932C1587.6 277.611 1627.89 219.116 1605.81 152.896C1586.5 95.5045 1528.01 64.0498 1481.1 38.1134C1418.74 4.4513 1309.48 -51.2843 1342.59 -143.993" stroke="#131A40" stroke-opacity="0.1" stroke-width="2.8156" stroke-miterlimit="10"/>
<path d="M1649.41 1459.65C1594.78 1436.47 1555.6 1382.39 1546.77 1321.69C1537.39 1260.43 1561.67 1199.18 1600.85 1150.62C1647.75 1092.67 1712.87 1061.77 1775.22 1024.8C1831.51 991.136 1878.97 948.093 1881.73 879.113C1882.28 866.421 1880.62 853.728 1877.86 841.588C1868.48 802.959 1843.65 766.538 1814.4 737.291C1805.02 727.909 1795.09 719.08 1785.16 710.803C1753.7 684.314 1720.04 661.137 1689.69 637.96C1685.28 634.649 1680.86 631.338 1676.45 627.475C1648.3 604.85 1621.82 579.465 1601.4 550.218C1573.25 509.934 1556.15 460.82 1563.87 403.429C1566.63 383.011 1572.15 363.145 1579.88 344.382C1584.29 333.897 1588.71 323.964 1594.22 314.031C1622.37 262.71 1663.75 204.767 1641.13 139.099C1621.82 81.7077 1561.67 50.8047 1513.66 24.8684C1449.65 -9.34556 1337.62 -65.0811 1370.73 -158.894" stroke="#131A40" stroke-opacity="0.1" stroke-width="2.8525" stroke-miterlimit="10"/>
<path d="M1688.03 1440.33C1631.75 1417.15 1591.46 1362.52 1582.08 1300.72C1572.15 1238.36 1596.43 1176.55 1635.61 1127.44C1683.07 1068.94 1748.18 1037.49 1811.64 1000.52C1867.93 967.406 1916.49 925.467 1920.35 856.487C1920.91 843.795 1919.8 831.103 1917.04 818.962C1908.21 780.334 1883.93 743.912 1854.69 714.665C1845.31 705.284 1835.92 696.454 1825.44 688.177C1793.99 662.24 1759.77 639.615 1728.32 616.438C1723.9 613.127 1719.49 609.816 1715.07 606.505C1685.83 583.879 1658.24 559.047 1636.71 529.799C1606.92 489.515 1588.71 440.953 1596.43 383.562C1599.19 363.144 1605.26 343.83 1612.99 325.068C1617.4 314.583 1622.37 304.65 1627.88 294.716C1657.13 243.947 1700.17 186.004 1677.55 120.888C1657.68 63.4965 1596.98 32.0418 1547.32 6.65726C1481.65 -27.0048 1366.87 -83.2923 1399.43 -178.76" stroke="#131A40" stroke-opacity="0.1" stroke-width="2.8893" stroke-miterlimit="10"/>
<path d="M1728.87 1416.05C1671.48 1392.32 1629.54 1337.14 1619.06 1274.78C1608.57 1211.87 1632.3 1148.96 1672.03 1099.85C1719.49 1040.8 1785.71 1009.35 1849.72 972.373C1906.01 939.814 1955.12 898.978 1960.09 829.999C1961.19 817.306 1960.09 804.614 1957.33 792.474C1949.05 753.845 1925.32 717.424 1896.07 688.176C1886.69 678.795 1877.31 670.518 1866.83 662.24C1835.37 636.304 1801.16 614.782 1768.6 592.157C1764.19 588.846 1759.22 585.535 1754.81 582.224C1725.01 560.15 1695.76 535.317 1673.69 506.622C1642.23 466.338 1623.47 418.328 1631.2 360.937C1633.96 340.519 1640.03 321.204 1648.3 302.994C1652.72 292.509 1658.24 282.576 1663.75 273.194C1694.1 222.977 1738.8 164.482 1716.18 99.9174C1695.21 41.4226 1633.4 9.96787 1582.64 -14.8648C1515.31 -48.5269 1397.77 -104.814 1430.33 -201.386" stroke="#131A40" stroke-opacity="0.1" stroke-width="2.9262" stroke-miterlimit="10"/>
<path d="M1770.81 1386.25C1711.76 1362.52 1668.72 1306.23 1657.68 1243.32C1646.65 1179.31 1670.38 1115.85 1710.11 1066.18C1758.12 1006.59 1824.34 974.58 1889.45 937.607C1945.74 905.6 1995.95 865.868 2002.02 796.888C2003.13 784.196 2002.02 771.504 1999.82 759.363C1992.09 720.183 1968.92 683.762 1939.67 655.066C1930.29 645.685 1920.91 637.407 1910.97 629.13C1879.52 603.745 1844.75 582.775 1811.09 560.702C1806.13 557.391 1801.71 554.08 1796.74 550.769C1765.84 529.247 1735.49 504.414 1712.32 475.719C1679.76 435.435 1659.34 387.425 1667.07 330.585C1669.82 310.719 1675.89 290.853 1684.72 272.643C1689.69 262.158 1695.21 252.225 1701.28 242.843C1732.73 192.626 1779.64 134.683 1756.46 70.6701C1734.94 12.1753 1672.03 -19.2795 1620.16 -44.1121C1551.18 -77.2224 1430.88 -134.062 1462.89 -231.737" stroke="#131A40" stroke-opacity="0.1" stroke-width="2.9631" stroke-miterlimit="10"/>
<path d="M1814.4 1351.49C1753.7 1327.21 1709.56 1270.37 1697.97 1206.9C1685.83 1142.34 1709.56 1077.77 1749.84 1027.56C1797.85 966.855 1865.17 934.849 1930.84 898.427C1987.13 866.973 2038.45 828.344 2045.07 759.364C2050.03 706.94 2022.44 655.067 1984.37 617.542C1946.84 580.017 1899.39 553.529 1854.69 524.833C1774.12 473.512 1690.24 400.118 1705.14 295.269C1709.56 263.814 1722.8 234.015 1739.91 208.078C1773.02 158.413 1821.03 100.47 1797.3 37.0089C1775.22 -22.0378 1711.21 -52.9407 1657.68 -77.7734C1587.05 -110.884 1463.99 -167.723 1495.45 -266.502" stroke="#131A40" stroke-opacity="0.1" stroke-width="3" stroke-miterlimit="10"/>
</g>
</svg>
