<svg width="34" height="33" viewBox="0 0 34 33" fill="none" xmlns="http://www.w3.org/2000/svg">
<path d="M33.0871 18.377C32.7938 15.4267 31.4757 12.6453 29.3756 10.5451C27.5808 8.75042 25.3841 7.59711 23.0726 7.0843V5.46309C24.0167 5.22822 24.7184 4.37365 24.7184 3.35791C24.7184 2.16166 23.7453 1.18848 22.549 1.18848H17.9549C16.7587 1.18848 15.7855 2.16166 15.7855 3.35791C15.7855 4.37359 16.4872 5.22816 17.4312 5.46309V7.08883C15.1269 7.60381 12.9374 8.75553 11.1477 10.5452C10.7561 10.9368 10.3949 11.3477 10.0643 11.7747C10.0483 11.7735 10.0323 11.7723 10.016 11.7723H5.46904C5.1167 11.7723 4.83097 12.0579 4.83097 12.4103C4.83097 12.7627 5.1167 13.0484 5.46904 13.0484H9.19613C8.7283 13.8316 8.35107 14.6542 8.06394 15.5009H1.11951C0.767173 15.5009 0.481445 15.7865 0.481445 16.1389C0.481445 16.4914 0.767173 16.777 1.11951 16.777H7.70337C7.51947 17.5842 7.41394 18.4057 7.38669 19.2296H4.56509C4.21275 19.2296 3.92702 19.5152 3.92702 19.8676C3.92702 20.22 4.21275 20.5057 4.56509 20.5057H7.40705C7.4609 21.3316 7.59368 22.1532 7.80546 22.9582H3.67179C3.31945 22.9582 3.03372 23.2439 3.03372 23.5963C3.03372 23.9487 3.31945 24.2344 3.67179 24.2344H8.21267C8.83862 25.8902 9.81684 27.4422 11.1477 28.7731C13.2499 30.8753 16.0342 32.1937 18.9876 32.4854C19.4091 32.527 19.8309 32.5477 20.2521 32.5477C22.742 32.5477 25.2002 31.8271 27.2861 30.4688C27.5814 30.2765 27.6649 29.8812 27.4726 29.5859C27.2803 29.2906 26.885 29.207 26.5897 29.3994C22.0239 32.3726 15.9091 31.7297 12.0501 27.8707C7.52222 23.3429 7.52222 15.9755 12.0501 11.4476C16.5779 6.91981 23.9452 6.91981 28.4732 11.4476C32.327 15.3015 32.9734 21.4111 30.01 25.9747C29.8181 26.2703 29.9021 26.6655 30.1976 26.8574C30.4933 27.0493 30.8884 26.9653 31.0802 26.6697C32.6635 24.2313 33.3763 21.2863 33.0871 18.377ZM17.0616 3.35798C17.0616 2.86539 17.4623 2.46468 17.9549 2.46468H22.549C23.0416 2.46468 23.4423 2.86539 23.4423 3.35798C23.4423 3.85056 23.0416 4.25127 22.549 4.25127H22.4345H18.0693H17.9549C17.4623 4.25127 17.0616 3.8505 17.0616 3.35798ZM18.7074 6.86946V5.52741H21.7965V6.86716C20.7707 6.74516 19.7329 6.74593 18.7074 6.86946Z" fill="#17AEBF" stroke="#17AEBF" stroke-width="0.5"/>
<path d="M28.9232 27.6836C28.7548 27.6836 28.5908 27.7519 28.4722 27.8705C28.3529 27.9892 28.2852 28.1538 28.2852 28.3217C28.2852 28.4895 28.3529 28.6541 28.4722 28.7728C28.5908 28.8921 28.7548 28.9597 28.9232 28.9597C29.091 28.9597 29.255 28.8921 29.3743 28.7728C29.493 28.6541 29.5613 28.4895 29.5613 28.3217C29.5613 28.1538 29.4931 27.9892 29.3743 27.8705C29.255 27.7519 29.091 27.6836 28.9232 27.6836Z" fill="#17AEBF" stroke="#17AEBF" stroke-width="0.5"/>
<path d="M20.2606 9.7605C14.8027 9.7605 10.3623 14.2008 10.3623 19.6588C10.3623 25.1168 14.8027 29.5571 20.2606 29.5571C25.7185 29.5571 30.1589 25.1168 30.1589 19.6588C30.1589 14.2008 25.7185 9.7605 20.2606 9.7605ZM20.2606 28.281C15.5063 28.281 11.6384 24.4131 11.6384 19.6588C11.6384 14.9045 15.5063 11.0366 20.2606 11.0366C25.0149 11.0366 28.8828 14.9045 28.8828 19.6588C28.8828 24.4131 25.0149 28.281 20.2606 28.281Z" fill="#17AEBF" stroke="#17AEBF" stroke-width="0.5"/>
<path d="M24.2965 14.7206L21.1362 17.8809C20.8719 17.7502 20.5746 17.6764 20.2604 17.6764C19.9461 17.6764 19.6489 17.7502 19.3846 17.8809L17.9702 16.4665C17.7209 16.2173 17.317 16.2173 17.0677 16.4665C16.8186 16.7156 16.8186 17.1196 17.0677 17.3688L18.4821 18.7832C18.3514 19.0475 18.2776 19.3448 18.2776 19.659C18.2776 20.7523 19.167 21.6418 20.2604 21.6418C21.3537 21.6418 22.2431 20.7523 22.2431 19.659C22.2431 19.3448 22.1693 19.0475 22.0386 18.7832L25.1062 15.7156L25.1989 15.6229C25.4481 15.3738 25.4481 14.9697 25.1989 14.7206C24.9497 14.4714 24.5458 14.4714 24.2965 14.7206ZM20.2604 20.3657C19.8708 20.3657 19.5538 20.0487 19.5538 19.6591C19.5538 19.2695 19.8708 18.9525 20.2604 18.9525C20.65 18.9525 20.967 19.2695 20.967 19.6591C20.967 20.0487 20.65 20.3657 20.2604 20.3657Z" fill="#17AEBF" stroke="#17AEBF" stroke-width="0.5"/>
<path d="M27.0827 19.0288H26.4916C26.1392 19.0288 25.8535 19.3145 25.8535 19.6669C25.8535 20.0193 26.1392 20.3049 26.4916 20.3049H27.0827C27.4351 20.3049 27.7208 20.0193 27.7208 19.6669C27.7208 19.3145 27.4351 19.0288 27.0827 19.0288Z" fill="#17AEBF" stroke="#17AEBF" stroke-width="0.5"/>
<path d="M14.0299 19.0129H13.4388C13.0865 19.0129 12.8008 19.2986 12.8008 19.651C12.8008 20.0034 13.0865 20.2891 13.4388 20.2891H14.0299C14.3823 20.2891 14.668 20.0034 14.668 19.651C14.668 19.2986 14.3823 19.0129 14.0299 19.0129Z" fill="#17AEBF" stroke="#17AEBF" stroke-width="0.5"/>
<path d="M20.2689 14.0659C20.6213 14.0659 20.907 13.7803 20.907 13.4279V12.8368C20.907 12.4844 20.6213 12.1987 20.2689 12.1987C19.9166 12.1987 19.6309 12.4844 19.6309 12.8368V13.4279C19.6309 13.7803 19.9166 14.0659 20.2689 14.0659Z" fill="#17AEBF" stroke="#17AEBF" stroke-width="0.5"/>
<path d="M20.2533 25.252C19.901 25.252 19.6152 25.5376 19.6152 25.89V26.4811C19.6152 26.8335 19.901 27.1192 20.2533 27.1192C20.6056 27.1192 20.8914 26.8335 20.8914 26.4811V25.89C20.8914 25.5376 20.6056 25.252 20.2533 25.252Z" fill="#17AEBF" stroke="#17AEBF" stroke-width="0.5"/>
<path d="M1.11853 22.958C0.950718 22.958 0.786099 23.0263 0.66742 23.145C0.548741 23.2636 0.480469 23.4283 0.480469 23.5961C0.480469 23.7645 0.548677 23.9285 0.66742 24.0472C0.786163 24.1659 0.950718 24.2341 1.11853 24.2341C1.28634 24.2341 1.45096 24.1659 1.56957 24.0472C1.68825 23.9285 1.75659 23.7639 1.75659 23.5961C1.75659 23.4283 1.68831 23.2636 1.56957 23.145C1.45096 23.0263 1.28634 22.958 1.11853 22.958Z" fill="#17AEBF" stroke="#17AEBF" stroke-width="0.5"/>
</svg>
