<svg width="109" height="109" viewBox="0 0 109 109" fill="none" xmlns="http://www.w3.org/2000/svg">
<mask id="mask0" mask-type="alpha" maskUnits="userSpaceOnUse" x="0" y="0" width="109" height="109">
<circle cx="54.6538" cy="54.103" r="54" fill="#C4C4C4"/>
</mask>
<g mask="url(#mask0)">
<path d="M108.654 54.103C108.654 83.9264 84.4772 108.103 54.6538 108.103C24.8304 108.103 0.653809 83.9264 0.653809 54.103C0.653809 24.2797 24.8304 0.103027 54.6538 0.103027C84.4772 0.103027 108.654 24.2797 108.654 54.103Z" fill="#67BEC8"/>
<path d="M74.9357 36.6726V50.5389C74.9357 61.8012 65.864 70.9151 54.654 70.9151C43.444 70.9151 34.3723 61.8012 34.3723 50.5389V35.8914C34.3723 35.8914 33.206 27.8842 40.0745 25.0198C40.0745 25.0198 51.8677 36.6726 74.9357 36.6726Z" stroke="#131A40" stroke-width="2.3502" stroke-miterlimit="10"/>
<path d="M34.3721 46.8281H33.3353C30.225 46.8281 27.7627 49.367 27.7627 52.4267C27.7627 55.5515 30.2898 58.0253 33.3353 58.0253H35.7976" stroke="#131A40" stroke-width="2.3502" stroke-miterlimit="10"/>
<path d="M74.9353 46.8281H75.9721C79.0824 46.8281 81.5447 49.367 81.5447 52.4267C81.5447 55.5515 79.0176 58.0253 75.9721 58.0253H73.5098" stroke="#131A40" stroke-width="2.3502" stroke-miterlimit="10"/>
<path d="M43.2495 67.3999V75.9931C43.2495 82.3078 48.3685 87.4506 54.6539 87.4506C60.9393 87.4506 66.0583 82.3078 66.0583 75.9931V67.3999" stroke="#131A40" stroke-width="2.3502" stroke-miterlimit="10"/>
<path d="M43.2493 75.9932L25.1707 86.4742C22.1833 88.1765 19.8709 90.8035 18.4868 93.8886" stroke="#131A40" stroke-width="2.3502" stroke-miterlimit="10" stroke-linecap="round"/>
<path d="M66.0581 75.4092L84.1367 85.8902C88.4781 88.364 90.6216 89.1715 91.3344 94.1191" stroke="#131A40" stroke-width="2.3502" stroke-miterlimit="10" stroke-linecap="round"/>
<path d="M31.0026 47.3491C31.0026 47.3491 28.929 35.9567 28.7994 27.689C28.6698 19.4213 36.5104 16.6871 36.5104 16.6871C36.5104 16.6871 39.4263 3.99266 56.8569 6.66175C74.2227 9.33084 80.3785 20.3327 81.5448 26.8427C82.7112 33.3527 77.5274 47.0887 77.5274 47.0887L75.9722 46.8283L74.9355 45.331V36.6728C74.9355 36.6728 63.4662 36.6077 56.7921 34.0037C50.1179 31.3997 39.4911 25.2803 39.4911 25.2803C39.4911 25.2803 34.5016 28.34 34.4368 32.7668C34.372 37.1285 34.372 45.5914 34.372 45.5914L33.3353 46.8283L31.0026 47.3491Z" fill="#131A40"/>
<path d="M47.7854 42.7919C47.7854 41.555 46.7486 40.5134 45.5174 40.5134C44.2863 40.5134 43.2495 41.555 43.2495 42.7919C43.2495 44.0288 44.2863 45.0704 45.5174 45.0704C46.7486 45.0704 47.7854 44.0288 47.7854 42.7919Z" fill="#131A40"/>
<path d="M63.7259 45.0704C64.9785 45.0704 65.9938 44.0503 65.9938 42.7919C65.9938 41.5335 64.9785 40.5134 63.7259 40.5134C62.4734 40.5134 61.458 41.5335 61.458 42.7919C61.458 44.0503 62.4734 45.0704 63.7259 45.0704Z" fill="#131A40"/>
<path d="M48.8218 38.1047C48.8218 38.1047 44.7395 34.0685 40.4629 38.1047" stroke="#131A40" stroke-width="2.3502" stroke-miterlimit="10" stroke-linecap="round"/>
<path d="M61.8462 38.1047C61.8462 38.1047 65.9285 34.0685 70.2051 38.1047" stroke="#131A40" stroke-width="2.3502" stroke-miterlimit="10" stroke-linecap="round"/>
<path d="M72.2677 48.8496C72.2677 46.7981 70.5481 45.0706 68.5062 45.0706C66.4642 45.0706 64.7446 46.7981 64.7446 48.8496C64.7446 50.9011 66.4642 52.6287 68.5062 52.6287C70.5481 52.6287 72.2677 50.9011 72.2677 48.8496Z" fill="white" fill-opacity="0.2"/>
<path d="M44.5631 48.8496C44.5631 46.7981 42.8435 45.0706 40.8016 45.0706C38.7596 45.0706 37.04 46.7981 37.04 48.8496C37.04 50.9011 38.7596 52.6287 40.8016 52.6287C42.8435 52.6287 44.5631 50.9011 44.5631 48.8496Z" fill="white" fill-opacity="0.2"/>
<path d="M56.857 71.0452L43.2495 73.9096V68.4412C43.2495 68.4412 43.7679 67.9204 44.9343 68.4412C46.1006 68.8969 53.4228 71.6311 56.857 71.0452Z" fill="#131A40"/>
<path d="M20.311 90.7705L24.4171 98.7975" stroke="#131A40" stroke-width="2.3502" stroke-miterlimit="10" stroke-linecap="round"/>
<path d="M88.9966 90.7705L87.2471 93.9604C82.9056 102.033 80.6377 111.147 80.6377 120.326" stroke="#131A40" stroke-width="2.3502" stroke-miterlimit="10" stroke-linecap="round"/>
<path d="M40.4629 80.8755C40.4629 80.8755 42.342 90.7707 56.2087 90.7707C66.6412 90.7707 68.6499 80.8755 68.6499 80.8755" stroke="#131A40" stroke-width="2.3502" stroke-miterlimit="10" stroke-linecap="round"/>
<path d="M41.8887 98.1919C41.8887 98.1919 44.7302 102.889 49.3377 107.982" stroke="#131A40" stroke-width="2.3502" stroke-miterlimit="10" stroke-linecap="round"/>
</g>
</svg>
