<svg width="109" height="109" viewBox="0 0 109 109" fill="none" xmlns="http://www.w3.org/2000/svg">
<mask id="mask0" mask-type="alpha" maskUnits="userSpaceOnUse" x="0" y="0" width="109" height="109">
<circle cx="54.9551" cy="54.103" r="54" fill="#C4C4C4"/>
</mask>
<g mask="url(#mask0)">
<circle cx="54.9551" cy="54.103" r="54" fill="#67BEC8"/>
<path d="M67.1191 71.9439C67.1191 63.7192 67.1191 64.1339 67.1191 64.1339" stroke="#131A40" stroke-width="2.3502" stroke-miterlimit="10"/>
<path d="M42.791 64.0647V71.9439" stroke="#131A40" stroke-width="2.3502" stroke-miterlimit="10"/>
<path d="M42.7908 70.907L32.6308 76.7818C22.2634 82.7949 15.1445 93.2314 13.4858 105.119L11.6196 118.044" stroke="#131A40" stroke-width="2.3502" stroke-miterlimit="10" stroke-linecap="round"/>
<path d="M67.1191 70.9067L77.2791 76.7816C87.6465 82.7946 94.7654 93.2311 96.4242 105.119L98.2903 118.044" stroke="#131A40" stroke-width="2.3502" stroke-miterlimit="10" stroke-linecap="round"/>
<path d="M42.0813 50.6428C44.1579 50.6428 45.8413 48.9594 45.8413 46.8828C45.8413 44.8062 44.1579 43.1228 42.0813 43.1228C40.0047 43.1228 38.3213 44.8062 38.3213 46.8828C38.3213 48.9594 40.0047 50.6428 42.0813 50.6428Z" fill="white" fill-opacity="0.2"/>
<path d="M68.6907 50.6426C70.7673 50.6426 72.4507 48.9591 72.4507 46.8826C72.4507 44.806 70.7673 43.1226 68.6907 43.1226C66.6141 43.1226 64.9307 44.806 64.9307 46.8826C64.9307 48.9591 66.6141 50.6426 68.6907 50.6426Z" fill="white" fill-opacity="0.2"/>
<path d="M74.6531 41.0491V54.4575C74.6531 58.4662 72.1649 62.1294 68.4326 63.5808L65.4607 64.7558C58.6873 67.3822 51.2228 67.3822 44.4495 64.7558L41.4084 63.5808C37.6762 62.1294 35.188 58.5354 35.188 54.4575V33.9302V33.861C35.188 25.3598 42.0996 18.4482 50.6008 18.4482C50.6008 30.8891 60.6917 41.0491 73.2016 41.0491H74.6531Z" stroke="#131A40" stroke-width="1.9597" stroke-miterlimit="10"/>
<path d="M83.0163 39.252C82.809 24.876 81.9796 12.6425 71.474 7.73528C60.9684 2.82806 51.4996 9.94698 51.4996 9.94698C51.4996 9.94698 42.0998 7.25147 34.2898 14.3704C26.4797 21.4893 26.6179 25.3598 25.3738 39.252C24.1989 53.1443 18.9461 57.3603 19.9828 64.894C21.0195 72.4276 33.8059 76.9201 33.8059 76.9201L43.0675 71.5982L42.791 64.0646C42.7219 64.0646 35.1883 61.8529 35.1883 52.1076V33.9301V33.861C35.1883 25.3598 42.0998 18.4482 50.6011 18.4482C50.6011 30.889 60.692 41.049 73.2019 41.049H74.7225V51.2091C74.7225 60.747 72.7181 61.8529 67.1888 64.0646V68.0042C67.1888 68.0042 65.8065 70.0776 68.2256 71.46C70.7137 72.9114 76.7959 77.2657 76.7959 77.2657C76.7959 77.2657 87.3706 74.2246 89.2368 65.7234C91.1029 57.3604 83.2237 53.6281 83.0163 39.252Z" fill="#131A40"/>
<path d="M59.8625 66.8291L42.7909 69.801V64.8247C42.7909 64.8247 42.4453 64.8938 45.6938 65.585C49.0113 66.2761 59.8625 66.8291 59.8625 66.8291Z" fill="#131A40"/>
<path d="M46.7993 42.9152C47.9063 42.9152 48.8036 42.0178 48.8036 40.9109C48.8036 39.8039 47.9063 38.9065 46.7993 38.9065C45.6923 38.9065 44.7949 39.8039 44.7949 40.9109C44.7949 42.0178 45.6923 42.9152 46.7993 42.9152Z" fill="#131A40"/>
<path d="M63.0415 42.915C64.1484 42.915 65.0458 42.0176 65.0458 40.9106C65.0458 39.8036 64.1484 38.9062 63.0415 38.9062C61.9345 38.9062 61.0371 39.8036 61.0371 40.9106C61.0371 42.0176 61.9345 42.915 63.0415 42.915Z" fill="#131A40"/>
<path d="M48.942 36.7641C48.942 36.7641 45.2789 33.2392 41.4775 36.7641" stroke="#131A40" stroke-width="1.9597" stroke-miterlimit="10" stroke-linecap="round"/>
<path d="M79.7677 78.3716C79.7677 84.0801 66.4707 88.7053 55.4958 88.7053C44.5209 88.7053 30.1426 84.0801 30.1426 78.3716" stroke="#131A40" stroke-width="2.3502" stroke-miterlimit="10"/>
<path d="M23.3696 99.314C23.3696 99.314 24.7519 109.128 24.7519 117.975" stroke="#131A40" stroke-width="2.3502" stroke-miterlimit="10" stroke-linecap="round"/>
<path d="M86.541 99.3137C86.541 99.3137 85.1587 109.128 85.1587 117.975" stroke="#131A40" stroke-width="2.3502" stroke-miterlimit="10" stroke-linecap="round"/>
<path d="M43.8579 102.938C43.8579 102.938 60.2382 107.302 66.8431 118.044" stroke="#131A40" stroke-width="2.3502" stroke-miterlimit="10" stroke-linecap="round"/>
</g>
</svg>
