<svg width="38" height="38" viewBox="0 0 38 38" fill="none" xmlns="http://www.w3.org/2000/svg">
<path d="M18.9275 26.4398C18.3082 26.4398 17.8057 25.9372 17.8057 25.318V2.13424C17.8057 1.51501 18.3082 1.01245 18.9275 1.01245C19.5467 1.01245 20.0492 1.51501 20.0492 2.13424V25.318C20.0492 25.9372 19.5467 26.4398 18.9275 26.4398Z" fill="#EB5757" stroke="#EB5757"/>
<path d="M18.9275 26.4399C18.6402 26.4399 18.3532 26.3306 18.1347 26.1107L12.1519 20.1279C11.7137 19.6897 11.7137 18.9793 12.1519 18.5408C12.5901 18.1026 13.3005 18.1026 13.739 18.5408L18.9289 23.731L24.1191 18.5408C24.5573 18.1026 25.268 18.1026 25.7062 18.5408C26.1444 18.9793 26.1444 19.6897 25.7062 20.1279L19.7231 26.1107C19.5019 26.3306 19.2148 26.4399 18.9275 26.4399Z" fill="#EB5757" stroke="#EB5757"/>
<path d="M32.7624 36.9097H5.09183C2.82278 36.9097 0.978516 35.0654 0.978516 32.7964V26.0656C0.978516 25.4464 1.48107 24.9438 2.1003 24.9438C2.71953 24.9438 3.22209 25.4464 3.22209 26.0656V32.7964C3.22209 33.827 4.06124 34.6661 5.09183 34.6661H32.7624C33.793 34.6661 34.6322 33.827 34.6322 32.7964V26.0656C34.6322 25.4464 35.1347 24.9438 35.754 24.9438C36.3732 24.9438 36.8758 25.4464 36.8758 26.0656V32.7964C36.8758 35.0654 35.0315 36.9097 32.7624 36.9097Z" fill="#EB5757" stroke="#EB5757"/>
</svg>
