<svg width="29" height="34" viewBox="0 0 29 34" fill="none" xmlns="http://www.w3.org/2000/svg">
<path d="M28.1688 9.50359L28.1679 9.47862C28.1539 9.17046 28.1446 8.84443 28.139 8.48168C28.1128 6.71274 26.7066 5.24951 24.9374 5.15063C21.2488 4.94478 18.3952 3.74198 15.9571 1.36553L15.9363 1.3457C15.1411 0.616537 13.9414 0.616537 13.1459 1.3457L13.1251 1.36553C10.687 3.74198 7.83349 4.94478 4.14483 5.15087C2.37589 5.24951 0.969454 6.71274 0.943264 8.48192C0.937879 8.84222 0.928333 9.16825 0.914381 9.47862L0.912913 9.53663C0.841196 13.298 0.7521 17.9792 2.31813 22.2281C3.17922 24.5647 4.48335 26.5958 6.19403 28.2653C8.14239 30.1667 10.6943 31.6762 13.7789 32.7517C13.8793 32.7867 13.9835 32.8151 14.0898 32.8364C14.2396 32.8662 14.3903 32.8812 14.5411 32.8812C14.6919 32.8812 14.8429 32.8662 14.9925 32.8364C15.0987 32.8151 15.2037 32.7864 15.3046 32.7512C18.3855 31.6737 20.9347 30.1635 22.8814 28.2624C24.5913 26.5923 25.8954 24.5608 26.7573 22.2237C28.3292 17.962 28.2403 13.272 28.1688 9.50359ZM24.991 21.5724C23.3393 26.0507 19.9676 29.1262 14.6833 30.9742C14.6645 30.9805 14.6444 30.9862 14.6236 30.9903C14.569 31.0011 14.5135 31.0011 14.4581 30.9901C14.4376 30.9859 14.4175 30.9805 14.3989 30.9742C9.10898 29.1296 5.73509 26.0558 4.08462 21.5773C2.64122 17.6607 2.72297 13.3636 2.79518 9.57261L2.79567 9.55156C2.81036 9.22577 2.82015 8.88457 2.82553 8.50958C2.83728 7.72412 3.46291 7.07426 4.24984 7.03045C6.33722 6.91394 8.17103 6.51056 9.85601 5.7973C11.5388 5.08503 13.0334 4.08099 14.4246 2.72791C14.4954 2.66819 14.5871 2.66794 14.6576 2.72791C16.0491 4.08099 17.5437 5.08503 19.2262 5.7973C20.9112 6.51056 22.745 6.91394 24.8327 7.03045C25.6196 7.07426 26.2452 7.72412 26.2567 8.50983C26.2623 8.88677 26.2721 9.22798 26.2868 9.55156C26.3588 13.3469 26.4386 17.6475 24.991 21.5724Z" fill="#17AEBF"/>
<path d="M14.5407 8.84518C10.1319 8.84518 6.54529 12.432 6.54529 16.8406C6.54529 21.2493 10.1319 24.8362 14.5407 24.8362C18.9492 24.8362 22.5361 21.2493 22.5361 16.8406C22.5361 12.432 18.9492 8.84518 14.5407 8.84518ZM14.5407 22.9534C11.17 22.9534 8.42781 20.2113 8.42781 16.8406C8.42781 13.4699 11.17 10.7277 14.5407 10.7277C17.9111 10.7277 20.6533 13.4699 20.6533 16.8406C20.6533 20.2113 17.9111 22.9534 14.5407 22.9534Z" fill="#17AEBF"/>
<path d="M16.8386 14.3584L13.1249 18.072L12.117 17.064C11.7493 16.6964 11.1533 16.6964 10.7857 17.064C10.4183 17.4317 10.4183 18.0277 10.7857 18.3951L12.4594 20.0688C12.6432 20.2526 12.8841 20.3444 13.1249 20.3444C13.3658 20.3444 13.6066 20.2526 13.7905 20.0688L18.1699 15.6894C18.5373 15.3218 18.5373 14.7258 18.1699 14.3584C17.8022 13.9905 17.2062 13.9905 16.8386 14.3584Z" fill="#17AEBF"/>
<path d="M28.1688 9.50359L28.1679 9.47862C28.1539 9.17046 28.1446 8.84443 28.139 8.48168C28.1128 6.71274 26.7066 5.24951 24.9374 5.15063C21.2488 4.94478 18.3952 3.74198 15.9571 1.36553L15.9363 1.3457C15.1411 0.616537 13.9414 0.616537 13.1459 1.3457L13.1251 1.36553C10.687 3.74198 7.83349 4.94478 4.14483 5.15087C2.37589 5.24951 0.969454 6.71274 0.943264 8.48192C0.937879 8.84222 0.928333 9.16825 0.914381 9.47862L0.912913 9.53663C0.841196 13.298 0.7521 17.9792 2.31813 22.2281C3.17922 24.5647 4.48335 26.5958 6.19403 28.2653C8.14239 30.1667 10.6943 31.6762 13.7789 32.7517C13.8793 32.7867 13.9835 32.8151 14.0898 32.8364C14.2396 32.8662 14.3903 32.8812 14.5411 32.8812C14.6919 32.8812 14.8429 32.8662 14.9925 32.8364C15.0987 32.8151 15.2037 32.7864 15.3046 32.7512C18.3855 31.6737 20.9347 30.1635 22.8814 28.2624C24.5913 26.5923 25.8954 24.5608 26.7573 22.2237C28.3292 17.962 28.2403 13.272 28.1688 9.50359ZM24.991 21.5724C23.3393 26.0507 19.9676 29.1262 14.6833 30.9742C14.6645 30.9805 14.6444 30.9862 14.6236 30.9903C14.569 31.0011 14.5135 31.0011 14.4581 30.9901C14.4376 30.9859 14.4175 30.9805 14.3989 30.9742C9.10898 29.1296 5.73509 26.0558 4.08462 21.5773C2.64122 17.6607 2.72297 13.3636 2.79518 9.57261L2.79567 9.55156C2.81036 9.22577 2.82015 8.88457 2.82553 8.50958C2.83728 7.72412 3.46291 7.07426 4.24984 7.03045C6.33722 6.91394 8.17103 6.51056 9.85601 5.7973C11.5388 5.08503 13.0334 4.08099 14.4246 2.72791C14.4954 2.66819 14.5871 2.66794 14.6576 2.72791C16.0491 4.08099 17.5437 5.08503 19.2262 5.7973C20.9112 6.51056 22.745 6.91394 24.8327 7.03045C25.6196 7.07426 26.2452 7.72412 26.2567 8.50983C26.2623 8.88677 26.2721 9.22798 26.2868 9.55156C26.3588 13.3469 26.4386 17.6475 24.991 21.5724Z" stroke="#17AEBF" stroke-width="0.5"/>
<path d="M14.5407 8.84518C10.1319 8.84518 6.54529 12.432 6.54529 16.8406C6.54529 21.2493 10.1319 24.8362 14.5407 24.8362C18.9492 24.8362 22.5361 21.2493 22.5361 16.8406C22.5361 12.432 18.9492 8.84518 14.5407 8.84518ZM14.5407 22.9534C11.17 22.9534 8.42781 20.2113 8.42781 16.8406C8.42781 13.4699 11.17 10.7277 14.5407 10.7277C17.9111 10.7277 20.6533 13.4699 20.6533 16.8406C20.6533 20.2113 17.9111 22.9534 14.5407 22.9534Z" stroke="#17AEBF" stroke-width="0.5"/>
<path d="M16.8386 14.3584L13.1249 18.072L12.117 17.064C11.7493 16.6964 11.1533 16.6964 10.7857 17.064C10.4183 17.4317 10.4183 18.0277 10.7857 18.3951L12.4594 20.0688C12.6432 20.2526 12.8841 20.3444 13.1249 20.3444C13.3658 20.3444 13.6066 20.2526 13.7905 20.0688L18.1699 15.6894C18.5373 15.3218 18.5373 14.7258 18.1699 14.3584C17.8022 13.9905 17.2062 13.9905 16.8386 14.3584Z" stroke="#17AEBF" stroke-width="0.5"/>
</svg>
