<svg width="33" height="19" viewBox="0 0 33 19" fill="none" xmlns="http://www.w3.org/2000/svg">
<path d="M31.1534 12.09V5.59088C31.1534 5.18087 30.889 4.81736 30.4986 4.69167L16.3231 0.122006C16.1347 0.0612193 15.9318 0.0612193 15.7434 0.122006L1.56794 4.69167C1.17779 4.81736 0.913086 5.18063 0.913086 5.59088C0.913086 6.00089 1.17779 6.36416 1.56794 6.48985L8.66473 8.77771V12.3222C8.66473 12.3377 8.66522 12.353 8.66595 12.3682C8.69404 13.2876 9.56273 14.1587 11.1192 14.8259C12.541 15.4354 14.2864 15.7711 16.0335 15.7711C17.7806 15.7711 19.526 15.4354 20.9478 14.8259C22.5302 14.1475 23.4018 13.2585 23.4018 12.3222V8.77771L29.264 6.88799V12.09C28.3824 12.4603 27.7615 13.3326 27.7615 14.3473V17.5482C27.7615 18.0699 28.1846 18.4929 28.7062 18.4929H31.7112C32.2328 18.4929 32.6559 18.0699 32.6559 17.5482V14.3473C32.6559 13.3326 32.0352 12.4603 31.1534 12.09ZM19.9076 13.2088C18.7677 13.6426 17.3919 13.8816 16.0335 13.8816C14.6749 13.8816 13.2991 13.6426 12.1594 13.2088C11.1604 12.8284 10.6683 12.4169 10.5542 12.2442V9.38679L15.7434 11.0595C15.8376 11.0898 15.9354 11.105 16.0333 11.105C16.1311 11.105 16.2289 11.09 16.3231 11.0595L21.5123 9.38679V12.245C21.3973 12.4179 20.9054 12.8289 19.9076 13.2088ZM16.0333 9.16786L4.93688 5.59088L16.0333 2.0139L27.1296 5.59088L16.0333 9.16786ZM30.7664 16.6035H29.651V14.3473C29.651 14.0398 29.9014 13.7896 30.2087 13.7896C30.5163 13.7896 30.7664 14.0398 30.7664 14.3473V16.6035Z" fill="#17AEBF"/>
</svg>
