<svg width="56" height="33" viewBox="0 0 56 33" fill="none" xmlns="http://www.w3.org/2000/svg">
<path d="M53.2718 20.9159V9.63739C53.2718 8.92586 52.8129 8.29503 52.1354 8.07691L27.5355 0.146744C27.2085 0.0412547 26.8563 0.0412547 26.5293 0.146744L1.92939 8.07691C1.25233 8.29503 0.792969 8.92544 0.792969 9.63739C0.792969 10.3489 1.25233 10.9793 1.92939 11.1974L14.2451 15.1678V21.3189C14.2451 21.3458 14.246 21.3723 14.2472 21.3988C14.296 22.9941 15.8035 24.5059 18.5046 25.6637C20.972 26.7216 24.001 27.3041 27.0328 27.3041C30.0647 27.3041 33.0936 26.7216 35.561 25.6637C38.3071 24.4865 39.8197 22.9437 39.8197 21.3189V15.1678L49.9928 11.8884V20.9159C48.463 21.5585 47.3855 23.0723 47.3855 24.8333V30.388C47.3855 31.2933 48.1197 32.0275 49.025 32.0275H54.2397C55.145 32.0275 55.8792 31.2933 55.8792 30.388V24.8333C55.8792 23.0723 54.8021 21.5585 53.2718 20.9159ZM33.756 22.8575C31.7777 23.6103 29.3901 24.0251 27.0328 24.0251C24.6751 24.0251 22.2875 23.6103 20.3097 22.8575C18.5761 22.1973 17.7221 21.4832 17.5241 21.1836V16.2248L26.5293 19.1276C26.6928 19.1801 26.8626 19.2066 27.0324 19.2066C27.2022 19.2066 27.372 19.1806 27.5355 19.1276L36.5407 16.2248V21.1849C36.3411 21.4849 35.4875 22.1981 33.756 22.8575ZM27.0324 15.8448L7.77583 9.63739L27.0324 3.42993L46.289 9.63739L27.0324 15.8448ZM52.6002 28.7485H50.6644V24.8333C50.6644 24.2995 51.099 23.8654 51.6323 23.8654C52.1661 23.8654 52.6002 24.2995 52.6002 24.8333V28.7485Z" fill="#17AEBF"/>
</svg>
