<svg width="33" height="33" viewBox="0 0 33 33" fill="none" xmlns="http://www.w3.org/2000/svg">
<path d="M12.7689 25.0976C12.253 25.0976 11.8331 24.6777 11.8331 24.1618C11.8331 23.6449 11.4141 23.2259 10.8973 23.2259C10.3804 23.2259 9.96143 23.6449 9.96143 24.1618C9.96143 25.3854 10.7486 26.428 11.8431 26.8116V27.6309C11.8431 28.1478 12.262 28.5667 12.7789 28.5667C13.2958 28.5667 13.7147 28.1478 13.7147 27.6309V26.8047C14.7987 26.4158 15.5764 25.3781 15.5764 24.1618C15.5764 22.6137 14.3169 21.3543 12.7689 21.3543C12.253 21.3543 11.8331 20.9344 11.8331 20.4185C11.8331 19.9023 12.253 19.4826 12.7689 19.4826C13.2848 19.4826 13.7047 19.9023 13.7047 20.4185C13.7047 20.9354 14.1237 21.3543 14.6406 21.3543C15.1574 21.3543 15.5764 20.9354 15.5764 20.4185C15.5764 19.2021 14.7987 18.1644 13.7147 17.7752V16.401C13.7147 15.8841 13.2958 15.4652 12.7789 15.4652C12.262 15.4652 11.8431 15.8841 11.8431 16.401V17.7684C10.7486 18.152 9.96143 19.1946 9.96143 20.4185C9.96143 21.9665 11.2209 23.2259 12.7689 23.2259C13.2848 23.2259 13.7047 23.6456 13.7047 24.1618C13.7047 24.6777 13.2848 25.0976 12.7689 25.0976Z" fill="#17AEBF"/>
<path d="M4.36524 30.7817C6.31269 31.8243 8.98637 32.31 12.7789 32.31C15.8647 32.31 18.1872 31.9903 19.9916 31.3103C20.507 31.9211 21.2774 32.31 22.1371 32.31H29.6861C31.2341 32.31 32.4936 31.0505 32.4936 29.5025C32.4936 28.7841 32.2219 28.128 31.7764 27.6309C32.2221 27.1337 32.4936 26.4777 32.4936 25.7592C32.4936 25.0408 32.2219 24.3847 31.7764 23.8876C32.2221 23.3904 32.4936 22.7344 32.4936 22.0159C32.4936 21.2975 32.2219 20.6414 31.7764 20.1443C32.2221 19.6471 32.4936 18.9911 32.4936 18.2726C32.4936 16.7246 31.2341 15.4652 29.6861 15.4652H22.1371C22.046 15.4652 21.9558 15.4698 21.8669 15.4786C20.9276 14.341 19.8271 13.3871 18.6144 12.6555C19.0587 12.1588 19.3297 11.5035 19.3297 10.786C19.3297 9.66768 18.6722 8.70017 17.7234 8.24908L19.2836 3.46491C19.3765 3.17978 19.3272 2.86759 19.1513 2.62511C18.9751 2.38238 18.6936 2.23884 18.3938 2.23884H15.4255C15.039 1.14948 13.9989 0.367188 12.7789 0.367188C11.5587 0.367188 10.518 1.14948 10.1318 2.23884H7.16394C6.86419 2.23884 6.58271 2.38238 6.40651 2.62511C6.23056 2.86759 6.18133 3.17978 6.27418 3.46491L7.83438 8.24908C6.88563 8.70017 6.22812 9.66768 6.22812 10.786C6.22812 11.504 6.49936 12.1598 6.94437 12.6567C3.18961 14.9229 0.550781 19.227 0.550781 23.8876C0.550781 27.1072 1.83413 29.4265 4.36524 30.7817ZM30.622 22.0159C30.622 22.5319 30.2021 22.9518 29.6861 22.9518H22.1371C21.6212 22.9518 21.2013 22.5319 21.2013 22.0159C21.2013 21.5 21.6212 21.0801 22.1371 21.0801H29.6861C30.2021 21.0801 30.622 21.5 30.622 22.0159ZM30.622 25.7592C30.622 26.2752 30.2021 26.6951 29.6861 26.6951H22.1371C21.6212 26.6951 21.2013 26.2752 21.2013 25.7592C21.2013 25.2433 21.6212 24.8234 22.1371 24.8234H29.6861C30.2021 24.8234 30.622 25.2433 30.622 25.7592ZM29.6861 30.4384H22.1371C21.6212 30.4384 21.2013 30.0185 21.2013 29.5025C21.2013 28.9866 21.6212 28.5667 22.1371 28.5667H29.6861C30.2021 28.5667 30.622 28.9866 30.622 29.5025C30.622 30.0185 30.2021 30.4384 29.6861 30.4384ZM30.622 18.2726C30.622 18.7886 30.2021 19.2085 29.6861 19.2085H22.1371C21.6212 19.2085 21.2013 18.7886 21.2013 18.2726C21.2013 17.7567 21.6212 17.3368 22.1371 17.3368H29.6861C30.2021 17.3368 30.622 17.7567 30.622 18.2726ZM16.4954 11.7219H9.06264C9.05436 11.7216 9.04607 11.7219 9.03779 11.7219H9.03559C8.51967 11.7219 8.09977 11.302 8.09977 10.786C8.09977 10.2711 8.51797 9.85192 9.03267 9.85046H9.03535C9.03754 9.85046 9.03974 9.85021 9.04193 9.85021H16.5156C16.5178 9.85021 16.5202 9.85046 16.5224 9.85046H16.5251C17.0398 9.85192 17.458 10.2711 17.458 10.786C17.458 11.302 17.0381 11.7219 16.5222 11.7219H16.5193C16.5115 11.7219 16.5034 11.7216 16.4954 11.7219ZM10.9072 4.11049C11.4241 4.11049 11.8431 3.69156 11.8431 3.17466C11.8431 2.65874 12.263 2.23884 12.7789 2.23884C13.2948 2.23884 13.7147 2.65874 13.7147 3.17466V5.04631C13.7147 5.56321 14.1336 5.98214 14.6505 5.98214C15.1674 5.98214 15.5864 5.56321 15.5864 5.04631V4.11049H17.1044L15.843 7.97856H9.7148L8.45338 4.11049H10.9072ZM9.21813 13.5935H16.336C17.7531 14.1855 19.0448 15.1176 20.122 16.3208C19.6321 16.8265 19.3297 17.5147 19.3297 18.2726C19.3297 18.9911 19.6014 19.6471 20.0469 20.1443C19.6014 20.6414 19.3297 21.2975 19.3297 22.0159C19.3297 22.7344 19.6014 23.3904 20.0469 23.8876C19.6014 24.3847 19.3297 25.0408 19.3297 25.7592C19.3297 26.4777 19.6014 27.1337 20.0469 27.6309C19.6014 28.128 19.3297 28.7841 19.3297 29.5025C19.3297 29.5218 19.3306 29.5408 19.3311 29.5598C17.748 30.1576 15.6395 30.4384 12.7789 30.4384C9.30659 30.4384 6.91366 30.0231 5.24867 29.1316C3.32048 28.0993 2.42243 26.4331 2.42243 23.8876C2.42243 19.4736 5.20846 15.2673 9.21813 13.5935Z" fill="#17AEBF"/>
</svg>
