<svg width="40" height="40" viewBox="0 0 40 40" fill="none" xmlns="http://www.w3.org/2000/svg">
<path d="M35.8612 0.531006H4.1686C2.30512 0.531006 0.789062 2.04707 0.789062 3.91055V35.4529C0.789062 37.3164 2.30512 38.8325 4.1686 38.8325H35.8612C37.7247 38.8325 39.2407 37.3164 39.2407 35.4529V3.91055C39.2407 2.04707 37.7247 0.531006 35.8612 0.531006ZM4.1686 2.78403H35.8612C36.4823 2.78403 36.9877 3.28939 36.9877 3.91055V9.54311H3.04209V3.91055C3.04209 3.28939 3.54744 2.78403 4.1686 2.78403ZM35.8612 36.5794H4.1686C3.54744 36.5794 3.04209 36.0741 3.04209 35.4529V11.7961H36.9877V35.4529C36.9877 36.0741 36.4823 36.5794 35.8612 36.5794Z" fill="#17AEBF"/>
<path d="M23.838 15.2669C23.2662 15.0219 22.6039 15.2867 22.3588 15.8586L15.5998 31.6298C15.3546 32.2016 15.6196 32.8639 16.1914 33.1089C16.7634 33.3541 17.4256 33.089 17.6706 32.5173L24.4297 16.7461C24.6748 16.1742 24.4098 15.512 23.838 15.2669Z" fill="#17AEBF"/>
<path d="M14.1354 18.978C13.7467 18.4922 13.0377 18.4135 12.5521 18.8021L6.91951 23.3082C6.35633 23.7586 6.35596 24.6167 6.91951 25.0675L12.5521 29.5736C13.0379 29.9623 13.7469 29.8834 14.1354 29.3977C14.5241 28.9118 14.4454 28.2029 13.9595 27.8143L9.42653 24.1878L13.9595 20.5614C14.4454 20.1728 14.5241 19.4639 14.1354 18.978Z" fill="#17AEBF"/>
<path d="M33.1102 23.3082L27.4776 18.8022C26.9918 18.4134 26.2828 18.4922 25.8942 18.9781C25.5056 19.4639 25.5843 20.1728 26.0702 20.5614L30.6031 24.1879L26.0702 27.8143C25.5843 28.2029 25.5056 28.9118 25.8942 29.3976C26.2834 29.884 26.9925 29.9618 27.4776 29.5735L33.1102 25.0675C33.6733 24.6171 33.6737 23.759 33.1102 23.3082Z" fill="#17AEBF"/>
<path d="M6.49659 7.29013C7.11875 7.29013 7.62311 6.78577 7.62311 6.16362C7.62311 5.54146 7.11875 5.0371 6.49659 5.0371C5.87444 5.0371 5.37008 5.54146 5.37008 6.16362C5.37008 6.78577 5.87444 7.29013 6.49659 7.29013Z" fill="#17AEBF"/>
<path d="M11.0025 7.29013C11.6246 7.29013 12.129 6.78577 12.129 6.16362C12.129 5.54146 11.6246 5.0371 11.0025 5.0371C10.3803 5.0371 9.87594 5.54146 9.87594 6.16362C9.87594 6.78577 10.3803 7.29013 11.0025 7.29013Z" fill="#17AEBF"/>
<path d="M15.5087 7.29013C16.1308 7.29013 16.6352 6.78577 16.6352 6.16362C16.6352 5.54146 16.1308 5.0371 15.5087 5.0371C14.8865 5.0371 14.3822 5.54146 14.3822 6.16362C14.3822 6.78577 14.8865 7.29013 15.5087 7.29013Z" fill="#17AEBF"/>
<path d="M26.7739 7.29013H33.5329C34.1551 7.29013 34.6595 6.78575 34.6595 6.16362C34.6595 5.54148 34.1551 5.0371 33.5329 5.0371H26.7739C26.1517 5.0371 25.6473 5.54148 25.6473 6.16362C25.6473 6.78575 26.1517 7.29013 26.7739 7.29013Z" fill="#17AEBF"/>
<path d="M35.8612 0.531006H4.1686C2.30512 0.531006 0.789062 2.04707 0.789062 3.91055V35.4529C0.789062 37.3164 2.30512 38.8325 4.1686 38.8325H35.8612C37.7247 38.8325 39.2407 37.3164 39.2407 35.4529V3.91055C39.2407 2.04707 37.7247 0.531006 35.8612 0.531006ZM4.1686 2.78403H35.8612C36.4823 2.78403 36.9877 3.28939 36.9877 3.91055V9.54311H3.04209V3.91055C3.04209 3.28939 3.54744 2.78403 4.1686 2.78403ZM35.8612 36.5794H4.1686C3.54744 36.5794 3.04209 36.0741 3.04209 35.4529V11.7961H36.9877V35.4529C36.9877 36.0741 36.4823 36.5794 35.8612 36.5794Z" stroke="#17AEBF" stroke-width="0.5"/>
<path d="M23.838 15.2669C23.2662 15.0219 22.6039 15.2867 22.3588 15.8586L15.5998 31.6298C15.3546 32.2016 15.6196 32.8639 16.1914 33.1089C16.7634 33.3541 17.4256 33.089 17.6706 32.5173L24.4297 16.7461C24.6748 16.1742 24.4098 15.512 23.838 15.2669Z" stroke="#17AEBF" stroke-width="0.5"/>
<path d="M14.1354 18.978C13.7467 18.4922 13.0377 18.4135 12.5521 18.8021L6.91951 23.3082C6.35633 23.7586 6.35596 24.6167 6.91951 25.0675L12.5521 29.5736C13.0379 29.9623 13.7469 29.8834 14.1354 29.3977C14.5241 28.9118 14.4454 28.2029 13.9595 27.8143L9.42653 24.1878L13.9595 20.5614C14.4454 20.1728 14.5241 19.4639 14.1354 18.978Z" stroke="#17AEBF" stroke-width="0.5"/>
<path d="M33.1102 23.3082L27.4776 18.8022C26.9918 18.4134 26.2828 18.4922 25.8942 18.9781C25.5056 19.4639 25.5843 20.1728 26.0702 20.5614L30.6031 24.1879L26.0702 27.8143C25.5843 28.2029 25.5056 28.9118 25.8942 29.3976C26.2834 29.884 26.9925 29.9618 27.4776 29.5735L33.1102 25.0675C33.6733 24.6171 33.6737 23.759 33.1102 23.3082Z" stroke="#17AEBF" stroke-width="0.5"/>
<path d="M6.49659 7.29013C7.11875 7.29013 7.62311 6.78577 7.62311 6.16362C7.62311 5.54146 7.11875 5.0371 6.49659 5.0371C5.87444 5.0371 5.37008 5.54146 5.37008 6.16362C5.37008 6.78577 5.87444 7.29013 6.49659 7.29013Z" stroke="#17AEBF" stroke-width="0.5"/>
<path d="M11.0025 7.29013C11.6246 7.29013 12.129 6.78577 12.129 6.16362C12.129 5.54146 11.6246 5.0371 11.0025 5.0371C10.3803 5.0371 9.87594 5.54146 9.87594 6.16362C9.87594 6.78577 10.3803 7.29013 11.0025 7.29013Z" stroke="#17AEBF" stroke-width="0.5"/>
<path d="M15.5087 7.29013C16.1308 7.29013 16.6352 6.78577 16.6352 6.16362C16.6352 5.54146 16.1308 5.0371 15.5087 5.0371C14.8865 5.0371 14.3822 5.54146 14.3822 6.16362C14.3822 6.78577 14.8865 7.29013 15.5087 7.29013Z" stroke="#17AEBF" stroke-width="0.5"/>
<path d="M26.7739 7.29013H33.5329C34.1551 7.29013 34.6595 6.78575 34.6595 6.16362C34.6595 5.54148 34.1551 5.0371 33.5329 5.0371H26.7739C26.1517 5.0371 25.6473 5.54148 25.6473 6.16362C25.6473 6.78575 26.1517 7.29013 26.7739 7.29013Z" stroke="#17AEBF" stroke-width="0.5"/>
</svg>
