<?xml version="1.0"?>
<svg xmlns="http://www.w3.org/2000/svg" id="Capa_1" enable-background="new 0 0 512 512" height="512px" viewBox="0 0 512 512" width="512px"><g><g><path d="m75 436h-60c-8.284 0-15 6.716-15 15s6.716 15 15 15h60c8.284 0 15-6.716 15-15s-6.716-15-15-15z" data-original="#000000" class="active-path" data-old_color="#000000" fill="#17AEBF"/><path d="m75 376h-60c-8.284 0-15 6.716-15 15s6.716 15 15 15h60c8.284 0 15-6.716 15-15s-6.716-15-15-15z" data-original="#000000" class="active-path" data-old_color="#000000" fill="#17AEBF"/><path d="m417 276h-64.282l-31.662-44.311c-.033-.046-.065-.093-.099-.138l-.727-1.018 2.457-21.151c3.305-28.45-15.292-54.572-43.257-60.762-28.084-6.215-49.307-28.56-54.068-56.925-4.444-26.477-27.156-45.695-54.004-45.695-14.475 0-28.125 5.596-38.435 15.755l-94.31 92.935c-.014.014-.026.03-.04.043-.012.012-.026.022-.038.035l-28.283 28.284c-6.61 6.61-10.251 15.399-10.251 24.749 0 9.349 3.641 18.138 10.251 24.748l199.767 199.768c1.262 1.262 2.55 2.487 3.859 3.683h-78.878c-8.284 0-15 6.716-15 15s6.716 15 15 15h332c24.813 0 45-20.187 45-45v-50c0-52.383-42.617-95-95-95zm-263.02-192.876c4.663-4.594 10.833-7.124 17.378-7.124 12.139 0 22.408 8.688 24.417 20.661 6.796 40.486 37.088 72.38 77.173 81.251 12.891 2.853 21.462 14.894 19.939 28.008l-2.896 24.923-22.109 7.369c-7.859 2.62-12.106 11.114-9.487 18.974 2.096 6.286 7.947 10.261 14.229 10.261 1.572 0 3.172-.249 4.745-.773l25.693-8.564 17.924 25.084-18.571 6.19c-7.859 2.62-12.106 11.115-9.487 18.974 2.096 6.286 7.947 10.261 14.229 10.261 1.572 0 3.172-.249 4.745-.773l35.533-11.846h69.565c35.841 0 65 29.159 65 65v5h-201.021l-210.546-210.547zm328.02 337.876c0 8.271-6.729 15-15 15h-175.664c-22.704 0-44.05-8.842-60.104-24.896l-199.767-199.767c-1.949-1.949-1.949-5.122 0-7.071l17.677-17.678 215.018 215.018c2.813 2.813 6.628 4.394 10.606 4.394h207.234z" data-original="#000000" class="active-path" data-old_color="#000000" fill="#17AEBF"/></g></g> </svg>
