<svg width="75" height="75" viewBox="0 0 75 75" fill="none" xmlns="http://www.w3.org/2000/svg">
<circle cx="37.3035" cy="37.3634" r="37.3015" fill="#17AEBF"/>
<path d="M51.8378 39.3695H46.1752C45.352 39.3695 44.6847 40.0368 44.6847 40.86C44.6847 41.6832 45.352 42.3504 46.1752 42.3504H48.2406L41.0909 49.5C40.5088 50.0821 40.5088 51.0258 41.0909 51.6078C41.6729 52.1899 42.6166 52.19 43.1987 51.6079L50.3485 44.4582V46.5236C50.3485 47.3468 51.0158 48.0141 51.839 48.0141C52.6621 48.0141 53.3294 47.3468 53.3294 46.5236V40.86C53.3294 40.8597 53.3294 40.8595 53.3294 40.8593C53.329 40.0494 52.6708 39.3689 51.8378 39.3695Z" fill="white"/>
<path d="M54.891 22.6824H46.0973C45.2741 22.6824 44.6068 23.3497 44.6068 24.1728V31.4761H37.3036C36.4805 31.4761 35.8131 32.1434 35.8131 32.9666V40.2698H28.5098C27.6867 40.2698 27.0194 40.9371 27.0194 41.7603V49.0636H19.716C18.8929 49.0636 18.2256 49.7308 18.2256 50.554C18.2256 51.3772 18.8929 52.0445 19.716 52.0445H28.5098C28.9051 52.0445 29.2843 51.8875 29.5638 51.6079C29.8433 51.3285 30.0003 50.9493 30.0003 50.554L30.0002 43.2507H37.3036C37.6988 43.2507 38.078 43.0937 38.3575 42.8142C38.637 42.5347 38.794 42.1556 38.794 41.7603L38.794 34.457H46.0972C46.4926 34.457 46.8717 34.3 47.1511 34.0205C47.4307 33.741 47.5877 33.3618 47.5877 32.9666L47.5876 25.6633H54.8909C55.7141 25.6633 56.3814 24.996 56.3814 24.1728C56.3814 23.3497 55.7141 22.6824 54.891 22.6824Z" fill="white"/>
</svg>
