<?xml version="1.0" encoding="utf-8"?>
<!-- Generator: Adobe Illustrator 22.0.1, SVG Export Plug-In . SVG Version: 6.00 Build 0)  -->
<svg version="1.1" id="Calque_1" xmlns="http://www.w3.org/2000/svg" xmlns:xlink="http://www.w3.org/1999/xlink" x="0px" y="0px"
	 viewBox="0 0 173 33" style="enable-background:new 0 0 173 33;" xml:space="preserve">
<style type="text/css">
	.st0{fill:#FFFFFF;}
</style>
<path class="st0" d="M54.3,8.6c1.5,0,2.7,0.5,3.6,1.5c1,1,1.5,2.2,1.5,3.6c0,1.4-0.5,2.6-1.5,3.6c-1,1-2.2,1.5-3.6,1.5h-3.1V24h-2.5
	V8.6H54.3z M54.3,16.4c0.7,0,1.4-0.2,1.8-0.7c0.5-0.5,0.7-1.2,0.7-1.9c0-0.8-0.2-1.4-0.7-1.9c-0.5-0.5-1.1-0.8-1.8-0.8h-3.1v5.4
	H54.3z M63.6,14.9c0.6-1.4,1.7-2,3.4-2v2.6c-0.9-0.1-1.7,0.2-2.4,0.7c-0.7,0.5-1,1.3-1,2.4V24h-2.4V13h2.4V14.9z M70.1,19.5
	c0.2,0.8,0.6,1.5,1.2,1.9c0.6,0.4,1.4,0.7,2.3,0.7c1.3,0,2.2-0.5,2.8-1.4l2,1.1c-1.1,1.6-2.7,2.4-4.8,2.4c-1.8,0-3.2-0.5-4.3-1.6
	c-1.1-1.1-1.6-2.5-1.6-4.2c0-1.6,0.5-3,1.6-4.1c1.1-1.1,2.5-1.7,4.2-1.7c1.6,0,2.9,0.6,4,1.7c1,1.1,1.6,2.5,1.6,4.1
	c0,0.2,0,0.6-0.1,1H70.1z M70.1,17.6h6.5c-0.2-0.9-0.5-1.6-1.1-2c-0.6-0.5-1.2-0.7-2-0.7c-0.9,0-1.6,0.2-2.2,0.7
	C70.7,16.1,70.3,16.8,70.1,17.6z M82.8,16.1c0,0.4,0.2,0.7,0.6,0.9c0.4,0.2,0.9,0.4,1.5,0.5c0.6,0.1,1.2,0.3,1.8,0.5
	c0.6,0.2,1.1,0.6,1.5,1.1c0.4,0.5,0.6,1.1,0.6,1.8c0,1.1-0.4,1.9-1.2,2.5c-0.8,0.6-1.8,0.9-3.1,0.9c-1.1,0-2-0.2-2.8-0.7
	c-0.8-0.5-1.3-1.1-1.7-1.9l2-1.2c0.4,1.1,1.2,1.6,2.4,1.6c1.2,0,1.9-0.4,1.9-1.2c0-0.4-0.2-0.6-0.6-0.9c-0.4-0.2-0.9-0.4-1.5-0.5
	c-0.6-0.2-1.2-0.3-1.7-0.6c-0.6-0.2-1.1-0.5-1.5-1c-0.4-0.5-0.6-1.1-0.6-1.8c0-1,0.4-1.8,1.1-2.4c0.8-0.6,1.7-0.9,2.9-0.9
	c0.9,0,1.7,0.2,2.4,0.6c0.7,0.4,1.3,1,1.7,1.7l-2,1.1c-0.4-0.8-1.1-1.3-2.1-1.3c-0.5,0-0.8,0.1-1.1,0.3
	C82.9,15.4,82.8,15.7,82.8,16.1z M98.1,13h2.4v11h-2.4v-1.4c-0.7,1.1-1.9,1.7-3.4,1.7c-1.3,0-2.3-0.4-3.1-1.2
	c-0.8-0.8-1.2-1.9-1.2-3.3V13h2.4v6.5c0,0.8,0.2,1.5,0.7,1.9c0.4,0.4,1,0.7,1.8,0.7c0.8,0,1.5-0.3,2-0.8c0.5-0.5,0.8-1.3,0.8-2.4V13
	z M109.4,12.7c1.5,0,2.8,0.6,3.9,1.7c1.1,1.1,1.6,2.5,1.6,4.1c0,1.6-0.5,3-1.6,4.1c-1.1,1.1-2.4,1.7-3.9,1.7c-1.7,0-3-0.6-3.8-1.8v6
	h-2.4V13h2.4v1.6C106.5,13.4,107.8,12.7,109.4,12.7z M106.6,21.1c0.7,0.7,1.5,1,2.5,1c1,0,1.8-0.3,2.5-1c0.7-0.7,1-1.5,1-2.5
	c0-1-0.3-1.8-1-2.5c-0.7-0.7-1.5-1-2.5-1c-1,0-1.8,0.3-2.5,1c-0.7,0.7-1,1.5-1,2.5C105.6,19.5,105.9,20.4,106.6,21.1z M124.5,13h2.4
	v11h-2.4v-1.4c-0.7,1.1-1.9,1.7-3.4,1.7c-1.3,0-2.3-0.4-3.1-1.2c-0.8-0.8-1.2-1.9-1.2-3.3V13h2.4v6.5c0,0.8,0.2,1.5,0.7,1.9
	c0.4,0.4,1,0.7,1.8,0.7c0.8,0,1.5-0.3,2-0.8c0.5-0.5,0.8-1.3,0.8-2.4V13z M131.5,19.5c0.2,0.8,0.6,1.5,1.2,1.9
	c0.6,0.4,1.4,0.7,2.3,0.7c1.3,0,2.2-0.5,2.8-1.4l2,1.1c-1.1,1.6-2.7,2.4-4.8,2.4c-1.8,0-3.2-0.5-4.3-1.6c-1.1-1.1-1.6-2.5-1.6-4.2
	c0-1.6,0.5-3,1.6-4.1c1.1-1.1,2.5-1.7,4.2-1.7c1.6,0,2.9,0.6,4,1.7c1,1.1,1.6,2.5,1.6,4.1c0,0.2,0,0.6-0.1,1H131.5z M131.5,17.6h6.5
	c-0.2-0.9-0.5-1.6-1.1-2c-0.6-0.5-1.2-0.7-2-0.7c-0.9,0-1.6,0.2-2.2,0.7C132,16.1,131.7,16.8,131.5,17.6z M144.2,16.1
	c0,0.4,0.2,0.7,0.6,0.9c0.4,0.2,0.9,0.4,1.5,0.5c0.6,0.1,1.2,0.3,1.8,0.5c0.6,0.2,1.1,0.6,1.5,1.1c0.4,0.5,0.6,1.1,0.6,1.8
	c0,1.1-0.4,1.9-1.2,2.5c-0.8,0.6-1.8,0.9-3.1,0.9c-1.1,0-2-0.2-2.8-0.7c-0.8-0.5-1.3-1.1-1.7-1.9l2-1.2c0.4,1.1,1.2,1.6,2.4,1.6
	c1.2,0,1.9-0.4,1.9-1.2c0-0.4-0.2-0.6-0.6-0.9c-0.4-0.2-0.9-0.4-1.5-0.5c-0.6-0.2-1.2-0.3-1.7-0.6c-0.6-0.2-1.1-0.5-1.5-1
	c-0.4-0.5-0.6-1.1-0.6-1.8c0-1,0.4-1.8,1.1-2.4c0.8-0.6,1.7-0.9,2.9-0.9c0.9,0,1.7,0.2,2.4,0.6c0.7,0.4,1.3,1,1.6,1.7l-2,1.1
	c-0.4-0.8-1.1-1.3-2.1-1.3c-0.5,0-0.8,0.1-1.1,0.3C144.3,15.4,144.2,15.7,144.2,16.1z M157.9,15.3h-2.7v5.3c0,0.5,0.1,0.8,0.3,1
	c0.2,0.2,0.5,0.3,0.9,0.3c0.4,0,0.9,0,1.5,0V24c-1.8,0.2-3.1,0.1-3.9-0.5c-0.8-0.5-1.2-1.5-1.2-3v-5.3h-2V13h2v-2.4l2.4-0.7V13h2.7
	V15.3z M164.8,24.3c-1.6,0-3-0.6-4.1-1.7c-1.1-1.1-1.7-2.5-1.7-4.1s0.6-3,1.7-4.1c1.1-1.1,2.5-1.7,4.1-1.7c1.6,0,3,0.6,4.1,1.7
	c1.1,1.1,1.7,2.5,1.7,4.1s-0.6,3-1.7,4.1C167.8,23.8,166.4,24.3,164.8,24.3z M162.3,21c0.7,0.7,1.5,1,2.4,1s1.8-0.3,2.4-1
	s1-1.5,1-2.5c0-1-0.3-1.8-1-2.5c-0.7-0.7-1.5-1-2.4-1s-1.8,0.3-2.4,1c-0.7,0.7-1,1.5-1,2.5C161.3,19.5,161.7,20.4,162.3,21z"/>
<g>
	<path class="st0" d="M13,25c-0.5,0-1-0.4-1-0.9c0-0.5-0.4-0.9-1-0.9s-1,0.4-1,0.9c0,1.2,0.8,2.3,1.9,2.7v0.8c0,0.5,0.4,0.9,1,0.9
		s1-0.4,1-0.9v-0.8c1.1-0.4,1.9-1.4,1.9-2.7c0-1.6-1.3-2.8-2.9-2.8c-0.5,0-1-0.4-1-0.9c0-0.5,0.4-0.9,1-0.9c0.5,0,1,0.4,1,0.9
		c0,0.5,0.4,0.9,1,0.9s1-0.4,1-0.9c0-1.2-0.8-2.3-1.9-2.7v-1.4c0-0.5-0.4-0.9-1-0.9s-1,0.4-1,0.9v1.4c-1.1,0.4-1.9,1.4-1.9,2.7
		c0,1.6,1.3,2.8,2.9,2.8c0.5,0,1,0.4,1,0.9C14,24.6,13.6,25,13,25z"/>
	<path class="st0" d="M4.5,30.7c2,1,4.7,1.5,8.6,1.5c3.1,0,5.5-0.3,7.4-1c0.5,0.6,1.3,1,2.2,1h7.7c1.6,0,2.9-1.3,2.9-2.8
		c0-0.7-0.3-1.4-0.7-1.9c0.5-0.5,0.7-1.2,0.7-1.9s-0.3-1.4-0.7-1.9c0.5-0.5,0.7-1.2,0.7-1.9s-0.3-1.4-0.7-1.9
		c0.5-0.5,0.7-1.2,0.7-1.9c0-1.6-1.3-2.8-2.9-2.8h-7.7c-0.1,0-0.2,0-0.3,0c-1-1.1-2.1-2.1-3.3-2.8c0.5-0.5,0.7-1.2,0.7-1.9
		c0-1.1-0.7-2.1-1.6-2.6l1.6-4.8c0.1-0.3,0-0.6-0.1-0.8C19.4,2.2,19.1,2,18.8,2h-3c-0.4-1.1-1.5-1.9-2.7-1.9c-1.2,0-2.3,0.8-2.7,1.9
		h-3C7,2,6.7,2.2,6.6,2.4C6.4,2.6,6.3,3,6.4,3.3L8,8.1c-1,0.5-1.6,1.4-1.6,2.6c0,0.7,0.3,1.4,0.7,1.9c-3.8,2.3-6.5,6.6-6.5,11.3
		C0.6,27,1.9,29.4,4.5,30.7z M31.3,21.9c0,0.5-0.4,0.9-1,0.9h-7.7c-0.5,0-1-0.4-1-0.9c0-0.5,0.4-0.9,1-0.9h7.7
		C30.8,21,31.3,21.4,31.3,21.9z M31.3,25.7c0,0.5-0.4,0.9-1,0.9h-7.7c-0.5,0-1-0.4-1-0.9c0-0.5,0.4-0.9,1-0.9h7.7
		C30.8,24.7,31.3,25.2,31.3,25.7z M30.3,30.4h-7.7c-0.5,0-1-0.4-1-0.9c0-0.5,0.4-0.9,1-0.9h7.7c0.5,0,1,0.4,1,0.9
		C31.3,30,30.8,30.4,30.3,30.4z M31.3,18.1c0,0.5-0.4,0.9-1,0.9h-7.7c-0.5,0-1-0.4-1-0.9c0-0.5,0.4-0.9,1-0.9h7.7
		C30.8,17.2,31.3,17.6,31.3,18.1z M16.8,11.6H9.3c0,0,0,0,0,0h0c-0.5,0-1-0.4-1-0.9c0-0.5,0.4-0.9,1-0.9h0c0,0,0,0,0,0h7.6
		c0,0,0,0,0,0h0c0.5,0,1,0.4,1,0.9C17.8,11.1,17.4,11.6,16.8,11.6L16.8,11.6C16.9,11.6,16.9,11.6,16.8,11.6z M11.1,3.9
		c0.5,0,1-0.4,1-0.9c0-0.5,0.4-0.9,1-0.9c0.5,0,1,0.4,1,0.9v1.9c0,0.5,0.4,0.9,1,0.9c0.5,0,1-0.4,1-0.9V3.9h1.5l-1.3,3.9H9.9
		L8.6,3.9H11.1z M9.4,13.4h7.3c1.4,0.6,2.8,1.5,3.9,2.7c-0.5,0.5-0.8,1.2-0.8,2c0,0.7,0.3,1.4,0.7,1.9c-0.5,0.5-0.7,1.2-0.7,1.9
		s0.3,1.4,0.7,1.9c-0.5,0.5-0.7,1.2-0.7,1.9s0.3,1.4,0.7,1.9c-0.5,0.5-0.7,1.2-0.7,1.9c0,0,0,0,0,0.1c-1.6,0.6-3.8,0.9-6.7,0.9
		c-3.5,0-6-0.4-7.7-1.3c-2-1-2.9-2.7-2.9-5.3C2.5,19.4,5.3,15.1,9.4,13.4z"/>
</g>
</svg>
