<?xml version="1.0" encoding="utf-8"?>
<!-- Generator: Adobe Illustrator 22.0.1, SVG Export Plug-In . SVG Version: 6.00 Build 0)  -->
<svg version="1.1" id="Calque_1" xmlns="http://www.w3.org/2000/svg" xmlns:xlink="http://www.w3.org/1999/xlink" x="0px" y="0px"
	 viewBox="0 0 140 36" style="enable-background:new 0 0 140 36;" xml:space="preserve">
<style type="text/css">
	.st0{fill:#FFFFFF;}
</style>
<path class="st0" d="M54.3,11c1.5,0,2.7,0.5,3.6,1.5c1,1,1.5,2.2,1.5,3.6s-0.5,2.6-1.5,3.6s-2.2,1.5-3.6,1.5h-3.1v5.3h-2.5V11H54.3z
	 M54.3,18.7c0.7,0,1.4-0.2,1.8-0.7c0.5-0.5,0.7-1.2,0.7-1.9c0-0.8-0.2-1.4-0.7-1.9s-1.1-0.8-1.8-0.8h-3.1v5.4h3.1V18.7z M62.6,21.9
	c0.2,0.8,0.6,1.5,1.2,1.9s1.4,0.7,2.3,0.7c1.3,0,2.2-0.5,2.8-1.4l2,1.1c-1.1,1.6-2.7,2.4-4.8,2.4c-1.8,0-3.2-0.5-4.3-1.6
	s-1.7-2.5-1.7-4.2c0-1.6,0.5-3,1.6-4.1s2.5-1.7,4.2-1.7c1.6,0,2.9,0.6,4,1.7c1,1.1,1.6,2.5,1.6,4.1c0,0.2,0,0.6-0.1,1h-8.8V21.9z
	 M62.6,20H69c-0.2-0.9-0.5-1.6-1.1-2c-0.6-0.5-1.2-0.7-2-0.7c-0.9,0-1.6,0.2-2.2,0.7S62.7,19.1,62.6,20z M75.9,17.2
	c0.6-1.4,1.7-2,3.4-2v2.6c-0.9-0.1-1.7,0.2-2.4,0.7c-0.7,0.5-1,1.3-1,2.4v5.5h-2.4v-11h2.4V17.2z M82.8,18.4c0,0.4,0.2,0.7,0.6,0.9
	c0.4,0.2,0.9,0.4,1.5,0.6c0.6,0.1,1.2,0.3,1.8,0.5c0.6,0.2,1.1,0.6,1.5,1.1s0.6,1.1,0.6,1.8c0,1.1-0.4,1.9-1.2,2.5
	c-0.8,0.6-1.8,0.9-3.1,0.9c-1.1,0-2-0.2-2.8-0.7s-1.3-1.1-1.7-1.9l2-1.2c0.4,1.1,1.2,1.6,2.4,1.6c1.2,0,1.9-0.4,1.9-1.2
	c0-0.4-0.2-0.6-0.6-0.9c-0.4-0.2-0.9-0.4-1.5-0.6s-1.2-0.3-1.7-0.5c-0.6-0.2-1.1-0.5-1.5-1s-0.6-1.1-0.6-1.8c0-1,0.4-1.8,1.1-2.4
	c0.8-0.6,1.7-0.9,2.9-0.9c0.9,0,1.7,0.2,2.4,0.6c0.7,0.4,1.3,1,1.7,1.7l-2,1.1c-0.4-0.8-1.1-1.3-2.1-1.3c-0.5,0-0.8,0.1-1.1,0.3
	C82.9,17.8,82.8,18,82.8,18.4z M95.7,26.7c-1.6,0-3-0.6-4.1-1.7s-1.7-2.5-1.7-4.1s0.6-3,1.7-4.1s2.5-1.7,4.1-1.7s3,0.6,4.1,1.7
	s1.7,2.5,1.7,4.1s-0.6,3-1.7,4.1S97.3,26.7,95.7,26.7z M93.3,23.4c0.7,0.7,1.5,1,2.4,1s1.8-0.3,2.4-1c0.7-0.7,1-1.5,1-2.5
	s-0.3-1.8-1-2.5s-1.5-1-2.4-1s-1.8,0.3-2.4,1c-0.7,0.7-1,1.5-1,2.5S92.6,22.7,93.3,23.4z M109.4,15.1c1.3,0,2.3,0.4,3.1,1.2
	c0.8,0.8,1.2,1.9,1.2,3.3v6.8h-2.4v-6.5c0-0.8-0.2-1.5-0.7-1.9s-1-0.7-1.8-0.7s-1.5,0.3-2,0.8s-0.8,1.3-0.8,2.4v5.9h-2.4v-11h2.4
	v1.4C106.7,15.7,107.9,15.1,109.4,15.1z M124.9,15.4h2.4v11h-2.4v-1.6c-0.9,1.2-2.2,1.9-3.8,1.9c-1.5,0-2.8-0.6-3.9-1.7
	s-1.6-2.5-1.6-4.1s0.5-3,1.6-4.1s2.4-1.7,3.9-1.7c1.7,0,3,0.6,3.8,1.8V15.4z M119,23.4c0.7,0.7,1.5,1,2.5,1s1.8-0.3,2.5-1
	s1-1.5,1-2.5s-0.3-1.8-1-2.5s-1.5-1-2.5-1s-1.8,0.3-2.5,1s-1,1.5-1,2.5S118.3,22.7,119,23.4z M132.1,18.4c0,0.4,0.2,0.7,0.6,0.9
	c0.4,0.2,0.9,0.4,1.5,0.6c0.6,0.1,1.2,0.3,1.8,0.5s1.1,0.6,1.5,1.1s0.6,1.1,0.6,1.8c0,1.1-0.4,1.9-1.2,2.5s-1.8,0.9-3.1,0.9
	c-1.1,0-2-0.2-2.8-0.7s-1.3-1.1-1.7-1.9l2-1.2c0.4,1.1,1.2,1.6,2.4,1.6s1.9-0.4,1.9-1.2c0-0.4-0.2-0.6-0.6-0.9
	c-0.4-0.2-0.9-0.4-1.5-0.6s-1.2-0.3-1.7-0.5c-0.6-0.2-1.1-0.5-1.5-1s-0.6-1.1-0.6-1.8c0-1,0.4-1.8,1.1-2.4c0.8-0.6,1.7-0.9,2.9-0.9
	c0.9,0,1.7,0.2,2.4,0.6c0.7,0.4,1.3,1,1.6,1.7l-2,1.1c-0.4-0.8-1.1-1.3-2.1-1.3c-0.5,0-0.8,0.1-1.1,0.3
	C132.3,17.8,132.1,18,132.1,18.4z"/>
<path class="st0" d="M30.7,18h-3.5c-0.5,0-0.9,0.1-1.4,0.2c-0.9-1.7-2.6-2.9-4.7-2.9h-6.2c-2,0-3.8,1.2-4.7,2.9
	C9.7,18.1,9.3,18,8.8,18H5.3C2.4,18,0,20.4,0,23.2v5.6c0,1.7,1.4,3.1,3.2,3.1h29.6c1.7,0,3.2-1.4,3.2-3.1v-5.6
	C36,20.4,33.6,18,30.7,18z M9.6,20.6v9.3H3.2c-0.6,0-1.1-0.5-1.1-1v-5.6c0-1.7,1.4-3.1,3.2-3.1h3.5c0.3,0,0.6,0,0.8,0.1
	C9.6,20.3,9.6,20.4,9.6,20.6z M24.3,29.9H11.7v-9.3c0-1.7,1.4-3.1,3.2-3.1h6.2c1.7,0,3.2,1.4,3.2,3.1V29.9z M33.9,28.8
	c0,0.6-0.5,1-1.1,1h-6.4v-9.3c0-0.1,0-0.2,0-0.3c0.3-0.1,0.5-0.1,0.8-0.1h3.5c1.7,0,3.2,1.4,3.2,3.1V28.8z"/>
<path class="st0" d="M7,8.2c-2.6,0-4.7,2.1-4.7,4.6c0,2.6,2.1,4.6,4.7,4.6c2.6,0,4.7-2.1,4.7-4.6S9.6,8.2,7,8.2z M7,15.4
	c-1.4,0-2.6-1.1-2.6-2.6c0-1.4,1.2-2.6,2.6-2.6c1.4,0,2.6,1.1,2.6,2.6C9.6,14.2,8.4,15.4,7,15.4z"/>
<path class="st0" d="M18,2.4c-3.4,0-6.3,2.8-6.3,6.2c0,3.4,2.8,6.2,6.3,6.2c3.4,0,6.3-2.8,6.3-6.2C24.2,5.2,21.4,2.4,18,2.4z
	 M18,12.7c-2.3,0-4.1-1.8-4.1-4.1c0-2.3,1.9-4.1,4.1-4.1s4.1,1.8,4.1,4.1S20.3,12.7,18,12.7z"/>
<path class="st0" d="M28.9,8.2c-2.6,0-4.7,2.1-4.7,4.6c0,2.6,2.1,4.6,4.7,4.6c2.6,0,4.7-2.1,4.7-4.6S31.5,8.2,28.9,8.2z M28.9,15.4
	c-1.4,0-2.6-1.1-2.6-2.6c0-1.4,1.2-2.6,2.6-2.6c1.4,0,2.6,1.1,2.6,2.6C31.5,14.2,30.4,15.4,28.9,15.4z"/>
</svg>
