<?xml version="1.0" encoding="utf-8"?>

<svg version="1.1" id="Calque_1" xmlns="http://www.w3.org/2000/svg" xmlns:xlink="http://www.w3.org/1999/xlink" x="0px" y="0px"
	 viewBox="0 0 162 32" style="enable-background:new 0 0 162 32;" xml:space="preserve">
<style type="text/css">
	.st0{fill:#FFFFFF;}
</style>
<path class="st0" d="M54.7,7.4c2.1,0,3.9,0.7,5.3,2.2c1.4,1.5,2.1,3.3,2.1,5.5c0,2.2-0.7,4-2.1,5.5c-1.4,1.5-3.1,2.2-5.3,2.2h-6.1
	V7.4H54.7z M54.7,20.4c1.5,0,2.6-0.5,3.5-1.5c0.9-1,1.4-2.3,1.4-3.8c0-1.5-0.5-2.8-1.4-3.8c-0.9-1-2.1-1.5-3.5-1.5h-3.5v10.6H54.7z
	 M72.9,11.8h2.4v11h-2.4v-1.6c-0.9,1.2-2.2,1.9-3.8,1.9c-1.5,0-2.8-0.6-3.9-1.7c-1.1-1.1-1.6-2.5-1.6-4.1c0-1.6,0.5-3,1.6-4.1
	c1.1-1.1,2.4-1.7,3.9-1.7c1.7,0,3,0.6,3.8,1.8V11.8z M67,19.8c0.7,0.7,1.5,1,2.5,1s1.8-0.3,2.5-1c0.7-0.7,1-1.5,1-2.5
	c0-1-0.3-1.8-1-2.5c-0.7-0.7-1.5-1-2.5-1s-1.8,0.3-2.5,1c-0.7,0.7-1,1.5-1,2.5C66,18.3,66.3,19.1,67,19.8z M80.2,14.8
	c0,0.4,0.2,0.7,0.6,0.9c0.4,0.2,0.9,0.4,1.5,0.6c0.6,0.1,1.2,0.3,1.8,0.5c0.6,0.2,1.1,0.6,1.5,1.1c0.4,0.5,0.6,1.1,0.6,1.8
	c0,1.1-0.4,1.9-1.2,2.5c-0.8,0.6-1.8,0.9-3.1,0.9c-1.1,0-2-0.2-2.8-0.7c-0.8-0.5-1.3-1.1-1.7-1.9l2-1.2c0.4,1.1,1.2,1.6,2.4,1.6
	c1.2,0,1.9-0.4,1.9-1.2c0-0.4-0.2-0.6-0.6-0.9c-0.4-0.2-0.9-0.4-1.5-0.5c-0.6-0.2-1.2-0.3-1.7-0.6c-0.6-0.2-1.1-0.5-1.5-1
	c-0.4-0.5-0.6-1.1-0.6-1.8c0-1,0.4-1.8,1.1-2.4c0.8-0.6,1.7-0.9,2.9-0.9c0.9,0,1.7,0.2,2.4,0.6c0.7,0.4,1.3,1,1.6,1.7l-2,1.1
	c-0.4-0.8-1.1-1.3-2.1-1.3c-0.5,0-0.8,0.1-1.1,0.3C80.3,14.2,80.2,14.4,80.2,14.8z M93.8,11.5c1.3,0,2.3,0.4,3.1,1.2
	c0.8,0.8,1.2,1.9,1.2,3.3v6.8h-2.4v-6.5c0-0.8-0.2-1.5-0.7-1.9c-0.4-0.4-1-0.7-1.8-0.7c-0.8,0-1.5,0.3-2,0.8
	c-0.5,0.5-0.8,1.3-0.8,2.4v5.9H88V7.4h2.4v5.8C91.1,12.1,92.3,11.5,93.8,11.5z M106.8,11.5c1.5,0,2.8,0.6,3.9,1.7
	c1.1,1.1,1.6,2.5,1.6,4.1c0,1.6-0.5,3-1.6,4.1c-1.1,1.1-2.4,1.7-3.9,1.7c-1.7,0-3-0.6-3.9-1.9v1.6h-2.4V7.4h2.4v6
	C103.9,12.1,105.2,11.5,106.8,11.5z M104,19.8c0.7,0.7,1.5,1,2.5,1c1,0,1.8-0.3,2.5-1c0.7-0.7,1-1.5,1-2.5c0-1-0.3-1.8-1-2.5
	c-0.7-0.7-1.5-1-2.5-1c-1,0-1.8,0.3-2.5,1c-0.7,0.7-1,1.5-1,2.5C103,18.3,103.3,19.1,104,19.8z M119.7,23.1c-1.6,0-3-0.6-4.1-1.7
	c-1.1-1.1-1.7-2.5-1.7-4.1s0.6-3,1.7-4.1c1.1-1.1,2.5-1.7,4.1-1.7c1.6,0,3,0.6,4.1,1.7c1.1,1.1,1.7,2.5,1.7,4.1s-0.6,3-1.7,4.1
	C122.7,22.5,121.3,23.1,119.7,23.1z M117.2,19.8c0.7,0.7,1.5,1,2.4,1s1.8-0.3,2.4-1c0.7-0.7,1-1.5,1-2.5c0-1-0.3-1.8-1-2.5
	c-0.7-0.7-1.5-1-2.4-1s-1.8,0.3-2.4,1c-0.7,0.7-1,1.5-1,2.5C116.2,18.3,116.6,19.1,117.2,19.8z M136.3,11.8h2.4v11h-2.4v-1.6
	c-0.9,1.2-2.2,1.9-3.9,1.9c-1.5,0-2.8-0.6-3.9-1.7c-1.1-1.1-1.6-2.5-1.6-4.1c0-1.6,0.5-3,1.6-4.1c1.1-1.1,2.4-1.7,3.9-1.7
	c1.7,0,3,0.6,3.9,1.8V11.8z M130.4,19.8c0.7,0.7,1.5,1,2.5,1c1,0,1.8-0.3,2.5-1c0.7-0.7,1-1.5,1-2.5c0-1-0.3-1.8-1-2.5
	c-0.7-0.7-1.5-1-2.5-1c-1,0-1.8,0.3-2.5,1c-0.7,0.7-1,1.5-1,2.5C129.4,18.3,129.7,19.1,130.4,19.8z M143.8,13.6c0.6-1.4,1.7-2,3.4-2
	v2.6c-0.9-0.1-1.7,0.2-2.4,0.7c-0.7,0.5-1,1.3-1,2.4v5.5h-2.4v-11h2.4V13.6z M157.2,7.4h2.4v15.4h-2.4v-1.6
	c-0.9,1.2-2.2,1.9-3.9,1.9c-1.5,0-2.8-0.6-3.9-1.7c-1.1-1.1-1.6-2.5-1.6-4.1c0-1.6,0.5-3,1.6-4.1c1.1-1.1,2.4-1.7,3.9-1.7
	c1.7,0,3,0.6,3.9,1.8V7.4z M151.2,19.8c0.7,0.7,1.5,1,2.5,1c1,0,1.8-0.3,2.5-1c0.7-0.7,1-1.5,1-2.5c0-1-0.3-1.8-1-2.5
	c-0.7-0.7-1.5-1-2.5-1c-1,0-1.8,0.3-2.5,1c-0.7,0.7-1,1.5-1,2.5C150.2,18.3,150.6,19.1,151.2,19.8z"/>
<path class="st0" d="M2.8,11.2h9.7c1.3,0,2.4-1.1,2.4-2.4V3.1c0-1.3-1.1-2.4-2.4-2.4H2.8c-1.3,0-2.4,1.1-2.4,2.4v5.8
	C0.5,10.2,1.5,11.2,2.8,11.2z M2.6,3.1c0-0.1,0.1-0.2,0.2-0.2h9.7c0.1,0,0.2,0.1,0.2,0.2v5.8c0,0.1-0.1,0.2-0.2,0.2H2.8
	C2.7,9.1,2.6,9,2.6,8.9V3.1z"/>
<path class="st0" d="M2.8,31.9h9.7c1.3,0,2.4-1.1,2.4-2.4V16c0-1.3-1.1-2.4-2.4-2.4H2.8c-1.3,0-2.4,1.1-2.4,2.4v13.6
	C0.5,30.8,1.5,31.9,2.8,31.9z M2.6,16c0-0.1,0.1-0.2,0.2-0.2h9.7c0.1,0,0.2,0.1,0.2,0.2v13.6c0,0.1-0.1,0.2-0.2,0.2H2.8
	c-0.1,0-0.2-0.1-0.2-0.2V16z"/>
<path class="st0" d="M19.6,31.9h9.7c1.3,0,2.4-1.1,2.4-2.4v-5.8c0-1.3-1.1-2.4-2.4-2.4h-9.7c-1.3,0-2.4,1.1-2.4,2.4v5.8
	C17.2,30.8,18.3,31.9,19.6,31.9z M19.4,23.7c0-0.1,0.1-0.2,0.2-0.2h9.7c0.1,0,0.2,0.1,0.2,0.2v5.8c0,0.1-0.1,0.2-0.2,0.2h-9.7
	c-0.1,0-0.2-0.1-0.2-0.2V23.7z"/>
<path class="st0" d="M19.6,19h9.7c1.3,0,2.4-1.1,2.4-2.4V3.1c0-1.3-1.1-2.4-2.4-2.4h-9.7c-1.3,0-2.4,1.1-2.4,2.4v13.6
	C17.2,17.9,18.3,19,19.6,19z M19.4,3.1c0-0.1,0.1-0.2,0.2-0.2h9.7c0.1,0,0.2,0.1,0.2,0.2v13.6c0,0.1-0.1,0.2-0.2,0.2h-9.7
	c-0.1,0-0.2-0.1-0.2-0.2V3.1z"/>
</svg>
