<svg width="117" height="32" viewBox="0 0 117 32" fill="none" xmlns="http://www.w3.org/2000/svg">
<path d="M63.6389 15.0948V16.1508C63.6389 18.2628 62.9423 19.9935 61.5489 21.3428C60.1556 22.6775 58.3369 23.3448 56.0929 23.3448C53.7169 23.3448 51.7516 22.5748 50.1969 21.0348C48.6569 19.4948 47.8869 17.6028 47.8869 15.3588C47.8869 13.1295 48.6569 11.2448 50.1969 9.70484C51.7516 8.15017 53.6729 7.37284 55.9609 7.37284C57.3983 7.37284 58.7109 7.70284 59.8989 8.36284C61.0869 9.02284 62.0109 9.91017 62.6709 11.0248L60.4929 12.2788C60.0823 11.5455 59.4736 10.9588 58.6669 10.5188C57.8603 10.0642 56.9583 9.83684 55.9609 9.83684C54.3476 9.83684 53.0203 10.3648 51.9789 11.4208C50.9376 12.4768 50.4169 13.7968 50.4169 15.3808C50.4169 16.9648 50.9376 18.2775 51.9789 19.3188C53.0349 20.3602 54.4136 20.8808 56.1149 20.8808C57.4789 20.8808 58.5863 20.5655 59.4369 19.9348C60.3023 19.2895 60.8523 18.4315 61.0869 17.3608H55.9389V15.0948H63.6389ZM65.7979 23.0588V6.99884H68.1739V23.0588H65.7979ZM76.1246 23.3448C74.5113 23.3448 73.14 22.7875 72.0106 21.6728C70.8813 20.5582 70.3166 19.1868 70.3166 17.5588C70.3166 15.9308 70.8813 14.5595 72.0106 13.4448C73.14 12.3302 74.5113 11.7728 76.1246 11.7728C77.7526 11.7728 79.124 12.3302 80.2386 13.4448C81.368 14.5595 81.9326 15.9308 81.9326 17.5588C81.9326 19.1868 81.368 20.5582 80.2386 21.6728C79.124 22.7875 77.7526 23.3448 76.1246 23.3448ZM73.6826 20.0448C74.3426 20.7048 75.1566 21.0348 76.1246 21.0348C77.0926 21.0348 77.9066 20.7048 78.5666 20.0448C79.2266 19.3848 79.5566 18.5562 79.5566 17.5588C79.5566 16.5615 79.2266 15.7328 78.5666 15.0728C77.9066 14.4128 77.0926 14.0828 76.1246 14.0828C75.1566 14.0828 74.3426 14.4128 73.6826 15.0728C73.0226 15.7328 72.6926 16.5615 72.6926 17.5588C72.6926 18.5562 73.0226 19.3848 73.6826 20.0448ZM90.3071 11.7728C91.8177 11.7728 93.1084 12.3302 94.1791 13.4448C95.2497 14.5595 95.7851 15.9308 95.7851 17.5588C95.7851 19.1722 95.2497 20.5435 94.1791 21.6728C93.1084 22.7875 91.8177 23.3448 90.3071 23.3448C88.6351 23.3448 87.3517 22.7215 86.4571 21.4748V23.0588H84.0811V7.65884H86.4571V13.6208C87.3517 12.3888 88.6351 11.7728 90.3071 11.7728ZM87.4471 20.0888C88.1071 20.7488 88.9357 21.0788 89.9331 21.0788C90.9304 21.0788 91.7591 20.7488 92.4191 20.0888C93.0791 19.4142 93.4091 18.5708 93.4091 17.5588C93.4091 16.5468 93.0791 15.7108 92.4191 15.0508C91.7591 14.3762 90.9304 14.0388 89.9331 14.0388C88.9357 14.0388 88.1071 14.3762 87.4471 15.0508C86.7871 15.7108 86.4571 16.5468 86.4571 17.5588C86.4571 18.5708 86.7871 19.4142 87.4471 20.0888ZM106.65 12.0588H109.026V23.0588H106.65V21.4748C105.756 22.7215 104.472 23.3448 102.8 23.3448C101.29 23.3448 99.9992 22.7875 98.9285 21.6728C97.8578 20.5435 97.3225 19.1722 97.3225 17.5588C97.3225 15.9308 97.8578 14.5595 98.9285 13.4448C99.9992 12.3302 101.29 11.7728 102.8 11.7728C104.472 11.7728 105.756 12.3888 106.65 13.6208V12.0588ZM100.688 20.0888C101.348 20.7488 102.177 21.0788 103.174 21.0788C104.172 21.0788 105 20.7488 105.66 20.0888C106.32 19.4142 106.65 18.5708 106.65 17.5588C106.65 16.5468 106.32 15.7108 105.66 15.0508C105 14.3762 104.172 14.0388 103.174 14.0388C102.177 14.0388 101.348 14.3762 100.688 15.0508C100.028 15.7108 99.6985 16.5468 99.6985 17.5588C99.6985 18.5708 100.028 19.4142 100.688 20.0888ZM111.796 23.0588V6.99884H114.172V23.0588H111.796Z" fill="white"/>
<path d="M29.361 28.8422H4.00134C3.13299 28.8422 2.42911 28.1383 2.42911 27.27V1.95328C2.42911 1.39484 1.97644 0.942163 1.418 0.942163C0.859561 0.942163 0.406885 1.39484 0.406885 1.95328V27.27C0.406885 29.2551 2.0162 30.8644 4.00134 30.8644H29.361C29.9195 30.8644 30.3722 30.4117 30.3722 29.8533C30.3722 29.2949 29.9195 28.8422 29.361 28.8422Z" fill="white" stroke="white" stroke-width="0.3"/>
<path d="M24.9485 7.29231V7.29234C24.9487 8.09186 25.222 8.86602 25.7209 9.48756L24.0226 11.5018C23.614 11.3316 23.1763 11.2401 22.733 11.2326V11.2326H22.7305C20.8657 11.2326 19.3537 12.7431 19.3513 14.6074C19.3443 14.7316 19.3506 14.8559 19.37 14.9785L17.4646 15.512C16.549 13.9488 14.5519 13.3808 12.945 14.248C11.8608 14.8331 11.1809 15.9619 11.1707 17.1939L11.1707 17.197C11.1756 17.5935 11.2411 17.9868 11.3647 18.3633L9.87655 19.9297C9.3408 19.599 8.72429 19.4199 8.09309 19.4132V19.4132H8.0915C6.2252 19.4132 4.7123 20.9261 4.7123 22.7924C4.7123 24.6587 6.2252 26.1716 8.0915 26.1716C9.9578 26.1716 11.4707 24.6587 11.4707 22.7924H11.4708L11.4706 22.7884C11.4586 22.342 11.3653 21.902 11.1959 21.4895L12.6315 19.9763C13.1957 20.3625 13.8636 20.5714 14.5492 20.5743H14.5498C16.3039 20.5758 17.7526 19.2205 17.8796 17.4834L20.1813 16.8484C20.8255 17.5781 21.7547 17.9958 22.7312 17.991L22.7324 17.991C24.5874 17.9668 26.0853 16.4688 26.1096 14.6138L26.1096 14.6114C26.1079 13.9743 25.9261 13.3516 25.5865 12.8145L27.4753 10.564C27.7531 10.6408 28.0407 10.677 28.3291 10.6715C30.1947 10.6707 31.7068 9.15812 31.7068 7.29231C31.7068 5.42601 30.1939 3.91311 28.3277 3.91311C26.4614 3.91311 24.9485 5.42601 24.9485 7.29231ZM8.09158 24.1492C7.34216 24.1492 6.73461 23.5417 6.73461 22.7923C6.73461 22.0428 7.34216 21.4353 8.09158 21.4353C8.84101 21.4353 9.44855 22.0428 9.44855 22.7923C9.44848 23.5417 8.84092 24.1492 8.09158 24.1492ZM14.5499 18.552C13.8005 18.552 13.1929 17.9445 13.1929 17.1951C13.1929 16.4456 13.8005 15.8381 14.5499 15.8381C15.2993 15.8381 15.9069 16.4456 15.9069 17.1951C15.9069 17.9445 15.2993 18.552 14.5499 18.552ZM22.7304 15.9687C21.981 15.9687 21.3735 15.3612 21.3735 14.6117C21.3735 13.8623 21.981 13.2548 22.7304 13.2548C23.4799 13.2548 24.0874 13.8623 24.0874 14.6117C24.0874 15.3612 23.4799 15.9687 22.7304 15.9687ZM28.3277 8.64928C27.5783 8.64928 26.9707 8.04173 26.9707 7.29231C26.9707 6.54288 27.5783 5.93534 28.3277 5.93534C29.0771 5.93534 29.6847 6.54288 29.6847 7.29231C29.6847 8.04173 29.0771 8.64928 28.3277 8.64928Z" fill="white" stroke="white" stroke-width="0.3"/>
</svg>
