<svg width="173" height="33" viewBox="0 0 173 33" fill="none" xmlns="http://www.w3.org/2000/svg">
<path d="M54.3329 8.63125C55.7849 8.63125 56.9949 9.11525 57.9629 10.0832C58.9456 11.0512 59.4369 12.2539 59.4369 13.6912C59.4369 15.1139 58.9456 16.3166 57.9629 17.2992C56.9949 18.2672 55.7849 18.7512 54.3329 18.7512H51.1869V24.0312H48.6569V8.63125H54.3329ZM54.3329 16.3752C55.0809 16.3752 55.6969 16.1259 56.1809 15.6272C56.6649 15.1139 56.9069 14.4686 56.9069 13.6912C56.9069 12.9139 56.6649 12.2759 56.1809 11.7772C55.6969 11.2639 55.0809 11.0072 54.3329 11.0072H51.1869V16.3752H54.3329ZM63.6407 14.8792C64.242 13.5152 65.3713 12.8332 67.0287 12.8332V15.4072C66.1193 15.3486 65.3273 15.5686 64.6527 16.0672C63.978 16.5512 63.6407 17.3579 63.6407 18.4872V24.0312H61.2647V13.0312H63.6407V14.8792ZM70.1386 19.5432C70.3146 20.3792 70.7179 21.0246 71.3486 21.4792C71.9792 21.9192 72.7492 22.1392 73.6586 22.1392C74.9199 22.1392 75.8659 21.6846 76.4966 20.7752L78.4546 21.9192C77.3692 23.5179 75.7632 24.3173 73.6366 24.3173C71.8472 24.3173 70.4026 23.7746 69.3026 22.6892C68.2026 21.5892 67.6526 20.2032 67.6526 18.5312C67.6526 16.8886 68.1952 15.5172 69.2806 14.4172C70.3659 13.3026 71.7592 12.7452 73.4606 12.7452C75.0739 12.7452 76.3939 13.3099 77.4206 14.4392C78.4619 15.5686 78.9826 16.9399 78.9826 18.5532C78.9826 18.8026 78.9532 19.1326 78.8946 19.5432H70.1386ZM70.1166 17.6072H76.5846C76.4232 16.7126 76.0492 16.0379 75.4626 15.5832C74.8906 15.1286 74.2159 14.9012 73.4386 14.9012C72.5586 14.9012 71.8252 15.1432 71.2386 15.6272C70.6519 16.1112 70.2779 16.7712 70.1166 17.6072ZM82.7776 16.0672C82.7776 16.4339 82.9756 16.7272 83.3716 16.9472C83.7822 17.1526 84.2736 17.3359 84.8456 17.4972C85.4322 17.6439 86.0189 17.8199 86.6056 18.0252C87.1922 18.2306 87.6836 18.5826 88.0796 19.0812C88.4902 19.5652 88.6956 20.1812 88.6956 20.9292C88.6956 21.9852 88.2849 22.8139 87.4636 23.4152C86.6569 24.0166 85.6376 24.3173 84.4056 24.3173C83.3202 24.3173 82.3889 24.0899 81.6116 23.6352C80.8342 23.1806 80.2696 22.5499 79.9176 21.7432L81.9636 20.5552C82.3449 21.6112 83.1589 22.1392 84.4056 22.1392C85.6522 22.1392 86.2756 21.7286 86.2756 20.9072C86.2756 20.5552 86.0702 20.2692 85.6596 20.0492C85.2636 19.8292 84.7722 19.6459 84.1856 19.4992C83.6136 19.3379 83.0342 19.1546 82.4476 18.9492C81.8609 18.7439 81.3622 18.4066 80.9516 17.9372C80.5556 17.4532 80.3576 16.8446 80.3576 16.1112C80.3576 15.0992 80.7389 14.2852 81.5016 13.6692C82.2789 13.0532 83.2396 12.7452 84.3836 12.7452C85.2929 12.7452 86.0996 12.9506 86.8036 13.3612C87.5222 13.7572 88.0722 14.3146 88.4536 15.0332L86.4516 16.1552C86.0702 15.3192 85.3809 14.9012 84.3836 14.9012C83.9289 14.9012 83.5476 15.0039 83.2396 15.2092C82.9316 15.3999 82.7776 15.6859 82.7776 16.0672ZM98.0693 13.0312H100.445V24.0312H98.0693V22.6232C97.3506 23.7526 96.214 24.3173 94.6593 24.3173C93.398 24.3173 92.3786 23.9139 91.6013 23.1072C90.824 22.3006 90.4353 21.1932 90.4353 19.7852V13.0312H92.8113V19.5432C92.8113 20.3646 93.0313 20.9952 93.4713 21.4352C93.9113 21.8752 94.5126 22.0952 95.2753 22.0952C96.1113 22.0952 96.786 21.8386 97.2993 21.3252C97.8126 20.7972 98.0693 19.9979 98.0693 18.9272V13.0312ZM109.45 12.7452C110.96 12.7452 112.251 13.3099 113.322 14.4392C114.392 15.5539 114.928 16.9179 114.928 18.5312C114.928 20.1592 114.392 21.5306 113.322 22.6452C112.251 23.7599 110.96 24.3173 109.45 24.3173C107.778 24.3173 106.494 23.7012 105.6 22.4692V28.4313H103.224V13.0312H105.6V14.6152C106.494 13.3686 107.778 12.7452 109.45 12.7452ZM106.59 21.0612C107.25 21.7212 108.078 22.0512 109.076 22.0512C110.073 22.0512 110.902 21.7212 111.562 21.0612C112.222 20.3866 112.552 19.5432 112.552 18.5312C112.552 17.5192 112.222 16.6832 111.562 16.0232C110.902 15.3486 110.073 15.0112 109.076 15.0112C108.078 15.0112 107.25 15.3486 106.59 16.0232C105.93 16.6832 105.6 17.5192 105.6 18.5312C105.6 19.5432 105.93 20.3866 106.59 21.0612ZM124.495 13.0312H126.871V24.0312H124.495V22.6232C123.776 23.7526 122.64 24.3173 121.085 24.3173C119.824 24.3173 118.804 23.9139 118.027 23.1072C117.25 22.3006 116.861 21.1932 116.861 19.7852V13.0312H119.237V19.5432C119.237 20.3646 119.457 20.9952 119.897 21.4352C120.337 21.8752 120.938 22.0952 121.701 22.0952C122.537 22.0952 123.212 21.8386 123.725 21.3252C124.238 20.7972 124.495 19.9979 124.495 18.9272V13.0312ZM131.519 19.5432C131.695 20.3792 132.099 21.0246 132.729 21.4792C133.36 21.9192 134.13 22.1392 135.039 22.1392C136.301 22.1392 137.247 21.6846 137.877 20.7752L139.835 21.9192C138.75 23.5179 137.144 24.3173 135.017 24.3173C133.228 24.3173 131.783 23.7746 130.683 22.6892C129.583 21.5892 129.033 20.2032 129.033 18.5312C129.033 16.8886 129.576 15.5172 130.661 14.4172C131.747 13.3026 133.14 12.7452 134.841 12.7452C136.455 12.7452 137.775 13.3099 138.801 14.4392C139.843 15.5686 140.363 16.9399 140.363 18.5532C140.363 18.8026 140.334 19.1326 140.275 19.5432H131.519ZM131.497 17.6072H137.965C137.804 16.7126 137.43 16.0379 136.843 15.5832C136.271 15.1286 135.597 14.9012 134.819 14.9012C133.939 14.9012 133.206 15.1432 132.619 15.6272C132.033 16.1112 131.659 16.7712 131.497 17.6072ZM144.158 16.0672C144.158 16.4339 144.356 16.7272 144.752 16.9472C145.163 17.1526 145.654 17.3359 146.226 17.4972C146.813 17.6439 147.4 17.8199 147.986 18.0252C148.573 18.2306 149.064 18.5826 149.46 19.0812C149.871 19.5652 150.076 20.1812 150.076 20.9292C150.076 21.9852 149.666 22.8139 148.844 23.4152C148.038 24.0166 147.018 24.3173 145.786 24.3173C144.701 24.3173 143.77 24.0899 142.992 23.6352C142.215 23.1806 141.65 22.5499 141.298 21.7432L143.344 20.5552C143.726 21.6112 144.54 22.1392 145.786 22.1392C147.033 22.1392 147.656 21.7286 147.656 20.9072C147.656 20.5552 147.451 20.2692 147.04 20.0492C146.644 19.8292 146.153 19.6459 145.566 19.4992C144.994 19.3379 144.415 19.1546 143.828 18.9492C143.242 18.7439 142.743 18.4066 142.332 17.9372C141.936 17.4532 141.738 16.8446 141.738 16.1112C141.738 15.0992 142.12 14.2852 142.882 13.6692C143.66 13.0532 144.62 12.7452 145.764 12.7452C146.674 12.7452 147.48 12.9506 148.184 13.3612C148.903 13.7572 149.453 14.3146 149.834 15.0332L147.832 16.1552C147.451 15.3192 146.762 14.9012 145.764 14.9012C145.31 14.9012 144.928 15.0039 144.62 15.2092C144.312 15.3999 144.158 15.6859 144.158 16.0672ZM157.873 15.3192H155.145V20.5992C155.145 21.0539 155.248 21.3839 155.453 21.5892C155.659 21.7799 155.959 21.8899 156.355 21.9192C156.766 21.9339 157.272 21.9266 157.873 21.8972V24.0312C156.055 24.2513 154.749 24.0972 153.957 23.5692C153.165 23.0266 152.769 22.0366 152.769 20.5992V15.3192H150.745V13.0312H152.769V10.6552L155.145 9.95125V13.0312H157.873V15.3192ZM164.769 24.3173C163.156 24.3173 161.784 23.7599 160.655 22.6452C159.526 21.5306 158.961 20.1592 158.961 18.5312C158.961 16.9032 159.526 15.5319 160.655 14.4172C161.784 13.3026 163.156 12.7452 164.769 12.7452C166.397 12.7452 167.768 13.3026 168.883 14.4172C170.012 15.5319 170.577 16.9032 170.577 18.5312C170.577 20.1592 170.012 21.5306 168.883 22.6452C167.768 23.7599 166.397 24.3173 164.769 24.3173ZM162.327 21.0172C162.987 21.6772 163.801 22.0072 164.769 22.0072C165.737 22.0072 166.551 21.6772 167.211 21.0172C167.871 20.3572 168.201 19.5286 168.201 18.5312C168.201 17.5339 167.871 16.7052 167.211 16.0452C166.551 15.3852 165.737 15.0552 164.769 15.0552C163.801 15.0552 162.987 15.3852 162.327 16.0452C161.667 16.7052 161.337 17.5339 161.337 18.5312C161.337 19.5286 161.667 20.3572 162.327 21.0172Z" fill="white"/>
<path d="M14.9137 22.155L14.9139 22.1548C15.2089 21.8598 15.2089 21.3821 14.9139 21.0871L14.9137 21.0869C14.6185 20.7928 14.1404 20.7929 13.845 21.0868L13.845 21.0868L13.8447 21.0872C13.55 21.3822 13.55 21.8597 13.8447 22.1547L13.845 22.155C14.1404 22.449 14.6185 22.4491 14.9137 22.155Z" fill="white" stroke="white" stroke-width="0.3"/>
<path d="M11.7897 7.70422C11.7897 11.4527 14.845 14.5018 18.6 14.5018C22.3551 14.5018 25.4104 11.4527 25.4104 7.70422C25.4104 3.95576 22.3551 0.906885 18.6 0.906885C14.845 0.906885 11.7897 3.95576 11.7897 7.70422ZM23.8995 7.70422C23.8995 10.6201 21.5223 12.9931 18.6 12.9931C15.6777 12.9931 13.3005 10.6201 13.3005 7.70422C13.3005 4.78858 15.6777 2.4156 18.6 2.4156C21.5223 2.4156 23.8995 4.78858 23.8995 7.70422Z" fill="white" stroke="white" stroke-width="0.3"/>
<path d="M11.4264 29.0525L11.4272 29.0517C11.9441 28.5358 12.1162 27.7843 11.9232 27.1139L12.4877 26.5705L12.4878 26.5705C12.7998 26.2697 13.2101 26.1041 13.6445 26.1041H21.6938C23.1592 26.1041 24.545 25.5428 25.5959 24.5238C25.6026 24.5183 25.6082 24.5128 25.6136 24.5071C25.6225 24.4976 25.6376 24.4801 25.6679 24.4444C25.731 24.3698 25.8717 24.2021 26.1921 23.8197C26.3086 23.6806 26.449 23.5131 26.6181 23.3113C27.3794 22.4025 28.7236 20.7981 31.1009 17.9623C32.0162 16.8812 31.879 15.2585 30.7952 14.344L30.795 14.3439C29.7191 13.4389 28.1085 13.5677 27.1901 14.6268L23.734 18.1722C23.2573 17.6586 22.5769 17.3438 21.8452 17.3438H15.1232C14.1521 16.9426 13.1226 16.7396 12.0612 16.7396C9.13366 16.7396 6.56049 18.0747 5.15292 20.5887C4.56263 20.5109 3.95324 20.7038 3.50802 21.1481L3.50786 21.1483L0.627436 24.0316L0.627433 24.0316C0.333847 24.3255 0.333296 24.801 0.626221 25.0958L0.626244 25.0958L7.42473 31.9327C7.71753 32.2273 8.19414 32.2306 8.49082 31.9389L8.38566 31.8319L8.49083 31.9389L11.4264 29.0525ZM29.945 16.991L29.9445 16.9916L24.519 23.4649C23.7547 24.1944 22.7531 24.5956 21.6938 24.5956H13.6445C12.817 24.5956 12.033 24.9117 11.4386 25.4848C11.4386 25.4848 11.4386 25.4848 11.4385 25.4849L11.0299 25.8784L6.47003 21.3276C7.56233 19.3663 9.56372 18.2481 12.061 18.2481C12.968 18.2481 13.8442 18.4302 14.6666 18.7892C14.7622 18.831 14.8652 18.8525 14.9694 18.8525H21.8452C22.4207 18.8525 22.9063 19.3215 22.9063 19.911C22.9063 20.4945 22.4305 20.9697 21.8452 20.9697H16.9051C16.4882 20.9697 16.1497 21.3072 16.1497 21.724C16.1497 22.141 16.4883 22.4782 16.9051 22.4782H21.8452C23.2633 22.4782 24.4171 21.327 24.4171 19.911C24.4171 19.8226 24.4122 19.7351 24.4032 19.6486C25.503 18.5202 26.2983 17.7045 26.8719 17.1162C27.1835 16.7965 27.4297 16.544 27.6238 16.3449C27.902 16.0595 28.073 15.884 28.1757 15.7783C28.2729 15.6783 28.314 15.6358 28.3247 15.6233C28.7028 15.1778 29.3744 15.1214 29.8208 15.4968C30.2674 15.8737 30.3242 16.543 29.945 16.991ZM5.14187 22.151L5.14267 22.1515C5.16438 22.1647 5.1622 22.1627 5.16195 22.1625C5.16186 22.1624 5.16202 22.1626 5.16357 22.1637C5.16784 22.1669 5.18004 22.1769 5.21582 22.2109C5.28566 22.2773 5.42622 22.4169 5.73591 22.7263C5.85785 22.8482 6.00578 22.9961 6.18561 23.176C6.91691 23.9073 8.17569 25.1661 10.3591 27.3423C10.5407 27.5235 10.5309 27.813 10.3627 27.9812C10.3626 27.9813 10.3625 27.9814 10.3624 27.9815L7.96692 30.3368L2.2281 24.5655L4.57685 22.2145C4.57687 22.2145 4.57688 22.2145 4.5769 22.2145C4.72707 22.0647 4.95716 22.0371 5.14187 22.151Z" fill="white" stroke="white" stroke-width="0.3"/>
<path d="M17.8081 8.96363L17.808 8.96355C17.5394 8.64474 17.0631 8.60389 16.7438 8.87159L16.7437 8.87165C16.4243 9.13978 16.3828 9.61565 16.6517 9.93466C16.9635 10.3048 17.3298 10.5762 17.7241 10.7301V11.3303C17.7241 11.7473 18.0627 12.0845 18.4795 12.0845C18.8963 12.0845 19.2349 11.7473 19.2349 11.3303V10.7251C19.9449 10.429 20.446 9.72893 20.446 8.9131C20.446 7.83024 19.5637 6.95015 18.4795 6.95015C18.2282 6.95015 18.0241 6.74596 18.0241 6.49591C18.0241 6.24578 18.2283 6.04144 18.4795 6.04144C18.6422 6.04144 18.8332 6.12505 19.0301 6.31525L19.0301 6.31527C19.33 6.60485 19.8081 6.59689 20.0982 6.2979L20.0982 6.29784C20.3886 5.99836 20.3806 5.52076 20.0808 5.23105L20.0808 5.23101C19.794 4.95406 19.5045 4.78147 19.2349 4.67711V4.07872C19.2349 3.66176 18.8964 3.32424 18.4795 3.32424C18.0626 3.32424 17.7241 3.66176 17.7241 4.07872V4.68392C17.014 4.9798 16.513 5.67989 16.513 6.49591C16.513 7.57853 17.3952 8.45886 18.4795 8.45886C18.7307 8.45886 18.9349 8.66305 18.9349 8.9131C18.9349 9.16315 18.7307 9.36734 18.4795 9.36734C18.2832 9.36734 18.0419 9.24149 17.8081 8.96363Z" fill="white" stroke="white" stroke-width="0.3"/>
</svg>
