<?xml version="1.0" encoding="utf-8"?>
<!-- Generator: Adobe Illustrator 22.0.1, SVG Export Plug-In . SVG Version: 6.00 Build 0)  -->
<svg version="1.1" id="Calque_1" xmlns="http://www.w3.org/2000/svg" xmlns:xlink="http://www.w3.org/1999/xlink" x="0px" y="0px"
	 viewBox="0 0 162 32" style="enable-background:new 0 0 162 32;" xml:space="preserve">
<style type="text/css">
	.st0{fill:#FFFFFF;}
</style>
<path class="st0" d="M2.8,11.2h9.7c1.3,0,2.4-1.1,2.4-2.4V3.1c0-1.3-1.1-2.4-2.4-2.4H2.8c-1.3,0-2.4,1.1-2.4,2.4v5.8
	C0.5,10.2,1.5,11.2,2.8,11.2z M2.6,3.1c0-0.1,0.1-0.2,0.2-0.2h9.7c0.1,0,0.2,0.1,0.2,0.2v5.8c0,0.1-0.1,0.2-0.2,0.2H2.8
	C2.7,9.1,2.6,9,2.6,8.9V3.1z"/>
<path class="st0" d="M2.8,31.9h9.7c1.3,0,2.4-1.1,2.4-2.4V16c0-1.3-1.1-2.4-2.4-2.4H2.8c-1.3,0-2.4,1.1-2.4,2.4v13.6
	C0.5,30.8,1.5,31.9,2.8,31.9z M2.6,16c0-0.1,0.1-0.2,0.2-0.2h9.7c0.1,0,0.2,0.1,0.2,0.2v13.6c0,0.1-0.1,0.2-0.2,0.2H2.8
	c-0.1,0-0.2-0.1-0.2-0.2V16z"/>
<path class="st0" d="M19.6,31.9h9.7c1.3,0,2.4-1.1,2.4-2.4v-5.8c0-1.3-1.1-2.4-2.4-2.4h-9.7c-1.3,0-2.4,1.1-2.4,2.4v5.8
	C17.2,30.8,18.3,31.9,19.6,31.9z M19.4,23.7c0-0.1,0.1-0.2,0.2-0.2h9.7c0.1,0,0.2,0.1,0.2,0.2v5.8c0,0.1-0.1,0.2-0.2,0.2h-9.7
	c-0.1,0-0.2-0.1-0.2-0.2C19.4,29.5,19.4,23.7,19.4,23.7z"/>
<path class="st0" d="M19.6,19h9.7c1.3,0,2.4-1.1,2.4-2.4V3.1c0-1.3-1.1-2.4-2.4-2.4h-9.7c-1.3,0-2.4,1.1-2.4,2.4v13.6
	C17.2,17.9,18.3,19,19.6,19z M19.4,3.1c0-0.1,0.1-0.2,0.2-0.2h9.7c0.1,0,0.2,0.1,0.2,0.2v13.6c0,0.1-0.1,0.2-0.2,0.2h-9.7
	c-0.1,0-0.2-0.1-0.2-0.2C19.4,16.7,19.4,3.1,19.4,3.1z"/>
<path class="st0" d="M48.6,22.8V7.4h5.1c1.2,0,2.2,0.2,3,0.6c0.8,0.4,1.3,0.9,1.7,1.6c0.4,0.7,0.6,1.4,0.6,2.3
	c0,0.8-0.2,1.6-0.5,2.3c-0.4,0.7-0.9,1.2-1.7,1.6c-0.8,0.4-1.8,0.6-3,0.6h-3.2v6.4H48.6z M50.4,14.8h3.2c1.2,0,2.1-0.3,2.6-0.8
	c0.5-0.5,0.8-1.2,0.8-2.2c0-0.9-0.3-1.6-0.8-2.2c-0.5-0.5-1.4-0.8-2.6-0.8h-3.2V14.8z M61.2,22.8V11.9h1.7l0.2,2.1
	c0.3-0.7,0.9-1.3,1.5-1.7c0.7-0.4,1.5-0.6,2.6-0.6v1.9h-0.5c-0.6,0-1.2,0.1-1.8,0.4c-0.5,0.2-1,0.6-1.3,1.1
	c-0.3,0.5-0.5,1.3-0.5,2.2v5.5H61.2z M73.8,23.1c-1,0-2-0.2-2.8-0.7c-0.8-0.5-1.5-1.1-2-2c-0.5-0.9-0.7-1.9-0.7-3
	c0-1.2,0.2-2.2,0.7-3c0.5-0.9,1.1-1.5,2-2c0.8-0.5,1.8-0.7,2.8-0.7c1,0,2,0.2,2.8,0.7c0.8,0.5,1.5,1.1,1.9,2c0.5,0.9,0.7,1.9,0.7,3
	c0,1.2-0.2,2.2-0.7,3c-0.5,0.9-1.1,1.5-2,2C75.7,22.8,74.8,23.1,73.8,23.1z M73.8,21.5c0.6,0,1.2-0.2,1.8-0.5c0.5-0.3,1-0.8,1.3-1.4
	c0.3-0.6,0.5-1.4,0.5-2.3c0-0.9-0.2-1.7-0.5-2.3c-0.3-0.6-0.8-1.1-1.3-1.4s-1.1-0.5-1.7-0.5c-0.6,0-1.2,0.2-1.8,0.5s-1,0.8-1.3,1.4
	s-0.5,1.4-0.5,2.3c0,0.9,0.2,1.7,0.5,2.3c0.3,0.6,0.8,1.1,1.3,1.4C72.6,21.3,73.2,21.5,73.8,21.5z M82.1,27.6l2.7-5.9h-0.6l-4.3-9.9
	h2l3.6,8.5l3.8-8.5h1.9l-7.2,15.8H82.1z M97.1,23.1c-1,0-2-0.2-2.8-0.7c-0.8-0.5-1.4-1.2-1.9-2c-0.5-0.9-0.7-1.9-0.7-3
	c0-1.1,0.2-2.1,0.7-3c0.5-0.9,1.1-1.5,1.9-2c0.8-0.5,1.8-0.7,2.8-0.7c1.1,0,2,0.2,2.7,0.7c0.8,0.5,1.4,1.1,1.8,1.9
	c0.4,0.8,0.6,1.6,0.6,2.5c0,0.2,0,0.3,0,0.5c0,0.2,0,0.3,0,0.5h-8.7c0,0.8,0.2,1.5,0.6,2.1c0.4,0.5,0.8,1,1.3,1.2
	c0.5,0.3,1.1,0.4,1.7,0.4c0.8,0,1.4-0.2,1.9-0.5c0.5-0.4,0.9-0.8,1.1-1.4h1.8c-0.3,1-0.9,1.9-1.7,2.5C99.4,22.7,98.3,23.1,97.1,23.1
	z M97.1,13.2c-0.9,0-1.7,0.3-2.4,0.8c-0.7,0.5-1.1,1.3-1.2,2.3h6.9c0-1-0.4-1.8-1-2.3C98.8,13.5,98,13.2,97.1,13.2z M109.7,23.1
	c-1,0-2-0.2-2.8-0.7c-0.8-0.5-1.5-1.2-2-2c-0.5-0.9-0.7-1.9-0.7-3c0-1.1,0.2-2.1,0.7-3c0.5-0.9,1.1-1.5,2-2c0.8-0.5,1.8-0.7,2.8-0.7
	c1.3,0,2.4,0.3,3.3,1c0.9,0.7,1.5,1.6,1.7,2.7h-1.9c-0.1-0.7-0.5-1.2-1.1-1.6c-0.6-0.4-1.2-0.6-2-0.6c-0.6,0-1.2,0.2-1.7,0.5
	c-0.5,0.3-1,0.8-1.3,1.4c-0.3,0.6-0.5,1.4-0.5,2.3c0,0.9,0.2,1.7,0.5,2.3c0.3,0.6,0.8,1.1,1.3,1.4c0.5,0.3,1.1,0.5,1.7,0.5
	c0.8,0,1.4-0.2,2-0.5c0.6-0.4,0.9-0.9,1.1-1.6h1.9c-0.2,1.1-0.8,2-1.7,2.7C112.1,22.7,111,23.1,109.7,23.1z M121.2,22.8
	c-1,0-1.8-0.2-2.4-0.7c-0.6-0.5-0.9-1.4-0.9-2.6v-6h-1.9v-1.6h1.9l0.2-2.6h1.6v2.6h3.2v1.6h-3.2v6c0,0.7,0.1,1.2,0.4,1.4
	c0.3,0.2,0.8,0.4,1.5,0.4h1.1v1.6H121.2z M130.1,23.1c-1,0-2-0.2-2.8-0.7c-0.8-0.5-1.5-1.1-2-2c-0.5-0.9-0.7-1.9-0.7-3
	c0-1.2,0.2-2.2,0.7-3c0.5-0.9,1.1-1.5,2-2c0.8-0.5,1.8-0.7,2.8-0.7c1,0,2,0.2,2.8,0.7c0.8,0.5,1.5,1.1,1.9,2c0.5,0.9,0.7,1.9,0.7,3
	c0,1.2-0.2,2.2-0.7,3c-0.5,0.9-1.1,1.5-2,2C132,22.8,131.1,23.1,130.1,23.1z M130.1,21.5c0.6,0,1.2-0.2,1.8-0.5
	c0.5-0.3,1-0.8,1.3-1.4c0.3-0.6,0.5-1.4,0.5-2.3c0-0.9-0.2-1.7-0.5-2.3c-0.3-0.6-0.8-1.1-1.3-1.4c-0.5-0.3-1.1-0.5-1.7-0.5
	c-0.6,0-1.2,0.2-1.8,0.5c-0.5,0.3-1,0.8-1.3,1.4c-0.3,0.6-0.5,1.4-0.5,2.3c0,0.9,0.2,1.7,0.5,2.3c0.3,0.6,0.8,1.1,1.3,1.4
	C128.9,21.3,129.5,21.5,130.1,21.5z M142.3,23.1c-1.3,0-2.4-0.3-3.3-1s-1.4-1.6-1.5-2.7h1.9c0.1,0.6,0.4,1.1,0.9,1.5
	c0.5,0.4,1.2,0.6,2,0.6c0.8,0,1.3-0.2,1.7-0.5c0.4-0.3,0.6-0.7,0.6-1.2c0-0.7-0.2-1.1-0.7-1.3c-0.5-0.2-1.1-0.4-2-0.6
	c-0.6-0.1-1.2-0.3-1.8-0.5c-0.6-0.2-1.1-0.5-1.5-0.9c-0.4-0.4-0.6-0.9-0.6-1.6c0-1,0.4-1.7,1.1-2.3c0.7-0.6,1.7-0.9,2.9-0.9
	c1.2,0,2.1,0.3,2.8,0.9c0.7,0.6,1.2,1.4,1.3,2.5h-1.8c-0.1-0.6-0.3-1-0.7-1.3c-0.4-0.3-0.9-0.5-1.6-0.5c-0.7,0-1.2,0.1-1.5,0.4
	c-0.4,0.3-0.5,0.6-0.5,1.1c0,0.4,0.2,0.8,0.7,1c0.5,0.2,1.1,0.5,1.9,0.6c0.7,0.1,1.3,0.3,1.9,0.6c0.6,0.2,1.1,0.5,1.5,0.9
	c0.4,0.4,0.6,1,0.6,1.8c0,1-0.4,1.8-1.1,2.4C144.6,22.7,143.6,23.1,142.3,23.1z"/>
</svg>
