<?xml version="1.0" encoding="utf-8"?>
<!-- Generator: Adobe Illustrator 22.0.1, SVG Export Plug-In . SVG Version: 6.00 Build 0)  -->
<svg version="1.1" id="Calque_1" xmlns="http://www.w3.org/2000/svg" xmlns:xlink="http://www.w3.org/1999/xlink" x="0px" y="0px"
	 viewBox="0 0 140 36" style="enable-background:new 0 0 140 36;" xml:space="preserve">
<style type="text/css">
	.st0{fill:#FFFFFF;}
	.st1{fill:#FFFFFF;stroke:#FFFFFF;stroke-width:0.2;}
</style>
<path class="st0" d="M54.3,11c1.5,0,2.7,0.5,3.6,1.5c1,1,1.5,2.2,1.5,3.6c0,1.4-0.5,2.6-1.5,3.6c-1,1-2.2,1.5-3.6,1.5h-3.1v5.3h-2.5
	V11H54.3z M54.3,18.7c0.7,0,1.4-0.2,1.8-0.7c0.5-0.5,0.7-1.2,0.7-1.9c0-0.8-0.2-1.4-0.7-1.9c-0.5-0.5-1.1-0.8-1.8-0.8h-3.1v5.4H54.3
	z M62.6,21.9c0.2,0.8,0.6,1.5,1.2,1.9c0.6,0.4,1.4,0.7,2.3,0.7c1.3,0,2.2-0.5,2.8-1.4l2,1.1c-1.1,1.6-2.7,2.4-4.8,2.4
	c-1.8,0-3.2-0.5-4.3-1.6c-1.1-1.1-1.7-2.5-1.7-4.2c0-1.6,0.5-3,1.6-4.1c1.1-1.1,2.5-1.7,4.2-1.7c1.6,0,2.9,0.6,4,1.7
	c1,1.1,1.6,2.5,1.6,4.1c0,0.2,0,0.6-0.1,1H62.6z M62.6,20H69c-0.2-0.9-0.5-1.6-1.1-2c-0.6-0.5-1.2-0.7-2-0.7c-0.9,0-1.6,0.2-2.2,0.7
	C63.1,18.5,62.7,19.1,62.6,20z M75.9,17.2c0.6-1.4,1.7-2,3.4-2v2.6c-0.9-0.1-1.7,0.2-2.4,0.7c-0.7,0.5-1,1.3-1,2.4v5.5h-2.4v-11h2.4
	V17.2z M82.8,18.4c0,0.4,0.2,0.7,0.6,0.9c0.4,0.2,0.9,0.4,1.5,0.6c0.6,0.1,1.2,0.3,1.8,0.5c0.6,0.2,1.1,0.6,1.5,1.1
	c0.4,0.5,0.6,1.1,0.6,1.8c0,1.1-0.4,1.9-1.2,2.5c-0.8,0.6-1.8,0.9-3.1,0.9c-1.1,0-2-0.2-2.8-0.7c-0.8-0.5-1.3-1.1-1.7-1.9l2-1.2
	c0.4,1.1,1.2,1.6,2.4,1.6c1.2,0,1.9-0.4,1.9-1.2c0-0.4-0.2-0.6-0.6-0.9c-0.4-0.2-0.9-0.4-1.5-0.6c-0.6-0.2-1.2-0.3-1.7-0.5
	c-0.6-0.2-1.1-0.5-1.5-1c-0.4-0.5-0.6-1.1-0.6-1.8c0-1,0.4-1.8,1.1-2.4c0.8-0.6,1.7-0.9,2.9-0.9c0.9,0,1.7,0.2,2.4,0.6
	c0.7,0.4,1.3,1,1.7,1.7l-2,1.1c-0.4-0.8-1.1-1.3-2.1-1.3c-0.5,0-0.8,0.1-1.1,0.3C82.9,17.8,82.8,18,82.8,18.4z M95.7,26.7
	c-1.6,0-3-0.6-4.1-1.7c-1.1-1.1-1.7-2.5-1.7-4.1c0-1.6,0.6-3,1.7-4.1c1.1-1.1,2.5-1.7,4.1-1.7c1.6,0,3,0.6,4.1,1.7
	c1.1,1.1,1.7,2.5,1.7,4.1c0,1.6-0.6,3-1.7,4.1C98.7,26.1,97.3,26.7,95.7,26.7z M93.3,23.4c0.7,0.7,1.5,1,2.4,1s1.8-0.3,2.4-1
	c0.7-0.7,1-1.5,1-2.5c0-1-0.3-1.8-1-2.5c-0.7-0.7-1.5-1-2.4-1s-1.8,0.3-2.4,1c-0.7,0.7-1,1.5-1,2.5C92.3,21.9,92.6,22.7,93.3,23.4z
	 M109.4,15.1c1.3,0,2.3,0.4,3.1,1.2c0.8,0.8,1.2,1.9,1.2,3.3v6.8h-2.4v-6.5c0-0.8-0.2-1.5-0.7-1.9s-1-0.7-1.8-0.7
	c-0.8,0-1.5,0.3-2,0.8c-0.5,0.5-0.8,1.3-0.8,2.4v5.9h-2.4v-11h2.4v1.4C106.7,15.7,107.9,15.1,109.4,15.1z M124.9,15.4h2.4v11h-2.4
	v-1.6c-0.9,1.2-2.2,1.9-3.8,1.9c-1.5,0-2.8-0.6-3.9-1.7c-1.1-1.1-1.6-2.5-1.6-4.1c0-1.6,0.5-3,1.6-4.1c1.1-1.1,2.4-1.7,3.9-1.7
	c1.7,0,3,0.6,3.8,1.8V15.4z M119,23.4c0.7,0.7,1.5,1,2.5,1c1,0,1.8-0.3,2.5-1c0.7-0.7,1-1.5,1-2.5c0-1-0.3-1.8-1-2.5
	c-0.7-0.7-1.5-1-2.5-1c-1,0-1.8,0.3-2.5,1c-0.7,0.7-1,1.5-1,2.5C118,21.9,118.3,22.7,119,23.4z M132.1,18.4c0,0.4,0.2,0.7,0.6,0.9
	c0.4,0.2,0.9,0.4,1.5,0.6c0.6,0.1,1.2,0.3,1.8,0.5c0.6,0.2,1.1,0.6,1.5,1.1c0.4,0.5,0.6,1.1,0.6,1.8c0,1.1-0.4,1.9-1.2,2.5
	c-0.8,0.6-1.8,0.9-3.1,0.9c-1.1,0-2-0.2-2.8-0.7c-0.8-0.5-1.3-1.1-1.7-1.9l2-1.2c0.4,1.1,1.2,1.6,2.4,1.6c1.2,0,1.9-0.4,1.9-1.2
	c0-0.4-0.2-0.6-0.6-0.9c-0.4-0.2-0.9-0.4-1.5-0.6c-0.6-0.2-1.2-0.3-1.7-0.5c-0.6-0.2-1.1-0.5-1.5-1c-0.4-0.5-0.6-1.1-0.6-1.8
	c0-1,0.4-1.8,1.1-2.4c0.8-0.6,1.7-0.9,2.9-0.9c0.9,0,1.7,0.2,2.4,0.6c0.7,0.4,1.3,1,1.6,1.7l-2,1.1c-0.4-0.8-1.1-1.3-2.1-1.3
	c-0.5,0-0.8,0.1-1.1,0.3C132.3,17.8,132.1,18,132.1,18.4z"/>
<path class="st0" d="M14.6,11.5 M22,16.4 M18.7,13.1c1.9,0,3.4,1.5,3.4,3.4v6.1c0,0.2-0.2,0.4-0.4,0.4h-0.5c-0.2,0-0.4-0.2-0.4-0.4
	l0-6.7c0-0.3-0.2-0.5-0.5-0.5h-0.7c-0.3,0-0.5,0.2-0.5,0.5v17.6c0,0.3-0.2,0.5-0.5,0.5h-1.3c-0.3,0-0.5-0.2-0.5-0.5v-9.8
	c0-0.3-0.2-0.5-0.5-0.5h-0.5c-0.3,0-0.5,0.2-0.5,0.5v9.8c0,0.3-0.2,0.5-0.5,0.5h-1.3c-0.3,0-0.5-0.2-0.5-0.5V15.8
	c0-0.3-0.2-0.5-0.5-0.5h-0.5c-0.3,0-0.5,0.2-0.5,0.5v6.7c0,0.3-0.2,0.5-0.5,0.5h-0.5c-0.3,0-0.5-0.2-0.5-0.5v-6.1
	c0-1.9,1.6-3.4,3.5-3.4H14c0.5,0,0.9-0.4,0.9-0.9c0-0.3,0.1-0.4-0.2-0.6l-0.1-0.1c-0.5-0.4-0.8-1-0.8-1.7c0-1.2,1-2.2,2.2-2.2
	c1.2,0,2.2,1,2.2,2.2c0,0.6-0.3,1.2-0.8,1.7l0,0l0,0c-0.4,0.3-0.4,0.9-0.1,1.2l0,0c0.2,0.2,0.4,0.3,0.7,0.3H18.7 M19.7,11.4
	c0.2-0.5,0.3-1,0.3-1.5v0c0-1.5-0.8-3-2.3-3.6c-2.9-1.2-5.7,0.9-5.7,3.6v0c0,0.5,0.1,1.1,0.3,1.5C10,11.9,8.2,14,8.2,16.5v0v7.3
	c0,0.5,0.4,0.9,0.9,0.9h2.2v10c0,0.5,0.4,0.9,0.9,0.9h7.7c0.5,0,0.9-0.4,0.9-0.9v-10H23c0.5,0,0.9-0.4,0.9-0.9v-7.3v0
	C23.9,14,22.1,11.9,19.7,11.4z"/>
<path class="st1" d="M30.2,9.3c-2.6-5.5-8.1-9-14.1-9h0c-8.6,0-15.6,7-15.6,15.6c0,5.8,3.2,11.1,8.3,13.8c0.4,0.2,1,0,1.2-0.4
	c0.2-0.4,0-1-0.4-1.2c-6.4-3.4-9.2-11.3-6-18C6.7,3.1,14.9,0,21.9,3.3c6.9,3.2,10,11.5,6.7,18.4c-1.3,2.7-3.4,5-6,6.4
	c-0.4,0.2-0.6,0.7-0.4,1.2c0.2,0.4,0.7,0.6,1.2,0.4C30.6,25.8,33.7,16.8,30.2,9.3z"/>
</svg>
