<svg width="31" height="35" viewBox="0 0 31 35" fill="none" xmlns="http://www.w3.org/2000/svg">
<path d="M20.4323 11.4538C20.3567 11.2215 20.1558 11.0523 19.9141 11.0172L17.1224 10.6122L15.8732 8.08286C15.765 7.8639 15.542 7.72528 15.2978 7.72528C15.0535 7.72534 14.8304 7.86409 14.7223 8.08318L13.4746 10.6132L10.683 11.0196C10.4413 11.0548 10.2405 11.2242 10.1651 11.4565C10.0897 11.6888 10.1527 11.9438 10.3277 12.1143L12.3483 14.0828L11.8722 16.8633C11.8309 17.1041 11.93 17.3473 12.1276 17.4909C12.2394 17.5721 12.3718 17.6133 12.5047 17.6133C12.6069 17.6133 12.7095 17.589 12.8035 17.5395L15.3 16.2262L17.7973 17.5382C18.0135 17.6518 18.2755 17.6329 18.4731 17.4892C18.6707 17.3455 18.7696 17.1022 18.7283 16.8615L18.2507 14.0813L20.2702 12.1117C20.445 11.9411 20.5078 11.6861 20.4323 11.4538ZM17.1129 13.398C16.9617 13.5455 16.8927 13.7579 16.9285 13.9661L17.2431 15.7973L15.5982 14.9331C15.4113 14.8349 15.1879 14.8349 15.001 14.9332L13.3566 15.7983L13.6702 13.9669C13.7059 13.7587 13.6368 13.5463 13.4855 13.3989L12.1547 12.1023L13.9933 11.8347C14.2023 11.8042 14.383 11.6729 14.4764 11.4835L15.2982 9.81716L16.121 11.4831C16.2146 11.6725 16.3953 11.8037 16.6043 11.834L18.4431 12.1007L17.1129 13.398Z" fill="#17AEBF"/>
<path d="M29.7213 29.3288L24.417 20.1025C26.0188 18.1029 26.9785 15.5679 26.9785 12.8125C26.9785 6.3723 21.739 1.13281 15.2989 1.13281C8.85868 1.13281 3.61919 6.3723 3.61919 12.8125C3.61919 15.5679 4.57885 18.1029 6.18076 20.1025L0.876394 29.3288C0.754591 29.5407 0.763704 29.8034 0.899945 30.0064C1.03619 30.2093 1.27613 30.3172 1.51813 30.2847L5.65819 29.7288L7.24675 33.5921C7.33981 33.8183 7.55338 33.972 7.7975 33.9883C7.81187 33.9893 7.82618 33.9897 7.84043 33.9897C8.06857 33.9897 8.28092 33.8682 8.39605 33.6688L13.7509 24.394L13.7532 24.3896C14.2591 24.4568 14.7749 24.4921 15.299 24.4921C15.823 24.4921 16.3389 24.4568 16.8448 24.3896L16.8471 24.394L22.2019 33.6688C22.3171 33.8682 22.5295 33.9897 22.7575 33.9897C22.7718 33.9897 22.7861 33.9893 22.8005 33.9883C23.0446 33.972 23.2582 33.8183 23.3512 33.5921L24.9398 29.7288L29.0799 30.2847C29.3224 30.3172 29.5619 30.2093 29.6981 30.0064C29.834 29.8034 29.8431 29.5407 29.7213 29.3288ZM7.9372 31.8965L6.78079 29.0843L7.81854 27.3908C8.00375 27.0886 7.9089 26.6934 7.60671 26.5083C7.30451 26.3232 6.90939 26.4179 6.72425 26.7201L5.67558 28.4314L2.63823 28.8392L7.08394 21.1065C8.54018 22.549 10.3727 23.6119 12.4196 24.1327L7.9372 31.8965ZM15.2988 23.2087C9.56632 23.2087 4.90261 18.545 4.90261 12.8125C4.90261 7.08001 9.56632 2.41629 15.2988 2.41629C21.0313 2.41629 25.695 7.08001 25.695 12.8125C25.695 18.545 21.0313 23.2087 15.2988 23.2087ZM24.9221 28.4314L23.8734 26.7201C23.6883 26.4179 23.2931 26.323 22.9909 26.5083C22.6888 26.6935 22.5939 27.0886 22.7791 27.3908L23.8169 29.0843L22.6605 31.8965L18.178 24.1327C20.2249 23.6119 22.0575 22.549 23.5137 21.1065L27.9594 28.8392L24.9221 28.4314Z" fill="#17AEBF"/>
<path d="M20.4323 11.4538C20.3567 11.2215 20.1558 11.0523 19.9141 11.0172L17.1224 10.6122L15.8732 8.08286C15.765 7.8639 15.542 7.72528 15.2978 7.72528C15.0535 7.72534 14.8304 7.86409 14.7223 8.08318L13.4746 10.6132L10.683 11.0196C10.4413 11.0548 10.2405 11.2242 10.1651 11.4565C10.0897 11.6888 10.1527 11.9438 10.3277 12.1143L12.3483 14.0828L11.8722 16.8633C11.8309 17.1041 11.93 17.3473 12.1276 17.4909C12.2394 17.5721 12.3718 17.6133 12.5047 17.6133C12.6069 17.6133 12.7095 17.589 12.8035 17.5395L15.3 16.2262L17.7973 17.5382C18.0135 17.6518 18.2755 17.6329 18.4731 17.4892C18.6707 17.3455 18.7696 17.1022 18.7283 16.8615L18.2507 14.0813L20.2702 12.1117C20.445 11.9411 20.5078 11.6861 20.4323 11.4538ZM17.1129 13.398C16.9617 13.5455 16.8927 13.7579 16.9285 13.9661L17.2431 15.7973L15.5982 14.9331C15.4113 14.8349 15.1879 14.8349 15.001 14.9332L13.3566 15.7983L13.6702 13.9669C13.7059 13.7587 13.6368 13.5463 13.4855 13.3989L12.1547 12.1023L13.9933 11.8347C14.2023 11.8042 14.383 11.6729 14.4764 11.4835L15.2982 9.81716L16.121 11.4831C16.2146 11.6725 16.3953 11.8037 16.6043 11.834L18.4431 12.1007L17.1129 13.398Z" stroke="#17AEBF" stroke-width="0.5"/>
<path d="M29.7213 29.3288L24.417 20.1025C26.0188 18.1029 26.9785 15.5679 26.9785 12.8125C26.9785 6.3723 21.739 1.13281 15.2989 1.13281C8.85868 1.13281 3.61919 6.3723 3.61919 12.8125C3.61919 15.5679 4.57885 18.1029 6.18076 20.1025L0.876394 29.3288C0.754591 29.5407 0.763704 29.8034 0.899945 30.0064C1.03619 30.2093 1.27613 30.3172 1.51813 30.2847L5.65819 29.7288L7.24675 33.5921C7.33981 33.8183 7.55338 33.972 7.7975 33.9883C7.81187 33.9893 7.82618 33.9897 7.84043 33.9897C8.06857 33.9897 8.28092 33.8682 8.39605 33.6688L13.7509 24.394L13.7532 24.3896C14.2591 24.4568 14.7749 24.4921 15.299 24.4921C15.823 24.4921 16.3389 24.4568 16.8448 24.3896L16.8471 24.394L22.2019 33.6688C22.3171 33.8682 22.5295 33.9897 22.7575 33.9897C22.7718 33.9897 22.7861 33.9893 22.8005 33.9883C23.0446 33.972 23.2582 33.8183 23.3512 33.5921L24.9398 29.7288L29.0799 30.2847C29.3224 30.3172 29.5619 30.2093 29.6981 30.0064C29.834 29.8034 29.8431 29.5407 29.7213 29.3288ZM7.9372 31.8965L6.78079 29.0843L7.81854 27.3908C8.00375 27.0886 7.9089 26.6934 7.60671 26.5083C7.30451 26.3232 6.90939 26.4179 6.72425 26.7201L5.67558 28.4314L2.63823 28.8392L7.08394 21.1065C8.54018 22.549 10.3727 23.6119 12.4196 24.1327L7.9372 31.8965ZM15.2988 23.2087C9.56632 23.2087 4.90261 18.545 4.90261 12.8125C4.90261 7.08001 9.56632 2.41629 15.2988 2.41629C21.0313 2.41629 25.695 7.08001 25.695 12.8125C25.695 18.545 21.0313 23.2087 15.2988 23.2087ZM24.9221 28.4314L23.8734 26.7201C23.6883 26.4179 23.2931 26.323 22.9909 26.5083C22.6888 26.6935 22.5939 27.0886 22.7791 27.3908L23.8169 29.0843L22.6605 31.8965L18.178 24.1327C20.2249 23.6119 22.0575 22.549 23.5137 21.1065L27.9594 28.8392L24.9221 28.4314Z" stroke="#17AEBF" stroke-width="0.5"/>
</svg>
