<svg width="41" height="42" viewBox="0 0 41 42" fill="none" xmlns="http://www.w3.org/2000/svg">
<path d="M4.49746 1.45972C2.33494 1.45972 0.576294 3.21836 0.576294 5.38089C0.576294 7.54341 2.33494 9.30206 4.49746 9.30206C6.65999 9.30206 8.41863 7.54341 8.41863 5.38089C8.41863 3.21836 6.65999 1.45972 4.49746 1.45972ZM4.49746 7.995C3.05578 7.995 1.88335 6.82257 1.88335 5.38089C1.88335 3.9392 3.05578 2.76677 4.49746 2.76677C5.93915 2.76677 7.11158 3.9392 7.11158 5.38089C7.11158 6.82257 5.93915 7.995 4.49746 7.995Z" fill="#17AEBF"/>
<path d="M35.8669 23.6795C33.7044 23.6795 31.9457 25.4382 31.9457 27.6007C31.9457 29.7632 33.7044 31.5219 35.8669 31.5219C38.0294 31.5219 39.7881 29.7632 39.7881 27.6007C39.7881 25.4382 38.0294 23.6795 35.8669 23.6795ZM35.8669 30.2148C34.4252 30.2148 33.2528 29.0424 33.2528 27.6007C33.2528 26.159 34.4252 24.9866 35.8669 24.9866C37.3086 24.9866 38.481 26.159 38.481 27.6007C38.481 29.0424 37.3086 30.2148 35.8669 30.2148Z" fill="#17AEBF"/>
<path d="M35.8669 32.829C33.7044 32.829 31.9457 34.5876 31.9457 36.7502C31.9457 38.9127 33.7044 40.6713 35.8669 40.6713C38.0294 40.6713 39.7881 38.9127 39.7881 36.7502C39.7881 34.5876 38.0294 32.829 35.8669 32.829ZM35.8669 39.3643C34.4252 39.3643 33.2528 38.1918 33.2528 36.7502C33.2528 35.3085 34.4252 34.1361 35.8669 34.1361C37.3086 34.1361 38.481 35.3085 38.481 36.7502C38.481 38.1918 37.3086 39.3643 35.8669 39.3643Z" fill="#17AEBF"/>
<path d="M23.2582 4.91893L21.2977 2.95835L20.3736 3.88244L21.2186 4.72745H9.72562V6.0345H21.2186L20.3736 6.87952L21.2977 7.80361L23.2582 5.84302C23.5138 5.58749 23.5138 5.17446 23.2582 4.91893Z" fill="#17AEBF"/>
<path d="M28.6781 15.8375H17.1852L18.0302 14.9925L17.1061 14.0684L15.1455 16.029C14.89 16.2845 14.89 16.6975 15.1455 16.9531L17.1061 18.9137L18.0302 17.9896L17.1852 17.1445H28.6781V15.8375Z" fill="#17AEBF"/>
<path d="M33.5793 4.72734H24.7566V6.0344H33.5793C36.2823 6.0344 38.4807 8.23287 38.4807 10.9359C38.4807 13.6389 36.2823 15.8373 33.5793 15.8373H32.216L33.061 14.9923L32.1369 14.0682L30.1763 16.0288C29.9208 16.2843 29.9208 16.6974 30.1763 16.9529L32.1369 18.9135L33.061 17.9894L32.216 17.1444H33.5793C37.0024 17.1444 39.7878 14.359 39.7878 10.9359C39.7878 7.51268 37.0024 4.72734 33.5793 4.72734Z" fill="#17AEBF"/>
<path d="M30.4471 27.1388L28.4865 25.1782L27.5624 26.1023L28.4074 26.9473H20.1821V28.2544H28.4074L27.5624 29.0994L28.4865 30.0235L30.4471 28.0629C30.7026 27.8074 30.7026 27.3943 30.4471 27.1388Z" fill="#17AEBF"/>
<path d="M30.447 36.288L28.4864 34.3274L27.5623 35.2515L28.4073 36.0965H17.5679C15.4054 36.0965 13.6467 34.3379 13.6467 32.1754C13.6467 30.6134 12.9547 29.2129 11.8652 28.2542H16.6438L15.7988 29.0992L16.7229 30.0233L18.6835 28.0627C18.939 27.8072 18.939 27.3942 18.6835 27.1386L16.7229 25.178L15.7988 26.1021L16.6438 26.9471H6.78469C4.0817 26.9471 1.88323 24.7487 1.88323 22.0457C1.88323 19.3427 4.0817 17.1442 6.78469 17.1442H13.6467V15.8372H6.78469C3.36151 15.8372 0.576172 18.6225 0.576172 22.0457C0.576172 25.4689 3.36151 28.2542 6.78469 28.2542H8.41851C10.581 28.2542 12.3397 30.0128 12.3397 32.1754C12.3397 35.0581 14.6852 37.4036 17.5679 37.4036H28.4073L27.5623 38.2486L28.4864 39.1727L30.447 37.2121C30.7025 36.9566 30.7025 36.5436 30.447 36.288Z" fill="#17AEBF"/>
<path d="M10.3794 32.829H9.07232V34.136H10.3794V32.829Z" fill="#17AEBF"/>
<path d="M7.76479 32.829H6.45773V34.136H7.76479V32.829Z" fill="#17AEBF"/>
<path d="M5.15111 32.829H3.84406V34.136H5.15111V32.829Z" fill="#17AEBF"/>
<path d="M4.49746 1.45972C2.33494 1.45972 0.576294 3.21836 0.576294 5.38089C0.576294 7.54341 2.33494 9.30206 4.49746 9.30206C6.65999 9.30206 8.41863 7.54341 8.41863 5.38089C8.41863 3.21836 6.65999 1.45972 4.49746 1.45972ZM4.49746 7.995C3.05578 7.995 1.88335 6.82257 1.88335 5.38089C1.88335 3.9392 3.05578 2.76677 4.49746 2.76677C5.93915 2.76677 7.11158 3.9392 7.11158 5.38089C7.11158 6.82257 5.93915 7.995 4.49746 7.995Z" stroke="#17AEBF"/>
<path d="M35.8669 23.6795C33.7044 23.6795 31.9457 25.4382 31.9457 27.6007C31.9457 29.7632 33.7044 31.5219 35.8669 31.5219C38.0294 31.5219 39.7881 29.7632 39.7881 27.6007C39.7881 25.4382 38.0294 23.6795 35.8669 23.6795ZM35.8669 30.2148C34.4252 30.2148 33.2528 29.0424 33.2528 27.6007C33.2528 26.159 34.4252 24.9866 35.8669 24.9866C37.3086 24.9866 38.481 26.159 38.481 27.6007C38.481 29.0424 37.3086 30.2148 35.8669 30.2148Z" stroke="#17AEBF"/>
<path d="M35.8669 32.829C33.7044 32.829 31.9457 34.5876 31.9457 36.7502C31.9457 38.9127 33.7044 40.6713 35.8669 40.6713C38.0294 40.6713 39.7881 38.9127 39.7881 36.7502C39.7881 34.5876 38.0294 32.829 35.8669 32.829ZM35.8669 39.3643C34.4252 39.3643 33.2528 38.1918 33.2528 36.7502C33.2528 35.3085 34.4252 34.1361 35.8669 34.1361C37.3086 34.1361 38.481 35.3085 38.481 36.7502C38.481 38.1918 37.3086 39.3643 35.8669 39.3643Z" stroke="#17AEBF"/>
<path d="M23.2582 4.91893L21.2977 2.95835L20.3736 3.88244L21.2186 4.72745H9.72562V6.0345H21.2186L20.3736 6.87952L21.2977 7.80361L23.2582 5.84302C23.5138 5.58749 23.5138 5.17446 23.2582 4.91893Z" stroke="#17AEBF"/>
<path d="M28.6781 15.8375H17.1852L18.0302 14.9925L17.1061 14.0684L15.1455 16.029C14.89 16.2845 14.89 16.6975 15.1455 16.9531L17.1061 18.9137L18.0302 17.9896L17.1852 17.1445H28.6781V15.8375Z" stroke="#17AEBF"/>
<path d="M33.5793 4.72734H24.7566V6.0344H33.5793C36.2823 6.0344 38.4807 8.23287 38.4807 10.9359C38.4807 13.6389 36.2823 15.8373 33.5793 15.8373H32.216L33.061 14.9923L32.1369 14.0682L30.1763 16.0288C29.9208 16.2843 29.9208 16.6974 30.1763 16.9529L32.1369 18.9135L33.061 17.9894L32.216 17.1444H33.5793C37.0024 17.1444 39.7878 14.359 39.7878 10.9359C39.7878 7.51268 37.0024 4.72734 33.5793 4.72734Z" stroke="#17AEBF"/>
<path d="M30.4471 27.1388L28.4865 25.1782L27.5624 26.1023L28.4074 26.9473H20.1821V28.2544H28.4074L27.5624 29.0994L28.4865 30.0235L30.4471 28.0629C30.7026 27.8074 30.7026 27.3943 30.4471 27.1388Z" stroke="#17AEBF"/>
<path d="M30.447 36.288L28.4864 34.3274L27.5623 35.2515L28.4073 36.0965H17.5679C15.4054 36.0965 13.6467 34.3379 13.6467 32.1754C13.6467 30.6134 12.9547 29.2129 11.8652 28.2542H16.6438L15.7988 29.0992L16.7229 30.0233L18.6835 28.0627C18.939 27.8072 18.939 27.3942 18.6835 27.1386L16.7229 25.178L15.7988 26.1021L16.6438 26.9471H6.78469C4.0817 26.9471 1.88323 24.7487 1.88323 22.0457C1.88323 19.3427 4.0817 17.1442 6.78469 17.1442H13.6467V15.8372H6.78469C3.36151 15.8372 0.576172 18.6225 0.576172 22.0457C0.576172 25.4689 3.36151 28.2542 6.78469 28.2542H8.41851C10.581 28.2542 12.3397 30.0128 12.3397 32.1754C12.3397 35.0581 14.6852 37.4036 17.5679 37.4036H28.4073L27.5623 38.2486L28.4864 39.1727L30.447 37.2121C30.7025 36.9566 30.7025 36.5436 30.447 36.288Z" stroke="#17AEBF"/>
<path d="M10.3794 32.829H9.07232V34.136H10.3794V32.829Z" stroke="#17AEBF"/>
<path d="M7.76479 32.829H6.45773V34.136H7.76479V32.829Z" stroke="#17AEBF"/>
<path d="M5.15111 32.829H3.84406V34.136H5.15111V32.829Z" stroke="#17AEBF"/>
</svg>
