<svg width="43" height="26" viewBox="0 0 43 26" fill="none" xmlns="http://www.w3.org/2000/svg">
<path d="M9.54014 5.15771H8.40332V6.37816H9.54014V5.15771Z" fill="#17AEBF" stroke="#17AEBF" stroke-width="0.8"/>
<path d="M19.7833 0.812256H18.6465V2.0327H19.7833V0.812256Z" fill="#17AEBF" stroke="#17AEBF" stroke-width="0.8"/>
<path d="M32.8575 5.73218H31.7207V6.95262H32.8575V5.73218Z" fill="#17AEBF" stroke="#17AEBF" stroke-width="0.8"/>
<path d="M41.0074 15.3637H39.6996C38.8838 11.7552 35.652 9.05249 31.8006 9.05249C27.703 9.05249 24.3069 12.1118 23.7754 16.0662C23.3156 15.8777 22.6703 15.7396 21.7638 15.7396C20.8577 15.7396 20.2125 15.8775 19.7526 16.0661C19.2211 12.1117 15.8251 9.05249 11.7275 9.05249C7.87606 9.05249 4.64431 11.7553 3.82857 15.3637H2.5201C1.80298 15.3637 1.21973 15.9469 1.21973 16.664V17.8444C1.21973 18.5614 1.80298 19.1447 2.5201 19.1447H3.87825C4.76894 22.6488 7.95021 25.2485 11.7275 25.2485C16.092 25.2485 19.6605 21.7777 19.8193 17.4514C19.9206 17.3336 20.3532 16.9601 21.7638 16.9601C23.1755 16.9601 23.6078 17.3339 23.7087 17.4515C23.8677 21.7778 27.4361 25.2485 31.8005 25.2485C35.5779 25.2485 38.7591 22.6488 39.6497 19.1447H41.0073C41.7244 19.1447 42.3076 18.5615 42.3076 17.8444V16.664C42.3077 15.9469 41.7244 15.3637 41.0074 15.3637ZM3.62955 17.9242H2.5201C2.47596 17.9242 2.44017 17.8884 2.44017 17.8443V16.664C2.44017 16.6199 2.47596 16.584 2.5201 16.584H3.62955V17.9242ZM11.7274 24.0279C7.93512 24.0279 4.84983 20.9427 4.84983 17.1504C4.84983 13.3581 7.93512 10.2729 11.7274 10.2729C15.5197 10.2729 18.605 13.3581 18.605 17.1504C18.605 20.9428 15.5197 24.0279 11.7274 24.0279ZM38.6775 17.1723C38.6656 20.9545 35.5855 24.0279 31.8005 24.0279C28.0083 24.0279 24.923 20.9427 24.923 17.1504C24.923 13.3581 28.0083 10.2729 31.8005 10.2729C35.5855 10.2729 38.6656 13.3463 38.6775 17.1284V17.1723ZM41.0873 17.8444C41.0873 17.8885 41.0515 17.9243 41.0074 17.9243H39.8979V17.1943C39.898 17.1797 39.8985 17.1652 39.8985 17.1506C39.8985 17.136 39.898 17.1215 39.8979 17.1069V16.5842H41.0074C41.0515 16.5842 41.0873 16.62 41.0873 16.6641V17.8444Z" fill="#17AEBF" stroke="#17AEBF" stroke-width="0.8"/>
<path d="M24.9103 5.15825V3.77515H23.6898V5.15825H22.3066V6.37869H23.6898V7.76188H24.9103V6.37869H26.2935V5.15825H24.9103Z" fill="#17AEBF" stroke="#17AEBF" stroke-width="0.8"/>
</svg>
