<svg width="38" height="38" viewBox="0 0 38 38" fill="none" xmlns="http://www.w3.org/2000/svg">
<path d="M4.82301 37.1894C3.59674 37.1894 2.44261 36.7112 1.57336 35.8405C-0.218464 34.0487 -0.218464 31.133 1.57336 29.3412L16.1785 14.736C15.7631 13.5926 15.5532 12.3831 15.5532 11.1308C15.5532 5.21557 20.3662 0.400879 26.2831 0.400879C27.8114 0.400879 29.2768 0.71355 30.6363 1.33131C30.9796 1.48765 31.2249 1.802 31.2926 2.17278C31.3599 2.54383 31.2403 2.92386 30.9737 3.19078L26.8486 7.31417L27.2887 10.1237L30.0983 10.5621L34.2217 6.43874C34.4883 6.17351 34.8717 6.05562 35.2394 6.1199C35.6104 6.18754 35.9248 6.43257 36.0811 6.77611C36.7003 8.1357 37.013 9.6011 37.013 11.1308C37.013 17.0463 32.2 21.861 26.2831 21.861C25.0321 21.861 23.8227 21.6507 22.6778 21.2353L8.07265 35.8405C7.20369 36.7112 6.04927 37.1894 4.82301 37.1894ZM26.2831 2.70016C21.634 2.70016 17.8525 6.48169 17.8525 11.1308C17.8525 12.3295 18.0961 13.4747 18.5774 14.5337C18.775 14.9707 18.6833 15.4843 18.3445 15.8228L3.19987 30.9674C2.30452 31.8628 2.30452 33.3206 3.19987 34.2157C4.07052 35.0863 5.57718 35.0863 6.44783 34.2157L21.5925 19.0711C21.9298 18.7323 22.4449 18.6357 22.8802 18.8381C23.9394 19.3178 25.0843 19.5617 26.2831 19.5617C30.9322 19.5617 34.7137 15.7801 34.7137 11.1308C34.7137 10.5315 34.6525 9.94914 34.5329 9.38021L31.3108 12.6024C31.0517 12.8614 30.6793 12.9796 30.3206 12.926L26.1051 12.2667C25.6117 12.1886 25.2238 11.8021 25.1472 11.3087L24.4882 7.09328C24.4315 6.73008 24.551 6.36212 24.8115 6.10306L28.0336 2.88092C27.465 2.76135 26.8809 2.70016 26.2831 2.70016Z" fill="#EB5757"/>
</svg>
