<svg width="17" height="21" viewBox="0 0 17 21" fill="none" xmlns="http://www.w3.org/2000/svg">
<path d="M7.10779 8.03196L7.10759 8.03216L5.08218 10.0588L4.33023 9.30569L4.33018 9.30564C4.04279 9.01825 3.57577 9.01825 3.28839 9.30564C3.00101 9.59302 3.00101 10.06 3.28839 10.3474L4.56153 11.6206C4.56159 11.6206 4.56166 11.6207 4.56172 11.6208C4.70484 11.7652 4.89374 11.8374 5.08214 11.8374C5.27067 11.8374 5.4592 11.7652 5.60331 11.6226L5.60367 11.6222L8.15067 9.0752C8.43806 8.78781 8.43806 8.3208 8.15067 8.03341C7.86345 7.74619 7.39657 7.74466 7.10779 8.03196Z" fill="#17AEBF" stroke="#17AEBF" stroke-width="0.2"/>
<path d="M7.10779 13.126L7.10759 13.1262L5.08212 15.1529L4.33018 14.4009C4.04279 14.1135 3.57577 14.1135 3.28839 14.4009C3.00101 14.6883 3.00101 15.1553 3.28839 15.4427L4.56189 16.7162C4.70493 16.8592 4.89371 16.9314 5.08214 16.9314C5.27067 16.9314 5.4592 16.8592 5.60331 16.7165L5.60367 16.7162L8.15067 14.1692C8.43806 13.8818 8.43806 13.4148 8.15067 13.1274C7.86345 12.8402 7.39657 12.8386 7.10779 13.126Z" fill="#17AEBF" stroke="#17AEBF" stroke-width="0.2"/>
<path d="M12.7228 9.09067H10.1758C9.7691 9.09067 9.43906 9.42071 9.43906 9.82742C9.43906 10.2341 9.7691 10.5642 10.1758 10.5642H12.7228C13.1295 10.5642 13.4596 10.2341 13.4596 9.82742C13.4596 9.42071 13.1295 9.09067 12.7228 9.09067Z" fill="#17AEBF" stroke="#17AEBF" stroke-width="0.2"/>
<path d="M12.7228 14.1847H10.1758C9.7691 14.1847 9.43906 14.5147 9.43906 14.9214C9.43906 15.3281 9.7691 15.6582 10.1758 15.6582H12.7228C13.1295 15.6582 13.4596 15.3281 13.4596 14.9214C13.4596 14.5147 13.1295 14.1847 12.7228 14.1847Z" fill="#17AEBF" stroke="#17AEBF" stroke-width="0.2"/>
<path d="M14.6335 2.72312H12.1865V2.18637C12.1865 1.77966 11.8565 1.44962 11.4497 1.44962H10.1372C9.84212 0.704819 9.11504 0.176123 8.26599 0.176123C7.41694 0.176123 6.68987 0.704819 6.39476 1.44962H5.08224C4.67553 1.44962 4.3455 1.77966 4.3455 2.18637V2.72312H1.8985C1.14157 2.72312 0.525 3.33969 0.525 4.09662V19.3786C0.525 20.1355 1.14157 20.7521 1.8985 20.7521H14.6335C15.3904 20.7521 16.007 20.1355 16.007 19.3786V4.09662C16.007 3.33969 15.3904 2.72312 14.6335 2.72312ZM5.81899 2.92312H6.99249C7.39921 2.92312 7.72924 2.59308 7.72924 2.18637C7.72924 1.89011 7.96973 1.64962 8.26599 1.64962C8.56225 1.64962 8.80274 1.89011 8.80274 2.18637C8.80274 2.59308 9.13278 2.92312 9.53949 2.92312H10.713V3.99662H5.81899V2.92312ZM1.9985 19.2786V4.19662H4.3455V4.73337C4.3455 5.14008 4.67553 5.47012 5.08224 5.47012H11.4497C11.8565 5.47012 12.1865 5.14008 12.1865 4.73337V4.19662H14.5335V19.2786H1.9985Z" fill="#17AEBF" stroke="#17AEBF" stroke-width="0.2"/>
</svg>
