<svg width="36" height="30" viewBox="0 0 36 30" fill="none" xmlns="http://www.w3.org/2000/svg">
<path d="M22.0804 13.2028L22.0802 13.2027L22.0801 13.2025C22.0793 13.2013 22.0759 13.1965 22.0731 13.1928L22.0471 13.1564L22.2082 11.7697C22.4368 9.80218 21.1503 7.99523 19.2163 7.56714L19.1947 7.66478L19.2163 7.56714C17.3642 7.15726 15.9649 5.684 15.6509 3.8133C15.3434 1.98143 13.7717 0.651465 11.9141 0.651465C10.9127 0.651465 9.96791 1.03879 9.25463 1.74162L9.32482 1.81285L9.25463 1.74162L2.90114 8.00248L2.90062 8.003L2.90058 8.00331C2.90058 8.00331 2.90057 8.00332 2.90057 8.00332L2.90053 8.00329L2.89991 8.00392C2.89861 8.00509 2.89681 8.00677 2.89483 8.00879L0.989996 9.91369C0.52594 10.3777 0.270117 10.9953 0.270117 11.6517C0.270117 12.308 0.525941 12.9256 0.989997 13.3896L14.4479 26.8476C14.474 26.8737 14.5002 26.8995 14.5265 26.925H9.46475C8.85144 26.925 8.35422 27.4222 8.35422 28.0356C8.35422 28.6489 8.85144 29.1461 9.46475 29.1461H31.831C33.5578 29.1461 34.9625 27.7413 34.9625 26.0145V22.6461C34.9625 19.0619 32.0467 16.1461 28.4626 16.1461H24.1834L22.0804 13.2028ZM18.3851 13.6056L18.4168 13.7004L18.3851 13.6056C17.8033 13.7995 17.4889 14.4284 17.6828 15.0103L17.6828 15.0103C17.838 15.4758 18.2713 15.7699 18.7362 15.7699C18.8527 15.7699 18.9712 15.7515 19.0875 15.7127L19.0875 15.7127L20.7483 15.1591L21.8342 16.6787L20.7116 17.0529L20.7432 17.1478L20.7116 17.0529C20.1297 17.2469 19.8153 17.8758 20.0092 18.4576L20.0092 18.4577C20.1644 18.9232 20.5977 19.2173 21.0626 19.2173C21.1791 19.2173 21.2976 19.1988 21.4139 19.1601L21.4139 19.1601L23.7923 18.3672H28.4626C30.8219 18.3672 32.7415 20.2868 32.7415 22.6461V22.8829H19.3405L5.25693 8.79931L10.8136 3.32367C11.109 3.03261 11.4995 2.87251 11.9141 2.87251C12.6831 2.87251 13.3332 3.42253 13.4604 4.18095C13.925 6.94862 15.9962 9.12934 18.7364 9.73577C19.5548 9.91689 20.0986 10.6809 20.002 11.5134L19.8142 13.1292L18.3851 13.6056ZM2.5605 11.4843L2.48979 11.4135L2.5605 11.4843L3.68066 10.364L18.0953 24.7787C18.3036 24.9869 18.586 25.104 18.8805 25.104H32.7415V26.0145C32.7415 26.5165 32.3329 26.925 31.831 26.925H19.9968C18.4938 26.925 17.0812 26.3399 16.0184 25.2771L2.5605 11.8192C2.46825 11.7269 2.46825 11.5765 2.5605 11.4843Z" fill="#17AEBF" stroke="#17AEBF" stroke-width="0.2"/>
</svg>
