<svg width="27" height="27" viewBox="0 0 27 27" fill="none" xmlns="http://www.w3.org/2000/svg">
<path d="M23.8359 2.10938H22.5703V0H20.4609V2.10938H6.53906V0H4.42969V2.10938H3.16406C1.4194 2.10938 0 3.52877 0 5.27344V23.8359C0 25.5806 1.4194 27 3.16406 27H23.8359C25.5806 27 27 25.5806 27 23.8359V5.27344C27 3.52877 25.5806 2.10938 23.8359 2.10938ZM24.8906 23.8359C24.8906 24.4175 24.4175 24.8906 23.8359 24.8906H3.16406C2.58251 24.8906 2.10938 24.4175 2.10938 23.8359V9.91406H24.8906V23.8359ZM24.8906 7.80469H2.10938V5.27344C2.10938 4.69188 2.58251 4.21875 3.16406 4.21875H4.42969V6.32812H6.53906V4.21875H20.4609V6.32812H22.5703V4.21875H23.8359C24.4175 4.21875 24.8906 4.69188 24.8906 5.27344V7.80469Z" fill="#434343"/>
<path d="M6.11719 12.1289H4.00781V14.2383H6.11719V12.1289Z" fill="#434343"/>
<path d="M10.3359 12.1289H8.22656V14.2383H10.3359V12.1289Z" fill="#434343"/>
<path d="M14.5547 12.1289H12.4453V14.2383H14.5547V12.1289Z" fill="#434343"/>
<path d="M18.7734 12.1289H16.6641V14.2383H18.7734V12.1289Z" fill="#434343"/>
<path d="M22.9922 12.1289H20.8828V14.2383H22.9922V12.1289Z" fill="#434343"/>
<path d="M6.11719 16.3477H4.00781V18.457H6.11719V16.3477Z" fill="#434343"/>
<path d="M10.3359 16.3477H8.22656V18.457H10.3359V16.3477Z" fill="#434343"/>
<path d="M14.5547 16.3477H12.4453V18.457H14.5547V16.3477Z" fill="#434343"/>
<path d="M18.7734 16.3477H16.6641V18.457H18.7734V16.3477Z" fill="#434343"/>
<path d="M6.11719 20.5664H4.00781V22.6758H6.11719V20.5664Z" fill="#434343"/>
<path d="M10.3359 20.5664H8.22656V22.6758H10.3359V20.5664Z" fill="#434343"/>
<path d="M14.5547 20.5664H12.4453V22.6758H14.5547V20.5664Z" fill="#434343"/>
<path d="M18.7734 20.5664H16.6641V22.6758H18.7734V20.5664Z" fill="#434343"/>
<path d="M22.9922 16.3477H20.8828V18.457H22.9922V16.3477Z" fill="#434343"/>
</svg>
