<?xml version="1.0" encoding="utf-8"?>
<!-- Generator: Adobe Illustrator 22.0.1, SVG Export Plug-In . SVG Version: 6.00 Build 0)  -->
<svg version="1.1" id="Calque_1" xmlns="http://www.w3.org/2000/svg" xmlns:xlink="http://www.w3.org/1999/xlink" x="0px" y="0px"
	 viewBox="0 0 29 28" style="enable-background:new 0 0 29 28;" xml:space="preserve">
<style type="text/css">
	.st0{fill:#FFFFFF;}
	.st1{clip-path:url(#SVGID_2_);}
	.st2{fill:#131A40;}
</style>
<circle class="st0" cx="14.5" cy="14" r="14"/>
<g>
	<defs>
		<rect id="SVGID_1_" x="8.2" y="8.1" width="12" height="12"/>
	</defs>
	<clipPath id="SVGID_2_">
		<use xlink:href="#SVGID_1_"  style="overflow:visible;"/>
	</clipPath>
	<g class="st1">
		<path class="st2" d="M16.8,8.1H8.7c-0.3,0-0.5,0.2-0.5,0.5v8.2c0,0.3,0.2,0.5,0.5,0.5h8.2c0.3,0,0.5-0.2,0.5-0.5V8.6
			C17.3,8.3,17.1,8.1,16.8,8.1z M16.3,16.3H9.1V9.1h7.2V16.3z"/>
		<path class="st2" d="M19.2,17.9v1.2H18v1h1.7c0.3,0,0.5-0.2,0.5-0.5v-1.7H19.2z"/>
		<path class="st2" d="M16.9,19.1h-2.6v1h2.6V19.1z"/>
		<path class="st2" d="M12,19.1v-1.2h-1v1.7c0,0.3,0.2,0.5,0.5,0.5h1.7v-1H12z"/>
		<path class="st2" d="M19.7,11H18v1h1.2v1.2h1v-1.7C20.2,11.2,20,11,19.7,11z"/>
		<path class="st2" d="M20.2,14.2h-1v2.6h1V14.2z"/>
	</g>
</g>
</svg>
