<svg width="65" height="66" viewBox="0 0 65 66" fill="none" xmlns="http://www.w3.org/2000/svg">
<path d="M32.3097 1.1759C14.8025 1.1759 0.636475 15.3431 0.636475 32.8491C0.636475 50.3564 14.8037 64.5224 32.3097 64.5224C49.817 64.5224 63.983 50.3552 63.983 32.8491C63.983 15.3419 49.8156 1.1759 32.3097 1.1759ZM32.3097 59.5734C17.538 59.5734 5.58542 47.6199 5.58542 32.8491C5.58542 18.0774 17.539 6.12485 32.3097 6.12485C47.0814 6.12485 59.034 18.0784 59.034 32.8491C59.034 47.6209 47.0803 59.5734 32.3097 59.5734Z" fill="#131A40" fill-opacity="0.4"/>
<path d="M32.3097 27.6936C30.943 27.6936 29.8352 28.8014 29.8352 30.1681V46.1028C29.8352 47.4694 30.943 48.5773 32.3097 48.5773C33.6763 48.5773 34.7841 47.4693 34.7841 46.1027V30.1681C34.7841 28.8014 33.6763 27.6936 32.3097 27.6936Z" fill="#131A40" fill-opacity="0.4"/>
<path d="M32.3096 24.6636C34.1545 24.6636 35.6502 23.168 35.6502 21.3231C35.6502 19.4782 34.1545 17.9825 32.3096 17.9825C30.4647 17.9825 28.9691 19.4782 28.9691 21.3231C28.9691 23.168 30.4647 24.6636 32.3096 24.6636Z" fill="#131A40" fill-opacity="0.4"/>
<path fill-rule="evenodd" clip-rule="evenodd" d="M0.136475 32.8491C0.136475 15.067 14.5263 0.675903 32.3097 0.675903C50.0917 0.675903 64.483 15.0657 64.483 32.8491C64.483 50.6313 50.0931 65.0224 32.3097 65.0224C14.5276 65.0224 0.136475 50.6326 0.136475 32.8491ZM6.08542 32.8491C6.08542 47.3438 17.8141 59.0734 32.3097 59.0734C46.8042 59.0734 58.534 47.3447 58.534 32.8491C58.534 18.3545 46.8053 6.62485 32.3097 6.62485C17.8151 6.62485 6.08542 18.3536 6.08542 32.8491ZM29.3352 30.1681C29.3352 28.5253 30.6669 27.1936 32.3097 27.1936C33.9524 27.1936 35.2841 28.5253 35.2841 30.1681V46.1027C35.2841 47.7454 33.9525 49.0773 32.3097 49.0773C30.6669 49.0773 29.3352 47.7456 29.3352 46.1028V30.1681ZM36.1502 21.3231C36.1502 23.4442 34.4307 25.1636 32.3096 25.1636C30.1885 25.1636 28.4691 23.4442 28.4691 21.3231C28.4691 19.202 30.1885 17.4825 32.3096 17.4825C34.4307 17.4825 36.1502 19.202 36.1502 21.3231ZM32.3097 1.1759C14.8025 1.1759 0.636475 15.3431 0.636475 32.8491C0.636475 50.3564 14.8037 64.5224 32.3097 64.5224C49.817 64.5224 63.983 50.3552 63.983 32.8491C63.983 15.3419 49.8156 1.1759 32.3097 1.1759ZM32.3097 59.5734C17.538 59.5734 5.58542 47.6199 5.58542 32.8491C5.58542 18.0774 17.539 6.12485 32.3097 6.12485C47.0814 6.12485 59.034 18.0784 59.034 32.8491C59.034 47.6209 47.0803 59.5734 32.3097 59.5734ZM32.3097 27.6936C30.943 27.6936 29.8352 28.8014 29.8352 30.1681V46.1028C29.8352 47.4694 30.943 48.5773 32.3097 48.5773C33.6763 48.5773 34.7841 47.4693 34.7841 46.1027V30.1681C34.7841 28.8014 33.6763 27.6936 32.3097 27.6936ZM35.6502 21.3231C35.6502 23.168 34.1545 24.6636 32.3096 24.6636C30.4647 24.6636 28.9691 23.168 28.9691 21.3231C28.9691 19.4782 30.4647 17.9825 32.3096 17.9825C34.1545 17.9825 35.6502 19.4782 35.6502 21.3231Z" fill="#131A40" fill-opacity="0.4"/>
</svg>
