<svg width="78" height="78" viewBox="0 0 78 78" fill="none" xmlns="http://www.w3.org/2000/svg">
<path d="M6.79156 26.2994H30.5524C33.7482 26.2994 36.347 23.7006 36.347 20.5048V6.2483C36.347 3.05309 33.7482 0.4543 30.5524 0.4543H6.79156C3.59637 0.4543 0.997559 3.05311 0.997559 6.2483V20.5048C0.997559 23.7006 3.59635 26.2994 6.79156 26.2994ZM6.24973 6.2483C6.24973 5.94956 6.49282 5.70647 6.79156 5.70647H30.5524C30.8519 5.70647 31.0948 5.94968 31.0948 6.2483V20.5048C31.0948 20.8041 30.8517 21.0472 30.5524 21.0472H6.79156C6.49294 21.0472 6.24973 20.8043 6.24973 20.5048V6.2483ZM6.79156 76.9893H30.5524C33.7482 76.9893 36.347 74.3905 36.347 71.1953V37.9301C36.347 34.7343 33.7482 32.1355 30.5524 32.1355H6.79156C3.59635 32.1355 0.997559 34.7343 0.997559 37.9301V71.1953C0.997559 74.3905 3.59637 76.9893 6.79156 76.9893ZM6.24973 37.9301C6.24973 37.6307 6.49294 37.3877 6.79156 37.3877H30.5524C30.8517 37.3877 31.0948 37.6308 31.0948 37.9301V71.1953C31.0948 71.4939 30.8518 71.7371 30.5524 71.7371H6.79156C6.49282 71.7371 6.24973 71.494 6.24973 71.1953V37.9301ZM47.9771 76.9893H71.7379C74.9331 76.9893 77.5319 74.3905 77.5319 71.1953V56.9388C77.5319 53.7431 74.9331 51.1442 71.7379 51.1442H47.9771C44.7813 51.1442 42.1825 53.7431 42.1825 56.9388V71.1953C42.1825 74.3905 44.7813 76.9893 47.9771 76.9893ZM47.4347 56.9388C47.4347 56.6395 47.6778 56.3964 47.9771 56.3964H71.7379C72.0366 56.3964 72.2798 56.6394 72.2798 56.9388V71.1953C72.2798 71.4941 72.0367 71.7372 71.7379 71.7372H47.9771C47.6776 71.7372 47.4347 71.494 47.4347 71.1953V56.9388ZM47.9771 45.3079H71.7379C74.9331 45.3079 77.5319 42.7091 77.5319 39.5134V6.24817C77.5319 3.05297 74.9331 0.454163 71.7379 0.454163H47.9771C44.7813 0.454163 42.1825 3.05296 42.1825 6.24817V39.5134C42.1825 42.7091 44.7813 45.3079 47.9771 45.3079ZM47.4347 6.24817C47.4347 5.94954 47.6776 5.70633 47.9771 5.70633H71.7379C72.0367 5.70633 72.2798 5.94942 72.2798 6.24817V39.5134C72.2798 39.8128 72.0366 40.0558 71.7379 40.0558H47.9771C47.6778 40.0558 47.4347 39.8127 47.4347 39.5134V6.24817Z" fill="#131A40" stroke="#131A40" stroke-width="0.5"/>
</svg>
