<svg width="33" height="31" viewBox="0 0 33 31" fill="none" xmlns="http://www.w3.org/2000/svg">
<path d="M32.4229 3.06732C32.561 3.06732 32.6729 2.95539 32.6729 2.81732V0.9953C32.6729 0.857229 32.561 0.7453 32.4229 0.7453H30.5401H3.2099H1.32715C1.18908 0.7453 1.07715 0.857229 1.07715 0.9953V2.81732C1.07715 2.95539 1.18908 3.06732 1.32715 3.06732H2.9599V21.3948H1.32715C1.18908 21.3948 1.07715 21.5067 1.07715 21.6448V23.4668C1.07715 23.6049 1.18908 23.7168 1.32715 23.7168H3.2099H15.714V27.4353C15.5246 27.6815 15.4103 27.99 15.4103 28.3255C15.4103 29.1334 16.0672 29.7902 16.875 29.7902C17.6829 29.7902 18.3397 29.1334 18.3397 28.3255C18.3397 27.99 18.2255 27.6816 18.036 27.4353V23.7168H30.5401H32.4229C32.561 23.7168 32.6729 23.6049 32.6729 23.4668V21.6448C32.6729 21.5067 32.561 21.3948 32.4229 21.3948H30.7901V3.06732H32.4229ZM28.4681 21.3948H5.28191V3.06732H28.4681V21.3948Z" fill="#17AEBF" stroke="#17AEBF" stroke-width="0.5" stroke-linejoin="round"/>
<path d="M23.1245 5.968C23.0776 5.92112 23.014 5.89478 22.9477 5.89478C22.8814 5.89478 22.8178 5.92111 22.771 5.968L13.8376 14.9013L11.5851 12.6487C11.5382 12.6018 11.4746 12.5755 11.4083 12.5755C11.342 12.5755 11.2784 12.6018 11.2315 12.6487L6.94334 16.937C6.84571 17.0346 6.84571 17.1929 6.94334 17.2905L8.23163 18.5788C8.32926 18.6764 8.48755 18.6764 8.58518 18.5788L11.4083 15.7558L13.6609 18.0083C13.7078 18.0552 13.7713 18.0816 13.8376 18.0816C13.904 18.0816 13.9675 18.0552 14.0144 18.0083L22.9477 9.07502L25.1635 11.2907C25.2611 11.3884 25.4194 11.3884 25.5171 11.2907L26.8053 10.0025C26.903 9.90482 26.903 9.74653 26.8053 9.6489L23.1245 5.968Z" fill="#17AEBF" stroke="#17AEBF" stroke-width="0.5" stroke-linejoin="round"/>
</svg>
