<svg width="32" height="23" viewBox="0 0 32 23" fill="none" xmlns="http://www.w3.org/2000/svg">
<path d="M16.2073 12.4097C15.0232 12.3963 13.9706 11.6526 13.5625 10.541C13.0197 9.06248 13.7782 7.42388 15.2567 6.88103L16.2073 12.4097ZM16.2073 12.4097C16.7323 12.4097 17.1579 12.8353 17.1579 13.3603C17.1579 13.8853 16.7323 14.3109 16.2073 14.3109H14.3061C13.781 14.3109 13.3555 14.7365 13.3555 15.2615C13.3555 15.7865 13.781 16.2121 14.3061 16.2121H15.2067L16.2073 12.4097ZM16.2078 10.4585H16.2073C15.7098 10.4585 15.3067 10.0553 15.3067 9.55791C15.3067 9.0605 15.7098 8.65732 16.2073 8.65732H18.1085C18.6611 8.65732 19.109 8.20936 19.109 7.65672C19.109 7.10408 18.6611 6.65612 18.1085 6.65612H17.2079V5.75553C17.2079 5.20289 16.7599 4.75493 16.2073 4.75493C15.6546 4.75493 15.2067 5.20289 15.2067 5.75553V6.84635C13.7239 7.41075 12.9672 9.06475 13.5155 10.5582C13.9308 11.6893 15.0018 12.446 16.2067 12.4597H16.2073C16.7047 12.4597 17.1079 12.8629 17.1079 13.3603C17.1079 13.8577 16.7047 14.2609 16.2073 14.2609H14.3061C13.7534 14.2609 13.3055 14.7089 13.3055 15.2615C13.3055 15.8141 13.7534 16.2621 14.3061 16.2621H15.2067V17.1627C15.2067 17.7153 15.6546 18.1633 16.2073 18.1633C16.7599 18.1633 17.2079 17.7153 17.2079 17.1627V16.0719C18.6907 15.5075 19.4473 13.8535 18.899 12.36C18.4837 11.2289 17.4127 10.4722 16.2078 10.4585Z" fill="#17AEBF" stroke="#17AEBF" stroke-width="0.1"/>
<path d="M2.89924 21.9658H29.5159C30.5936 21.9658 31.4671 21.0922 31.4671 20.0146V2.90388C31.4671 1.82627 30.5936 0.952686 29.5159 0.952686H2.89924C1.82163 0.952686 0.948047 1.82627 0.948047 2.90388V20.0146C0.948047 21.0922 1.82163 21.9658 2.89924 21.9658ZM29.466 19.9646H2.94924V2.95388H29.466V19.9646Z" fill="#17AEBF" stroke="#17AEBF" stroke-width="0.1"/>
<path d="M0.948047 7.65686C0.948047 8.2095 1.396 8.65746 1.94864 8.65746C5.65126 8.65746 8.65282 5.6559 8.65282 1.95328C8.65282 1.40064 8.20486 0.952686 7.65222 0.952686C7.09958 0.952686 6.65163 1.40064 6.65163 1.95328C6.65163 4.55068 4.54604 6.65627 1.94864 6.65627C1.396 6.65627 0.948047 7.10422 0.948047 7.65686Z" fill="#17AEBF" stroke="#17AEBF" stroke-width="0.1"/>
<path d="M23.7625 1.95316C23.7625 5.65578 26.7641 8.65734 30.4667 8.65734C31.0193 8.65734 31.4673 8.20938 31.4673 7.65674C31.4673 7.1041 31.0193 6.65614 30.4667 6.65614C27.8693 6.65614 25.7637 4.55056 25.7637 1.95316C25.7637 1.40052 25.3157 0.952563 24.7631 0.952563C24.2105 0.952563 23.7625 1.40052 23.7625 1.95316Z" fill="#17AEBF" stroke="#17AEBF" stroke-width="0.1"/>
<path d="M6.65163 20.9651C6.65163 21.5177 7.09958 21.9657 7.65222 21.9657C8.20486 21.9657 8.65282 21.5177 8.65282 20.9651C8.65282 17.2625 5.65126 14.2609 1.94864 14.2609C1.396 14.2609 0.948047 14.7089 0.948047 15.2615C0.948047 15.8142 1.396 16.2621 1.94864 16.2621C4.54604 16.2621 6.65163 18.3677 6.65163 20.9651Z" fill="#17AEBF" stroke="#17AEBF" stroke-width="0.1"/>
<path d="M23.7625 20.9651C23.7625 21.5177 24.2105 21.9657 24.7631 21.9657C25.3157 21.9657 25.7637 21.5177 25.7637 20.9651C25.7637 18.3677 27.8693 16.2621 30.4667 16.2621C31.0193 16.2621 31.4673 15.8142 31.4673 15.2615C31.4673 14.7089 31.0193 14.2609 30.4667 14.2609C26.7641 14.2609 23.7625 17.2625 23.7625 20.9651Z" fill="#17AEBF" stroke="#17AEBF" stroke-width="0.1"/>
<path d="M14.3061 16.2621H16.2073C17.8099 16.2621 19.109 14.963 19.109 13.3604C19.109 11.7577 17.8099 10.4586 16.2073 10.4586C15.7098 10.4586 15.3067 10.0554 15.3067 9.55797C15.3067 9.06055 15.7098 8.65737 16.2073 8.65737H18.1085C18.6611 8.65737 19.109 8.20941 19.109 7.65677C19.109 7.10413 18.6611 6.65618 18.1085 6.65618H16.2073C14.6046 6.65618 13.3055 7.95533 13.3055 9.55797C13.3055 11.1606 14.6046 12.4598 16.2073 12.4598C16.7047 12.4598 17.1079 12.8629 17.1079 13.3604C17.1079 13.8578 16.7047 14.2609 16.2073 14.2609H14.3061C13.7534 14.2609 13.3055 14.7089 13.3055 15.2615C13.3055 15.8142 13.7534 16.2621 14.3061 16.2621Z" fill="#17AEBF" stroke="#17AEBF" stroke-width="0.1"/>
<path d="M15.2068 7.65672C15.2068 8.20936 15.6548 8.65732 16.2074 8.65732C16.7601 8.65732 17.208 8.20936 17.208 7.65672V5.75553C17.208 5.20289 16.7601 4.75493 16.2074 4.75493C15.6548 4.75493 15.2068 5.20289 15.2068 5.75553V7.65672Z" fill="#17AEBF" stroke="#17AEBF" stroke-width="0.1"/>
<path d="M15.2068 17.1627C15.2068 17.7153 15.6548 18.1633 16.2074 18.1633C16.7601 18.1633 17.208 17.7153 17.208 17.1627V15.2615C17.208 14.7089 16.7601 14.2609 16.2074 14.2609C15.6548 14.2609 15.2068 14.7089 15.2068 15.2615V17.1627Z" fill="#17AEBF" stroke="#17AEBF" stroke-width="0.1"/>
</svg>
