<svg width="32" height="27" viewBox="0 0 32 27" fill="none" xmlns="http://www.w3.org/2000/svg">
<path d="M30.9605 4.75504L30.96 4.74631C30.9416 4.42944 30.8335 4.16974 30.6488 3.98825C30.4646 3.80721 30.2172 3.71693 29.944 3.71446C29.9429 3.7144 29.9414 3.71434 29.9397 3.71429C29.9381 3.71424 29.9364 3.71421 29.9345 3.71421H22.1441V2.98842C22.1441 1.4569 20.8983 0.211084 19.3668 0.211084H12.3605C10.829 0.211084 9.58318 1.4569 9.58318 2.98842V3.71421H1.79277C1.22105 3.71421 0.766992 4.18221 0.766992 4.73999V24.0072C0.766992 25.5387 2.0128 26.7845 3.54433 26.7845H28.183C29.7145 26.7845 30.9603 25.5387 30.9603 24.0072V4.75846V4.75844V4.75842V4.7584V4.75838V4.75836V4.75834V4.75832V4.7583V4.75828V4.75826V4.75824V4.75822V4.7582V4.75818V4.75816V4.75814V4.75812V4.7581V4.75808V4.75806V4.75804V4.75802V4.758V4.75798V4.75796V4.75794V4.75792V4.7579V4.75788V4.75786V4.75784V4.75782V4.7578V4.75778V4.75776V4.75774V4.75772V4.7577V4.75768V4.75766V4.75764V4.75762V4.7576V4.75758V4.75756V4.75754V4.75752V4.7575V4.75748V4.75746V4.75744V4.75742V4.7574V4.75738V4.75736V4.75734V4.75732V4.7573V4.75728V4.75726V4.75724V4.75722V4.7572V4.75718V4.75716V4.75714V4.75712V4.7571V4.75708V4.75706V4.75704V4.75702V4.757V4.75698V4.75696V4.75694V4.75692V4.7569V4.75688V4.75686V4.75684V4.75682V4.7568V4.75678V4.75676V4.75673V4.75671V4.75669V4.75667V4.75665V4.75663V4.75661V4.75659V4.75657V4.75655V4.75653V4.75651V4.75649V4.75647V4.75645V4.75643V4.75641V4.75639V4.75637V4.75635V4.75633V4.75631V4.75629V4.75627V4.75625V4.75623V4.75621V4.75619V4.75617V4.75615V4.75613V4.75611V4.75609V4.75607V4.75605V4.75603V4.75601V4.75599V4.75597V4.75595V4.75593V4.75591V4.75589V4.75587V4.75585V4.75583V4.75581V4.75579V4.75577V4.75575V4.75573V4.75571V4.75569V4.75567V4.75565V4.75563V4.75561V4.75559V4.75557V4.75555V4.75553V4.75551V4.75549V4.75547V4.75545V4.75543V4.75541V4.75539V4.75537V4.75535V4.75533V4.75531V4.75529V4.75527V4.75525V4.75523V4.75521V4.75519V4.75517V4.75515V4.75513V4.75511V4.75509V4.75507V4.75505L30.8103 4.75504H30.9605ZM29.94 3.71443C29.9403 3.71443 29.9407 3.71443 29.941 3.71443H29.94ZM3.21603 5.76577H28.5113L25.8574 13.7272L25.8573 13.7273C25.7585 14.0243 25.4819 14.2236 25.169 14.2236H20.3925V13.4978C20.3925 12.9312 19.9333 12.472 19.3668 12.472H12.3605C11.7939 12.472 11.3347 12.9312 11.3347 13.4978V14.2236H6.55825C6.24536 14.2236 5.96882 14.0243 5.86995 13.7273L5.86993 13.7272L3.21603 5.76577ZM11.6347 2.98842C11.6347 2.58845 11.9605 2.26264 12.3605 2.26264H19.3668C19.7667 2.26264 20.0925 2.58845 20.0925 2.98842V3.71421H11.6347V2.98842ZM18.341 14.5236V15.9751H13.3863V14.5236H18.341ZM28.9087 24.0072C28.9087 24.4071 28.5829 24.7329 28.183 24.7329H3.54433C3.14436 24.7329 2.81855 24.4071 2.81855 24.0072V11.061L3.92362 14.3761C3.92362 14.3761 3.92362 14.3761 3.92362 14.3761C4.30211 15.512 5.36112 16.2751 6.55825 16.2751H11.3347V17.0009C11.3347 17.5675 11.7939 18.0267 12.3605 18.0267H19.3668C19.9333 18.0267 20.3925 17.5675 20.3925 17.0009V16.2751H25.169C26.3662 16.2751 27.4252 15.512 27.8037 14.3761L28.9087 11.061V24.0072Z" fill="#17AEBF" stroke="#17AEBF" stroke-width="0.3"/>
</svg>
