<?xml version="1.0" encoding="utf-8"?>
<!-- Generator: Adobe Illustrator 22.0.1, SVG Export Plug-In . SVG Version: 6.00 Build 0)  -->
<svg version="1.1" id="Calque_1" xmlns="http://www.w3.org/2000/svg" xmlns:xlink="http://www.w3.org/1999/xlink" x="0px" y="0px"
	 viewBox="0 0 29 28" style="enable-background:new 0 0 29 28;" xml:space="preserve">
<style type="text/css">
	.st0{fill:#FFFFFF;}
	.st1{fill:#131A40;stroke:#131A40;stroke-width:0.3;}
</style>
<circle class="st0" cx="14.5" cy="14" r="14"/>
<path class="st1" d="M19,8.7c-0.7-0.6-1.7-0.6-2.4,0l-0.6,0.6l-6.4,6.1l0,0c0,0,0,0,0,0c0,0,0,0,0,0c0,0,0,0,0,0c0,0,0,0,0,0
	c0,0,0,0,0,0c0,0,0,0,0,0c0,0,0,0,0,0l-1.4,4c0,0.1,0,0.2,0.1,0.3c0.1,0.1,0.2,0.1,0.2,0.1c0,0,0.1,0,0.1,0l4.3-1.3c0,0,0,0,0,0
	c0,0,0,0,0,0c0,0,0,0,0,0c0,0,0,0,0,0c0,0,0,0,0,0c0,0,0,0,0,0c0,0,0,0,0,0l7-6.6c0.7-0.6,0.7-1.6,0-2.3L19,8.7z M12.6,17.8
	l-2.4-2.2l6-5.6l2.4,2.2L12.6,17.8z M9.9,16.2l2.1,2l-3.1,1L9.9,16.2z M19.4,11.4L19,11.8l-2.4-2.2L17,9.2c0.4-0.4,1-0.4,1.4,0
	l0.9,0.9C19.8,10.4,19.8,11,19.4,11.4z"/>
</svg>
