<svg width="33" height="33" viewBox="0 0 33 33" fill="none" xmlns="http://www.w3.org/2000/svg">
<path fill-rule="evenodd" clip-rule="evenodd" d="M2.95221 14.5262H14.1453V3.33317C14.1453 2.03988 15.1936 0.991501 16.4869 0.991501C17.7802 0.991501 18.8286 2.03988 18.8286 3.33317V14.5262H30.0216C31.3149 14.5262 32.3633 15.5746 32.3633 16.8679C32.3633 18.1612 31.3149 19.2095 30.0216 19.2095H18.8286V30.4026C18.8286 31.6959 17.7802 32.7442 16.4869 32.7442C15.1936 32.7442 14.1453 31.6959 14.1453 30.4026V19.2095H2.95221C1.65893 19.2095 0.610546 18.1612 0.610546 16.8679C0.610546 15.5746 1.65893 14.5262 2.95221 14.5262ZM2.94826 15.7209C2.94942 15.7209 2.95058 15.7209 2.95173 15.7209H15.3394L2.95221 15.7209C2.9509 15.7209 2.94958 15.7209 2.94826 15.7209ZM17.6339 30.4026C17.6339 31.0262 17.1363 31.5335 16.5165 31.5492C17.1361 31.5333 17.6334 31.026 17.6334 30.4026V18.0149L17.6339 18.0149V30.4026Z" fill="#131A40" fill-opacity="0.4"/>
</svg>
