<svg width="78" height="77" viewBox="0 0 78 77" fill="none" xmlns="http://www.w3.org/2000/svg">
<path d="M30.0317 59.1391C28.7952 59.1391 27.7887 58.1468 27.7887 56.9276C27.7887 55.7062 26.7846 54.7162 25.5457 54.7162C24.3068 54.7162 23.3027 55.7062 23.3027 56.9276C23.3027 59.8192 25.1894 62.2828 27.8127 63.1893V65.1254C27.8127 66.3469 28.8168 67.3369 30.0557 67.3369C31.2946 67.3369 32.2987 66.3469 32.2987 65.1254V63.1732C34.8969 62.2541 36.7608 59.8019 36.7608 56.9276C36.7608 53.2696 33.7421 50.2934 30.0317 50.2934C28.7952 50.2934 27.7887 49.3011 27.7887 48.082C27.7887 46.8622 28.7952 45.8705 30.0317 45.8705C31.2683 45.8705 32.2748 46.8622 32.2748 48.082C32.2748 49.3034 33.2789 50.2934 34.5178 50.2934C35.7567 50.2934 36.7608 49.3034 36.7608 48.082C36.7608 45.2077 34.8969 42.7555 32.2987 41.8358V38.5884C32.2987 37.3669 31.2946 36.377 30.0557 36.377C28.8168 36.377 27.8127 37.3669 27.8127 38.5884V41.8197C25.1894 42.7262 23.3027 45.1898 23.3027 48.082C23.3027 51.74 26.3214 54.7162 30.0317 54.7162C31.2683 54.7162 32.2748 55.7079 32.2748 56.9276C32.2748 58.1468 31.2683 59.1391 30.0317 59.1391Z" fill="#131A40"/>
<path d="M9.88968 72.5711C14.5574 75.0348 20.9657 76.1825 30.0558 76.1825C37.4519 76.1825 43.0185 75.427 47.3433 73.8202C48.5787 75.2634 50.4251 76.1825 52.4859 76.1825H70.5795C74.2898 76.1825 77.3085 73.2063 77.3085 69.5483C77.3085 67.8506 76.6572 66.3003 75.5895 65.1254C76.6578 63.9506 77.3085 62.4003 77.3085 60.7026C77.3085 59.0049 76.6572 57.4546 75.5895 56.2798C76.6578 55.1049 77.3085 53.5546 77.3085 51.8569C77.3085 50.1592 76.6572 48.6089 75.5895 47.4341C76.6578 46.2593 77.3085 44.709 77.3085 43.0112C77.3085 39.3532 74.2898 36.377 70.5795 36.377H52.4859C52.2674 36.377 52.0513 36.3879 51.8381 36.4087C49.5869 33.7204 46.949 31.4664 44.0424 29.7375C45.1073 28.5639 45.7568 27.0153 45.7568 25.3199C45.7568 22.6771 44.1809 20.3908 41.9069 19.3249L45.6464 8.01955C45.869 7.34576 45.751 6.60804 45.3293 6.03503C44.9069 5.46144 44.2323 5.12224 43.5138 5.12224H36.3993C35.4729 2.54801 32.9798 0.699402 30.0558 0.699402C27.1311 0.699402 24.6369 2.54801 23.7111 5.12224H16.5977C15.8792 5.12224 15.2046 5.46144 14.7822 6.03503C14.3605 6.60804 14.2425 7.34576 14.4651 8.01955L18.2046 19.3249C15.9306 20.3908 14.3547 22.6771 14.3547 25.3199C14.3547 27.0165 15.0048 28.5662 16.0714 29.7404C7.0719 35.0956 0.74707 45.2664 0.74707 56.2798C0.74707 63.8879 3.82303 69.3686 9.88968 72.5711ZM72.8225 51.8569C72.8225 53.0761 71.8161 54.0683 70.5795 54.0683H52.4859C51.2493 54.0683 50.2429 53.0761 50.2429 51.8569C50.2429 50.6378 51.2493 49.6455 52.4859 49.6455H70.5795C71.8161 49.6455 72.8225 50.6378 72.8225 51.8569ZM72.8225 60.7026C72.8225 61.9218 71.8161 62.914 70.5795 62.914H52.4859C51.2493 62.914 50.2429 61.9218 50.2429 60.7026C50.2429 59.4834 51.2493 58.4912 52.4859 58.4912H70.5795C71.8161 58.4912 72.8225 59.4834 72.8225 60.7026ZM70.5795 71.7597H52.4859C51.2493 71.7597 50.2429 70.7674 50.2429 69.5483C50.2429 68.3291 51.2493 67.3369 52.4859 67.3369H70.5795C71.8161 67.3369 72.8225 68.3291 72.8225 69.5483C72.8225 70.7674 71.8161 71.7597 70.5795 71.7597ZM72.8225 43.0112C72.8225 44.2304 71.8161 45.2227 70.5795 45.2227H52.4859C51.2493 45.2227 50.2429 44.2304 50.2429 43.0112C50.2429 41.7921 51.2493 40.7998 52.4859 40.7998H70.5795C71.8161 40.7998 72.8225 41.7921 72.8225 43.0112ZM38.9636 27.5313H21.1485C21.1287 27.5307 21.1088 27.5313 21.089 27.5313H21.0837C19.8471 27.5313 18.8407 26.539 18.8407 25.3199C18.8407 24.103 19.843 23.1125 21.0767 23.109H21.0831C21.0884 23.109 21.0936 23.1085 21.0989 23.1085H39.012C39.0173 23.1085 39.0231 23.109 39.0284 23.109H39.0348C40.2685 23.1125 41.2708 24.103 41.2708 25.3199C41.2708 26.539 40.2644 27.5313 39.0278 27.5313H39.0208C39.0021 27.5313 38.9828 27.5307 38.9636 27.5313ZM25.5697 9.54508C26.8086 9.54508 27.8127 8.55513 27.8127 7.33366C27.8127 6.1145 28.8192 5.12224 30.0558 5.12224C31.2923 5.12224 32.2988 6.1145 32.2988 7.33366V11.7565C32.2988 12.978 33.3029 13.9679 34.5418 13.9679C35.7807 13.9679 36.7848 12.978 36.7848 11.7565V9.54508H40.4233L37.3999 18.6856H22.7116L19.6883 9.54508H25.5697ZM21.5212 31.9541H38.5815C41.9782 33.353 45.074 35.5558 47.6558 38.3989C46.4817 39.5939 45.7568 41.2202 45.7568 43.0112C45.7568 44.709 46.4081 46.2593 47.4759 47.4341C46.4081 48.6089 45.7568 50.1592 45.7568 51.8569C45.7568 53.5546 46.4081 55.1049 47.4759 56.2798C46.4081 57.4546 45.7568 59.0049 45.7568 60.7026C45.7568 62.4003 46.4081 63.9506 47.4759 65.1254C46.4081 66.3003 45.7568 67.8506 45.7568 69.5483C45.7568 69.5938 45.7592 69.6387 45.7603 69.6836C41.9659 71.0963 36.9121 71.7597 30.0558 71.7597C21.7332 71.7597 15.9978 70.7784 12.0071 68.6718C7.38557 66.2323 5.23309 62.2949 5.23309 56.2798C5.23309 45.8492 11.9107 35.9094 21.5212 31.9541Z" fill="#131A40"/>
<path d="M30.0317 59.1391C28.7952 59.1391 27.7887 58.1468 27.7887 56.9276C27.7887 55.7062 26.7846 54.7162 25.5457 54.7162C24.3068 54.7162 23.3027 55.7062 23.3027 56.9276C23.3027 59.8192 25.1894 62.2828 27.8127 63.1893V65.1254C27.8127 66.3469 28.8168 67.3369 30.0557 67.3369C31.2946 67.3369 32.2987 66.3469 32.2987 65.1254V63.1732C34.8969 62.2541 36.7608 59.8019 36.7608 56.9276C36.7608 53.2696 33.7421 50.2934 30.0317 50.2934C28.7952 50.2934 27.7887 49.3011 27.7887 48.082C27.7887 46.8622 28.7952 45.8705 30.0317 45.8705C31.2683 45.8705 32.2748 46.8622 32.2748 48.082C32.2748 49.3034 33.2789 50.2934 34.5178 50.2934C35.7567 50.2934 36.7608 49.3034 36.7608 48.082C36.7608 45.2077 34.8969 42.7555 32.2987 41.8358V38.5884C32.2987 37.3669 31.2946 36.377 30.0557 36.377C28.8168 36.377 27.8127 37.3669 27.8127 38.5884V41.8197C25.1894 42.7262 23.3027 45.1898 23.3027 48.082C23.3027 51.74 26.3214 54.7162 30.0317 54.7162C31.2683 54.7162 32.2748 55.7079 32.2748 56.9276C32.2748 58.1468 31.2683 59.1391 30.0317 59.1391Z" stroke="#131A40" stroke-width="0.7"/>
<path d="M9.88968 72.5711C14.5574 75.0348 20.9657 76.1825 30.0558 76.1825C37.4519 76.1825 43.0185 75.427 47.3433 73.8202C48.5787 75.2634 50.4251 76.1825 52.4859 76.1825H70.5795C74.2898 76.1825 77.3085 73.2063 77.3085 69.5483C77.3085 67.8506 76.6572 66.3003 75.5895 65.1254C76.6578 63.9506 77.3085 62.4003 77.3085 60.7026C77.3085 59.0049 76.6572 57.4546 75.5895 56.2798C76.6578 55.1049 77.3085 53.5546 77.3085 51.8569C77.3085 50.1592 76.6572 48.6089 75.5895 47.4341C76.6578 46.2593 77.3085 44.709 77.3085 43.0112C77.3085 39.3532 74.2898 36.377 70.5795 36.377H52.4859C52.2674 36.377 52.0513 36.3879 51.8381 36.4087C49.5869 33.7204 46.949 31.4664 44.0424 29.7375C45.1073 28.5639 45.7568 27.0153 45.7568 25.3199C45.7568 22.6771 44.1809 20.3908 41.9069 19.3249L45.6464 8.01955C45.869 7.34576 45.751 6.60804 45.3293 6.03503C44.9069 5.46144 44.2323 5.12224 43.5138 5.12224H36.3993C35.4729 2.54801 32.9798 0.699402 30.0558 0.699402C27.1311 0.699402 24.6369 2.54801 23.7111 5.12224H16.5977C15.8792 5.12224 15.2046 5.46144 14.7822 6.03503C14.3605 6.60804 14.2425 7.34576 14.4651 8.01955L18.2046 19.3249C15.9306 20.3908 14.3547 22.6771 14.3547 25.3199C14.3547 27.0165 15.0048 28.5662 16.0714 29.7404C7.0719 35.0956 0.74707 45.2664 0.74707 56.2798C0.74707 63.8879 3.82303 69.3686 9.88968 72.5711ZM72.8225 51.8569C72.8225 53.0761 71.8161 54.0683 70.5795 54.0683H52.4859C51.2493 54.0683 50.2429 53.0761 50.2429 51.8569C50.2429 50.6378 51.2493 49.6455 52.4859 49.6455H70.5795C71.8161 49.6455 72.8225 50.6378 72.8225 51.8569ZM72.8225 60.7026C72.8225 61.9218 71.8161 62.914 70.5795 62.914H52.4859C51.2493 62.914 50.2429 61.9218 50.2429 60.7026C50.2429 59.4834 51.2493 58.4912 52.4859 58.4912H70.5795C71.8161 58.4912 72.8225 59.4834 72.8225 60.7026ZM70.5795 71.7597H52.4859C51.2493 71.7597 50.2429 70.7674 50.2429 69.5483C50.2429 68.3291 51.2493 67.3369 52.4859 67.3369H70.5795C71.8161 67.3369 72.8225 68.3291 72.8225 69.5483C72.8225 70.7674 71.8161 71.7597 70.5795 71.7597ZM72.8225 43.0112C72.8225 44.2304 71.8161 45.2227 70.5795 45.2227H52.4859C51.2493 45.2227 50.2429 44.2304 50.2429 43.0112C50.2429 41.7921 51.2493 40.7998 52.4859 40.7998H70.5795C71.8161 40.7998 72.8225 41.7921 72.8225 43.0112ZM38.9636 27.5313H21.1485C21.1287 27.5307 21.1088 27.5313 21.089 27.5313H21.0837C19.8471 27.5313 18.8407 26.539 18.8407 25.3199C18.8407 24.103 19.843 23.1125 21.0767 23.109H21.0831C21.0884 23.109 21.0936 23.1085 21.0989 23.1085H39.012C39.0173 23.1085 39.0231 23.109 39.0284 23.109H39.0348C40.2685 23.1125 41.2708 24.103 41.2708 25.3199C41.2708 26.539 40.2644 27.5313 39.0278 27.5313H39.0208C39.0021 27.5313 38.9828 27.5307 38.9636 27.5313ZM25.5697 9.54508C26.8086 9.54508 27.8127 8.55513 27.8127 7.33366C27.8127 6.1145 28.8192 5.12224 30.0558 5.12224C31.2923 5.12224 32.2988 6.1145 32.2988 7.33366V11.7565C32.2988 12.978 33.3029 13.9679 34.5418 13.9679C35.7807 13.9679 36.7848 12.978 36.7848 11.7565V9.54508H40.4233L37.3999 18.6856H22.7116L19.6883 9.54508H25.5697ZM21.5212 31.9541H38.5815C41.9782 33.353 45.074 35.5558 47.6558 38.3989C46.4817 39.5939 45.7568 41.2202 45.7568 43.0112C45.7568 44.709 46.4081 46.2593 47.4759 47.4341C46.4081 48.6089 45.7568 50.1592 45.7568 51.8569C45.7568 53.5546 46.4081 55.1049 47.4759 56.2798C46.4081 57.4546 45.7568 59.0049 45.7568 60.7026C45.7568 62.4003 46.4081 63.9506 47.4759 65.1254C46.4081 66.3003 45.7568 67.8506 45.7568 69.5483C45.7568 69.5938 45.7592 69.6387 45.7603 69.6836C41.9659 71.0963 36.9121 71.7597 30.0558 71.7597C21.7332 71.7597 15.9978 70.7784 12.0071 68.6718C7.38557 66.2323 5.23309 62.2949 5.23309 56.2798C5.23309 45.8492 11.9107 35.9094 21.5212 31.9541Z" stroke="#131A40" stroke-width="0.7"/>
</svg>
