<svg width="29" height="22" viewBox="0 0 29 22" fill="none" xmlns="http://www.w3.org/2000/svg">
<path d="M27.5542 0.753418L22.0414 0.761478C21.5981 0.753418 21.2355 1.1161 21.2274 1.55937C21.2193 2.00265 21.582 2.36533 22.0253 2.37339C22.0334 2.37339 22.0334 2.37339 22.0414 2.37339L25.6118 2.36533L16.8672 11.0777L13.8126 8.04732C13.6595 7.90225 13.4499 7.82971 13.2404 7.83777C13.0308 7.82971 12.8213 7.90225 12.6682 8.04732L0.804102 19.9116C0.489779 20.226 0.489779 20.7337 0.804102 21.04C0.957233 21.1931 1.15872 21.2737 1.37633 21.2737C1.59394 21.2737 1.79543 21.1931 1.94856 21.04L13.2484 9.73983L16.303 12.8186C16.4481 12.9798 16.6576 13.0684 16.8752 13.0765C17.0929 13.0684 17.2943 12.9717 17.4475 12.8186L26.7482 3.50979L26.7401 7.09629C26.7401 7.54763 27.0948 7.91031 27.5461 7.92643C27.9974 7.91837 28.352 7.54763 28.352 7.09629L28.3601 1.56743C28.3601 1.12416 27.9974 0.753418 27.5542 0.753418Z" fill="#17AEBF" stroke="#17AEBF"/>
</svg>
