<svg width="41" height="41" viewBox="0 0 41 41" fill="none" xmlns="http://www.w3.org/2000/svg">
<path fill-rule="evenodd" clip-rule="evenodd" d="M7.6515 2.00358L20.9016 15.2537L34.1518 2.00357C35.6827 0.472605 38.1649 0.472604 39.6958 2.00357C41.2268 3.53454 41.2268 6.01665 39.6958 7.54762L26.4457 20.7978L39.6958 34.0479C41.2268 35.5789 41.2268 38.061 39.6958 39.5919C38.1649 41.1229 35.6827 41.1229 34.1518 39.5919L20.9016 26.3418L7.6515 39.5919C6.12054 41.1229 3.63842 41.1229 2.10746 39.5919C0.576489 38.061 0.57649 35.5789 2.10746 34.0479L15.3576 20.7978L2.10746 7.54762C0.576487 6.01666 0.576486 3.53454 2.10745 2.00357C3.63842 0.472607 6.12053 0.472608 7.6515 2.00358Z" fill="#131A40"/>
</svg>
