<svg width="125" height="154" viewBox="0 0 125 154" fill="none" xmlns="http://www.w3.org/2000/svg">
<mask id="mask0" mask-type="alpha" maskUnits="userSpaceOnUse" x="0" y="0" width="125" height="154">
<path d="M0.371094 15.4199C0.371094 7.13564 7.08682 0.419922 15.3711 0.419922H109.189C117.473 0.419922 124.189 7.13565 124.189 15.4199V138.204C124.189 146.489 117.473 153.204 109.189 153.204H15.3711C7.08683 153.204 0.371094 146.489 0.371094 138.204V15.4199Z" fill="#17AEBF"/>
</mask>
<g mask="url(#mask0)">
<path d="M87.5811 102.252C92.5036 106.147 103.918 112.943 107.148 113.829C110.517 114.752 136.293 117.998 140.794 118.561C142.225 119.593 143.953 120.133 145.717 120.099C149.504 120.099 152.578 117.823 152.578 115.014C152.578 112.205 149.501 109.925 145.72 109.925C144.395 109.914 143.085 110.209 141.893 110.786C129.3 108.759 115.126 103.378 111.806 102.48C109.305 99.5476 104.306 95.4403 101.057 92.8467" stroke="#F6F7F9" stroke-linecap="round" stroke-linejoin="round"/>
<path d="M15.8945 87.2688C24.5891 100.255 36.0864 114.675 39.7383 114.675C41.3013 114.675 45.6793 111.066 49.1866 107.664" stroke="#F6F7F9" stroke-linecap="round" stroke-linejoin="round"/>
<path d="M42.8799 94.2587C41.6277 95.7816 40.0955 97.7691 39.5664 98.7106C37.5819 96.9846 4.34827 66.4276 3.56989 66.4276C3.21967 66.4327 2.88394 66.5682 2.62843 66.8078C2.37292 67.0474 2.21603 67.3737 2.18848 67.7229C2.18848 71.7594 5.12049 71.9717 8.77244 75.8205" stroke="#F6F7F9" stroke-linecap="round" stroke-linejoin="round"/>
<path d="M60.0692 75.753C52.3592 71.8642 40.5203 88.401 40.7665 91.2038C40.9295 93.0498 45.7598 97.2125 50.4148 99.6369" stroke="#F6F7F9" stroke-linecap="round" stroke-linejoin="round"/>
<path d="M89.9989 104.039C91.8264 120.346 90.4573 136.769 88.4606 138.375C83.4303 142.442 50.7812 138.682 48.9691 136.461C47.2154 134.307 45.9171 74.7531 68.6595 70.652" stroke="#F6F7F9" stroke-linecap="round" stroke-linejoin="round"/>
<path d="M74.8281 71.0272C77.5971 71.9748 79.9107 73.9992 81.8582 76.7805" stroke="#F6F7F9" stroke-linecap="round" stroke-linejoin="round"/>
<path d="M79.1963 79.5773C79.7152 78.4864 80.5405 77.5702 81.5714 76.9406C89.263 72.2918 101.502 89.3332 101.262 92.1791C101.022 95.025 89.7368 103.316 85.0142 102.397C84.0481 102.209 82.5529 100.126 81.2299 97.2032" stroke="#F6F7F9" stroke-linecap="round" stroke-linejoin="round"/>
<path d="M8.77644 75.8206C7.57508 76.8936 6.79083 78.3561 6.56175 79.9506C6.33267 81.545 6.67346 83.1692 7.52411 84.5371C8.37477 85.9049 9.68075 86.9289 11.2121 87.4285C12.7435 87.9282 14.402 87.8716 15.8957 87.2687" stroke="#F6F7F9" stroke-linecap="round" stroke-linejoin="round"/>
<path d="M74.8277 62.1943C74.8277 62.1943 74.5846 73.0856 74.6092 74.627C74.6092 75.5653 71.2772 76.0945 68.6621 75.8822" stroke="#F6F7F9" stroke-linecap="round" stroke-linejoin="round"/>
<path d="M68.7131 67.9999C68.3208 68.0658 67.9232 68.0947 67.5255 68.086C62.5691 67.9999 58.6464 62.342 58.7664 55.4473C58.7819 52.7621 59.4852 50.1257 60.8092 47.7896" stroke="#F6F7F9" stroke-linecap="round" stroke-linejoin="round"/>
<path d="M75.7869 53.6906C76.2387 53.7038 76.6811 53.8228 77.0784 54.0381C77.4758 54.2533 77.8172 54.5588 78.075 54.93C78.3329 55.3012 78.5001 55.7277 78.5631 56.1752C78.6262 56.6227 78.5834 57.0788 78.4381 57.5068C78.2928 57.9348 78.0492 58.3227 77.7268 58.6394C77.4043 58.956 77.0121 59.1927 76.5816 59.3302C76.151 59.4677 75.6943 59.5023 75.2479 59.4312C74.8016 59.3601 74.3782 59.1853 74.0117 58.9208" stroke="#F6F7F9" stroke-linecap="round" stroke-linejoin="round"/>
<path d="M79.347 55.2719C80.8853 54.1489 81.1192 46.365 77.2734 43.8361C73.5261 41.3748 63.1394 40.9102 58.1553 34.6216" stroke="#F6F7F9" stroke-linecap="round" stroke-linejoin="round"/>
<path d="M60.5115 43.2885C59.3916 42.5071 55.8965 37.9044 55.3027 36.6492" stroke="#F6F7F9" stroke-linecap="round" stroke-linejoin="round"/>
<path d="M57.1705 45.1651C55.9399 43.8976 55.0569 41.6885 54.6631 40.1841" stroke="#F6F7F9" stroke-linecap="round" stroke-linejoin="round"/>
<path d="M65.7929 54.8822C66.1648 54.8192 66.4074 54.4205 66.3348 53.9916C66.2622 53.5627 65.9018 53.2661 65.5299 53.3291C65.158 53.3921 64.9153 53.7908 64.9879 54.2197C65.0605 54.6486 65.4209 54.9452 65.7929 54.8822Z" fill="#F6F7F9"/>
<path d="M62.7091 53.2043C62.7091 54.0566 62.2476 56.4009 61.3369 58.4746" stroke="#F6F7F9" stroke-linecap="round" stroke-linejoin="round"/>
<path d="M64.5459 61.9082C64.8941 61.8209 65.215 61.648 65.4794 61.4051C65.7437 61.1623 65.9432 60.8572 66.0596 60.5176" stroke="#F6F7F9" stroke-linecap="round" stroke-linejoin="round"/>
<path d="M48.9775 136.461V203.257H87.0538V139.104C79.0946 141.928 50.6635 138.525 48.9775 136.461Z" fill="#F6F7F9"/>
<path d="M107.147 113.829C110.516 114.752 136.292 117.998 140.793 118.561" stroke="#F6F7F9" stroke-linecap="round" stroke-linejoin="round"/>
</g>
</svg>
