<svg width="27" height="36" viewBox="0 0 27 36" fill="none" xmlns="http://www.w3.org/2000/svg">
<path d="M13.0183 14.2163C12.5975 13.7956 11.9135 13.7934 11.4906 14.2142L7.93897 17.768L6.54507 16.3719C6.12432 15.9511 5.44031 15.9511 5.01955 16.3719C4.5988 16.7927 4.5988 17.4767 5.01955 17.8974L7.17729 20.0552C7.38659 20.2666 7.66278 20.3723 7.93897 20.3723C8.21516 20.3723 8.49135 20.2666 8.70281 20.0573L13.0183 15.7418C13.439 15.3211 13.439 14.6371 13.0183 14.2163Z" fill="#131A40"/>
<path d="M13.0183 22.8471C12.5975 22.4264 11.9135 22.4242 11.4906 22.845L7.93897 26.3988L6.54507 25.0049C6.12432 24.5841 5.44031 24.5841 5.01955 25.0049C4.5988 25.4256 4.5988 26.1096 5.01955 26.5304L7.17729 28.6881C7.38659 28.8974 7.66278 29.0032 7.93897 29.0032C8.21516 29.0032 8.49135 28.8974 8.70281 28.6881L13.0183 24.3727C13.439 23.9519 13.439 23.2679 13.0183 22.8471Z" fill="#131A40"/>
<path d="M20.8849 16.0568H16.5695C15.9739 16.0568 15.4906 16.5401 15.4906 17.1356C15.4906 17.7312 15.9739 18.2145 16.5695 18.2145H20.8849C21.4805 18.2145 21.9638 17.7312 21.9638 17.1356C21.9638 16.5401 21.4805 16.0568 20.8849 16.0568Z" fill="#131A40"/>
<path d="M20.8849 24.6877H16.5695C15.9739 24.6877 15.4906 25.171 15.4906 25.7666C15.4906 26.3621 15.9739 26.8454 16.5695 26.8454H20.8849C21.4805 26.8454 21.9638 26.3621 21.9638 25.7666C21.9638 25.171 21.4805 24.6877 20.8849 24.6877Z" fill="#131A40"/>
<path d="M24.1215 5.26811H19.8061V4.18924C19.8061 3.5937 19.3228 3.11037 18.7272 3.11037H16.3861C15.9394 1.85457 14.7397 0.952637 13.3329 0.952637C11.926 0.952637 10.7263 1.85457 10.2797 3.11037H7.93854C7.34301 3.11037 6.85968 3.5937 6.85968 4.18924V5.26811H2.54421C1.3553 5.26811 0.386475 6.23693 0.386475 7.42584V33.3186C0.386475 34.5076 1.3553 35.4764 2.54421 35.4764H24.1215C25.3105 35.4764 26.2793 34.5076 26.2793 33.3186V7.42584C26.2793 6.23693 25.3105 5.26811 24.1215 5.26811ZM9.01741 5.26811H11.1751C11.7707 5.26811 12.254 4.78477 12.254 4.18924C12.254 3.5937 12.7373 3.11037 13.3329 3.11037C13.9284 3.11037 14.4117 3.5937 14.4117 4.18924C14.4117 4.78477 14.8951 5.26811 15.4906 5.26811H17.6483V7.42584H9.01741V5.26811ZM24.1215 33.3186H2.54421V7.42584H6.85968V8.50471C6.85968 9.10024 7.34301 9.58357 7.93854 9.58357H18.7272C19.3228 9.58357 19.8061 9.10024 19.8061 8.50471V7.42584H24.1215V33.3186Z" fill="#131A40"/>
<path d="M13.0183 14.2163C12.5975 13.7956 11.9135 13.7934 11.4906 14.2142L7.93897 17.768L6.54507 16.3719C6.12432 15.9511 5.44031 15.9511 5.01955 16.3719C4.5988 16.7927 4.5988 17.4767 5.01955 17.8974L7.17729 20.0552C7.38659 20.2666 7.66278 20.3723 7.93897 20.3723C8.21516 20.3723 8.49135 20.2666 8.70281 20.0573L13.0183 15.7418C13.439 15.3211 13.439 14.6371 13.0183 14.2163Z" stroke="#131A40" stroke-width="0.6"/>
<path d="M13.0183 22.8471C12.5975 22.4264 11.9135 22.4242 11.4906 22.845L7.93897 26.3988L6.54507 25.0049C6.12432 24.5841 5.44031 24.5841 5.01955 25.0049C4.5988 25.4256 4.5988 26.1096 5.01955 26.5304L7.17729 28.6881C7.38659 28.8974 7.66278 29.0032 7.93897 29.0032C8.21516 29.0032 8.49135 28.8974 8.70281 28.6881L13.0183 24.3727C13.439 23.9519 13.439 23.2679 13.0183 22.8471Z" stroke="#131A40" stroke-width="0.6"/>
<path d="M20.8849 16.0568H16.5695C15.9739 16.0568 15.4906 16.5401 15.4906 17.1356C15.4906 17.7312 15.9739 18.2145 16.5695 18.2145H20.8849C21.4805 18.2145 21.9638 17.7312 21.9638 17.1356C21.9638 16.5401 21.4805 16.0568 20.8849 16.0568Z" stroke="#131A40" stroke-width="0.6"/>
<path d="M20.8849 24.6877H16.5695C15.9739 24.6877 15.4906 25.171 15.4906 25.7666C15.4906 26.3621 15.9739 26.8454 16.5695 26.8454H20.8849C21.4805 26.8454 21.9638 26.3621 21.9638 25.7666C21.9638 25.171 21.4805 24.6877 20.8849 24.6877Z" stroke="#131A40" stroke-width="0.6"/>
<path d="M24.1215 5.26811H19.8061V4.18924C19.8061 3.5937 19.3228 3.11037 18.7272 3.11037H16.3861C15.9394 1.85457 14.7397 0.952637 13.3329 0.952637C11.926 0.952637 10.7263 1.85457 10.2797 3.11037H7.93854C7.34301 3.11037 6.85968 3.5937 6.85968 4.18924V5.26811H2.54421C1.3553 5.26811 0.386475 6.23693 0.386475 7.42584V33.3186C0.386475 34.5076 1.3553 35.4764 2.54421 35.4764H24.1215C25.3105 35.4764 26.2793 34.5076 26.2793 33.3186V7.42584C26.2793 6.23693 25.3105 5.26811 24.1215 5.26811ZM9.01741 5.26811H11.1751C11.7707 5.26811 12.254 4.78477 12.254 4.18924C12.254 3.5937 12.7373 3.11037 13.3329 3.11037C13.9284 3.11037 14.4117 3.5937 14.4117 4.18924C14.4117 4.78477 14.8951 5.26811 15.4906 5.26811H17.6483V7.42584H9.01741V5.26811ZM24.1215 33.3186H2.54421V7.42584H6.85968V8.50471C6.85968 9.10024 7.34301 9.58357 7.93854 9.58357H18.7272C19.3228 9.58357 19.8061 9.10024 19.8061 8.50471V7.42584H24.1215V33.3186Z" stroke="#131A40" stroke-width="0.6"/>
</svg>
