<svg width="35" height="25" viewBox="0 0 35 25" fill="none" xmlns="http://www.w3.org/2000/svg">
<path d="M17.2002 13.6603C15.8771 13.6453 14.701 12.8143 14.245 11.5722C13.6385 9.92016 14.486 8.08922 16.138 7.48265L17.2002 13.6603ZM17.2002 13.6603C17.7869 13.6603 18.2624 14.1358 18.2624 14.7225C18.2624 15.3091 17.7869 15.7847 17.2002 15.7847H15.0759C14.4892 15.7847 14.0137 16.2602 14.0137 16.8468C14.0137 17.4335 14.4892 17.909 15.0759 17.909H16.088L17.2002 13.6603ZM17.2008 11.4859H17.2002C16.6412 11.4859 16.188 11.0328 16.188 10.4738C16.188 9.91471 16.6412 9.46157 17.2002 9.46157H19.3246C19.9389 9.46157 20.4368 8.96366 20.4368 8.34939C20.4368 7.73512 19.9389 7.23721 19.3246 7.23721H18.3124V6.22502C18.3124 5.61075 17.8145 5.11284 17.2002 5.11284C16.5859 5.11284 16.088 5.61075 16.088 6.22502V7.44794C14.4317 8.07608 13.586 9.92242 14.198 11.5894C14.6612 12.851 15.8558 13.6951 17.1997 13.7103H17.2002C17.7593 13.7103 18.2124 14.1634 18.2124 14.7225C18.2124 15.2815 17.7593 15.7347 17.2002 15.7347H15.0759C14.4616 15.7347 13.9637 16.2326 13.9637 16.8468C13.9637 17.4611 14.4616 17.959 15.0759 17.959H16.088V18.9712C16.088 19.5855 16.5859 20.0834 17.2002 20.0834C17.8145 20.0834 18.3124 19.5855 18.3124 18.9712V17.7483C19.9688 17.1202 20.8144 15.2738 20.2024 13.6068C19.7392 12.3452 18.5446 11.5012 17.2008 11.4859Z" fill="#17AEBF" stroke="#17AEBF" stroke-width="0.1"/>
<path d="M2.33042 24.3322H32.0715C33.2724 24.3322 34.2459 23.3587 34.2459 22.1578V3.03855C34.2459 1.83769 33.2724 0.864185 32.0715 0.864185H2.33042C1.12956 0.864185 0.156055 1.83769 0.156055 3.03855V22.1578C0.156055 23.3587 1.12956 24.3322 2.33042 24.3322ZM32.0215 22.1078H2.38042V3.08855H32.0215V22.1078Z" fill="#17AEBF" stroke="#17AEBF" stroke-width="0.1"/>
<path d="M0.156055 8.34946C0.156055 8.96373 0.653966 9.46164 1.26824 9.46164C5.40225 9.46164 8.75351 6.11038 8.75351 1.97637C8.75351 1.3621 8.2556 0.864185 7.64133 0.864185C7.02706 0.864185 6.52915 1.3621 6.52915 1.97637C6.52915 4.8819 4.17377 7.23728 1.26824 7.23728C0.653966 7.23728 0.156055 7.73519 0.156055 8.34946Z" fill="#17AEBF" stroke="#17AEBF" stroke-width="0.1"/>
<path d="M25.6482 1.97624C25.6482 6.11026 28.9995 9.46152 33.1335 9.46152C33.7478 9.46152 34.2457 8.96361 34.2457 8.34934C34.2457 7.73507 33.7478 7.23716 33.1335 7.23716C30.228 7.23716 27.8726 4.88178 27.8726 1.97624C27.8726 1.36197 27.3747 0.864062 26.7604 0.864062C26.1462 0.864062 25.6482 1.36197 25.6482 1.97624Z" fill="#17AEBF" stroke="#17AEBF" stroke-width="0.1"/>
<path d="M6.52915 23.2199C6.52915 23.8342 7.02706 24.3321 7.64133 24.3321C8.2556 24.3321 8.75351 23.8342 8.75351 23.2199C8.75351 19.0859 5.40225 15.7347 1.26824 15.7347C0.653966 15.7347 0.156055 16.2326 0.156055 16.8469C0.156055 17.4611 0.653966 17.959 1.26824 17.959C4.17377 17.959 6.52915 20.3144 6.52915 23.2199Z" fill="#17AEBF" stroke="#17AEBF" stroke-width="0.1"/>
<path d="M25.6482 23.2199C25.6482 23.8342 26.1462 24.3321 26.7604 24.3321C27.3747 24.3321 27.8726 23.8342 27.8726 23.2199C27.8726 20.3144 30.228 17.959 33.1335 17.959C33.7478 17.959 34.2457 17.4611 34.2457 16.8469C34.2457 16.2326 33.7478 15.7347 33.1335 15.7347C28.9995 15.7347 25.6482 19.0859 25.6482 23.2199Z" fill="#17AEBF" stroke="#17AEBF" stroke-width="0.1"/>
<path d="M15.0759 17.9591H17.2002C18.9877 17.9591 20.4368 16.51 20.4368 14.7225C20.4368 12.935 18.9877 11.486 17.2002 11.486C16.6412 11.486 16.188 11.0328 16.188 10.4738C16.188 9.91474 16.6412 9.4616 17.2002 9.4616H19.3246C19.9389 9.4616 20.4368 8.96368 20.4368 8.34941C20.4368 7.73514 19.9389 7.23723 19.3246 7.23723H17.2002C15.4127 7.23723 13.9637 8.68626 13.9637 10.4738C13.9637 12.2613 15.4127 13.7103 17.2002 13.7103C17.7593 13.7103 18.2124 14.1635 18.2124 14.7225C18.2124 15.2815 17.7593 15.7347 17.2002 15.7347H15.0759C14.4616 15.7347 13.9637 16.2326 13.9637 16.8469C13.9637 17.4611 14.4616 17.9591 15.0759 17.9591Z" fill="#17AEBF" stroke="#17AEBF" stroke-width="0.1"/>
<path d="M16.0887 8.34939C16.0887 8.96366 16.5866 9.46157 17.2009 9.46157C17.8151 9.46157 18.313 8.96366 18.313 8.34939V6.22502C18.313 5.61075 17.8151 5.11284 17.2009 5.11284C16.5866 5.11284 16.0887 5.61075 16.0887 6.22502V8.34939Z" fill="#17AEBF" stroke="#17AEBF" stroke-width="0.1"/>
<path d="M16.0887 18.9712C16.0887 19.5855 16.5866 20.0834 17.2009 20.0834C17.8151 20.0834 18.313 19.5855 18.313 18.9712V16.8469C18.313 16.2326 17.8151 15.7347 17.2009 15.7347C16.5866 15.7347 16.0887 16.2326 16.0887 16.8469V18.9712Z" fill="#17AEBF" stroke="#17AEBF" stroke-width="0.1"/>
</svg>
