<svg width="94" height="78" viewBox="0 0 94 78" fill="none" xmlns="http://www.w3.org/2000/svg">
<path d="M79.6354 41.1326H70.5241C69.2841 41.1326 68.0835 41.3005 66.9409 41.6092C64.687 37.2188 60.0854 34.2021 54.7829 34.2021H38.6776C33.3752 34.2021 28.7735 37.2188 26.5196 41.6092C25.377 41.3005 24.1764 41.1326 22.9364 41.1326H13.8251C6.30696 41.1326 0.19043 47.1935 0.19043 54.6433V69.0761C0.19043 73.546 3.86035 77.1825 8.37126 77.1825H85.0893C89.6002 77.1825 93.2701 73.546 93.2701 69.0761V54.6433C93.2701 47.1935 87.1536 41.1326 79.6354 41.1326ZM25.0429 47.7132V71.7784H8.37126C6.86762 71.7784 5.64432 70.5662 5.64432 69.0763V54.6435C5.64432 50.1736 9.31424 46.5371 13.8251 46.5371H22.9364C23.6767 46.5371 24.3935 46.6367 25.076 46.8202C25.0563 47.1159 25.0429 47.4131 25.0429 47.7132ZM62.9638 71.7784H30.4968V47.713C30.4968 43.2431 34.1667 39.6066 38.6776 39.6066H54.7829C59.2939 39.6066 62.9638 43.2431 62.9638 47.713V71.7784ZM87.8162 69.0763C87.8162 70.5662 86.5929 71.7784 85.0893 71.7784H68.4177V47.713C68.4177 47.4127 68.4042 47.1155 68.3846 46.8201C69.067 46.6367 69.7839 46.5369 70.5241 46.5369H79.6354C84.1463 46.5369 87.8162 50.1734 87.8162 54.6433V69.0763Z" fill="#131A40"/>
<path d="M18.381 15.6156C11.7002 15.6156 6.265 21.0013 6.265 27.6214C6.26482 34.2415 11.7002 39.6273 18.381 39.6273C25.0616 39.6273 30.497 34.2415 30.497 27.6214C30.497 21.0013 25.0618 15.6156 18.381 15.6156ZM18.3808 34.223C14.7073 34.223 11.7187 31.2616 11.7187 27.6214C11.7187 23.9813 14.7073 21.0199 18.3808 21.0199C22.0544 21.0199 25.0429 23.9813 25.0429 27.6214C25.0429 31.2616 22.0544 34.223 18.3808 34.223Z" fill="#131A40"/>
<path d="M46.7304 0.704163C37.805 0.704163 30.5437 7.89946 30.5437 16.7438C30.5437 25.5881 37.805 32.7834 46.7304 32.7834C55.6559 32.7834 62.9172 25.5881 62.9172 16.7438C62.9172 7.89964 55.6559 0.704163 46.7304 0.704163ZM46.7304 27.3791C40.8122 27.3791 35.9976 22.6082 35.9976 16.7438C35.9976 10.8796 40.8122 6.10847 46.7304 6.10847C52.6486 6.10847 57.4633 10.8794 57.4633 16.7438C57.4633 22.6082 52.6486 27.3791 46.7304 27.3791Z" fill="#131A40"/>
<path d="M75.0796 15.6156C68.3989 15.6156 62.9636 21.0013 62.9636 27.6214C62.9638 34.2415 68.3989 39.6273 75.0796 39.6273C81.7604 39.6273 87.1956 34.2415 87.1956 27.6214C87.1956 21.0013 81.7604 15.6156 75.0796 15.6156ZM75.0796 34.223C71.4062 34.223 68.4175 31.2616 68.4175 27.6214C68.4176 23.9813 71.4062 21.0199 75.0796 21.0199C78.7531 21.0199 81.7417 23.9813 81.7417 27.6214C81.7417 31.2616 78.7531 34.223 75.0796 34.223Z" fill="#131A40"/>
</svg>
