<svg width="32" height="32" viewBox="0 0 32 32" fill="none" xmlns="http://www.w3.org/2000/svg">
<path d="M25.3724 0.954328C25.2928 0.923818 25.2102 0.908691 25.1271 0.908691C24.9764 0.908627 24.826 0.958061 24.7033 1.05487C24.6792 1.07431 22.1461 3.0449 20.1145 3.68722C19.6317 3.83945 18.9518 4.0292 18.1714 4.24773C14.4448 5.2897 11.2747 6.23776 10.2234 7.28907C9.05096 8.46152 8.28107 13.082 8.03306 14.7831C4.10828 15.4106 1.09668 18.7804 1.09668 22.8793C1.09668 27.4226 4.79244 31.1183 9.33566 31.1183C13.8789 31.1183 17.5746 27.4521 17.5746 22.9088C17.5746 21.9108 17.3838 20.9374 17.0276 20.0026C18.2495 19.3168 19.5046 18.8408 20.3866 18.7565C20.5784 18.7384 20.7608 18.7304 20.9404 18.7216C21.9314 18.6753 22.9573 18.6278 24.8441 17.2553C25.8578 16.5184 26.4412 15.5562 27.0594 14.5385C27.9069 13.1385 28.7852 11.6916 30.9643 10.4284C31.1762 10.3057 31.3063 10.0791 31.3063 9.83434C31.3063 3.30102 25.4315 0.977114 25.3724 0.954328ZM9.33566 29.7747C5.55004 29.7747 2.46982 26.6944 2.46982 22.9088C2.46982 19.1232 5.5501 16.043 9.33566 16.043C10.0842 16.043 10.8235 16.1778 11.5275 16.4148C10.9799 16.8433 10.4339 17.3551 9.98795 17.9031C9.91078 17.6083 9.65485 17.3866 9.33566 17.3866C8.95615 17.3866 8.64905 17.6937 8.64905 18.0732V18.7945C7.48749 18.9629 6.58931 19.9555 6.58931 21.1629C6.58931 22.4877 7.66746 23.5659 8.99232 23.5659H9.67892C10.2462 23.5659 10.7088 24.0278 10.7088 24.5958C10.7088 25.1637 10.2461 25.6256 9.67892 25.6256H7.27591C6.8964 25.6256 6.58931 25.9327 6.58931 26.3122C6.58931 26.6917 6.8964 26.9988 7.27591 26.9988H8.64905V27.6854C8.64905 28.0649 8.95615 28.372 9.33566 28.372C9.71517 28.372 10.0223 28.0649 10.0223 27.6854V26.9641C11.1838 26.7958 12.082 25.8032 12.082 24.5958C12.082 23.271 11.0039 22.1928 9.67899 22.1928H8.99239C8.42512 22.1928 7.96251 21.7308 7.96251 21.1629C7.96251 20.595 8.42518 20.1331 8.99239 20.1331H9.02425C9.04163 20.5811 9.21259 20.9808 9.53687 21.305C10.1658 21.9333 10.961 22.1861 11.8099 22.1861C13.1719 22.1861 14.6707 21.533 15.8423 20.7367C16.08 21.4394 16.2016 22.1672 16.2016 22.9089C16.2015 26.6944 13.1213 29.7747 9.33566 29.7747ZM25.8847 13.8264C25.3174 14.7617 24.828 15.5696 24.0368 16.1449C22.4826 17.2754 21.7732 17.3082 20.8761 17.3498C20.675 17.3592 20.4711 17.3693 20.2553 17.3901C18.8647 17.5221 16.8505 18.377 15.1247 19.5678C13.5919 20.6278 11.492 21.3184 10.5077 20.3341C10.4273 20.2537 10.3602 20.145 10.4098 19.899C10.6284 18.8236 12.6291 17.0877 13.7126 16.6498C15.0147 16.1242 18.1245 14.7007 18.8955 12.8435C18.9827 12.6323 18.9599 12.3902 18.8325 12.1998C18.3752 11.5132 17.6591 11.2001 17.1375 10.9708C16.978 10.9011 16.7674 10.8199 16.7661 10.8166C16.5716 10.5343 16.1961 10.4418 15.8944 10.5933C15.476 10.8025 14.359 11.1243 13.9634 11.2309C13.7689 11.2832 13.6067 11.4187 13.5209 11.601L11.8736 15.087C11.0887 14.8328 10.2694 14.6869 9.43916 14.6763C9.82472 12.1763 10.5441 8.91015 11.1943 8.25998C12.0766 7.37828 16.1237 6.24652 18.5415 5.56996C19.338 5.34667 20.034 5.15222 20.5275 4.996C22.3512 4.42068 24.419 2.97648 25.2155 2.38849C26.3125 2.92956 29.7386 4.97392 29.9251 9.45077C27.691 10.8474 26.6933 12.4921 25.8847 13.8264ZM13.2687 15.3477L14.6285 12.4713C14.9986 12.366 15.6181 12.1816 16.1009 11.9966C16.2471 12.0797 16.4107 12.1514 16.5863 12.2279C16.8693 12.3526 17.1804 12.4887 17.4218 12.6791C16.7057 13.6829 14.8216 14.7134 13.2687 15.3477Z" fill="#17AEBF" stroke="#17AEBF" stroke-width="0.7"/>
</svg>
