<svg width="26" height="29" viewBox="0 0 26 29" fill="none" xmlns="http://www.w3.org/2000/svg">
<path d="M2.42604 21.1295C2.42604 23.4184 4.2882 25.2805 6.57709 25.2805C8.86598 25.2805 10.7281 23.4184 10.7281 21.1295V16.9785H2.42604V21.1295ZM4.08646 18.6389H9.06772V21.1295C9.06772 22.5028 7.95042 23.6201 6.57709 23.6201C5.20376 23.6201 4.08646 22.5028 4.08646 21.1295V18.6389Z" fill="#17AEBF"/>
<path d="M6.57709 0.374268C4.9434 0.374268 3.43967 1.38098 2.34291 3.20899C1.32579 4.90417 0.765625 7.14069 0.765625 9.50657C0.765625 11.4064 1.15189 13.249 1.88259 14.8352L2.10497 15.318H11.0492L11.2716 14.8352C12.0023 13.249 12.3886 11.4064 12.3886 9.50657C12.3886 7.14069 11.8284 4.90417 10.8113 3.20899C9.71451 1.38098 8.21077 0.374268 6.57709 0.374268ZM10.7281 9.50657C10.7281 9.78524 10.7187 10.0623 10.7001 10.3368H2.4541C2.43551 10.0623 2.42604 9.78524 2.42604 9.50657C2.42604 9.22646 2.43545 8.9495 2.45311 8.67636H10.701C10.7187 8.9495 10.7281 9.22646 10.7281 9.50657ZM2.67311 7.01594C2.79311 6.42666 2.95378 5.8692 3.14893 5.35552H10.0053C10.2005 5.8692 10.3611 6.42666 10.4811 7.01594H2.67311ZM6.57709 2.03469C7.53969 2.03469 8.43825 2.66133 9.15157 3.6951H4.00261C4.71593 2.66133 5.61449 2.03469 6.57709 2.03469ZM3.1843 13.6576C2.97586 13.1305 2.80954 12.5739 2.68595 11.9972H10.4682C10.3446 12.5739 10.1783 13.1305 9.96988 13.6576H3.1843Z" fill="#17AEBF"/>
<path d="M15.7094 24.561C15.7094 26.8499 17.5716 28.7121 19.8604 28.7121C22.1493 28.7121 24.0115 26.8499 24.0115 24.561V20.41H15.7094V24.561ZM17.3698 22.0704H22.3511V24.561C22.3511 25.9344 21.2338 27.0517 19.8604 27.0517C18.4871 27.0517 17.3698 25.9344 17.3698 24.561V22.0704Z" fill="#17AEBF"/>
<path d="M24.0946 6.64052C22.9979 4.81251 21.4941 3.8058 19.8604 3.8058C18.2268 3.8058 16.723 4.81251 15.6263 6.64052C14.6091 8.3357 14.049 10.5722 14.049 12.9381C14.049 14.8379 14.4352 16.6805 15.1659 18.2667L15.3884 18.7496H24.3326L24.555 18.2667C25.2856 16.6805 25.6719 14.8379 25.6719 12.9381C25.6719 10.5722 25.1117 8.3357 24.0946 6.64052ZM24.0115 12.9381C24.0115 13.2168 24.002 13.4938 23.9834 13.7683H15.7375C15.7189 13.4938 15.7094 13.2168 15.7094 12.9381C15.7094 12.658 15.7188 12.381 15.7365 12.1079H23.9844C24.0021 12.381 24.0115 12.658 24.0115 12.9381ZM15.9565 10.4475C16.0765 9.85819 16.2371 9.30073 16.4323 8.78705H23.2886C23.4838 9.30073 23.6444 9.85819 23.7645 10.4475H15.9565ZM19.8604 5.46622C20.823 5.46622 21.7216 6.09286 22.4349 7.12664H17.286C17.9993 6.09286 18.8978 5.46622 19.8604 5.46622ZM16.4676 17.0891C16.2592 16.5621 16.0929 16.0054 15.9693 15.4287H23.7516C23.628 16.0054 23.4617 16.5621 23.2532 17.0891H16.4676Z" fill="#17AEBF"/>
</svg>
