<svg width="83" height="79" viewBox="0 0 83 79" fill="none" xmlns="http://www.w3.org/2000/svg">
<path d="M64.2876 17.6021V17.6022C64.288 19.6515 64.9871 21.636 66.2636 23.2308L61.9245 28.3773C60.8778 27.9428 59.7574 27.7093 58.6225 27.6902V27.6902H58.6158C53.8257 27.6902 49.942 31.57 49.9357 36.3586C49.918 36.6732 49.9334 36.9885 49.9816 37.2993L45.1205 38.6604C42.7659 34.6529 37.6414 33.1981 33.5171 35.4238C30.7322 36.9268 28.9857 39.8263 28.9596 42.9909H28.9595L28.9596 42.9992C28.9722 44.0144 29.1395 45.0214 29.4548 45.9855L25.654 49.9863C24.2804 49.141 22.7008 48.6835 21.0837 48.6663H21.0795C16.2856 48.6663 12.3994 52.5525 12.3994 57.3464C12.3994 62.1403 16.2856 66.0265 21.0795 66.0265C25.8734 66.0265 29.7596 62.1403 29.7596 57.3464H29.7597L29.7594 57.3356C29.7285 56.1925 29.4904 55.0655 29.0577 54.0088L32.7227 50.1456C34.1696 51.1328 35.881 51.6666 37.6379 51.6743H37.6393C42.1416 51.678 45.8605 48.2022 46.192 43.7452L52.0742 42.1226C53.7287 43.9924 56.1125 45.0627 58.6175 45.0503L58.6208 45.0503C63.3857 44.9881 67.2332 41.1404 67.2956 36.3755L67.2956 36.3692C67.2913 34.7364 66.8265 33.1404 65.9579 31.7629L70.7874 26.0085C71.4982 26.204 72.2337 26.2963 72.9714 26.2822C77.7635 26.28 81.6475 22.3947 81.6475 17.6021C81.6475 12.8082 77.7614 8.92203 72.9677 8.92203C68.1738 8.92203 64.2876 12.8082 64.2876 17.6021ZM75.6168 72.8434H10.5913C8.37324 72.8434 6.57529 71.0454 6.57529 68.8274V3.91217C6.57529 2.47177 5.40768 1.30416 3.96728 1.30416C2.52688 1.30416 1.35928 2.47177 1.35928 3.91217V68.8274C1.35928 73.926 5.49265 78.0594 10.5913 78.0594H75.6168C77.0572 78.0594 78.2248 76.8918 78.2248 75.4514C78.2248 74.011 77.0572 72.8434 75.6168 72.8434ZM21.0797 60.81C19.1666 60.81 17.6156 59.2591 17.6156 57.346C17.6156 55.4328 19.1666 53.8819 21.0797 53.8819C22.9928 53.8819 24.5438 55.4328 24.5438 57.346C24.5436 59.2591 22.9926 60.81 21.0797 60.81ZM37.6396 46.4581C35.7265 46.4581 34.1756 44.9072 34.1756 42.994C34.1756 41.0809 35.7265 39.53 37.6396 39.53C39.5528 39.53 41.1037 41.0809 41.1037 42.994C41.1037 44.9072 39.5528 46.4581 37.6396 46.4581ZM58.6156 39.8341C56.7024 39.8341 55.1515 38.2832 55.1515 36.37C55.1515 34.4569 56.7024 32.906 58.6156 32.906C60.5287 32.906 62.0796 34.4569 62.0796 36.37C62.0796 38.2832 60.5287 39.8341 58.6156 39.8341ZM72.9677 21.0662C71.0546 21.0662 69.5036 19.5152 69.5036 17.6021C69.5036 15.689 71.0546 14.138 72.9677 14.138C74.8808 14.138 76.4317 15.689 76.4317 17.6021C76.4317 19.5152 74.8808 21.0662 72.9677 21.0662Z" fill="#131A40" stroke="#131A40" stroke-width="0.8"/>
</svg>
