<?xml version="1.0" encoding="utf-8"?>
<!-- Generator: Adobe Illustrator 22.0.1, SVG Export Plug-In . SVG Version: 6.00 Build 0)  -->
<svg version="1.1" id="Calque_1" xmlns="http://www.w3.org/2000/svg" xmlns:xlink="http://www.w3.org/1999/xlink" x="0px" y="0px"
	 viewBox="0 0 29 28" style="enable-background:new 0 0 29 28;" xml:space="preserve">
<style type="text/css">
	.st0{fill:#FFFFFF;}
	.st1{fill:#131A40;stroke:#131A40;stroke-width:0.2;}
</style>
<circle class="st0" cx="14.5" cy="14" r="14"/>
<path class="st1" d="M18.2,9h-1.3V8.8c0-0.8-0.6-1.4-1.4-1.4h-2c-0.8,0-1.4,0.6-1.4,1.4V9h-1.3c-0.6,0-1.2,0.5-1.2,1.2V11
	c0,0.2,0.2,0.4,0.4,0.4h0.3l0.5,8.8c0,0.2,0.2,0.4,0.4,0.4h6.5c0.2,0,0.4-0.2,0.4-0.4l0.5-8.8H19c0.2,0,0.4-0.2,0.4-0.4v-0.8
	C19.3,9.6,18.8,9,18.2,9z M12.9,8.8c0-0.4,0.3-0.6,0.6-0.6h2c0.4,0,0.6,0.3,0.6,0.6V9h-3.2V8.8z M10.5,10.2c0-0.2,0.2-0.4,0.4-0.4
	h7.3c0.2,0,0.4,0.2,0.4,0.4v0.5h-8.1V10.2z M17.4,19.8h-5.7l-0.5-8.4h6.7L17.4,19.8z"/>
<path class="st1" d="M14.5,19c0.2,0,0.4-0.2,0.4-0.4v-6c0-0.2-0.2-0.4-0.4-0.4c-0.2,0-0.4,0.2-0.4,0.4v6C14.1,18.8,14.3,19,14.5,19z
	"/>
<path class="st1" d="M16,19C16.1,19,16.1,19,16,19c0.2,0,0.4-0.2,0.4-0.4l0.3-6c0-0.2-0.2-0.4-0.4-0.4c-0.2,0-0.4,0.2-0.4,0.4
	l-0.3,6C15.7,18.8,15.8,19,16,19z"/>
<path class="st1" d="M13,19C13,19,13,19,13,19c0.2,0,0.4-0.2,0.4-0.4l-0.3-6c0-0.2-0.2-0.4-0.4-0.4c-0.2,0-0.4,0.2-0.4,0.4l0.3,6
	C12.6,18.8,12.8,19,13,19z"/>
</svg>
