<svg width="36" height="36" viewBox="0 0 36 36" fill="none" xmlns="http://www.w3.org/2000/svg">
<path d="M35.6307 21.6287C35.6306 20.2882 34.7788 19.1438 33.5886 18.7062V15.5027C33.5886 14.9112 33.1091 14.4317 32.5176 14.4317C30.4152 14.4317 28.4538 14.6083 26.5999 14.9691C25.537 13.9485 24.2487 13.2018 22.8536 12.782C24.3827 11.4613 25.3525 9.50929 25.3525 7.3347C25.3525 3.3291 22.1244 0.0696289 18.1555 0.0696289C14.1866 0.0696289 10.9585 3.3291 10.9585 7.3347C10.9585 9.50929 11.9282 11.4613 13.4575 12.7819C12.0623 13.2018 10.774 13.9485 9.71111 14.9691C7.85722 14.6083 5.89589 14.4316 3.79347 14.4316C3.20199 14.4316 2.72247 14.9112 2.72247 15.5026V18.7062C1.53221 19.1437 0.680469 20.2882 0.680469 21.6287V23.6707C0.680469 25.0111 1.53221 26.1556 2.72247 26.5932V29.7967C2.72247 30.3881 3.20199 30.8677 3.79347 30.8677C9.12294 30.8677 13.4968 32.1301 17.5615 34.8399C17.9196 35.0785 18.3912 35.0791 18.7497 34.8399C22.8144 32.1301 27.1882 30.8677 32.5177 30.8677C33.1092 30.8677 33.5887 30.3881 33.5887 29.7967V26.5932C34.779 26.1556 35.6307 25.0111 35.6307 23.6707V21.6287ZM13.1005 7.3347C13.1005 4.50922 15.3688 2.21163 18.1555 2.21163C20.9422 2.21163 23.2105 4.50922 23.2105 7.3347C23.2105 10.122 20.9428 12.3897 18.1555 12.3897C15.3682 12.3897 13.1005 10.122 13.1005 7.3347ZM3.7934 24.6417C3.25804 24.6417 2.8224 24.2061 2.8224 23.6707V21.6287C2.8224 21.0934 3.25804 20.6577 3.7934 20.6577C4.32877 20.6577 4.76441 21.0934 4.76441 21.6287V23.6707C4.76441 24.2061 4.32877 24.6417 3.7934 24.6417ZM17.0845 20.1674V32.0308C13.4045 29.9423 9.45626 28.8826 4.86441 28.7419V26.5932C6.05467 26.1557 6.90641 25.0112 6.90641 23.6707V21.6287C6.90641 20.2882 6.05467 19.1438 4.86441 18.7062V16.5896C9.61978 16.7334 13.4464 17.8566 17.0845 20.1674ZM18.1555 18.3119C16.3066 17.1484 14.3833 16.257 12.3335 15.6242C13.4563 14.9184 14.7668 14.5317 16.1135 14.5317H20.1975C21.5442 14.5317 22.8547 14.9184 23.9775 15.6242C21.9277 16.257 20.0043 17.1484 18.1555 18.3119ZM31.4466 26.5932V28.7419C26.8548 28.8826 22.9064 29.9425 19.2265 32.0309V20.1682C22.8647 17.8572 26.691 16.7333 31.4466 16.5896V18.7062C30.2563 19.1438 29.4046 20.2882 29.4046 21.6287V23.6707C29.4046 25.0112 30.2563 26.1557 31.4466 26.5932ZM33.4886 23.6707C33.4886 24.2061 33.0529 24.6417 32.5176 24.6417C31.9822 24.6417 31.5466 24.2061 31.5466 23.6707V21.6287C31.5466 21.0934 31.9822 20.6577 32.5176 20.6577C33.0529 20.6577 33.4886 21.0934 33.4886 21.6287V23.6707Z" fill="#17AEBF" stroke="#17AEBF" stroke-width="0.1"/>
</svg>
