<svg width="28" height="28" viewBox="0 0 28 28" fill="none" xmlns="http://www.w3.org/2000/svg">
<path d="M24.7356 0.876221C24.363 0.876221 3.45103 0.876221 3.07978 0.876221C1.80647 0.876221 0.770508 1.91219 0.770508 3.1855V4.35837C0.770508 6.25811 1.424 8.12137 2.61091 9.60476C3.59797 10.8386 5.00197 11.805 6.56434 12.3258L7.38021 12.5976C8.32777 14.1415 9.81396 15.3308 11.5984 15.8957V17.0925C11.5984 17.5168 11.2531 17.8622 10.8287 17.8622C9.55537 17.8622 8.51941 18.8982 8.51941 20.1715V20.9413H7.74965C7.32448 20.9413 6.97989 21.2858 6.97989 21.711V25.6111H6.21013C5.78496 25.6111 5.44037 25.9557 5.44037 26.3809C5.44037 26.806 5.78496 27.1506 6.21013 27.1506H21.6053C22.0305 27.1506 22.3751 26.806 22.3751 26.3809C22.3751 25.9557 22.0305 25.6111 21.6053 25.6111H20.8355V21.711C20.8355 21.2858 20.491 20.9413 20.0658 20.9413H19.296V20.1715C19.296 18.8982 18.2601 17.8622 16.9867 17.8622C16.5624 17.8622 16.217 17.5168 16.217 17.0925V15.8957C17.9995 15.3314 19.4843 14.1443 20.432 12.6028L21.2924 12.329C21.2956 12.328 21.299 12.3268 21.3022 12.3258C22.8415 11.8126 24.191 10.8717 25.2045 9.60476C26.3914 8.12137 27.0449 6.25811 27.0449 4.35837V3.1855C27.0449 1.91219 26.009 0.876221 24.7356 0.876221ZM3.81306 8.64296C2.84384 7.43139 2.31002 5.90992 2.31002 4.35837V3.1855C2.31002 2.76113 2.65541 2.41574 3.07978 2.41574H5.52116L6.30455 9.46624C6.35045 9.87858 6.43044 10.2813 6.53989 10.6722C5.46343 10.2198 4.50865 9.51235 3.81306 8.64296ZM8.51941 25.6111V22.4808H19.296V25.6111H8.51941ZM15.2746 14.5583C14.925 14.6387 14.6775 14.9498 14.6775 15.3084V17.0925C14.6775 18.3658 15.7134 19.4017 16.9867 19.4017C17.4111 19.4017 17.7565 19.7471 17.7565 20.1715V20.9413H10.0589V20.1715C10.0589 19.7471 10.4043 19.4017 10.8287 19.4017C12.102 19.4017 13.138 18.3658 13.138 17.0925V15.3084C13.138 14.9498 12.8904 14.6387 12.5408 14.5583C10.0108 13.9761 8.11969 11.8615 7.83464 9.29625L7.0701 2.41574H20.7453L19.9808 9.29625C19.6957 11.8615 17.8046 13.9761 15.2746 14.5583ZM25.5054 4.35837C25.5054 5.90992 24.9716 7.43139 24.0024 8.64296C23.2757 9.55144 22.3376 10.2542 21.2687 10.6961C21.3818 10.2975 21.464 9.887 21.5109 9.46624L22.2943 2.41574H24.7356C25.16 2.41574 25.5054 2.76113 25.5054 3.1855V4.35837Z" fill="#17AEBF" stroke="#17AEBF" stroke-width="0.5"/>
</svg>
