<svg width="35" height="29" viewBox="0 0 35 29" fill="none" xmlns="http://www.w3.org/2000/svg">
<path d="M29.2167 15.1374H25.8897C25.4369 15.1374 24.9985 15.1987 24.5813 15.3114C23.7583 13.7082 22.0779 12.6067 20.1417 12.6067H14.2608C12.3246 12.6067 10.6443 13.7082 9.82125 15.3114C9.40403 15.1987 8.96563 15.1374 8.51283 15.1374H5.18581C2.44051 15.1374 0.207031 17.3506 0.207031 20.0709V25.3411C0.207031 26.9733 1.54712 28.3012 3.1943 28.3012H31.2082C32.8554 28.3012 34.1955 26.9733 34.1955 25.3411V20.0709C34.1955 17.3506 31.962 15.1374 29.2167 15.1374ZM9.28202 17.5403V26.3279H3.1943C2.64524 26.3279 2.19854 25.8852 2.19854 25.3412V20.071C2.19854 18.4388 3.53863 17.1109 5.18581 17.1109H8.51283C8.78314 17.1109 9.0449 17.1472 9.2941 17.2143C9.28693 17.3222 9.28202 17.4307 9.28202 17.5403ZM23.129 26.3279H11.2735V17.5403C11.2735 15.9081 12.6136 14.5802 14.2608 14.5802H20.1417C21.7889 14.5802 23.129 15.9081 23.129 17.5403V26.3279ZM32.204 25.3412C32.204 25.8852 31.7573 26.3279 31.2082 26.3279H25.1205V17.5403C25.1205 17.4306 25.1156 17.3221 25.1084 17.2142C25.3576 17.1472 25.6194 17.1108 25.8897 17.1108H29.2167C30.8639 17.1108 32.204 18.4387 32.204 20.0709V25.3412Z" fill="#17AEBF"/>
<path d="M6.84999 5.8197C4.41046 5.8197 2.42578 7.78633 2.42578 10.2037C2.42571 12.6211 4.41046 14.5877 6.84999 14.5877C9.28946 14.5877 11.2742 12.6211 11.2742 10.2037C11.2742 7.78633 9.28953 5.8197 6.84999 5.8197ZM6.84993 12.6143C5.50851 12.6143 4.41723 11.5329 4.41723 10.2037C4.41723 8.87447 5.50851 7.79311 6.84993 7.79311C8.19134 7.79311 9.28262 8.87447 9.28262 10.2037C9.28262 11.5329 8.19134 12.6143 6.84993 12.6143Z" fill="#17AEBF"/>
<path d="M17.2007 0.374756C13.9415 0.374756 11.29 3.00215 11.29 6.2317C11.29 9.46124 13.9415 12.0886 17.2007 12.0886C20.4599 12.0886 23.1114 9.46124 23.1114 6.2317C23.1114 3.00222 20.4599 0.374756 17.2007 0.374756ZM17.2007 10.1152C15.0397 10.1152 13.2816 8.37311 13.2816 6.2317C13.2816 4.09035 15.0397 2.34816 17.2007 2.34816C19.3618 2.34816 21.1199 4.09029 21.1199 6.2317C21.1199 8.37311 19.3618 10.1152 17.2007 10.1152Z" fill="#17AEBF"/>
<path d="M27.5531 5.8197C25.1136 5.8197 23.1289 7.78633 23.1289 10.2037C23.129 12.6211 25.1136 14.5877 27.5531 14.5877C29.9927 14.5877 31.9773 12.6211 31.9773 10.2037C31.9773 7.78633 29.9927 5.8197 27.5531 5.8197ZM27.5531 12.6143C26.2118 12.6143 25.1204 11.5329 25.1204 10.2037C25.1205 8.87447 26.2118 7.79311 27.5531 7.79311C28.8945 7.79311 29.9858 8.87447 29.9858 10.2037C29.9858 11.5329 28.8945 12.6143 27.5531 12.6143Z" fill="#17AEBF"/>
</svg>
