<svg width="93" height="129" viewBox="0 0 93 129" fill="none" xmlns="http://www.w3.org/2000/svg">
<path fill-rule="evenodd" clip-rule="evenodd" d="M60.1562 6.29993H87.8484V27.8066H60.1562V6.29993Z" fill="white"/>
<path d="M31.416 32.8256C33.3156 32.7247 35.4407 32.597 36.254 32.1607C37.6282 31.4276 54.5908 18.7153 56.2974 16.9849C58.004 15.2546 60.1143 13.7527 61.6399 11.8709C63.1655 9.98919 61.6904 15.2041 60.3577 16.2311C60.2034 17.626 60.1648 20.5466 60.1648 20.5466C59.8121 20.4846 59.4502 20.4977 59.1029 20.5852C58.7556 20.6727 58.4307 20.8325 58.1495 21.0542C57.3837 21.6478 48.432 32.1281 44.7931 36.3932" stroke="#131A40" stroke-width="1.5" stroke-linecap="round" stroke-linejoin="round"/>
<path d="M25.8369 31.3091C28.615 31.8611 33.177 33.1671 36.7861 35.0726" stroke="#131A40" stroke-width="1.5" stroke-linecap="round" stroke-linejoin="round"/>
<path d="M44.3213 51.2069C46.2386 62.7824 48.0848 79.0801 45.8854 82.6833C42.5404 88.1683 19.4696 87.9368 14.9699 83.7993C13.4711 82.4251 12.5747 64.1803 14.593 49.521" stroke="#131A40" stroke-width="1.5" stroke-linecap="round" stroke-linejoin="round"/>
<path d="M25.8366 34.9567C24.9254 35.6839 23.6551 35.6869 22.6133 35.5058" stroke="#131A40" stroke-width="1.5" stroke-linecap="round" stroke-linejoin="round"/>
<path d="M25.8369 26.9608V32.6476" stroke="#131A40" stroke-width="1.5" stroke-linecap="round" stroke-linejoin="round"/>
<path d="M29.1196 7.16663C31.4198 9.19976 32.9128 12.4617 32.9128 16.1391C32.9128 22.2979 28.7307 27.2932 23.5722 27.2932C23.2954 27.2901 23.019 27.2723 22.7441 27.2397" stroke="#131A40" stroke-width="1.5" stroke-linecap="round" stroke-linejoin="round"/>
<path d="M24.2101 18.5849C24.3854 19.1002 24.4766 19.6404 24.4801 20.1847C24.4801 21.6331 22.2274 27.3081 22.2274 31.1666C22.2274 34.194 22.9041 36.2539 22.9041 38.7649C22.9041 45.6241 18.4282 49.7764 11.9549 49.7764C5.48149 49.7764 1.13326 42.7569 1.10655 37.0582C1.0739 30.0714 8.82354 21.4966 10.7023 16.2283C12.2784 11.7761 15.2732 3.16872 22.453 3.16872C25.4448 3.10045 29.2469 5.00299 29.2469 6.32378C29.2469 8.28865 26.6261 12.3994 24.2011 14.8629" stroke="#131A40" stroke-width="1.5" stroke-linecap="round" stroke-linejoin="round"/>
<path d="M24.6467 18.1603C24.3495 18.5388 23.9426 18.8163 23.4817 18.9548C23.0208 19.0933 22.5284 19.086 22.0718 18.934C21.6152 18.782 21.2166 18.4927 20.9307 18.1056C20.6447 17.7185 20.4853 17.2526 20.4743 16.7714C20.4632 16.2903 20.601 15.8175 20.8688 15.4177C21.1367 15.0178 21.5215 14.7105 21.9707 14.5377C22.4198 14.3648 22.9114 14.335 23.3782 14.4521C23.8449 14.5693 24.2641 14.8278 24.5784 15.1922" stroke="#131A40" stroke-width="1.5" stroke-linecap="round" stroke-linejoin="round"/>
<path d="M46.6279 50.2037C50.2876 50.9428 59.2066 52.3496 61.0676 51.759C63.1304 51.103 84.3819 30.8489 86.038 29.35C87.6942 27.8511 91.0185 25.729 91.4192 23.1349C91.8199 20.5408 91.4192 18.3206 87.8159 17.0206C87.8842 18.6946 87.9495 21.3065 87.8783 20.9177C87.2698 18.8994 87.1986 16.611 86.0974 16.6377C85.5038 18.5254 86.3408 22.0842 84.8805 24.4675C83.2035 26.2899 60.9311 40.9047 58.5922 41.6438C56.2564 41.6438 51.1305 40.0826 48.851 39.3495" stroke="#131A40" stroke-width="1.5" stroke-linecap="round" stroke-linejoin="round"/>
<path fill-rule="evenodd" clip-rule="evenodd" d="M28.1874 39.5216C30.0039 31.8936 45.9395 35.9273 48.6196 38.0672C49.5576 40.973 48.0824 49.5923 45.7406 51.1921C42.2234 51.7026 26.2522 47.6363 28.1874 39.5216Z" stroke="#131A40" stroke-width="1.5" stroke-linecap="round" stroke-linejoin="round"/>
<path d="M69.0457 12.6042H69.0101L67.152 13.5866L66.873 12.4944L69.1941 11.2537H70.4169V21.8676H69.0457V12.6042Z" fill="#131A40"/>
<path d="M81.1823 11.2656V12.2124L76.558 21.8794H75.074L79.6775 12.4884V12.4558H74.4863V11.2685L81.1823 11.2656Z" fill="#131A40"/>
<path fill-rule="evenodd" clip-rule="evenodd" d="M58.111 126.237C58.111 126.237 48.5479 92.1042 45.7163 82.6449C42.7067 87.2187 25.8302 87.7322 18.042 85.2716C20.6094 93.701 33.3276 123.937 35.4794 126.374L36.5276 128.25H58.111V126.237Z" fill="#131A40"/>
<path fill-rule="evenodd" clip-rule="evenodd" d="M15.3537 84.1081C14.5315 90.8605 13.8399 109.553 18.292 119.547C16.0779 127.908 15.3536 128.154 15.3536 128.154H39.2439C39.2439 128.154 35.5069 98.4409 25.3205 86.6695C20.9811 86.3045 17.1761 85.4289 15.3537 84.1081Z" fill="#131A40"/>
<rect x="60.1523" y="0.967407" width="27.6212" height="4.46435" fill="#F17979"/>
</svg>
