<svg width="207" height="257" viewBox="0 0 207 257" fill="none" xmlns="http://www.w3.org/2000/svg">
<path d="M101.536 237.186V122.814" stroke="#F6F7F9" stroke-width="2" stroke-linecap="round" stroke-linejoin="round"/>
<path d="M85.6396 178.198C85.3046 179.935 114.414 226.34 116.745 226.34C119.733 226.34 126.596 221.248 126.596 219.81C126.596 218.372 113.486 184.948 113.486 179.304C113.486 173.659 88.5156 163.251 85.6396 178.198Z" fill="#131A40"/>
<path d="M80.4805 250.107V122.814" stroke="#F6F7F9" stroke-width="2" stroke-linecap="round" stroke-linejoin="round"/>
<path d="M206.915 81.8289L199.09 79.9849L169.091 207.286L176.916 209.13L206.915 81.8289Z" fill="#F6F7F9"/>
<path d="M176.909 209.144L178.753 201.319L105.527 184.063L103.683 191.888L176.909 209.144Z" fill="#F6F7F9"/>
<path d="M120.439 37.3943H80.4805V64.432H120.439V37.3943Z" fill="#F6F7F9"/>
<path d="M127.737 50.9132L109.792 46.726V55.1004L127.737 50.9132Z" fill="#F6F7F9"/>
<path d="M91.3678 52.947C92.491 52.947 93.4016 52.0364 93.4016 50.9132C93.4016 49.79 92.491 48.8794 91.3678 48.8794C90.2446 48.8794 89.334 49.79 89.334 50.9132C89.334 52.0364 90.2446 52.947 91.3678 52.947Z" fill="#131A40"/>
<path d="M100.46 52.947C101.583 52.947 102.493 52.0364 102.493 50.9132C102.493 49.79 101.583 48.8794 100.46 48.8794C99.3364 48.8794 98.4258 49.79 98.4258 50.9132C98.4258 52.0364 99.3364 52.947 100.46 52.947Z" fill="#131A40"/>
<path d="M109.552 52.947C110.676 52.947 111.586 52.0364 111.586 50.9132C111.586 49.79 110.676 48.8794 109.552 48.8794C108.429 48.8794 107.519 49.79 107.519 50.9132C107.519 52.0364 108.429 52.947 109.552 52.947Z" fill="#131A40"/>
<path d="M133.314 115.66C137.667 95.9752 147.238 73.3713 164.75 66.5114" stroke="#131A40" stroke-width="2.5" stroke-linecap="round" stroke-linejoin="round"/>
<path d="M181.101 65.389C188.392 68.3129 191.502 77.3263 191.502 84.0522C191.502 121.618 183.769 159.212 179.299 162.055C171.403 167.079 134.527 155.116 131.206 147.22C130.222 144.882 130.028 138.271 130.966 129.739" stroke="#131A40" stroke-width="2.5" stroke-linecap="round" stroke-linejoin="round"/>
<path d="M164.749 66.5113C164.986 63.4862 165.023 60.4489 164.861 57.4189" stroke="#131A40" stroke-width="2.5" stroke-linecap="round" stroke-linejoin="round"/>
<path d="M178.343 46.2474C178.103 47.6831 178.582 59.8859 181.932 67.5426C181.197 68.7174 176.768 70.7919 172.241 71.225" stroke="#131A40" stroke-width="2.5" stroke-linecap="round" stroke-linejoin="round"/>
<path d="M173.414 45.9006C171.448 53.0165 167.057 57.9718 161.953 57.9718C155.014 57.9718 149.392 48.8125 149.392 37.5141C149.39 35.7105 149.537 33.9098 149.832 32.1305" stroke="#131A40" stroke-width="2.5" stroke-linecap="round" stroke-linejoin="round"/>
<path d="M145.204 31.6255C135.973 29.6396 134.557 22.3202 134.557 19.449C134.557 10.5959 142.453 10.3567 145.802 8.4425C149.616 6.26273 152.502 2.22144 158.005 2.22144C163.269 2.22144 167.217 7.24614 170.447 8.92104C175.951 11.7923 189.11 11.3138 189.11 21.3632C189.11 28.5413 186.479 30.4555 186.479 33.8053C186.479 35.7195 186.957 36.4373 186.957 40.2656C186.957 44.6467 183.129 47.025 180.415 47.5634" stroke="#131A40" stroke-width="2.5" stroke-linecap="round" stroke-linejoin="round"/>
<path d="M172.48 35.2408C173.654 35.2408 174.78 35.7072 175.61 36.5373C176.441 37.3675 176.907 38.4934 176.907 39.6674C176.907 40.8414 176.441 41.9673 175.61 42.7974C174.78 43.6275 173.654 44.0939 172.48 44.0939" stroke="#131A40" stroke-width="2.5" stroke-linecap="round" stroke-linejoin="round"/>
<path d="M160.038 111.329C158.701 114.538 156.689 120.182 156.33 125.446C152.741 124.011 118.285 108.458 111.825 108.458C99.1437 108.458 95.7939 112.526 95.7939 114.44C95.7939 118.029 111.347 117.55 113.5 118.747C115.653 119.943 158.244 147.699 163.508 147.699C168.262 147.699 179.462 129.344 181.932 121.74" stroke="#131A40" stroke-width="2.5" stroke-linecap="round" stroke-linejoin="round"/>
<path d="M187.974 114.32C186.586 118.747 184.882 121.788 183.368 121.857C178.104 122.096 158.962 112.047 157.526 108.936C156.569 106.886 163.747 92.5536 172.038 84.6097" stroke="#131A40" stroke-width="2.5" stroke-linecap="round" stroke-linejoin="round"/>
<path d="M107.518 119.704H0.811523V124.489H107.518V119.704Z" fill="#F6F7F9"/>
<path d="M102.494 117.072H74.9775V119.704H102.494V117.072Z" fill="#131A40"/>
<path d="M62.0633 83.3402L74.665 118.633L75.4109 118.366L62.8091 83.0739L62.0633 83.3402Z" fill="#131A40"/>
<path d="M164.29 204.549L180.986 254.636" stroke="#F6F7F9" stroke-width="2" stroke-linecap="round" stroke-linejoin="round"/>
<path d="M123.727 231.79L107.865 252.87" stroke="#F6F7F9" stroke-width="2" stroke-linecap="round" stroke-linejoin="round"/>
<path d="M146.67 201.444L129.17 224.701" stroke="#F6F7F9" stroke-width="2" stroke-linecap="round" stroke-linejoin="round"/>
<path d="M120.736 195.333L82.3379 246.36" stroke="#F6F7F9" stroke-width="2" stroke-linecap="round" stroke-linejoin="round"/>
<path d="M139.146 200.02L155.842 250.107" stroke="#F6F7F9" stroke-width="2" stroke-linecap="round" stroke-linejoin="round"/>
<path d="M177.408 162.823C166.748 165.539 134.317 154.597 131.207 147.22C130.977 146.614 130.816 145.984 130.728 145.342C116.635 141.717 101.456 139.047 88.2503 139.047C66.5364 139.047 48.7705 234.133 48.7705 235.772C50.5124 236.284 62.2941 237.925 62.2941 237.925C62.2941 237.925 91.8083 177.677 92.629 173.578C95.6007 175.626 133.04 195.093 147.494 195.093C163.336 195.093 178.185 178.823 178.185 163.842C178.185 163.589 177.917 163.251 177.408 162.823Z" fill="#131A40"/>
<path d="M61.8818 236.849L58.8454 254.921L29.9893 250.344L52.8158 245.903L54.7299 235.655" stroke="#131A40" stroke-width="2.5" stroke-linecap="round" stroke-linejoin="round"/>
<path d="M125.057 219.693L135.485 234.765L111.61 251.605L124.876 232.504L119.1 223.825" stroke="#131A40" stroke-width="2.5" stroke-linecap="round" stroke-linejoin="round"/>
</svg>
