<svg width="40" height="41" viewBox="0 0 40 41" fill="none" xmlns="http://www.w3.org/2000/svg">
<path d="M38.027 21.5097C38.6386 21.5097 39.1451 21.0032 39.1451 20.3916V11.0796C39.1451 10.468 38.6386 9.96151 38.027 9.96151H30.1487V1.68863C30.1487 1.07706 29.6422 0.570557 29.0307 0.570557H1.8837C1.27213 0.570557 0.765625 1.07706 0.765625 1.68863V39.0157C0.765625 39.6273 1.27213 40.1338 1.8837 40.1338H38.027C38.6386 40.1338 39.1451 39.6273 39.1451 39.0157V29.7037C39.1451 29.0921 38.6386 28.5856 38.027 28.5856H30.1487V21.5097H38.027ZM12.0771 2.8067H27.8337V9.88259H12.0771V2.8067ZM3.00177 2.8067H9.762V9.88259H3.00177V2.8067ZM3.00177 12.1977H18.7584V19.2735H3.00177V12.1977ZM3.00177 21.5097H9.762V28.5856H3.00177V21.5097ZM18.7584 37.9765H3.00177V30.9006H18.7584V37.9765ZM12.0771 28.5856V21.5097H27.8337V28.5856H12.0771ZM36.83 30.9006V37.9765H21.0734V30.9006H36.83ZM21.0734 19.2735V12.1977H36.83V19.2735H21.0734Z" fill="#17AEBF" stroke="#17AEBF" stroke-width="0.5"/>
</svg>
