<svg width="68" height="32" viewBox="0 0 68 32" fill="none" xmlns="http://www.w3.org/2000/svg">
<path d="M6.64618 8.12388C5.93793 8.82777 5.07986 9.17971 4.07197 9.17971C3.06408 9.17971 2.19239 8.82777 1.45691 8.12388C0.748658 7.39292 0.394531 6.5266 0.394531 5.52492C0.394531 4.52323 0.748658 3.67045 1.45691 2.96656C2.19239 2.2356 3.06408 1.87012 4.07197 1.87012C5.07986 1.87012 5.93793 2.2356 6.64618 2.96656C7.38166 3.67045 7.74941 4.52323 7.74941 5.52492C7.74941 6.5266 7.38166 7.39292 6.64618 8.12388ZM1.00744 31.2709V10.9665H7.13651V31.2709H1.00744Z" fill="#3CE8D3"/>
<path d="M23.5937 10.398C25.7729 10.398 27.5844 11.1425 29.0281 12.6315C30.4991 14.1205 31.2346 16.178 31.2346 18.804V31.2709H25.1055V19.6974C25.1055 18.5062 24.765 17.5993 24.084 16.9766C23.4302 16.3269 22.5858 16.002 21.5507 16.002C20.3793 16.002 19.4532 16.3539 18.7722 17.0578C18.0912 17.7617 17.7506 18.804 17.7506 20.1847V31.2709H11.6216V10.9665H17.7506V12.8751C18.9765 11.2237 20.9241 10.398 23.5937 10.398Z" fill="#3CE8D3"/>
<path d="M47.4156 10.398C49.5949 10.398 51.4064 11.1425 52.8501 12.6315C54.3211 14.1205 55.0566 16.178 55.0566 18.804V31.2709H48.9275V19.6974C48.9275 18.5062 48.587 17.5993 47.906 16.9766C47.2522 16.3269 46.4078 16.002 45.3726 16.002C44.2013 16.002 43.2751 16.3539 42.5941 17.0578C41.9131 17.7617 41.5726 18.804 41.5726 20.1847V31.2709H35.4435V10.9665H41.5726V12.8751C42.7984 11.2237 44.7461 10.398 47.4156 10.398Z" fill="#3CE8D3"/>
<path d="M62.8204 0.773682C64.1551 0.773682 65.2584 1.19331 66.1301 2.03256C67.0017 2.8718 67.4376 3.96824 67.4376 5.32187C67.4376 5.94454 67.3559 6.56721 67.1924 7.18988C67.029 7.81254 66.6749 8.74655 66.1301 9.99189L63.515 15.9208H58.6526L60.573 9.30154C59.8103 8.94959 59.211 8.43521 58.7752 7.7584C58.3666 7.05451 58.1623 6.24234 58.1623 5.32187C58.1623 3.96824 58.5981 2.8718 59.4698 2.03256C60.3415 1.19331 61.4584 0.773682 62.8204 0.773682Z" fill="#3CE8D3"/>
</svg>
