<svg width="47" height="47" viewBox="0 0 47 47" fill="none" xmlns="http://www.w3.org/2000/svg">
<path d="M16.276 33.1723H30.7927V34.6239H16.276V33.1723Z" fill="#17AEBF"/>
<path d="M16.276 36.0756H30.7927V37.5273H16.276V36.0756Z" fill="#17AEBF"/>
<path d="M19.1793 38.979H27.8894V40.4306H19.1793V38.979Z" fill="#17AEBF"/>
<path d="M31.8003 19.5925C31.5377 18.9915 31.0734 18.501 30.4879 18.2054C30.2459 18.07 30.0254 17.8988 29.8348 17.6975C29.6983 17.4498 29.6005 17.1825 29.5445 16.9054C29.4485 16.26 29.1284 15.6688 28.64 15.2361C28.0836 14.9065 27.4294 14.7832 26.7911 14.8877C26.5068 14.9203 26.2194 14.9097 25.9383 14.8558C25.6945 14.7374 25.4695 14.584 25.2706 14.3997C24.806 13.9308 24.1918 13.6388 23.5344 13.5746C22.8748 13.6381 22.2581 13.9312 21.7924 14.4029C21.5929 14.5872 21.3675 14.741 21.1233 14.8594C20.8426 14.9118 20.5559 14.9224 20.2723 14.8905C19.634 14.7853 18.9787 14.9086 18.4223 15.2389C17.9353 15.671 17.6157 16.2604 17.5193 16.904C17.4629 17.1811 17.3651 17.4483 17.229 17.6964C17.038 17.8977 16.8179 18.0689 16.5758 18.2047C15.99 18.5002 15.5257 18.9911 15.2634 19.5925C15.1259 20.2181 15.2113 20.872 15.5051 21.4412C15.6285 21.7084 15.71 21.9926 15.7468 22.2847C15.7114 22.576 15.6317 22.8602 15.5101 23.1275C15.2163 23.6967 15.1309 24.3509 15.2684 24.9768C15.531 25.5779 15.9953 26.0684 16.5808 26.364C16.8232 26.4994 17.0433 26.6705 17.234 26.8718C17.3704 27.1196 17.4686 27.3868 17.5246 27.664C17.6203 28.3093 17.9407 28.9005 18.4287 29.3332C18.9855 29.6618 19.6394 29.7851 20.2777 29.6816C20.5619 29.649 20.8493 29.6597 21.1304 29.7135C21.3742 29.8323 21.5989 29.9857 21.7981 30.1693C22.2631 30.6385 22.8769 30.9306 23.5344 30.9947C24.1943 30.9309 24.8106 30.6378 25.2763 30.1665C25.4758 29.9825 25.7012 29.8287 25.9458 29.71C26.2261 29.6568 26.5128 29.6462 26.7964 29.6788C27.4347 29.7841 28.09 29.6607 28.6464 29.3304C29.1334 28.8984 29.4531 28.309 29.5495 27.6654C29.6058 27.3879 29.704 27.121 29.8397 26.8726C30.0308 26.6716 30.2508 26.5001 30.4929 26.3647C31.0788 26.0691 31.543 25.5782 31.8053 24.9768C31.9428 24.3513 31.8574 23.6974 31.5636 23.1282C31.4403 22.8609 31.3587 22.5764 31.3219 22.2847C31.3573 21.9933 31.4371 21.7091 31.5586 21.4419C31.8524 20.8727 31.9379 20.2184 31.8003 19.5925ZM30.2034 23.6442C30.3433 23.9182 30.4178 24.2212 30.421 24.5288C30.3593 24.7191 30.0095 24.9456 29.7004 25.1459C29.3042 25.3702 28.9523 25.6654 28.6624 26.017C28.4146 26.4054 28.2403 26.836 28.147 27.2872C28.1003 27.6023 27.9776 27.9011 27.7891 28.158C27.4928 28.2551 27.1777 28.2799 26.8697 28.2307C26.4094 28.1796 25.9433 28.214 25.4957 28.3324C25.0753 28.4965 24.6894 28.7378 24.3584 29.0444C24.0678 29.2794 23.7442 29.5452 23.5365 29.5452C23.3288 29.5452 23.0031 29.2794 22.715 29.0444C22.3843 28.7382 21.9987 28.4968 21.5791 28.3331C21.2938 28.247 20.9971 28.2069 20.6994 28.214C20.5286 28.214 20.3624 28.2229 20.2036 28.23C19.8956 28.2796 19.5802 28.2548 19.2839 28.1573C19.0957 27.9004 18.9727 27.6016 18.9259 27.2865C18.8334 26.835 18.6583 26.4044 18.4099 26.0163C18.1207 25.6647 17.7691 25.3695 17.3729 25.1451C17.0635 24.9449 16.7137 24.7184 16.652 24.5288C16.6552 24.2208 16.7296 23.9178 16.8696 23.6435C17.061 23.2143 17.1723 22.7539 17.1985 22.2847C17.1716 21.8151 17.0589 21.3543 16.8668 20.9251C16.7268 20.6508 16.6524 20.3482 16.6492 20.0402C16.7108 19.8502 17.0606 19.6237 17.3697 19.4235C17.7663 19.1988 18.1179 18.9036 18.4078 18.5523C18.6555 18.1639 18.8302 17.7333 18.9231 17.2821C18.9699 16.9671 19.0929 16.6679 19.281 16.411C19.5773 16.3135 19.8928 16.2887 20.2008 16.3387C20.6611 16.389 21.1268 16.3546 21.5745 16.237C21.9948 16.0729 22.3807 15.8312 22.7121 15.5249C23.0024 15.2896 23.326 15.0242 23.5337 15.0242C23.7413 15.0242 24.067 15.2896 24.3552 15.5249C24.6862 15.8312 25.0714 16.0722 25.4911 16.2363C25.9398 16.3543 26.4058 16.389 26.8666 16.3394C27.1745 16.2901 27.49 16.3149 27.7863 16.412C27.9748 16.669 28.0974 16.9678 28.1442 17.2828C28.2371 17.7344 28.4118 18.1646 28.6595 18.5531C28.9494 18.9043 29.301 19.1995 29.6976 19.4242C30.0067 19.6244 30.3565 19.8509 30.4181 20.0402C30.4149 20.3485 30.3405 20.6515 30.2005 20.9259C30.0088 21.355 29.8971 21.8154 29.8702 22.2847C29.8975 22.7543 30.0098 23.215 30.2019 23.6442H30.2034Z" fill="#17AEBF"/>
<path d="M23.5343 17.2038C20.7285 17.2038 18.4535 19.4784 18.4535 22.2847C18.4535 25.0906 20.7285 27.3656 23.5343 27.3656C26.3406 27.3656 28.6152 25.0906 28.6152 22.2847C28.6117 19.4802 26.3388 17.2074 23.5343 17.2038ZM23.5343 25.9139C21.5301 25.9139 19.9051 24.2889 19.9051 22.2847C19.9051 20.2805 21.5301 18.6555 23.5343 18.6555C25.5385 18.6555 27.1635 20.2805 27.1635 22.2847C27.1611 24.2878 25.5378 25.9114 23.5343 25.9139Z" fill="#17AEBF"/>
<path d="M39.4557 28.8116C39.4752 28.8116 39.5638 28.8172 39.7062 28.8172C40.5044 28.8172 43.008 28.6801 44.628 27.0608C46.5354 25.1526 46.3859 22.0203 46.3788 21.8884L46.343 21.2395L45.6933 21.2037C44.213 21.1545 42.7471 21.5096 41.4531 22.2308C41.5811 21.4178 41.6537 20.597 41.6708 19.774L42.0383 19.5883C42.1567 19.5281 44.9416 18.0923 45.6427 15.4856C46.3437 12.8793 44.6461 10.2414 44.5727 10.1304L44.2179 9.58605L43.637 9.87632C42.3278 10.5773 41.2341 11.6214 40.4725 12.8966C40.1762 12.1293 39.8278 11.3833 39.4302 10.6631L39.6619 10.3091C39.7342 10.1988 41.4301 7.56093 40.7309 4.95387C40.032 2.34645 37.247 0.911432 37.1279 0.851536L36.5474 0.560917L36.1915 1.1053C35.4069 2.36559 34.9805 3.81585 34.9575 5.30013C34.6831 5.07791 34.4025 4.86314 34.115 4.65545L33.2729 5.8314C39.3004 10.1623 41.7466 17.952 39.2771 24.9513L39.2632 24.9878C38.4027 27.4024 36.9939 29.5849 35.1478 31.3633V9.94543H11.921V31.3633C10.0748 29.5842 8.66602 27.4013 7.8048 24.9864L7.79239 24.9534C5.32178 17.9537 7.76758 10.163 13.7958 5.8314L12.9495 4.65191C12.6592 4.85889 12.381 5.07437 12.1074 5.29552C12.0843 3.8116 11.658 2.36169 10.8737 1.10175L10.5178 0.557373L9.9373 0.851536C9.81893 0.911432 7.03395 2.34716 6.33363 4.95387C5.63295 7.56022 7.33449 10.1988 7.40715 10.3083L7.63787 10.6617C7.24093 11.3829 6.89325 12.13 6.59696 12.898C5.83568 11.6232 4.74196 10.5798 3.43311 9.87844L2.85223 9.58818L2.49675 10.1326C2.4241 10.2431 0.728583 12.8807 1.42678 15.4877C2.12497 18.0952 4.91066 19.5302 5.03045 19.5904L5.39869 19.7768C5.41605 20.5994 5.48871 21.4196 5.6163 22.2322C4.32233 21.5103 2.85577 21.1545 1.37468 21.2037L0.725748 21.2395L0.689952 21.8884C0.682864 22.0203 0.533301 25.1547 2.44146 27.0608C4.06078 28.6808 6.56222 28.8172 7.36284 28.8172C7.5078 28.8172 7.59357 28.813 7.61377 28.8116L8.01674 28.7896C8.44451 29.4938 8.92049 30.1679 9.44077 30.8065C7.95082 30.8321 6.49772 31.2712 5.2431 32.0753L4.71573 32.4305L4.99714 33.0004C5.05739 33.1216 6.49311 35.9711 9.10195 36.6905C9.53008 36.8046 9.97168 36.8617 10.4147 36.8596C10.9226 36.8553 11.4283 36.7912 11.921 36.6685V42.6082C11.9234 44.6113 13.5466 46.2349 15.5501 46.2373H37.3253C39.3288 46.2349 40.952 44.6113 40.9545 42.6082V38.979H35.1478V36.6005C35.7223 36.7653 36.3163 36.8525 36.9138 36.8589C37.3579 36.861 37.8006 36.8043 38.2298 36.6898C40.8354 35.9711 42.2704 33.1216 42.3307 33.0004L42.6124 32.4305L42.0854 32.0753C40.755 31.2184 39.1977 30.781 37.6156 30.8204C38.1404 30.1771 38.6203 29.4981 39.0513 28.7882L39.4557 28.8116ZM36.5268 6.0809C36.2993 4.8642 36.4928 3.60639 37.0758 2.51409C38.127 3.16798 38.923 4.1614 39.3316 5.3299C39.5585 6.54589 39.3657 7.803 38.7844 8.89495C37.7346 8.23999 36.9386 7.24799 36.5268 6.0809ZM41.4365 14.3557C41.848 13.189 42.6436 12.197 43.693 11.5424C44.2764 12.634 44.4692 13.8925 44.2388 15.1089C43.8274 16.2756 43.0317 17.268 41.9823 17.9229C41.4007 16.8313 41.2075 15.5746 41.4344 14.3586L41.4365 14.3557ZM41.5495 23.9788C42.4905 23.1739 43.6767 22.7132 44.914 22.6724C44.8732 23.9097 44.4107 25.0959 43.603 26.0344C42.6631 26.8382 41.478 27.2989 40.2418 27.3407C40.2839 26.1056 40.7443 24.9212 41.5474 23.9816L41.5495 23.9788ZM7.73959 5.3299C8.15106 4.16211 8.94742 3.16975 9.99826 2.51515C10.5806 3.6071 10.7727 4.86527 10.5419 6.0809C10.1301 7.2487 9.33374 8.24141 8.2829 8.89672C7.70025 7.80442 7.50851 6.54589 7.73959 5.3299ZM5.08645 17.9229C4.03668 17.2687 3.24102 16.2763 2.8299 15.1096C2.60237 13.8929 2.79552 12.6351 3.37711 11.5424C4.42689 12.1974 5.2229 13.1894 5.63437 14.3565C5.86226 15.5728 5.66875 16.831 5.08645 17.9229ZM3.46784 26.0344C2.66368 25.0941 2.2033 23.9086 2.16148 22.6724C3.39767 22.7142 4.58318 23.175 5.52344 23.9788C6.32831 24.919 6.78905 26.1053 6.82981 27.3422C5.5929 27.3021 4.40668 26.8407 3.46784 26.0344ZM11.921 35.1697C11.1359 35.4316 10.2938 35.4735 9.48649 35.2902C8.30168 34.8547 7.30118 34.0271 6.65154 32.9451C7.73888 32.3397 9.0052 32.137 10.2276 32.3731C10.8641 32.5676 11.445 32.9118 11.921 33.3767V35.1697ZM15.5501 44.7857C14.3476 44.7857 13.3726 43.8107 13.3726 42.6082V11.3971H33.6961V42.6082C33.6947 43.3935 33.9495 44.158 34.4219 44.7857H15.5501ZM39.5028 40.4306V42.6082C39.5028 43.8107 38.5278 44.7857 37.3253 44.7857C36.1228 44.7857 35.1478 43.8107 35.1478 42.6082V40.4306H39.5028ZM40.6773 32.9458C40.0288 34.0271 39.0297 34.8539 37.8466 35.2895C36.9464 35.4869 36.0083 35.4164 35.1478 35.0861V33.5164L35.1992 33.5678C35.7187 33.0082 36.3772 32.5963 37.1077 32.3738C38.3276 32.1427 39.5903 32.3451 40.6773 32.9458Z" fill="#17AEBF"/>
<path d="M16.276 33.1723H30.7927V34.6239H16.276V33.1723Z" stroke="#17AEBF" stroke-width="0.6"/>
<path d="M16.276 36.0756H30.7927V37.5273H16.276V36.0756Z" stroke="#17AEBF" stroke-width="0.6"/>
<path d="M19.1793 38.979H27.8894V40.4306H19.1793V38.979Z" stroke="#17AEBF" stroke-width="0.6"/>
<path d="M31.8003 19.5925C31.5377 18.9915 31.0734 18.501 30.4879 18.2054C30.2459 18.07 30.0254 17.8988 29.8348 17.6975C29.6983 17.4498 29.6005 17.1825 29.5445 16.9054C29.4485 16.26 29.1284 15.6688 28.64 15.2361C28.0836 14.9065 27.4294 14.7832 26.7911 14.8877C26.5068 14.9203 26.2194 14.9097 25.9383 14.8558C25.6945 14.7374 25.4695 14.584 25.2706 14.3997C24.806 13.9308 24.1918 13.6388 23.5344 13.5746C22.8748 13.6381 22.2581 13.9312 21.7924 14.4029C21.5929 14.5872 21.3675 14.741 21.1233 14.8594C20.8426 14.9118 20.5559 14.9224 20.2723 14.8905C19.634 14.7853 18.9787 14.9086 18.4223 15.2389C17.9353 15.671 17.6157 16.2604 17.5193 16.904C17.4629 17.1811 17.3651 17.4483 17.229 17.6964C17.038 17.8977 16.8179 18.0689 16.5758 18.2047C15.99 18.5002 15.5257 18.9911 15.2634 19.5925C15.1259 20.2181 15.2113 20.872 15.5051 21.4412C15.6285 21.7084 15.71 21.9926 15.7468 22.2847C15.7114 22.576 15.6317 22.8602 15.5101 23.1275C15.2163 23.6967 15.1309 24.3509 15.2684 24.9768C15.531 25.5779 15.9953 26.0684 16.5808 26.364C16.8232 26.4994 17.0433 26.6705 17.234 26.8718C17.3704 27.1196 17.4686 27.3868 17.5246 27.664C17.6203 28.3093 17.9407 28.9005 18.4287 29.3332C18.9855 29.6618 19.6394 29.7851 20.2777 29.6816C20.5619 29.649 20.8493 29.6597 21.1304 29.7135C21.3742 29.8323 21.5989 29.9857 21.7981 30.1693C22.2631 30.6385 22.8769 30.9306 23.5344 30.9947C24.1943 30.9309 24.8106 30.6378 25.2763 30.1665C25.4758 29.9825 25.7012 29.8287 25.9458 29.71C26.2261 29.6568 26.5128 29.6462 26.7964 29.6788C27.4347 29.7841 28.09 29.6607 28.6464 29.3304C29.1334 28.8984 29.4531 28.309 29.5495 27.6654C29.6058 27.3879 29.704 27.121 29.8397 26.8726C30.0308 26.6716 30.2508 26.5001 30.4929 26.3647C31.0788 26.0691 31.543 25.5782 31.8053 24.9768C31.9428 24.3513 31.8574 23.6974 31.5636 23.1282C31.4403 22.8609 31.3587 22.5764 31.3219 22.2847C31.3573 21.9933 31.4371 21.7091 31.5586 21.4419C31.8524 20.8727 31.9379 20.2184 31.8003 19.5925ZM30.2034 23.6442C30.3433 23.9182 30.4178 24.2212 30.421 24.5288C30.3593 24.7191 30.0095 24.9456 29.7004 25.1459C29.3042 25.3702 28.9523 25.6654 28.6624 26.017C28.4146 26.4054 28.2403 26.836 28.147 27.2872C28.1003 27.6023 27.9776 27.9011 27.7891 28.158C27.4928 28.2551 27.1777 28.2799 26.8697 28.2307C26.4094 28.1796 25.9433 28.214 25.4957 28.3324C25.0753 28.4965 24.6894 28.7378 24.3584 29.0444C24.0678 29.2794 23.7442 29.5452 23.5365 29.5452C23.3288 29.5452 23.0031 29.2794 22.715 29.0444C22.3843 28.7382 21.9987 28.4968 21.5791 28.3331C21.2938 28.247 20.9971 28.2069 20.6994 28.214C20.5286 28.214 20.3624 28.2229 20.2036 28.23C19.8956 28.2796 19.5802 28.2548 19.2839 28.1573C19.0957 27.9004 18.9727 27.6016 18.9259 27.2865C18.8334 26.835 18.6583 26.4044 18.4099 26.0163C18.1207 25.6647 17.7691 25.3695 17.3729 25.1451C17.0635 24.9449 16.7137 24.7184 16.652 24.5288C16.6552 24.2208 16.7296 23.9178 16.8696 23.6435C17.061 23.2143 17.1723 22.7539 17.1985 22.2847C17.1716 21.8151 17.0589 21.3543 16.8668 20.9251C16.7268 20.6508 16.6524 20.3482 16.6492 20.0402C16.7108 19.8502 17.0606 19.6237 17.3697 19.4235C17.7663 19.1988 18.1179 18.9036 18.4078 18.5523C18.6555 18.1639 18.8302 17.7333 18.9231 17.2821C18.9699 16.9671 19.0929 16.6679 19.281 16.411C19.5773 16.3135 19.8928 16.2887 20.2008 16.3387C20.6611 16.389 21.1268 16.3546 21.5745 16.237C21.9948 16.0729 22.3807 15.8312 22.7121 15.5249C23.0024 15.2896 23.326 15.0242 23.5337 15.0242C23.7413 15.0242 24.067 15.2896 24.3552 15.5249C24.6862 15.8312 25.0714 16.0722 25.4911 16.2363C25.9398 16.3543 26.4058 16.389 26.8666 16.3394C27.1745 16.2901 27.49 16.3149 27.7863 16.412C27.9748 16.669 28.0974 16.9678 28.1442 17.2828C28.2371 17.7344 28.4118 18.1646 28.6595 18.5531C28.9494 18.9043 29.301 19.1995 29.6976 19.4242C30.0067 19.6244 30.3565 19.8509 30.4181 20.0402C30.4149 20.3485 30.3405 20.6515 30.2005 20.9259C30.0088 21.355 29.8971 21.8154 29.8702 22.2847C29.8975 22.7543 30.0098 23.215 30.2019 23.6442H30.2034Z" stroke="#17AEBF" stroke-width="0.6"/>
<path d="M23.5343 17.2038C20.7285 17.2038 18.4535 19.4784 18.4535 22.2847C18.4535 25.0906 20.7285 27.3656 23.5343 27.3656C26.3406 27.3656 28.6152 25.0906 28.6152 22.2847C28.6117 19.4802 26.3388 17.2074 23.5343 17.2038ZM23.5343 25.9139C21.5301 25.9139 19.9051 24.2889 19.9051 22.2847C19.9051 20.2805 21.5301 18.6555 23.5343 18.6555C25.5385 18.6555 27.1635 20.2805 27.1635 22.2847C27.1611 24.2878 25.5378 25.9114 23.5343 25.9139Z" stroke="#17AEBF" stroke-width="0.6"/>
<path d="M39.4557 28.8116C39.4752 28.8116 39.5638 28.8172 39.7062 28.8172C40.5044 28.8172 43.008 28.6801 44.628 27.0608C46.5354 25.1526 46.3859 22.0203 46.3788 21.8884L46.343 21.2395L45.6933 21.2037C44.213 21.1545 42.7471 21.5096 41.4531 22.2308C41.5811 21.4178 41.6537 20.597 41.6708 19.774L42.0383 19.5883C42.1567 19.5281 44.9416 18.0923 45.6427 15.4856C46.3437 12.8793 44.6461 10.2414 44.5727 10.1304L44.2179 9.58605L43.637 9.87632C42.3278 10.5773 41.2341 11.6214 40.4725 12.8966C40.1762 12.1293 39.8278 11.3833 39.4302 10.6631L39.6619 10.3091C39.7342 10.1988 41.4301 7.56093 40.7309 4.95387C40.032 2.34645 37.247 0.911432 37.1279 0.851536L36.5474 0.560917L36.1915 1.1053C35.4069 2.36559 34.9805 3.81585 34.9575 5.30013C34.6831 5.07791 34.4025 4.86314 34.115 4.65545L33.2729 5.8314C39.3004 10.1623 41.7466 17.952 39.2771 24.9513L39.2632 24.9878C38.4027 27.4024 36.9939 29.5849 35.1478 31.3633V9.94543H11.921V31.3633C10.0748 29.5842 8.66602 27.4013 7.8048 24.9864L7.79239 24.9534C5.32178 17.9537 7.76758 10.163 13.7958 5.8314L12.9495 4.65191C12.6592 4.85889 12.381 5.07437 12.1074 5.29552C12.0843 3.8116 11.658 2.36169 10.8737 1.10175L10.5178 0.557373L9.9373 0.851536C9.81893 0.911432 7.03395 2.34716 6.33363 4.95387C5.63295 7.56022 7.33449 10.1988 7.40715 10.3083L7.63787 10.6617C7.24093 11.3829 6.89325 12.13 6.59696 12.898C5.83568 11.6232 4.74196 10.5798 3.43311 9.87844L2.85223 9.58818L2.49675 10.1326C2.4241 10.2431 0.728583 12.8807 1.42678 15.4877C2.12497 18.0952 4.91066 19.5302 5.03045 19.5904L5.39869 19.7768C5.41605 20.5994 5.48871 21.4196 5.6163 22.2322C4.32233 21.5103 2.85577 21.1545 1.37468 21.2037L0.725748 21.2395L0.689952 21.8884C0.682864 22.0203 0.533301 25.1547 2.44146 27.0608C4.06078 28.6808 6.56222 28.8172 7.36284 28.8172C7.5078 28.8172 7.59357 28.813 7.61377 28.8116L8.01674 28.7896C8.44451 29.4938 8.92049 30.1679 9.44077 30.8065C7.95082 30.8321 6.49772 31.2712 5.2431 32.0753L4.71573 32.4305L4.99714 33.0004C5.05739 33.1216 6.49311 35.9711 9.10195 36.6905C9.53008 36.8046 9.97168 36.8617 10.4147 36.8596C10.9226 36.8553 11.4283 36.7912 11.921 36.6685V42.6082C11.9234 44.6113 13.5466 46.2349 15.5501 46.2373H37.3253C39.3288 46.2349 40.952 44.6113 40.9545 42.6082V38.979H35.1478V36.6005C35.7223 36.7653 36.3163 36.8525 36.9138 36.8589C37.3579 36.861 37.8006 36.8043 38.2298 36.6898C40.8354 35.9711 42.2704 33.1216 42.3307 33.0004L42.6124 32.4305L42.0854 32.0753C40.755 31.2184 39.1977 30.781 37.6156 30.8204C38.1404 30.1771 38.6203 29.4981 39.0513 28.7882L39.4557 28.8116ZM36.5268 6.0809C36.2993 4.8642 36.4928 3.60639 37.0758 2.51409C38.127 3.16798 38.923 4.1614 39.3316 5.3299C39.5585 6.54589 39.3657 7.803 38.7844 8.89495C37.7346 8.23999 36.9386 7.24799 36.5268 6.0809ZM41.4365 14.3557C41.848 13.189 42.6436 12.197 43.693 11.5424C44.2764 12.634 44.4692 13.8925 44.2388 15.1089C43.8274 16.2756 43.0317 17.268 41.9823 17.9229C41.4007 16.8313 41.2075 15.5746 41.4344 14.3586L41.4365 14.3557ZM41.5495 23.9788C42.4905 23.1739 43.6767 22.7132 44.914 22.6724C44.8732 23.9097 44.4107 25.0959 43.603 26.0344C42.6631 26.8382 41.478 27.2989 40.2418 27.3407C40.2839 26.1056 40.7443 24.9212 41.5474 23.9816L41.5495 23.9788ZM7.73959 5.3299C8.15106 4.16211 8.94742 3.16975 9.99826 2.51515C10.5806 3.6071 10.7727 4.86527 10.5419 6.0809C10.1301 7.2487 9.33374 8.24141 8.2829 8.89672C7.70025 7.80442 7.50851 6.54589 7.73959 5.3299ZM5.08645 17.9229C4.03668 17.2687 3.24102 16.2763 2.8299 15.1096C2.60237 13.8929 2.79552 12.6351 3.37711 11.5424C4.42689 12.1974 5.2229 13.1894 5.63437 14.3565C5.86226 15.5728 5.66875 16.831 5.08645 17.9229ZM3.46784 26.0344C2.66368 25.0941 2.2033 23.9086 2.16148 22.6724C3.39767 22.7142 4.58318 23.175 5.52344 23.9788C6.32831 24.919 6.78905 26.1053 6.82981 27.3422C5.5929 27.3021 4.40668 26.8407 3.46784 26.0344ZM11.921 35.1697C11.1359 35.4316 10.2938 35.4735 9.48649 35.2902C8.30168 34.8547 7.30118 34.0271 6.65154 32.9451C7.73888 32.3397 9.0052 32.137 10.2276 32.3731C10.8641 32.5676 11.445 32.9118 11.921 33.3767V35.1697ZM15.5501 44.7857C14.3476 44.7857 13.3726 43.8107 13.3726 42.6082V11.3971H33.6961V42.6082C33.6947 43.3935 33.9495 44.158 34.4219 44.7857H15.5501ZM39.5028 40.4306V42.6082C39.5028 43.8107 38.5278 44.7857 37.3253 44.7857C36.1228 44.7857 35.1478 43.8107 35.1478 42.6082V40.4306H39.5028ZM40.6773 32.9458C40.0288 34.0271 39.0297 34.8539 37.8466 35.2895C36.9464 35.4869 36.0083 35.4164 35.1478 35.0861V33.5164L35.1992 33.5678C35.7187 33.0082 36.3772 32.5963 37.1077 32.3738C38.3276 32.1427 39.5903 32.3451 40.6773 32.9458Z" stroke="#17AEBF" stroke-width="0.6"/>
</svg>
