<svg width="34" height="38" viewBox="0 0 34 38" fill="none" xmlns="http://www.w3.org/2000/svg">
<path d="M16.4016 17.5108C16.4016 16.9185 15.9214 16.4382 15.3291 16.4382H6.67705C6.08471 16.4382 5.60449 16.9185 5.60449 17.5108C5.60449 18.1031 6.08471 18.5833 6.67705 18.5833H15.3291C15.9214 18.5833 16.4016 18.1031 16.4016 17.5108Z" fill="#17AEBF" stroke="#17AEBF" stroke-width="0.5"/>
<path d="M10.9707 20.7285H6.67314C6.0808 20.7285 5.60059 21.2087 5.60059 21.8011C5.60059 22.3934 6.0808 22.8736 6.67314 22.8736H10.9707C11.563 22.8736 12.0432 22.3934 12.0432 21.8011C12.0432 21.2087 11.563 20.7285 10.9707 20.7285Z" fill="#17AEBF" stroke="#17AEBF" stroke-width="0.5"/>
<path d="M10.9702 25.0117H6.66923C6.0769 25.0117 5.59668 25.4919 5.59668 26.0843C5.59668 26.6766 6.0769 27.1568 6.66923 27.1568H10.9702C11.5625 27.1568 12.0427 26.6766 12.0427 26.0843C12.0427 25.4919 11.5625 25.0117 10.9702 25.0117Z" fill="#17AEBF" stroke="#17AEBF" stroke-width="0.5"/>
<path d="M9.92314 11.0718H12.0399V13.1886C12.0399 13.7809 12.5202 14.2611 13.1125 14.2611C13.7048 14.2611 14.185 13.7809 14.185 13.1886V11.0718H16.3018C16.8942 11.0718 17.3744 10.5915 17.3744 9.99921C17.3744 9.40687 16.8942 8.92665 16.3018 8.92665H14.185V6.80986C14.185 6.21752 13.7048 5.7373 13.1125 5.7373C12.5202 5.7373 12.0399 6.21752 12.0399 6.80986V8.92665H9.92314C9.3308 8.92665 8.85059 9.40687 8.85059 9.99921C8.85059 10.5915 9.33073 11.0718 9.92314 11.0718Z" fill="#17AEBF" stroke="#17AEBF" stroke-width="0.5"/>
<path d="M24.9029 17.6296V15.3622H32.4858C33.0782 15.3622 33.5584 14.882 33.5584 14.2896V5.67522C33.5584 2.70796 31.1474 0.274974 28.1554 0.274974C27.3965 0.274974 7.3623 0.274902 6.60758 0.274902C3.65126 0.274902 1.24609 2.68014 1.24609 5.63646V35.7929C1.24609 36.7604 2.42934 37.2281 3.09332 36.5347L4.4654 35.1018L5.91485 36.5513C6.33372 36.97 7.01265 36.9702 7.43166 36.5514L8.80518 35.1783L10.1928 36.5544C10.6109 36.9692 11.285 36.9691 11.7032 36.5546L13.1126 35.1571L14.5227 36.5547C14.941 36.9693 15.6153 36.9691 16.0333 36.5542L17.8561 34.7451C19.5129 36.0826 21.6189 36.8848 23.909 36.8848C29.2317 36.8848 33.562 32.5545 33.562 27.2318C33.562 22.2446 29.7604 18.1287 24.9029 17.6296ZM31.4132 5.67522V13.2171H24.9028V5.67522C24.9028 3.88026 26.3631 2.42001 28.158 2.42001C29.9529 2.42001 31.4132 3.88033 31.4132 5.67522ZM15.2772 34.2823L13.8675 32.8852C13.4493 32.4706 12.7754 32.4708 12.3573 32.8853L10.9481 34.2825L9.55732 32.9032C9.13803 32.4875 8.46153 32.4887 8.04373 32.9062L6.67344 34.2762L5.20718 32.8099C4.77137 32.374 4.0805 32.402 3.67414 32.8265L3.3912 33.1219V5.63646C3.3912 3.86296 4.83408 2.42001 6.60758 2.42001H23.8526C23.166 3.32582 22.7577 4.45358 22.7577 5.67522V17.6477C17.9759 18.2187 14.256 22.2987 14.256 27.2318C14.256 29.4932 15.038 31.5752 16.3453 33.2224L15.2772 34.2823ZM23.909 34.7397C19.7692 34.7397 16.4012 31.3716 16.4012 27.2318C16.4012 23.0919 19.7692 19.7239 23.909 19.7239C28.0489 19.7239 31.4169 23.0919 31.4169 27.2318C31.4169 31.3716 28.049 34.7397 23.909 34.7397Z" fill="#17AEBF" stroke="#17AEBF" stroke-width="0.5"/>
<path d="M25.698 26.6031C24.8024 25.9052 23.6142 25.7637 23.3875 25.3545C23.3331 25.2562 23.3954 25.0515 23.5542 24.9447C23.7906 24.7859 24.3343 24.8516 24.5107 25.0144C24.9461 25.4159 25.6247 25.3887 26.0263 24.9532C26.4279 24.5178 26.4005 23.8393 25.9651 23.4377C25.6804 23.175 25.3247 22.982 24.9387 22.8613C24.9293 22.2771 24.4535 21.8062 23.867 21.8062C23.2747 21.8062 22.7944 22.2864 22.7944 22.8787V22.9327C21.4241 23.4967 20.8194 25.1453 21.5111 26.394C21.9968 27.271 22.8336 27.6015 23.5058 27.8669C23.95 28.0424 24.6942 28.3073 24.641 28.7823C24.6161 29.0052 24.4378 29.2367 24.2074 29.3451C23.8517 29.5125 23.1281 29.4033 22.6892 29.1162C22.1935 28.7919 21.5288 28.9308 21.2044 29.4266C20.8801 29.9223 21.0191 30.587 21.5148 30.9114C21.8683 31.1426 22.314 31.3319 22.7944 31.4463V31.4645C22.7944 32.0568 23.2747 32.5371 23.867 32.5371C24.4593 32.5371 24.9396 32.0568 24.9396 31.4645V31.3625C26.8932 30.613 27.5356 28.035 25.698 26.6031Z" fill="#17AEBF" stroke="#17AEBF" stroke-width="0.5"/>
</svg>
