<svg width="40" height="40" viewBox="0 0 40 40" fill="none" xmlns="http://www.w3.org/2000/svg">
<path d="M11.7657 8.89429C14.0171 9.31142 16.893 9.54147 19.8637 9.54147C22.8343 9.54147 25.7102 9.31142 27.9616 8.89429C31.0799 8.31603 32.5955 7.48686 32.5955 6.3585C32.5955 3.84603 24.5924 3.17553 19.8637 3.17553C15.1349 3.17553 7.1318 3.84603 7.1318 6.3585C7.1318 7.48686 8.64745 8.31603 11.7657 8.89429ZM19.8637 4.44872C26.92 4.44872 31.0563 5.69573 31.317 6.35054C31.2561 6.44762 30.7482 7.08263 27.7297 7.64203C25.5523 8.04603 22.7588 8.26828 19.8637 8.26828C16.9685 8.26828 14.1751 8.04603 11.9976 7.64227C8.97108 7.08111 8.46753 6.44317 8.41095 6.36598C8.69241 5.68952 12.8244 4.44872 19.8637 4.44872Z" fill="#17AEBF"/>
<path d="M38.9617 9.5417C38.9617 9.37287 38.8947 9.21095 38.7753 9.09156C38.6559 8.97218 38.494 8.90511 38.3251 8.90511H36.4154V6.35874C36.4154 2.63737 27.8875 0.629395 19.8639 0.629395C11.8403 0.629395 3.31249 2.63737 3.31249 6.35874V8.90511H1.40271C1.23387 8.90511 1.07195 8.97218 0.952567 9.09156C0.833183 9.21095 0.766113 9.37287 0.766113 9.5417V12.7247C0.767541 16.0644 1.64559 19.3452 3.31249 22.2392V33.0957C3.31249 36.817 11.8403 38.825 19.8639 38.825C27.8875 38.825 36.4154 36.817 36.4154 33.0957V22.2392C38.0822 19.3452 38.9603 16.0644 38.9617 12.7247V9.5417ZM14.1346 29.9127H25.5933V31.1859H14.1346V29.9127ZM26.8346 29.117C26.8012 28.9815 26.7236 28.861 26.6141 28.7746C26.5046 28.6881 26.3694 28.6406 26.2299 28.6395H13.498C13.3585 28.6406 13.2233 28.6881 13.1138 28.7746C13.0042 28.861 12.9267 28.9815 12.8932 29.117C9.43354 27.6408 6.5268 25.1123 4.58567 21.8904V8.64856C5.21017 9.17423 6.06305 9.65812 7.13205 10.0923V21.637C7.13205 22.65 7.53447 23.6215 8.25077 24.3378C8.96708 25.0541 9.9386 25.4565 10.9516 25.4565C11.9646 25.4565 12.9361 25.0541 13.6524 24.3378C14.3688 23.6215 14.7712 22.65 14.7712 21.637V17.8174C14.7712 17.3109 14.9724 16.8252 15.3305 16.467C15.6887 16.1088 16.1744 15.9076 16.681 15.9076C17.1875 15.9076 17.6732 16.1088 18.0314 16.467C18.3895 16.8252 18.5907 17.3109 18.5907 17.8174V19.0906C18.5907 20.1036 18.9931 21.0751 19.7095 21.7914C20.4258 22.5078 21.3973 22.9102 22.4103 22.9102C23.4233 22.9102 24.3948 22.5078 25.1111 21.7914C25.8274 21.0751 26.2299 20.1036 26.2299 19.0906V17.8174C26.2304 17.3111 26.4318 16.8257 26.7898 16.4676C27.1479 16.1096 27.6333 15.9082 28.1396 15.9076C28.9835 15.9066 29.7925 15.571 30.3892 14.9743C30.9859 14.3776 31.3216 13.5685 31.3226 12.7247V10.559C33.006 10.0201 34.2864 9.38399 35.1422 8.66885V21.8904C33.201 25.1123 30.2943 27.6408 26.8346 29.117ZM19.8639 12.0881C23.5922 12.0881 27.1641 11.6743 30.0494 10.9229V12.7247C30.0488 13.231 29.8475 13.7164 29.4894 14.0745C29.1314 14.4325 28.646 14.6339 28.1396 14.6345C27.2958 14.6354 26.4867 14.9711 25.89 15.5678C25.2933 16.1645 24.9577 16.9735 24.9567 17.8174V19.0906C24.9567 19.7659 24.6884 20.4136 24.2109 20.8912C23.7333 21.3687 23.0856 21.637 22.4103 21.637C21.735 21.637 21.0873 21.3687 20.6097 20.8912C20.1322 20.4136 19.8639 19.7659 19.8639 19.0906V17.8174C19.8639 16.9732 19.5286 16.1636 18.9317 15.5667C18.3347 14.9698 17.5251 14.6345 16.681 14.6345C15.8368 14.6345 15.0272 14.9698 14.4303 15.5667C13.8333 16.1636 13.498 16.9732 13.498 17.8174V21.637C13.498 22.3123 13.2297 22.96 12.7522 23.4375C12.2746 23.9151 11.627 24.1834 10.9516 24.1834C10.2763 24.1834 9.62859 23.9151 9.15105 23.4375C8.67351 22.96 8.40524 22.3123 8.40524 21.637V10.5515C11.4482 11.5295 15.5504 12.0881 19.8639 12.0881ZM19.8639 1.90258C28.8676 1.90258 35.1422 4.25097 35.1422 6.35874C35.1422 7.43482 33.3651 8.63153 30.5048 9.48139C27.6087 10.3412 23.8299 10.8149 19.8639 10.8149C15.2822 10.8149 10.955 10.1789 7.99185 9.07047C5.85886 8.27289 4.58567 7.25888 4.58567 6.35874C4.58567 4.25097 10.8603 1.90258 19.8639 1.90258ZM2.0393 10.1783H3.31249V19.3179C2.47404 17.2208 2.04197 14.9833 2.0393 12.7247V10.1783ZM19.8639 37.5518C10.8603 37.5518 4.58567 35.2034 4.58567 33.0957V24.1539C6.7065 26.9874 9.57108 29.1777 12.8614 30.4817V31.8225C12.8614 31.9913 12.9285 32.1532 13.0478 32.2726C13.1672 32.392 13.3291 32.4591 13.498 32.4591H26.2299C26.3987 32.4591 26.5606 32.392 26.68 32.2726C26.7994 32.1532 26.8664 31.9913 26.8664 31.8225V30.4817C30.1568 29.1777 33.0213 26.9874 35.1422 24.1539V33.0957C35.1422 35.2034 28.8676 37.5518 19.8639 37.5518ZM37.6885 12.7247C37.6859 14.9833 37.2538 17.2208 36.4154 19.318V10.1783H37.6885V12.7247Z" fill="#17AEBF"/>
<path d="M11.7657 8.89429C14.0171 9.31142 16.893 9.54147 19.8637 9.54147C22.8343 9.54147 25.7102 9.31142 27.9616 8.89429C31.0799 8.31603 32.5955 7.48686 32.5955 6.3585C32.5955 3.84603 24.5924 3.17553 19.8637 3.17553C15.1349 3.17553 7.1318 3.84603 7.1318 6.3585C7.1318 7.48686 8.64745 8.31603 11.7657 8.89429ZM19.8637 4.44872C26.92 4.44872 31.0563 5.69573 31.317 6.35054C31.2561 6.44762 30.7482 7.08263 27.7297 7.64203C25.5523 8.04603 22.7588 8.26828 19.8637 8.26828C16.9685 8.26828 14.1751 8.04603 11.9976 7.64227C8.97108 7.08111 8.46753 6.44317 8.41095 6.36598C8.69241 5.68952 12.8244 4.44872 19.8637 4.44872Z" stroke="#17AEBF" stroke-width="0.8"/>
<path d="M38.9617 9.5417C38.9617 9.37287 38.8947 9.21095 38.7753 9.09156C38.6559 8.97218 38.494 8.90511 38.3251 8.90511H36.4154V6.35874C36.4154 2.63737 27.8875 0.629395 19.8639 0.629395C11.8403 0.629395 3.31249 2.63737 3.31249 6.35874V8.90511H1.40271C1.23387 8.90511 1.07195 8.97218 0.952567 9.09156C0.833183 9.21095 0.766113 9.37287 0.766113 9.5417V12.7247C0.767541 16.0644 1.64559 19.3452 3.31249 22.2392V33.0957C3.31249 36.817 11.8403 38.825 19.8639 38.825C27.8875 38.825 36.4154 36.817 36.4154 33.0957V22.2392C38.0822 19.3452 38.9603 16.0644 38.9617 12.7247V9.5417ZM14.1346 29.9127H25.5933V31.1859H14.1346V29.9127ZM26.8346 29.117C26.8012 28.9815 26.7236 28.861 26.6141 28.7746C26.5046 28.6881 26.3694 28.6406 26.2299 28.6395H13.498C13.3585 28.6406 13.2233 28.6881 13.1138 28.7746C13.0042 28.861 12.9267 28.9815 12.8932 29.117C9.43354 27.6408 6.5268 25.1123 4.58567 21.8904V8.64856C5.21017 9.17423 6.06305 9.65812 7.13205 10.0923V21.637C7.13205 22.65 7.53447 23.6215 8.25077 24.3378C8.96708 25.0541 9.9386 25.4565 10.9516 25.4565C11.9646 25.4565 12.9361 25.0541 13.6524 24.3378C14.3688 23.6215 14.7712 22.65 14.7712 21.637V17.8174C14.7712 17.3109 14.9724 16.8252 15.3305 16.467C15.6887 16.1088 16.1744 15.9076 16.681 15.9076C17.1875 15.9076 17.6732 16.1088 18.0314 16.467C18.3895 16.8252 18.5907 17.3109 18.5907 17.8174V19.0906C18.5907 20.1036 18.9931 21.0751 19.7095 21.7914C20.4258 22.5078 21.3973 22.9102 22.4103 22.9102C23.4233 22.9102 24.3948 22.5078 25.1111 21.7914C25.8274 21.0751 26.2299 20.1036 26.2299 19.0906V17.8174C26.2304 17.3111 26.4318 16.8257 26.7898 16.4676C27.1479 16.1096 27.6333 15.9082 28.1396 15.9076C28.9835 15.9066 29.7925 15.571 30.3892 14.9743C30.9859 14.3776 31.3216 13.5685 31.3226 12.7247V10.559C33.006 10.0201 34.2864 9.38399 35.1422 8.66885V21.8904C33.201 25.1123 30.2943 27.6408 26.8346 29.117ZM19.8639 12.0881C23.5922 12.0881 27.1641 11.6743 30.0494 10.9229V12.7247C30.0488 13.231 29.8475 13.7164 29.4894 14.0745C29.1314 14.4325 28.646 14.6339 28.1396 14.6345C27.2958 14.6354 26.4867 14.9711 25.89 15.5678C25.2933 16.1645 24.9577 16.9735 24.9567 17.8174V19.0906C24.9567 19.7659 24.6884 20.4136 24.2109 20.8912C23.7333 21.3687 23.0856 21.637 22.4103 21.637C21.735 21.637 21.0873 21.3687 20.6097 20.8912C20.1322 20.4136 19.8639 19.7659 19.8639 19.0906V17.8174C19.8639 16.9732 19.5286 16.1636 18.9317 15.5667C18.3347 14.9698 17.5251 14.6345 16.681 14.6345C15.8368 14.6345 15.0272 14.9698 14.4303 15.5667C13.8333 16.1636 13.498 16.9732 13.498 17.8174V21.637C13.498 22.3123 13.2297 22.96 12.7522 23.4375C12.2746 23.9151 11.627 24.1834 10.9516 24.1834C10.2763 24.1834 9.62859 23.9151 9.15105 23.4375C8.67351 22.96 8.40524 22.3123 8.40524 21.637V10.5515C11.4482 11.5295 15.5504 12.0881 19.8639 12.0881ZM19.8639 1.90258C28.8676 1.90258 35.1422 4.25097 35.1422 6.35874C35.1422 7.43482 33.3651 8.63153 30.5048 9.48139C27.6087 10.3412 23.8299 10.8149 19.8639 10.8149C15.2822 10.8149 10.955 10.1789 7.99185 9.07047C5.85886 8.27289 4.58567 7.25888 4.58567 6.35874C4.58567 4.25097 10.8603 1.90258 19.8639 1.90258ZM2.0393 10.1783H3.31249V19.3179C2.47404 17.2208 2.04197 14.9833 2.0393 12.7247V10.1783ZM19.8639 37.5518C10.8603 37.5518 4.58567 35.2034 4.58567 33.0957V24.1539C6.7065 26.9874 9.57108 29.1777 12.8614 30.4817V31.8225C12.8614 31.9913 12.9285 32.1532 13.0478 32.2726C13.1672 32.392 13.3291 32.4591 13.498 32.4591H26.2299C26.3987 32.4591 26.5606 32.392 26.68 32.2726C26.7994 32.1532 26.8664 31.9913 26.8664 31.8225V30.4817C30.1568 29.1777 33.0213 26.9874 35.1422 24.1539V33.0957C35.1422 35.2034 28.8676 37.5518 19.8639 37.5518ZM37.6885 12.7247C37.6859 14.9833 37.2538 17.2208 36.4154 19.318V10.1783H37.6885V12.7247Z" stroke="#17AEBF" stroke-width="0.8"/>
</svg>
