<svg width="37" height="45" viewBox="0 0 37 45" fill="none" xmlns="http://www.w3.org/2000/svg">
<path d="M26.3497 44.2351H10.718C9.95664 44.2351 9.33873 43.6172 9.33873 42.8558C9.33873 42.0944 9.95664 41.4765 10.718 41.4765H26.3497C27.1111 41.4765 27.729 42.0944 27.729 42.8558C27.729 43.6172 27.1111 44.2351 26.3497 44.2351Z" fill="#17AEBF"/>
<path d="M27.8412 24.0058H9.22653C8.27392 24.0058 7.37647 23.5865 6.76407 22.8582C6.14984 22.13 5.89237 21.1737 6.05605 20.2358L9.09412 2.76498C9.36262 1.2202 10.6959 0.0983887 12.2646 0.0983887H24.8013C26.3718 0.0983887 27.7051 1.2202 27.9718 2.76682L31.0098 20.2376C31.1735 21.1755 30.916 22.1318 30.3018 22.86C29.6912 23.5865 28.7938 24.0058 27.8412 24.0058ZM12.2646 2.85693C12.0402 2.85693 11.849 3.01693 11.8104 3.23761L8.77229 20.7084C8.74103 20.8923 8.82195 21.021 8.87344 21.0835C8.92493 21.1461 9.03895 21.2472 9.2247 21.2472H27.8393C28.0269 21.2472 28.1409 21.1442 28.1906 21.0835C28.2421 21.0229 28.323 20.8923 28.2917 20.7084L25.2537 3.23761C25.2169 3.01693 25.0275 2.85693 24.8031 2.85693H12.2646Z" fill="#17AEBF"/>
<path d="M18.5339 44.2351C17.7725 44.2351 17.1546 43.6172 17.1546 42.8558V34.5802C17.1546 33.8188 17.7725 33.2009 18.5339 33.2009C19.2952 33.2009 19.9131 33.8188 19.9131 34.5802V42.8558C19.9131 43.6172 19.2952 44.2351 18.5339 44.2351Z" fill="#17AEBF"/>
<path d="M31.8668 35.9595H5.20091C4.43955 35.9595 3.82164 35.3415 3.82164 34.5802V30.9021C3.82164 28.1123 6.08916 25.8448 8.87897 25.8448H28.1888C30.9786 25.8448 33.2461 28.1123 33.2461 30.9021V34.5802C33.2461 35.3415 32.6282 35.9595 31.8668 35.9595ZM6.58018 33.2009H30.4876V30.9021C30.4876 29.635 29.4559 28.6033 28.1888 28.6033H8.87897C7.61188 28.6033 6.58018 29.635 6.58018 30.9021V33.2009Z" fill="#17AEBF"/>
<path d="M31.8668 33.6607C31.1054 33.6607 30.4875 33.0428 30.4875 32.2814V26.7643C30.4875 23.9745 32.755 21.707 35.5449 21.707C36.3062 21.707 36.9241 22.3249 36.9241 23.0863C36.9241 23.8476 36.3062 24.4655 35.5449 24.4655C34.2778 24.4655 33.2461 25.4972 33.2461 26.7643V32.2814C33.2461 33.0428 32.6282 33.6607 31.8668 33.6607Z" fill="#17AEBF"/>
<path d="M5.20088 33.6607C4.43953 33.6607 3.82161 33.0428 3.82161 32.2814V26.7643C3.82161 25.4972 2.78992 24.4655 1.52283 24.4655C0.761468 24.4655 0.143555 23.8476 0.143555 23.0863C0.143555 22.3249 0.761468 21.707 1.52283 21.707C4.31263 21.707 6.58015 23.9745 6.58015 26.7643V32.2814C6.58015 33.0428 5.96224 33.6607 5.20088 33.6607Z" fill="#17AEBF"/>
</svg>
