<svg width="58" height="73" viewBox="0 0 58 73" fill="none" xmlns="http://www.w3.org/2000/svg">
<path d="M52.408 52.0509L51.9559 52.2645L52.408 52.0509C49.6193 46.1491 49.02 37.7806 49.02 31.7437C49.02 31.7135 49.0194 31.6841 49.0184 31.6555C48.9841 23.5826 44.2164 16.6103 37.3594 13.3814V8.97629C37.3594 4.413 33.6536 0.699951 29.0959 0.699951H28.4525C23.8947 0.699951 20.189 4.413 20.189 8.97629V13.3811C13.3066 16.6216 8.52842 23.6332 8.52842 31.7437C8.52842 37.7806 7.92908 46.1489 5.14041 52.0509L5.59249 52.2645L5.14041 52.0509C3.70146 55.0966 2.28487 56.1552 2.04968 56.3161C0.983651 56.8301 0.47424 57.982 0.715399 59.1177C0.969946 60.3167 2.07676 61.1121 3.25534 61.1121H17.7637C18.1037 66.9004 22.9094 71.5065 28.7743 71.5065C34.6391 71.5065 39.4448 66.9004 39.7848 61.1121H54.2932C55.4716 61.1121 56.5786 60.3167 56.8331 59.1176L56.8332 59.1175C57.0739 57.982 56.5648 56.83 55.4987 56.3161C55.2637 56.1553 53.8471 55.0967 52.408 52.0509ZM25.2795 8.97629V8.94669C25.2954 7.20674 26.7139 5.79686 28.4526 5.79686H29.096C30.8446 5.79686 32.2693 7.22276 32.2693 8.97629V11.7691C31.1332 11.5701 29.9652 11.4662 28.7737 11.4662C27.5826 11.4662 26.4151 11.57 25.2795 11.7688V8.97629ZM8.80699 56.0151C9.01593 55.6555 9.22539 55.271 9.43384 54.8601L9.43386 54.86C12.2257 49.3547 13.6188 41.5632 13.6188 31.7437C13.6188 23.3728 20.4185 16.5632 28.7736 16.5632C37.1285 16.5632 43.9284 23.3726 43.9284 31.7505C43.9284 31.778 43.9288 31.8062 43.9298 31.835C43.9384 41.6112 45.3314 49.3718 48.1147 54.86C48.3231 55.2711 48.5326 55.6556 48.7416 56.0151H37.0093H37.0089H37.0079H37.0063H37.0039H37.001H36.9973H36.9931H36.9881H36.9826H36.9764H36.9695H36.962H36.9539H36.9452H36.9358H36.9258H36.9151H36.9039H36.892H36.8795H36.8664H36.8527H36.8384H36.8234H36.8079H36.7917H36.775H36.7577H36.7398H36.7212H36.7021H36.6825H36.6622H36.6413H36.6199H36.5979H36.5753H36.5522H36.5285H36.5042H36.4794H36.454H36.428H36.4015H36.3745H36.3469H36.3187H36.29H36.2608H36.231H36.2007H36.1698H36.1385H36.1065H36.0741H36.0412H36.0077H35.9737H35.9392H35.9042H35.8687H35.8326H35.7961H35.759H35.7215H35.6835H35.6449H35.6059H35.5664H35.5264H35.4859H35.445H35.4035H35.3616H35.3192H35.2763H35.233H35.1892H35.145H35.1002H35.0551H35.0094H34.9633H34.9168H34.8698H34.8224H34.7745H34.7262H34.6775H34.6283H34.5787H34.5286H34.4782H34.4273H34.376H34.3242H34.2721H34.2195H34.1666H34.1132H34.0594H34.0052H33.9506H33.8956H33.8402H33.7845H33.7283H33.6717H33.6148H33.5575H33.4998H33.4417H33.3833H33.3244H33.2652H33.2057H33.1457H33.0855H33.0248H32.9638H32.9025H32.8408H32.7787H32.7163H32.6536H32.5905H32.527H32.4633H32.3992H32.3348H32.27H32.2049H32.1395H32.0738H32.0078H31.9414H31.8748H31.8078H31.7405H31.673H31.6051H31.5369H31.4684H31.3996H31.3306H31.2612H31.1916H31.1217H31.0514H30.981H30.9102H30.8392H30.7679H30.6963H30.6245H30.5524H30.48H30.4074H30.3345H30.2614H30.188H30.1144H30.0406H29.9664H29.8921H29.8175H29.7427H29.6677H29.5924H29.5169H29.4411H29.3652H29.289H29.2127H29.1361H29.0593H28.9822H28.905H28.8276H28.75H28.6722H28.5941H28.5159H28.4375H28.359H28.2802H28.2012H28.1221H28.0428H27.9633H27.8837H27.8038H27.7238H27.6437H27.5634H27.4829H27.4023H27.3215H27.2406H27.1595H27.0783H26.9969H26.9154H26.8337H26.7519H26.67H26.588H26.5058H26.4235H26.3411H26.2585H26.1759H26.0931H26.0102H25.9272H25.8441H25.7609H25.6776H25.5942H25.5107H25.4271H25.3434H25.2597H25.1758H25.0919H25.0078H24.9237H24.8396H24.7553H24.671H24.5866H24.5022H24.4176H24.3331H24.2484H24.1637H24.079H23.9942H23.9094H23.8245H23.7396H23.6546H23.5696H23.4846H23.3995H23.3144H23.2293H23.1442H23.059H22.9739H22.8887H22.8035H22.7182H22.633H22.5478H22.4625H22.3773H22.2921H22.2069H22.1216H22.0364H21.9512H21.8661H21.7809H21.6958H21.6107H21.5256H21.4405H21.3555H21.2705H21.1855H21.1006H21.0157H20.9309H20.8461H20.7614H20.6767H20.592H20.5075H20.4229H20.3385H20.2541H20.1698H20.0855H20.0014H19.9173H19.8332H19.7493H19.6654H19.5817H19.498H19.4144H19.3309H19.2475H19.1642H19.081H18.9979H18.9149H18.832H18.7492H18.6666H18.584H18.5016H18.4193H18.3371H18.2551H18.1732H18.0914H18.0097H17.9282H17.8469H17.7656H17.6846H17.6036H17.5228H17.4422H17.3617H17.2814H17.2013H17.1213H17.0415H16.9618H16.8823H16.803H16.7239H16.6449H16.5662H16.4876H16.4092H16.331H16.253H16.1751H16.0975H16.0201H15.9429H15.8659H15.7891H15.7125H15.6361H15.5599H15.484H15.4083H15.3328H15.2575H15.1824H15.1076H15.033H14.9587H14.8846H14.8107H14.7371H14.6637H14.5906H14.5177H14.4451H14.3728H14.3007H14.2288H14.1573H14.086H14.0149H13.9442H13.8737H13.8035H13.7336H13.6639H13.5946H13.5255H13.4567H13.3883H13.3201H13.2522H13.1846H13.1173H13.0504H12.9837H12.9174H12.8513H12.7856H12.7202H12.6551H12.5904H12.526H12.4619H12.3981H12.3347H12.2716H12.2089H12.1465H12.0844H12.0227H11.9614H11.9004H11.8397H11.7794H11.7195H11.66H11.6008H11.5419H11.4835H11.4254H11.3677H11.3104H11.2535H11.1969H11.1407H11.085H11.0296H10.9746H10.92H10.8658H10.812H10.7587H10.7057H10.6531H10.601H10.5492H10.4979H10.447H10.3966H10.3465H10.2969H10.2478H10.199H10.1507H10.1028H10.0554H10.0084H9.96189H9.91581H9.87018H9.825H9.78029H9.73603H9.69223H9.64891H9.60605H9.56366H9.52174H9.4803H9.43934H9.39886H9.35886H9.31935H9.28033H9.2418H9.20376H9.16623H9.12919H9.09265H9.05662H9.02109H8.98608H8.95157H8.91759H8.88412H8.85117H8.81874H8.80699ZM28.7743 66.4096C25.7203 66.4096 23.1967 64.0877 22.8698 61.1123H34.6786C34.3519 64.0876 31.8282 66.4096 28.7743 66.4096Z" fill="#131A40" stroke="#131A40"/>
</svg>
