<svg width="42" height="39" viewBox="0 0 42 39" fill="none" xmlns="http://www.w3.org/2000/svg">
<path d="M25.2917 1.07246H4.31611C2.17402 1.07246 0.431583 2.81481 0.431583 4.9569C0.431583 11.0908 0.423408 15.7395 0.417205 19.2676C0.409817 23.4689 0.405224 26.0811 0.420556 27.72C0.434593 29.2205 0.465085 29.9238 0.529886 30.285C0.563218 30.4708 0.609688 30.5928 0.686881 30.6889C0.723346 30.7342 0.761885 30.7676 0.79177 30.7929C0.796474 30.7968 0.800986 30.8006 0.805346 30.8043C0.830309 30.8253 0.850268 30.8421 0.872651 30.8645C2.71545 32.7072 4.09861 34.0927 5.13983 35.1356C6.31682 36.3146 7.0569 37.0559 7.53011 37.5254C7.97413 37.966 8.18852 38.1728 8.30955 38.2773C8.37128 38.3307 8.41638 38.3642 8.4608 38.3894C8.48277 38.4018 8.50187 38.4107 8.51693 38.4175C8.5324 38.4245 8.54192 38.4286 8.55477 38.4349C8.56944 38.4423 8.58046 38.4487 8.59562 38.4576L8.60499 38.463C8.6249 38.4746 8.65143 38.4896 8.68539 38.5035C8.75393 38.5316 8.83431 38.5479 8.9543 38.5597C9.19092 38.583 9.64566 38.5939 10.6155 38.5988C11.6517 38.6041 13.2878 38.6023 15.8974 38.5996C18.1917 38.5971 21.2384 38.5939 25.2916 38.5939C27.4337 38.5939 29.1761 36.8515 29.1761 34.7094V4.9569C29.1762 2.81481 27.4337 1.07246 25.2917 1.07246ZM7.72098 31.3046V33.4579L5.56768 31.3046H7.72098ZM26.1676 34.7094C26.1676 35.1922 25.7745 35.5852 25.2917 35.5852H10.7296V29.8002C10.7296 28.9694 10.0561 28.2959 9.2253 28.2959H3.44021V4.9569C3.44021 4.47415 3.83325 4.08109 4.31611 4.08109H25.2917C25.7744 4.08109 26.1676 4.47416 26.1676 4.9569V34.7094ZM35.2208 34.7095V4.9569C35.2208 2.81481 33.4783 1.07246 31.3363 1.07246C30.5055 1.07246 29.8319 1.74592 29.8319 2.57677C29.8319 3.40763 30.5055 4.08109 31.3363 4.08109C31.8191 4.08109 32.2122 4.47415 32.2122 4.9569V34.7095C32.2122 35.1923 31.819 35.5853 31.3363 35.5853C30.5055 35.5853 29.8319 36.2588 29.8319 37.0896C29.8319 37.9205 30.5055 38.594 31.3363 38.594C33.4783 38.594 35.2208 36.8516 35.2208 34.7095ZM41.2653 34.7095V4.9569C41.2653 2.81481 39.5229 1.07246 37.3808 1.07246C36.55 1.07246 35.8765 1.74592 35.8765 2.57677C35.8765 3.40763 36.55 4.08109 37.3808 4.08109C37.8636 4.08109 38.2567 4.47415 38.2567 4.9569V34.7095C38.2567 35.1923 37.8636 35.5853 37.3808 35.5853C36.55 35.5853 35.8765 36.2588 35.8765 37.0896C35.8765 37.9205 36.55 38.594 37.3808 38.594C39.5229 38.594 41.2653 36.8516 41.2653 34.7095Z" fill="#17AEBF" stroke="#17AEBF" stroke-width="0.4"/>
</svg>
