<svg width="21" height="26" viewBox="0 0 21 26" fill="none" xmlns="http://www.w3.org/2000/svg">
<path d="M17.9127 8.22264C17.564 8.22264 17.2335 8.3053 16.9399 8.45153C16.5739 7.72524 15.8288 7.22318 14.9669 7.22318C14.6182 7.22318 14.2877 7.30584 13.994 7.45207C13.6281 6.72578 12.8829 6.22372 12.0211 6.22372C11.7649 6.22372 11.5184 6.26833 11.2892 6.35025V3.47529C11.2892 2.23897 10.3006 1.22632 9.07527 1.22632C7.84995 1.22632 6.86137 2.23897 6.86137 3.47529V14.7524L4.52546 13.5631L4.52544 13.5631C4.08373 13.3383 3.58923 13.22 3.09525 13.22C1.91749 13.22 0.969727 14.1933 0.969727 15.3851C0.969727 15.9608 1.19051 16.5026 1.59129 16.9105C1.5913 16.9105 1.5913 16.9106 1.59131 16.9106L7.94045 23.3731C9.42167 24.8818 11.3957 25.7138 13.494 25.7138C17.1555 25.7138 20.1266 22.6832 20.1266 18.9672V10.4716C20.1266 9.23529 19.1381 8.22264 17.9127 8.22264ZM8.99253 22.3152L8.99238 22.3151L2.6422 15.8525L2.64171 15.852C2.52028 15.7291 2.4517 15.5639 2.4517 15.3791C2.4517 15.0112 2.74455 14.7196 3.09525 14.7196C3.35888 14.7196 3.6226 14.783 3.85991 14.9033C3.85995 14.9034 3.85999 14.9034 3.86003 14.9034L7.27003 16.6384L7.27058 16.6386C7.50033 16.7548 7.7757 16.7434 7.99443 16.6047C8.21202 16.4674 8.34334 16.2263 8.34334 15.9688V3.47529C8.34334 3.05828 8.67562 2.72583 9.07527 2.72583C9.47491 2.72583 9.80719 3.05832 9.80719 3.47529V12.9703C9.80719 13.3801 10.1349 13.7201 10.5482 13.7201C10.9614 13.7201 11.2892 13.3801 11.2892 12.9703V8.47269C11.2892 8.05568 11.6214 7.72323 12.0211 7.72323C12.4207 7.72323 12.753 8.05572 12.753 8.47269V12.9703C12.753 13.3801 13.0808 13.7201 13.494 13.7201C13.9072 13.7201 14.235 13.3801 14.235 12.9703V9.47215C14.235 9.05514 14.5673 8.72269 14.9669 8.72269C15.3666 8.72269 15.6988 9.05518 15.6988 9.47215V12.9703C15.6988 13.3801 16.0266 13.7201 16.4398 13.7201C16.8531 13.7201 17.1808 13.3801 17.1808 12.9703V10.4716C17.1808 10.0546 17.5131 9.72215 17.9127 9.72215C18.3124 9.72215 18.6447 10.0546 18.6447 10.4716V18.9672C18.6447 21.8646 16.3291 24.2143 13.493 24.2143C11.7923 24.2143 10.195 23.5411 8.99253 22.3152Z" fill="#17AEBF" stroke="#17AEBF" stroke-width="0.5"/>
</svg>
