<svg width="18" height="27" viewBox="0 0 18 27" fill="none" xmlns="http://www.w3.org/2000/svg">
<path d="M14.8819 2.58956C13.2666 0.953654 11.1117 0.0353893 8.81438 0.00441608C6.49848 -0.0257473 4.30748 0.850005 2.63796 2.47397C0.968043 4.09834 0.031559 6.26687 0.000788193 8.58014C-0.0293752 10.8444 0.807104 12.9998 2.35576 14.6487C3.24144 15.5914 3.72911 16.8174 3.72911 18.1005V21.0243C3.72911 22.3476 4.67632 23.4536 5.92841 23.7005V23.7716C5.92841 25.2968 7.16936 26.5377 8.69454 26.5377C10.2199 26.5377 11.4607 25.2968 11.4607 23.7716V23.7005C12.7128 23.4536 13.66 22.3476 13.66 21.0243V18.1005C13.66 16.8146 14.1444 15.5922 15.0242 14.6584C16.5492 13.0395 17.3891 10.923 17.3891 8.69817C17.3891 6.39664 16.4986 4.2273 14.8819 2.58956ZM6.60274 10.2361H5.85209C5.4381 10.2361 5.10145 9.89924 5.10145 9.48545C5.10145 9.07147 5.4381 8.73481 5.85209 8.73481C6.26588 8.73481 6.60274 9.07167 6.60274 9.48545V10.2361ZM8.17751 11.8109H9.21157V17.3132H8.17751V11.8109ZM9.8859 23.7716C9.8859 24.4285 9.35146 24.9629 8.69454 24.9629C8.03763 24.9629 7.50319 24.4285 7.50319 23.7716V23.7524H9.8859V23.7716ZM12.0852 21.0243C12.0852 21.6601 11.5678 22.1776 10.9319 22.1776H6.45718C5.82132 22.1776 5.30389 21.6601 5.30389 21.0243V18.8879H12.0852V21.0243ZM13.878 13.5786C12.9033 14.6132 12.2978 15.9171 12.1318 17.3132H10.7863V11.8109H11.537C12.8192 11.8109 13.8624 10.7677 13.8624 9.48545C13.8624 8.2032 12.8192 7.16003 11.537 7.16003C10.2547 7.16003 9.21157 8.2032 9.21157 9.48545V10.2361H8.17751V9.48545C8.17751 8.2032 7.13434 7.16003 5.85209 7.16003C4.56984 7.16003 3.52667 8.2032 3.52667 9.48545C3.52667 10.7677 4.56984 11.8109 5.85209 11.8109H6.60274V17.3132H5.25712C5.09011 15.919 4.48218 14.6124 3.5038 13.5705C2.23551 12.2204 1.55087 10.4555 1.57556 8.601C1.60067 6.7088 2.36791 4.93361 3.73599 3.60277C5.10408 2.27214 6.8983 1.55308 8.79313 1.57899C12.6646 1.63142 15.8143 4.8251 15.8143 8.69817C15.8143 10.5199 15.1266 12.253 13.878 13.5786ZM10.7863 10.2361V9.48545C10.7863 9.07147 11.1232 8.73481 11.537 8.73481C11.951 8.73481 12.2876 9.07167 12.2876 9.48545C12.2876 9.89924 11.951 10.2361 11.537 10.2361H10.7863Z" fill="#17AEBF"/>
</svg>
