<svg width="9" height="24" viewBox="0 0 9 24" fill="none" xmlns="http://www.w3.org/2000/svg">
<path d="M4.14922 4.48655C5.34922 4.48655 6.34923 3.48655 6.34923 2.28655C6.34923 1.08655 5.34922 0.0865479 4.14922 0.0865479C2.94922 0.0865479 1.94922 1.08655 1.94922 2.28655C2.04922 3.58655 2.94922 4.48655 4.14922 4.48655Z" fill="#E0E0E0"/>
<path d="M7.64941 5.3866C7.54941 5.3866 7.54941 5.3866 7.64941 5.3866C7.54941 5.3866 7.54941 5.3866 7.64941 5.3866H6.54942H1.94942H0.949417C0.549417 5.3866 0.149414 5.6866 0.149414 6.1866V6.2866V13.2866C0.149414 13.6866 0.449417 14.0866 0.949417 14.0866C1.44942 14.0866 1.74942 13.7866 1.74942 13.2866V7.1866H2.14941V15.1866V22.8866C2.14941 23.3866 2.54941 23.8866 3.14941 23.8866C3.64941 23.8866 4.14941 23.4866 4.14941 22.8866V15.1866H4.94942V22.8866C4.94942 23.3866 5.34942 23.8866 5.94942 23.8866C6.44942 23.8866 6.94942 23.4866 6.94942 22.8866V15.1866V7.1866H7.34943V13.3866C7.34943 13.7866 7.64941 14.1866 8.14941 14.1866C8.54941 14.1866 8.94942 13.8866 8.94942 13.3866V6.3866V6.1866C8.34942 5.6866 8.04941 5.3866 7.64941 5.3866Z" fill="#E0E0E0"/>
</svg>
