<svg width="35" height="36" viewBox="0 0 35 36" fill="none" xmlns="http://www.w3.org/2000/svg">
<path d="M30.7962 1.20996H4.25558C2.24561 1.20996 0.610352 2.84522 0.610352 4.85519V31.3958C0.610352 33.4058 2.24561 35.041 4.25558 35.041H30.7962C32.8062 35.041 34.4414 33.4058 34.4414 31.3958V4.85519C34.4414 2.84522 32.8062 1.20996 30.7962 1.20996ZM32.4591 4.85519V17.1343H28.1422C27.5948 17.1343 27.151 17.5781 27.151 18.1255V19.4525C27.151 20.3694 26.405 21.1154 25.4881 21.1154C24.5711 21.1154 23.8251 20.3694 23.8251 19.4525V18.1255C23.8251 17.5781 23.3814 17.1343 22.834 17.1343H18.517V13.8085H18.8529C20.8629 13.8085 22.4981 12.1733 22.4981 10.1633C22.4981 8.15332 20.8629 6.51807 18.8529 6.51807H18.517V3.19225H30.7962C31.7131 3.19225 32.4591 3.93825 32.4591 4.85519ZM4.25558 3.19225H16.5347V7.50921C16.5347 8.05659 16.9785 8.50036 17.5259 8.50036H18.8529C19.7698 8.50036 20.5158 9.24636 20.5158 10.1633C20.5158 11.0802 19.7698 11.8262 18.8529 11.8262H17.5259C16.9785 11.8262 16.5347 12.27 16.5347 12.8174V17.1343H13.2089V16.7985C13.2089 14.7885 11.5737 13.1532 9.56369 13.1532C7.55371 13.1532 5.91846 14.7885 5.91846 16.7985V17.1343H2.59264V4.85519C2.59264 3.93825 3.33864 3.19225 4.25558 3.19225ZM2.59264 31.3958V19.1166H6.9096C7.45698 19.1166 7.90075 18.6729 7.90075 18.1255V16.7985C7.90075 15.8815 8.64675 15.1355 9.56369 15.1355C10.4806 15.1355 11.2266 15.8815 11.2266 16.7985V18.1255C11.2266 18.6729 11.6704 19.1166 12.2178 19.1166H16.5347V22.4424H16.1989C14.1889 22.4424 12.5536 24.0777 12.5536 26.0877C12.5536 28.0977 14.1889 29.7329 16.1989 29.7329H16.5347V33.0587H4.25558C3.33864 33.0587 2.59264 32.3127 2.59264 31.3958ZM30.7962 33.0587H18.517V28.7418C18.517 28.1944 18.0733 27.7506 17.5259 27.7506H16.1989C15.2819 27.7506 14.5359 27.0046 14.5359 26.0877C14.5359 25.1707 15.2819 24.4247 16.1989 24.4247H17.5259C18.0733 24.4247 18.517 23.981 18.517 23.4336V19.1166H21.8428V19.4525C21.8428 21.4625 23.4781 23.0977 25.4881 23.0977C27.498 23.0977 29.1333 21.4625 29.1333 19.4525V19.1166H32.4591V31.3958C32.4591 32.3127 31.7131 33.0587 30.7962 33.0587Z" fill="#17AEBF" stroke="#17AEBF"/>
</svg>
