<svg width="35" height="34" viewBox="0 0 35 34" fill="none" xmlns="http://www.w3.org/2000/svg">
<path d="M30.0858 18.0892H33.1828C33.7151 18.0892 34.1467 17.6576 34.1467 17.1253V7.83405C34.1467 7.30176 33.7151 6.87022 33.1828 6.87022H24.8554V4.73695C24.8554 2.49772 23.0336 0.676025 20.7945 0.676025C18.5553 0.676025 16.7335 2.49779 16.7335 4.73695V6.87022H8.40607C7.87378 6.87022 7.44224 7.30176 7.44224 7.83405V16.1615H5.30897C3.06981 16.1615 1.24805 17.9833 1.24805 20.2224C1.24805 22.4616 3.06981 24.2834 5.30897 24.2834H7.44224V32.6108C7.44224 33.1431 7.87378 33.5746 8.40607 33.5746H17.6974C18.2296 33.5746 18.6612 33.1431 18.6612 32.6108V29.5137C18.6612 28.3374 19.6182 27.3805 20.7945 27.3805C21.9707 27.3805 22.9277 28.3375 22.9277 29.5137V32.6108C22.9277 33.1431 23.3593 33.5746 23.8916 33.5746H33.1828C33.7151 33.5746 34.1467 33.1431 34.1467 32.6108V23.3195C34.1467 22.7872 33.7151 22.3557 33.1828 22.3557H30.0858C28.9094 22.3557 27.9525 21.3987 27.9525 20.2224C27.9525 19.0462 28.9094 18.0892 30.0858 18.0892ZM30.0858 24.2834H32.219V31.647H24.8554V29.5137C24.8554 27.2745 23.0336 25.4528 20.7945 25.4528C18.5553 25.4528 16.7335 27.2745 16.7335 29.5137V31.647H9.36989V23.3195C9.36989 22.7872 8.93836 22.3557 8.40607 22.3557H5.30897C4.13265 22.3557 3.1757 21.3987 3.1757 20.2224C3.1757 19.0462 4.13272 18.0892 5.30897 18.0892H8.40607C8.93836 18.0892 9.36989 17.6576 9.36989 17.1253V8.79787H17.6974C18.2296 8.79787 18.6612 8.36634 18.6612 7.83405V4.73695C18.6612 3.56063 19.6182 2.60368 20.7945 2.60368C21.9707 2.60368 22.9277 3.5607 22.9277 4.73695V7.83405C22.9277 8.36634 23.3593 8.79787 23.8916 8.79787H32.219V16.1615H30.0858C27.8465 16.1615 26.0248 17.9833 26.0248 20.2224C26.0248 22.4616 27.8465 24.2834 30.0858 24.2834Z" fill="#17AEBF" stroke="#17AEBF" stroke-width="0.8"/>
</svg>
