<svg width="35" height="35" viewBox="0 0 35 35" fill="none" xmlns="http://www.w3.org/2000/svg">
<path d="M33.6277 13.4043H30.785C30.552 12.6744 30.2574 11.9642 29.9041 11.2814L31.9153 9.2702C32.1013 9.0842 32.2059 8.83195 32.2059 8.56892C32.2059 8.30583 32.1013 8.05358 31.9153 7.86765L27.4083 3.36059C27.021 2.97325 26.393 2.97325 26.0056 3.36059L23.9944 5.37172C23.3115 5.01844 22.6014 4.72387 21.8714 4.49086V1.64806C21.8714 1.10032 21.4273 0.65625 20.8796 0.65625H14.5057C13.9579 0.65625 13.5138 1.10032 13.5138 1.64806V4.49073C12.7839 4.72367 12.0738 5.0183 11.3909 5.37159L9.37978 3.36046C8.99244 2.97312 8.36449 2.97312 7.97715 3.36046L3.46996 7.86751C3.28397 8.05351 3.1795 8.30576 3.1795 8.56879C3.1795 8.83189 3.28397 9.08407 3.46996 9.27007L5.48116 11.2813C5.12794 11.9642 4.83331 12.6742 4.6003 13.4042H1.75744C1.20969 13.4042 0.765625 13.8483 0.765625 14.396V20.77C0.765625 21.3177 1.20969 21.7618 1.75744 21.7618H4.60017C4.83318 22.4918 5.12781 23.2018 5.48109 23.8847L3.4699 25.8959C3.2839 26.0819 3.17943 26.3342 3.17943 26.5973C3.17943 26.8603 3.28397 27.1126 3.4699 27.2986L7.97715 31.8057C8.36449 32.193 8.99244 32.193 9.37978 31.8057L11.391 29.7946C12.0739 30.1478 12.7839 30.4424 13.5138 30.6754V33.5183C13.5138 34.066 13.9579 34.5101 14.5057 34.5101H20.8796C21.4273 34.5101 21.8714 34.066 21.8714 33.5183V30.6756C22.6014 30.4426 23.3115 30.148 23.9944 29.7948L26.0056 31.8059C26.3929 32.1932 27.0209 32.1932 27.4083 31.8059L31.9153 27.2988C32.3026 26.9115 32.3026 26.2835 31.9153 25.8961L29.9041 23.8849C30.2575 23.202 30.552 22.492 30.7851 21.762H33.6277C34.1754 21.762 34.6195 21.3179 34.6195 20.7702V14.3961C34.6195 13.8484 34.1755 13.4043 33.6277 13.4043ZM32.6358 19.7783H30.0389C29.5864 19.7783 29.1911 20.0847 29.0784 20.523C28.8054 21.5843 28.3824 22.604 27.8211 23.5537C27.5908 23.9434 27.6535 24.4396 27.9736 24.7597L29.8114 26.5974L26.7069 29.7019L24.8692 27.8642C24.5491 27.5442 24.053 27.4815 23.6633 27.7116C22.7136 28.2727 21.6938 28.6958 20.6323 28.969C20.194 29.0818 19.8877 29.477 19.8877 29.9295V32.5265H15.4974V29.9296C15.4974 29.477 15.1911 29.0819 14.7528 28.9691C13.6916 28.696 12.6719 28.2729 11.722 27.7117C11.3323 27.4813 10.8362 27.5442 10.5162 27.8643L8.67843 29.702L5.5738 26.5974L7.41149 24.7597C7.73152 24.4396 7.79433 23.9435 7.5641 23.5539C7.00293 22.6041 6.57982 21.5843 6.30661 20.5229C6.19381 20.0847 5.79867 19.7783 5.34614 19.7783H2.74925V15.388H5.34614C5.79867 15.388 6.19381 15.0816 6.30661 14.6434C6.57989 13.5819 7.00293 12.5622 7.5641 11.6124C7.79433 11.2227 7.73152 10.7266 7.41149 10.4066L5.5738 8.56886L8.67836 5.46442L10.5161 7.30212C10.8361 7.62214 11.3322 7.68496 11.7219 7.45472C12.6717 6.89356 13.6914 6.47051 14.7528 6.1973C15.1911 6.0845 15.4974 5.68936 15.4974 5.23683V2.63987H19.8878V5.23677C19.8878 5.68936 20.1941 6.08444 20.6323 6.19724C21.6938 6.47045 22.7136 6.89349 23.6634 7.45466C24.053 7.68489 24.5491 7.62207 24.8692 7.30205L26.707 5.46435L29.8114 8.56879L27.9737 10.4066C27.6536 10.7266 27.5909 11.2228 27.8212 11.6125C28.3824 12.5622 28.8055 13.5818 29.0785 14.6432C29.1913 15.0815 29.5865 15.3879 30.0391 15.3879H32.6358V19.7783Z" fill="#17AEBF" stroke="#17AEBF" stroke-width="0.5"/>
<path d="M22.2003 11.906C21.7712 11.5654 21.1475 11.637 20.8068 12.0661L18.0347 15.5579C17.9229 15.5393 17.8088 15.5292 17.6932 15.5292C16.5606 15.5292 15.6389 16.4506 15.6387 17.5836C15.6389 18.7161 16.5606 19.6374 17.6932 19.6374C18.2418 19.6374 18.7576 19.4238 19.1455 19.036C19.5335 18.648 19.7472 18.132 19.747 17.5834C19.7471 17.3067 19.6925 17.0383 19.5888 16.7904L22.3603 13.2994C22.701 12.8705 22.6293 12.2465 22.2003 11.906Z" fill="#17AEBF" stroke="#17AEBF" stroke-width="0.5"/>
</svg>
