<svg width="53" height="42" viewBox="0 0 53 42" fill="none" xmlns="http://www.w3.org/2000/svg">
<path d="M52.0793 16.4239L43.0098 3.51788C42.4049 2.65701 41.128 2.65883 40.5243 3.51788L37.0726 8.42975C33.1648 3.38046 27.2363 0.538086 21.0102 0.538086C9.81721 0.538086 0.710938 9.64436 0.710938 20.8374C0.710938 32.0305 9.81721 41.1368 21.0103 41.1368C26.2261 41.1368 31.151 39.1487 34.8686 35.67L34.7748 37.19C34.7208 38.0641 35.416 38.8026 36.2908 38.8026H47.2434C48.1193 38.8026 48.8134 38.0631 48.7595 37.19L47.6245 18.8161H50.8367C52.066 18.8161 52.7849 17.4279 52.0793 16.4239ZM21.0103 38.0989C11.4923 38.0989 3.74886 30.3554 3.74886 20.8374C3.74886 11.3195 11.4923 3.57601 21.0103 3.57601C26.7574 3.57601 32.0022 6.35327 35.2301 11.0518L31.4549 16.4239C30.7481 17.4298 31.4706 18.8162 32.6977 18.8162H35.9099L35.1758 30.6991C31.9426 35.3394 26.6777 38.0989 21.0103 38.0989ZM46.0088 15.7782C45.1329 15.7782 44.4388 16.5177 44.4927 17.3908L45.6278 35.7647H37.9067L39.0418 17.3908C39.0957 16.5167 38.4005 15.7782 37.5257 15.7782H35.6218C36.4892 14.5438 40.8979 8.27016 41.7673 7.03307L47.9128 15.7782H46.0088Z" fill="#17AEBF"/>
<path d="M22.9267 19.3185H19.0924C18.0312 19.3185 17.1678 18.4552 17.1678 17.394C17.1678 16.3292 18.0298 15.4695 19.092 15.4695C19.1007 15.4695 19.1092 15.4696 19.1178 15.4696H22.7909C23.6945 15.4781 24.5678 15.9716 25.0699 16.7566L25.0892 16.7869C25.5403 17.4944 26.4792 17.7024 27.1866 17.2514C27.8939 16.8005 28.1019 15.8615 27.6511 15.154L27.6303 15.1215C26.5713 13.4661 24.8435 12.4315 22.5285 12.4315V10.6097C22.5285 9.77084 21.8484 9.09083 21.0096 9.09083C20.1708 9.09083 19.4906 9.77094 19.4906 10.6097V12.4315C18.0391 12.4315 16.7822 12.6948 15.5963 13.8721C14.6506 14.8108 14.1299 16.0616 14.1299 17.3939C14.1299 20.1303 16.3561 22.3564 19.0924 22.3564H22.9267C23.9879 22.3564 24.8512 23.2197 24.8512 24.2808C24.8512 25.3044 24.0404 26.2053 22.9013 26.2053H18.8935C18.1041 26.1979 17.347 25.8283 16.8158 25.1906C16.2787 24.546 15.321 24.459 14.6765 24.9958C14.032 25.5328 13.9448 26.4906 14.4818 27.1351C15.9032 28.8414 17.5575 29.2432 19.4905 29.2432V31.065C19.4905 31.9039 20.1707 32.584 21.0095 32.584C21.8482 32.584 22.5284 31.9038 22.5284 31.065V29.2432C26.0662 29.2432 27.8891 26.751 27.8891 24.2808C27.8893 21.5446 25.6631 19.3185 22.9267 19.3185Z" fill="#17AEBF"/>
</svg>
