<svg width="68" height="66" viewBox="0 0 68 66" fill="none" xmlns="http://www.w3.org/2000/svg">
<path d="M64.9872 52.444H57.5529C56.3442 48.4212 52.6479 45.4648 48.2372 45.4648C43.8264 45.4648 40.1329 48.4212 38.9214 52.444H3.57043C2.02943 52.444 0.778809 53.6947 0.778809 55.2357C0.778809 56.7767 2.02943 58.0273 3.57043 58.0273H38.9213C40.1301 62.0501 43.8263 65.0065 48.2371 65.0065C52.6478 65.0065 56.3413 62.0501 57.5528 58.0273H64.9871C66.5308 58.0273 67.7787 56.7767 67.7787 55.2357C67.7787 53.6947 66.5309 52.444 64.9872 52.444ZM48.2372 59.4232C45.9284 59.4232 44.0497 57.5445 44.0497 55.2357C44.0497 52.927 45.9284 51.0482 48.2372 51.0482C50.5459 51.0482 52.4247 52.927 52.4247 55.2357C52.4247 57.5445 50.5458 59.4232 48.2372 59.4232Z" fill="#131A40"/>
<path d="M64.9872 7.77734H57.5529C56.3413 3.75459 52.6479 0.798218 48.2372 0.798218C43.8264 0.798218 40.1329 3.75459 38.9213 7.77734H3.57043C2.02943 7.77734 0.778809 9.02796 0.778809 10.569C0.778809 12.11 2.02943 13.3606 3.57043 13.3606H38.9213C40.1329 17.3835 43.8263 20.3398 48.2372 20.3398C52.6481 20.3398 56.3414 17.3835 57.5529 13.3607H64.9872C66.5309 13.3607 67.7788 12.1101 67.7788 10.5691C67.7788 9.0281 66.5309 7.77734 64.9872 7.77734ZM48.2372 14.7565C45.9284 14.7565 44.0497 12.8777 44.0497 10.569C44.0497 8.26021 45.9284 6.38146 48.2372 6.38146C50.5459 6.38146 52.4247 8.26021 52.4247 10.569C52.4247 12.8777 50.5458 14.7565 48.2372 14.7565Z" fill="#131A40"/>
<path d="M64.9872 30.1107H29.6363C28.4247 26.088 24.7313 23.1316 20.3206 23.1316C15.9098 23.1316 12.2163 26.088 11.0048 30.1107H3.57043C2.02943 30.1107 0.778809 31.3613 0.778809 32.9023C0.778809 34.4433 2.02943 35.694 3.57043 35.694H11.0047C12.2163 39.7167 15.9097 42.6731 20.3204 42.6731C24.7312 42.6731 28.4247 39.7167 29.6362 35.694H64.9871C66.5308 35.694 67.7787 34.4433 67.7787 32.9023C67.7788 31.3613 66.5309 30.1107 64.9872 30.1107ZM20.3204 37.0898C18.0117 37.0898 16.1329 35.2111 16.1329 32.9023C16.1329 30.5936 18.0117 28.7148 20.3204 28.7148C22.6292 28.7148 24.5079 30.5936 24.5079 32.9023C24.5079 35.2111 22.6292 37.0898 20.3204 37.0898Z" fill="#131A40"/>
</svg>
