<svg width="35" height="35" viewBox="0 0 35 35" fill="none" xmlns="http://www.w3.org/2000/svg">
<path d="M34.3955 14.3791L29.7935 10.5825V6.55314C29.7935 6.00047 29.3455 5.55314 28.7935 5.55314H23.6975L18.3981 1.18114C18.0281 0.87647 17.4948 0.87647 17.1248 1.18114L11.8255 5.55314H6.72947C6.17747 5.55314 5.72947 6.00047 5.72947 6.55314V10.5825L1.12747 14.3791L1.12481 14.3818C0.888741 14.5746 0.761475 14.8698 0.761475 15.1545V33.0478C0.761475 33.5962 1.20487 34.0478 1.76147 34.0478H33.7615C34.3365 34.0478 34.7615 33.5787 34.7615 33.0478V15.1545C34.7615 14.7925 34.5891 14.5704 34.3955 14.3791ZM32.7615 30.7298L24.2041 22.6545C29.4273 19.2101 28.0407 20.1237 32.7615 17.0111V30.7298ZM3.44147 15.0638C4.81467 13.9311 4.31467 14.3437 5.72947 13.1758V16.5725C4.47241 15.7427 3.93901 15.3922 3.44147 15.0638ZM7.72947 7.55314H27.7935V17.8918C18.8195 23.8105 24.5321 20.042 17.7615 24.5078C12.9427 21.3295 15.1201 22.7663 7.72947 17.8918C7.72947 16.665 7.72947 8.7626 7.72947 7.55314ZM17.7615 3.24914L20.5541 5.55314H14.9688L17.7615 3.24914ZM32.0815 15.0638C31.6 15.3816 31.0099 15.7695 29.7935 16.5725C29.7935 16.1641 29.7935 13.5846 29.7935 13.1758C31.2104 14.3454 30.7074 13.9303 32.0815 15.0638ZM2.76147 17.0111C2.76147 17.0111 11.1076 22.5152 11.3188 22.6545L2.76147 30.7298V17.0111ZM13.0335 23.7858L17.2108 26.5405C17.5449 26.7601 17.9781 26.76 18.3121 26.5405L22.4895 23.7858L31.2448 32.0478H4.27814L13.0335 23.7858Z" fill="#131A40" stroke="#131A40" stroke-width="0.4"/>
</svg>
