<svg width="76" height="75" viewBox="0 0 76 75" fill="none" xmlns="http://www.w3.org/2000/svg">
<circle cx="37.7625" cy="37.3634" r="37.3015" fill="#17AEBF"/>
<path d="M54.2454 36.1597L48.7125 33.3933L54.2454 30.6267C55.2351 30.132 55.2361 28.7147 54.2454 28.2192L38.3645 20.2788C37.9855 20.0895 37.5397 20.0895 37.1606 20.2788L21.2798 28.2192C20.2901 28.7142 20.289 30.1315 21.2798 30.6267L26.8127 33.3933L21.2798 36.1597C20.2901 36.6546 20.289 38.0717 21.2798 38.5672L26.8127 41.3338L21.2798 44.1001C20.2901 44.5951 20.289 46.0121 21.2798 46.5076L37.1606 54.448C37.5389 54.637 37.9847 54.6378 38.3645 54.448L54.2454 46.5076C55.2351 46.0127 55.2361 44.5956 54.2454 44.1001L48.7125 41.3338L54.2454 38.5672C55.2351 38.0725 55.2361 36.6551 54.2454 36.1597ZM37.7626 22.9873L50.634 29.4231L37.7626 35.8587L24.8912 29.4231L37.7626 22.9873ZM50.634 45.304L37.7626 51.7396L24.8912 45.304L29.8221 42.8384L37.1606 46.5076C37.5391 46.6966 37.9847 46.6974 38.3645 46.5076L45.703 42.8384L50.634 45.304ZM37.7626 43.7991L24.8912 37.3635L29.8221 34.8979L37.1606 38.5672C37.5391 38.7562 37.9847 38.757 38.3645 38.5672L45.703 34.8979L50.634 37.3635L37.7626 43.7991Z" fill="white"/>
</svg>
